<svg width="500" height="400" viewBox="0 0 500 400" fill="none" xmlns="http://www.w3.org/2000/svg">
<path d="M137.468 301.8H111.45V293.52H137.468V301.8Z" fill="#EBEBEB"/>
<path d="M200.801 220.114H174.782V211.833H200.801V220.114Z" fill="#EBEBEB"/>
<path d="M122.957 312.236L109.859 312.021L103.384 311.932L96.9384 311.903L97.2788 312.243L97.3084 303.963L96.9384 304.333L109.948 304.281L116.452 304.222L122.957 304.14L122.779 303.963L122.957 312.236ZM122.957 312.236L123.134 303.955L123.142 303.785H122.964L116.46 303.704L109.955 303.644L96.9458 303.593H96.5758V303.963L96.6054 312.243V312.584H96.9384L103.502 312.554L110.036 312.465L122.957 312.236Z" fill="#EBEBEB"/>
<path d="M288.117 110.364L275.019 110.149L268.544 110.06L262.099 110.031L262.439 110.371L262.469 102.09L262.099 102.46L275.108 102.409L281.613 102.349L288.117 102.268L287.94 102.09L288.117 110.364ZM288.117 110.364L288.295 102.083L288.302 101.913H288.125L281.62 101.831L275.116 101.772L262.106 101.72H261.736V102.09L261.766 110.371V110.711H262.099L268.663 110.682L275.197 110.593L288.117 110.364Z" fill="#EBEBEB"/>
<path d="M273.599 120.805L260.501 120.59L254.026 120.502L247.58 120.472L247.921 120.812L247.95 112.532L247.58 112.902L260.589 112.85L267.094 112.791L273.599 112.709L273.421 112.532L273.599 120.805ZM273.599 120.805L273.776 112.524L273.784 112.354H273.606L267.101 112.273L260.597 112.214L247.588 112.162H247.218V112.532L247.247 120.812V121.153H247.58L254.144 121.123L260.678 121.034L273.599 120.805Z" fill="#EBEBEB"/>
<path d="M259.147 110.363H233.128V102.083H259.147V110.363Z" fill="#EBEBEB"/>
<path d="M403.064 312.241H377.046V303.961H403.064V312.241Z" fill="#EBEBEB"/>
<path d="M388.55 56.5334H362.532V48.2528H388.55V56.5334Z" fill="#EBEBEB"/>
<path d="M403.062 66.9701L389.964 66.7555L383.489 66.6667L377.043 66.6371L377.384 66.9775L377.413 58.6969L377.043 59.0669L390.052 59.0151L396.557 58.9559L403.062 58.8745L402.884 58.6969L403.062 66.9701ZM403.062 66.9701L403.239 58.6895L403.247 58.5193H403.069L396.564 58.4379L390.06 58.3787L377.051 58.3269H376.681V58.6969L376.71 66.9775V67.3179H377.043L383.607 67.2883L390.141 67.1995L403.062 66.9701Z" fill="#EBEBEB"/>
<path d="M137.468 56.5287L124.37 56.3141L117.895 56.2253L111.45 56.1957L111.79 56.5361L111.82 48.2555L111.45 48.6255L124.459 48.5737L130.964 48.5145L137.468 48.4331L137.291 48.2555L137.468 56.5287ZM137.468 56.5287L137.646 48.2481L137.653 48.0779H137.476L130.971 47.9965L124.466 47.9373L111.457 47.8855H111.087V48.2555L111.117 56.5361V56.8765H111.45L118.014 56.8469L124.548 56.7581L137.468 56.5287Z" fill="#EBEBEB"/>
<path d="M202.81 46.9309V191.216H109.03V46.9309H202.81ZM112.493 187.76H199.354V50.3941H112.493V187.76Z" fill="#EBEBEB"/>
<path d="M112.493 50.394H199.354V187.76H112.493V50.394Z" fill="white"/>
<path d="M199.358 120.808L112.497 120.808V117.345L199.358 117.345V120.808Z" fill="#EBEBEB"/>
<path d="M209.185 201.15H102.662V191.22H209.185V201.15Z" fill="#DBDBDB"/>
<path d="M199.354 50.394H112.493V139.268H199.354V50.394ZM115.697 53.5982H196.15V136.064H115.697V53.5982Z" fill="#DBDBDB"/>
<path d="M140.214 50.394H141.945V136.064H140.214V50.394Z" fill="#DBDBDB"/>
<path d="M169.902 50.394H171.634V136.064H169.902V50.394Z" fill="#DBDBDB"/>
<path d="M390.963 46.9309V191.216H297.182V46.9309H390.963ZM300.638 187.76H387.499V50.3941H300.638V187.76Z" fill="#EBEBEB"/>
<path d="M300.638 50.394H387.499V187.76H300.638V50.394Z" fill="white"/>
<path d="M387.503 120.808L300.642 120.808V117.345L387.503 117.345V120.808Z" fill="#EBEBEB"/>
<path d="M397.338 201.15H290.815V191.22H397.338V201.15Z" fill="#DBDBDB"/>
<path d="M387.507 50.394H300.646V139.268H387.507V50.394ZM303.85 53.5982H384.303V136.064H303.85V53.5982Z" fill="#DBDBDB"/>
<path d="M328.366 50.394H330.098V136.064H328.366V50.394Z" fill="#DBDBDB"/>
<path d="M358.047 50.394H359.779V136.064H358.047V50.394Z" fill="#DBDBDB"/>
<path d="M404.327 344.27L365.743 344.093L327.16 344.026L250 343.9L172.84 344.026L134.257 344.085L95.673 344.27L134.257 344.448L172.84 344.515L250 344.64L327.16 344.515L365.743 344.448L404.327 344.27Z" fill="#263238"/>
<path d="M96.1318 235.587H190.03V248.914H96.1318V235.587Z" fill="#455A64"/>
<path d="M98.3666 248.914H187.788V253.243H98.3666V248.914Z" fill="#455A64"/>
<path d="M98.3666 248.914H187.788V250.35H98.3666V248.914Z" fill="#263238"/>
<path d="M186.908 344.641H190.482L180.077 253.243H170.953L186.908 344.641Z" fill="#455A64"/>
<path d="M170.953 253.243L172.019 259.356H180.773L180.077 253.243H170.953Z" fill="#263238"/>
<path d="M99.2472 344.641H95.673L106.085 253.243H115.209L99.2472 344.641Z" fill="#455A64"/>
<path d="M115.209 253.243L114.136 259.356H105.389L106.085 253.243H115.209Z" fill="#263238"/>
<path d="M120.063 289.592C120.692 292.271 121.358 294.905 121.492 297.658C121.418 297.791 121.432 298.294 121.514 298.154C121.529 298.598 122.202 298.516 122.202 298.08C122.195 297.791 122.187 297.51 122.172 297.236C123.749 295.282 126.035 294.039 127.885 292.337C129.38 290.961 130.453 289.318 131.015 287.357C132.547 282.073 131.112 276.472 132.954 271.195C134.545 266.652 137.394 262.7 139.814 258.578C142.36 254.22 144.239 249.647 144.432 244.548C144.58 240.641 144.113 235.439 141.139 232.508C137.986 229.4 134.079 231.731 131.659 234.499C124.659 242.535 121.418 252.688 120.108 263.07C119.383 268.82 118.635 274.599 118.805 280.401C118.909 283.516 119.353 286.565 120.063 289.592Z" fill="#FFC727"/>
<path d="M121.455 299.767C121.092 294.335 121.114 288.896 121.647 283.487C121.64 283.464 121.617 283.457 121.617 283.427C121.529 279.024 121.181 274.644 121.351 270.241C121.536 265.453 122.239 260.761 123.29 256.092C123.305 256.04 123.386 256.047 123.379 256.107C122.513 260.658 122.017 265.312 121.847 269.945C121.758 272.431 121.773 274.917 121.906 277.404C121.95 278.21 122.024 279.024 122.076 279.838V279.831C123.852 267.451 128.425 255.7 135.167 245.184C135.256 245.044 135.515 245.192 135.426 245.34C130.564 253.272 126.982 261.99 124.77 271.032C128.137 264.794 133.221 259.666 136.995 253.672C137.017 253.642 137.069 253.672 137.054 253.709C133.665 260.384 128.063 265.645 124.496 272.216C123.874 274.895 123.371 277.604 122.994 280.319C122.476 284.056 122.232 287.816 122.18 291.582C124.23 287.749 126.361 284.079 128.033 280.031C128.078 279.92 128.233 279.994 128.196 280.105C126.768 284.315 124.851 288.852 122.165 292.441C122.15 295.105 122.232 297.776 122.387 300.433C122.809 307.537 124.022 314.552 124.577 321.634C124.592 321.848 124.296 321.87 124.252 321.671C122.787 314.515 121.943 307.048 121.455 299.767Z" fill="#263238"/>
<path d="M129.003 244.955C129.025 244.903 129.099 244.94 129.084 244.992C127.789 248.581 127.049 252.222 126.117 255.899C126.072 256.07 125.828 256.033 125.85 255.855C126.228 252.118 127.56 248.396 129.003 244.955Z" fill="#263238"/>
<path d="M96.043 259.999C96.8866 262.108 97.93 264.151 99.0252 266.134C101.364 270.381 103.798 274.266 104.242 279.21C104.442 281.415 104.509 283.635 105.182 285.759C105.767 287.601 106.706 289.296 107.794 290.887C110.325 294.579 113.492 297.761 115.845 301.587C118.287 305.568 120.093 309.949 121.196 314.485C121.255 314.737 121.647 314.67 121.588 314.419C121.58 314.397 121.573 314.382 121.573 314.36C121.58 314.345 121.595 314.337 121.595 314.308C121.965 303.711 121.122 293.025 117.888 282.873C116.474 278.433 114.728 274.015 112.752 269.797C111.021 266.112 108.86 262.574 105.818 259.822C103.843 258.046 99.5654 254.679 96.7608 256.462C95.4066 257.32 95.5102 258.675 96.043 259.999Z" fill="#FFC727"/>
<path d="M106.692 284.027C108.512 287.135 110.665 290.028 112.848 292.877C113.877 294.217 114.913 295.549 115.942 296.888C116.423 297.525 116.97 298.154 117.414 298.834C117.133 297.717 116.859 296.607 116.578 295.49C115.209 290.132 113.899 284.73 111.857 279.58C109.866 274.548 107.217 269.819 104.501 265.15C104.427 265.024 104.627 264.935 104.701 265.053C106.943 268.739 109.215 272.416 111.095 276.301C112.145 278.47 113.033 280.704 113.81 282.976C112.893 278.107 111.798 273.43 110.199 268.724C110.184 268.679 110.244 268.65 110.266 268.694C112.219 273.319 113.625 278.514 114.018 283.524C114.018 283.531 114.01 283.539 114.01 283.546C114.469 284.922 114.891 286.314 115.283 287.712C116.955 293.64 118.421 299.634 119.775 305.65C119.753 301.676 119.501 297.784 118.754 293.862C118.739 293.773 118.872 293.751 118.894 293.839C119.878 297.872 120.322 302.12 119.915 306.264C120.426 308.551 120.929 310.837 121.418 313.131C122.461 318.015 123.741 322.988 124.348 327.953C124.363 328.079 124.185 328.109 124.156 327.983C123.43 325.312 122.986 322.537 122.394 319.828C121.795 317.112 121.181 314.404 120.552 311.696C119.634 307.751 118.665 303.822 117.688 299.893C117.029 298.45 115.764 297.177 114.809 295.963C113.766 294.639 112.723 293.314 111.709 291.967C109.822 289.459 108.083 286.854 106.61 284.071C106.566 284.012 106.662 283.968 106.692 284.027Z" fill="#263238"/>
<path d="M106.24 279.491C108.542 282.443 110.628 285.707 112.264 289.066C112.286 289.111 112.219 289.155 112.19 289.111C110.162 285.929 108.164 282.724 106.144 279.55C106.114 279.498 106.203 279.446 106.24 279.491Z" fill="#263238"/>
<path d="M151.358 270.048C149.982 272.416 148.42 275.258 149.005 278.092C149.382 279.89 150.692 281.348 150.929 283.183C151.462 287.231 147.429 289.91 144.506 291.819C137.231 296.592 127.249 300.855 125.924 310.6C125.872 310.948 125.28 310.859 125.317 310.519C125.317 310.497 125.325 310.475 125.332 310.452C125.317 310.43 125.295 310.423 125.295 310.393C124.355 305.45 124.378 300.418 125.428 295.497C126.516 290.472 128.707 285.951 131.297 281.541C135.677 274.067 140.317 266.415 146.94 260.695C148.775 259.111 152.527 256.262 153.985 259.836C155.413 263.322 153.038 267.162 151.358 270.048Z" fill="#FFC727"/>
<path d="M144.698 285.892C139.873 291.116 132.199 294.047 128.048 299.893C130.512 290.924 134.582 282.858 140.843 275.857C141.005 275.68 140.754 275.421 140.576 275.591C135.988 279.994 132.599 285.152 130.12 290.739C131.237 286.75 132.791 282.976 134.619 279.224C134.686 279.084 134.486 278.958 134.405 279.099C132.074 283.072 130.52 287.542 129.55 292.041C124.074 305.287 123.571 320.827 124.718 334.791C124.733 334.991 125.036 334.998 125.036 334.791C124.725 323.787 124.903 312.591 127.537 301.839C127.589 301.617 127.656 301.395 127.708 301.173C132.229 294.875 139.866 291.952 144.779 285.973C144.831 285.914 144.75 285.833 144.698 285.892Z" fill="#263238"/>
<path d="M145.815 281.4C143.285 283.724 140.791 286.099 138.253 288.423C138.23 288.445 138.26 288.489 138.29 288.474C141.05 286.61 143.854 284.138 145.971 281.555C146.052 281.452 145.919 281.311 145.815 281.4Z" fill="#263238"/>
<path d="M146.215 271.336C143.914 275.021 141.501 278.484 138.637 281.763C138.6 281.807 138.66 281.866 138.704 281.829C141.782 278.869 144.513 275.28 146.356 271.417C146.393 271.321 146.267 271.247 146.215 271.336Z" fill="#263238"/>
<path d="M134.812 344.64H112.626L115.616 314.789H131.393L134.812 344.64Z" fill="#455A64"/>
<path d="M131.955 319.643H115.128L115.616 314.789H131.393L131.955 319.643Z" fill="#263238"/>
<path d="M134.115 316.247H113.321V311.481H134.115V316.247Z" fill="#455A64"/>
<path d="M375.504 141.103H379.5V340.644H375.504V141.103Z" fill="#263238"/>
<path d="M309.36 70.5415L404.326 165.507L401.5 168.332L306.535 73.367L309.36 70.5415Z" fill="#263238"/>
<path d="M399.166 340.644V344.64H355.839V340.644H399.166Z" fill="#263238"/>
<path d="M306.129 85.2703L292.735 72.6903L305.345 62.4487L315.379 71.8763L306.129 85.2703Z" fill="#FFC727"/>
<path opacity="0.1" d="M292.735 72.6903L306.129 85.2703L309.807 79.9423L298.322 68.1541L292.735 72.6903Z" fill="black"/>
<path d="M307.513 106.279L271.371 72.313L288.635 63.0186L315.719 88.4746L307.513 106.279Z" fill="#FFC727"/>
<path opacity="0.6" d="M166.521 213.734C166.521 213.734 179.36 207.822 179.36 199.889C179.36 191.956 162.702 186.858 162.702 180.656C162.702 174.455 169.969 170.814 169.969 170.814C169.969 170.814 158.499 174.736 158.499 182.573C158.499 190.41 169.481 195.723 170.531 200.71C171.989 207.637 166.521 213.734 166.521 213.734Z" fill="#DBDBDB"/>
<path opacity="0.6" d="M167.157 213.735C167.157 213.735 154.318 209.08 154.318 202.849C154.318 196.611 170.975 192.6 170.975 187.724C170.975 182.847 163.709 179.983 163.709 179.983C163.709 179.983 175.179 183.062 175.179 189.226C175.179 195.39 162.569 199.63 161.666 204.633C160.786 209.554 167.157 213.735 167.157 213.735Z" fill="#DBDBDB"/>
<path d="M160.549 233.677H172.766V235.587H160.549V233.677Z" fill="#FFC727"/>
<path opacity="0.1" d="M160.549 233.677H172.766V234.935H160.549V233.677Z" fill="black"/>
<path d="M146.045 228.549C147.488 230.577 150.048 232.035 152.927 231.494C153.334 231.42 153.748 231.302 154.163 231.139C154.732 230.917 155.302 230.621 155.887 230.229L154.333 227.928C154.015 228.15 153.711 228.32 153.415 228.446C150.507 229.763 148.664 227.469 148.302 226.951C146.629 224.598 146.03 219.225 147.725 217.153C147.836 216.998 148.324 216.761 150.292 217.175C150.655 217.257 151.069 217.346 151.536 217.479C152.054 217.627 152.357 217.708 152.653 217.723L152.705 216.339L152.838 214.963C152.712 214.941 152.512 214.881 152.253 214.807C151.513 214.608 150.514 214.334 149.478 214.23C148.028 214.082 146.511 214.252 145.586 215.399C142.833 218.774 143.951 225.604 146.045 228.549Z" fill="#FFC727"/>
<path opacity="0.1" d="M154.34 227.927C154.022 228.149 153.719 228.32 153.423 228.445L154.163 231.132C154.732 230.91 155.302 230.614 155.887 230.221L154.34 227.927Z" fill="black"/>
<path opacity="0.1" d="M149.486 214.23L150.307 217.175C150.67 217.257 151.084 217.346 151.55 217.479C152.068 217.627 152.372 217.708 152.668 217.723L152.72 216.339L152.853 214.963C152.727 214.941 152.527 214.881 152.268 214.807C151.521 214.608 150.522 214.341 149.486 214.23Z" fill="black"/>
<path d="M182.904 210.634C182.904 210.634 182.801 211.544 182.586 212.98C182.549 213.202 182.519 213.439 182.482 213.675C182.342 214.66 182.149 215.829 181.927 217.079C181.92 217.146 181.898 217.22 181.89 217.301C181.565 219.1 181.173 221.061 180.714 222.903C180.692 222.992 180.669 223.066 180.647 223.14C180.521 223.636 180.388 224.124 180.255 224.59C180.122 225.057 179.981 225.515 179.833 225.959C179.537 226.84 179.234 227.639 178.908 228.32C176.377 233.559 172.84 234.144 170.65 234.144C168.452 234.144 168.652 234.144 166.654 234.144C164.656 234.144 164.863 234.144 162.658 234.144C160.467 234.144 156.93 233.559 154.407 228.32C154.333 228.157 154.251 227.987 154.177 227.802C154.118 227.676 154.059 227.543 154.015 227.41C153.955 227.277 153.904 227.143 153.852 226.995C153.815 226.899 153.778 226.796 153.741 226.699C153.252 225.36 152.816 223.784 152.431 222.156C152.409 222.089 152.394 222.03 152.387 221.963C152.379 221.934 152.379 221.919 152.364 221.889C152.209 221.238 152.068 220.58 151.935 219.928C151.706 218.855 151.506 217.805 151.336 216.806C151.262 216.347 151.18 215.895 151.106 215.466C151.084 215.34 151.069 215.229 151.047 215.111C151.003 214.822 150.951 214.534 150.914 214.267C150.877 214.001 150.84 213.742 150.796 213.49C150.759 213.239 150.729 213.002 150.692 212.78C150.5 211.448 150.403 210.619 150.403 210.619H182.904V210.634Z" fill="#FFC727"/>
<path opacity="0.1" d="M181.898 217.301C181.572 219.1 181.18 221.061 180.721 222.903C180.521 222.933 180.322 222.97 180.122 223.022C179.16 223.251 178.213 223.643 177.376 224.206C176.533 224.753 175.793 225.441 175.082 226.115C174.365 226.796 173.662 227.484 172.855 228.009C172.048 228.535 171.131 228.853 170.176 228.882C169.251 228.927 168.408 228.387 167.742 227.728C167.053 227.047 166.476 226.255 165.914 225.456C165.351 224.65 164.789 223.828 164.116 223.066C163.783 222.696 163.405 222.333 162.991 222.03C162.769 221.889 162.525 221.771 162.28 221.667C162.014 221.623 161.755 221.497 161.489 221.534C160.941 221.49 160.43 221.697 159.957 221.919C159.505 222.178 159.098 222.474 158.736 222.829C157.988 223.51 157.359 224.28 156.701 225.012C156.042 225.708 155.347 226.477 154.436 226.692C154.207 226.751 153.978 226.759 153.748 226.722C153.26 225.382 152.823 223.806 152.438 222.178C152.697 222.111 152.964 222.045 153.223 221.956C154.17 221.638 155.065 221.149 155.842 220.513C156.627 219.884 157.293 219.137 157.944 218.389C158.595 217.642 159.224 216.887 159.972 216.288C160.719 215.688 161.607 215.281 162.554 215.163C163.472 215.03 164.36 215.488 165.1 216.08C165.847 216.68 166.484 217.42 167.127 218.167C167.779 218.915 168.415 219.677 169.155 220.372C169.518 220.72 169.932 221.031 170.376 221.29C170.605 221.416 170.864 221.497 171.109 221.586C171.375 221.608 171.656 221.697 171.923 221.645C172.47 221.638 172.959 221.371 173.395 221.112C173.817 220.816 174.209 220.469 174.535 220.091C175.216 219.344 175.756 218.515 176.348 217.731C176.932 216.968 177.554 216.147 178.435 215.829C179.33 215.511 180.292 216.014 181.032 216.606C181.321 216.813 181.609 217.05 181.898 217.301Z" fill="black"/>
<path d="M181.935 217.079C181.927 217.146 181.905 217.22 181.898 217.301C181.609 217.05 181.321 216.813 181.025 216.584C180.277 215.992 179.323 215.496 178.427 215.807C177.547 216.125 176.925 216.946 176.34 217.708C175.748 218.493 175.201 219.322 174.527 220.069C174.202 220.454 173.81 220.794 173.388 221.09C172.951 221.349 172.463 221.616 171.915 221.623C171.649 221.682 171.368 221.586 171.101 221.564C170.85 221.475 170.598 221.394 170.369 221.268C169.917 221.009 169.51 220.691 169.148 220.35C168.415 219.655 167.771 218.885 167.12 218.145C166.476 217.398 165.84 216.665 165.092 216.058C164.36 215.466 163.464 215.007 162.547 215.141C161.6 215.266 160.712 215.666 159.964 216.265C159.217 216.865 158.588 217.62 157.937 218.367C157.285 219.114 156.619 219.862 155.835 220.491C155.058 221.135 154.163 221.616 153.215 221.934C152.956 222.023 152.69 222.089 152.431 222.156C152.409 222.089 152.394 222.03 152.387 221.963C152.638 221.889 152.89 221.808 153.141 221.712C155.014 221.083 156.442 219.655 157.655 218.13C158.284 217.375 158.921 216.591 159.713 215.94C160.497 215.296 161.474 214.852 162.488 214.704C163.575 214.541 164.604 215.074 165.374 215.696C166.18 216.325 166.839 217.079 167.49 217.827C168.141 218.574 168.763 219.336 169.458 220.01C170.154 220.654 170.975 221.283 171.886 221.179C172.803 221.135 173.595 220.498 174.231 219.78C174.883 219.063 175.445 218.249 176.059 217.464C176.681 216.709 177.332 215.851 178.353 215.503C178.856 215.318 179.411 215.407 179.892 215.592C180.373 215.777 180.788 216.073 181.18 216.384C181.439 216.621 181.683 216.843 181.935 217.079Z" fill="white"/>
<path d="M180.721 222.903C180.699 222.992 180.677 223.066 180.655 223.14C180.492 223.169 180.329 223.206 180.174 223.243C178.25 223.695 176.696 224.968 175.327 226.366C174.631 227.062 173.928 227.78 173.077 228.342C172.226 228.904 171.22 229.26 170.191 229.297C169.103 229.363 168.126 228.734 167.416 228.031C166.683 227.321 166.099 226.514 165.514 225.708C164.952 224.894 164.404 224.072 163.768 223.347C163.146 222.637 162.384 221.934 161.474 221.941C160.556 221.904 159.705 222.459 159.01 223.11C158.292 223.761 157.655 224.516 156.967 225.234C156.279 225.922 155.554 226.714 154.503 226.966C154.296 227.01 154.074 227.025 153.859 226.995C153.822 226.899 153.785 226.795 153.748 226.699C153.978 226.736 154.207 226.729 154.436 226.67C155.347 226.448 156.042 225.685 156.701 224.99C157.359 224.265 157.988 223.488 158.736 222.807C159.098 222.452 159.513 222.156 159.957 221.897C160.423 221.675 160.941 221.467 161.489 221.512C161.755 221.475 162.014 221.601 162.28 221.645C162.517 221.749 162.769 221.867 162.991 222.008C163.413 222.304 163.783 222.666 164.116 223.044C164.782 223.806 165.351 224.627 165.914 225.434C166.476 226.24 167.053 227.032 167.742 227.706C168.408 228.364 169.251 228.912 170.176 228.86C171.131 228.83 172.048 228.512 172.855 227.987C173.662 227.461 174.365 226.773 175.082 226.092C175.793 225.412 176.533 224.723 177.376 224.183C178.205 223.621 179.152 223.229 180.122 222.999C180.314 222.97 180.514 222.933 180.721 222.903Z" fill="white"/>
<path d="M310.021 298.708L366.528 344.27H363.338L298.085 298.708H310.021Z" fill="#C7C7C7"/>
<path d="M304.716 298.708L332.636 344.27H329.454L295.229 298.708H304.716Z" fill="#C7C7C7"/>
<path d="M291.026 298.708L263.105 344.27H266.287L300.512 298.708H291.026Z" fill="#C7C7C7"/>
<path d="M286.149 298.708L229.643 344.27H232.832L298.085 298.708H286.149Z" fill="#C7C7C7"/>
<path d="M191.843 281.999V268.672L269.44 265.482L310.421 156.059H404.327L371.101 281.999L291.721 304.281H286.748L191.843 281.999Z" fill="#455A64"/>
<path d="M404.327 156.059H393.582L358.965 270.855L288.732 290.753L191.843 268.672V281.999L286.748 304.281H291.721L371.101 281.999L404.327 156.059Z" fill="#37474F"/>
<path d="M134.782 343.812C137.283 343.871 202.218 323.795 204.209 321.471C204.423 321.212 203.41 311.599 201.73 303.963C201.648 303.6 224.788 273.282 224.788 273.282L182.956 257.01L162.946 298.472L157.737 309.254C157.737 309.254 136.077 331.032 134.16 333.822C132.266 336.619 132.281 343.76 134.782 343.812Z" fill="#EBEBEB"/>
<path d="M132.954 344.182C135.566 344.248 203.35 323.558 205.437 321.138C206.236 320.22 205.023 316.032 201.73 303.97L157.285 309.32C157.285 309.32 134.345 330.862 132.347 333.762C130.364 336.656 130.349 344.108 132.954 344.182Z" fill="#FFC727"/>
<path d="M133.102 341.17C144.38 337.425 190.223 323.373 201.656 320.524C201.752 320.502 201.767 320.561 201.678 320.598C190.578 324.557 144.624 338.232 133.161 341.362C132.917 341.421 132.865 341.251 133.102 341.17Z" fill="#263238"/>
<path d="M135.966 329.988C138.63 329.056 141.649 329.53 143.61 330.691C145.49 331.801 147.362 333.6 147.998 335.982C148.013 336.049 147.895 336.093 147.858 336.027C145.852 331.779 140.613 329.108 136.003 330.136C135.914 330.151 135.877 330.025 135.966 329.988Z" fill="#263238"/>
<path d="M152.705 313.805C157.234 312.354 162.998 312.347 166.957 315.203C167.113 315.314 166.95 315.529 166.794 315.499C162.036 314.633 157.648 314.249 152.794 314.382C152.453 314.397 152.379 313.908 152.705 313.805Z" fill="#263238"/>
<path d="M149.612 316.239C154.14 314.789 159.905 314.781 163.864 317.638C164.019 317.749 163.857 317.963 163.701 317.934C158.943 317.068 154.555 316.683 149.7 316.816C149.36 316.839 149.286 316.343 149.612 316.239Z" fill="#263238"/>
<path d="M146.518 318.681C151.047 317.231 156.812 317.224 160.771 320.08C160.926 320.191 160.763 320.406 160.608 320.376C155.85 319.51 151.462 319.125 146.607 319.259C146.267 319.273 146.193 318.785 146.518 318.681Z" fill="#263238"/>
<path d="M143.425 321.123C147.954 319.673 153.719 319.665 157.678 322.522C157.833 322.633 157.67 322.847 157.515 322.818C152.757 321.952 148.368 321.567 143.514 321.7C143.174 321.715 143.1 321.227 143.425 321.123Z" fill="#263238"/>
<path d="M144.084 303.163C145.801 300.551 149.271 301.535 151.299 303.082C154.577 305.591 157.53 309.609 158.98 313.449C159.017 313.546 158.95 313.605 158.876 313.62C158.876 313.975 158.58 314.367 158.173 314.234C154.251 312.983 149.9 312.132 146.481 309.712C144.483 308.306 142.456 305.635 144.084 303.163ZM152.616 311.126C154.533 311.784 156.464 312.354 158.351 313.087C156.849 311.067 155.435 308.995 153.733 307.13C152.919 306.242 152.068 305.339 151.136 304.569C149.686 303.371 144.062 300.929 145.12 306.02C145.704 308.824 150.329 310.341 152.616 311.126Z" fill="#263238"/>
<path d="M170.79 311.688C167.016 313.508 162.584 313.627 158.514 314.211C158.092 314.271 157.863 313.834 157.922 313.486C157.848 313.457 157.796 313.383 157.848 313.301C159.912 309.749 163.494 306.279 167.142 304.347C169.399 303.156 172.981 302.764 174.246 305.627C175.438 308.328 172.996 310.63 170.79 311.688ZM172.751 308.262C174.638 303.422 168.689 304.895 167.061 305.835C166.017 306.441 165.026 307.189 164.071 307.929C162.081 309.483 160.349 311.296 158.529 313.035C160.512 312.628 162.517 312.391 164.515 312.051C166.891 311.658 171.708 310.933 172.751 308.262Z" fill="#263238"/>
<path d="M160.83 300.418L206.947 307.233C206.947 307.233 232.114 261.538 242.274 250.172L242.297 250.15C242.963 249.402 243.584 248.796 244.154 248.337L244.176 248.329C244.82 247.959 245.945 247.686 247.506 247.501L247.528 247.493C261.167 245.836 307.054 250.298 338.77 248.248L323.963 228.453L317.399 219.669C281.672 215.592 237.834 200.984 218.047 210.915C196.55 221.689 160.83 300.418 160.83 300.418Z" fill="#263238"/>
<path d="M166.609 292.581C174.446 293.588 172.211 293.196 180.04 294.291C183.874 294.824 203.128 297.465 206.621 298.561C206.695 298.583 206.68 298.709 206.599 298.709C202.943 298.738 183.748 295.682 179.922 295.075C172.115 293.839 174.372 294.113 166.58 292.796C166.432 292.774 166.461 292.567 166.609 292.581Z" fill="#37474F"/>
<path d="M206.71 297.917C211.927 289.192 235.688 246.124 240.417 244.429C244.724 242.883 330.852 244.674 332.125 244.688C332.214 244.688 332.221 244.829 332.133 244.829C321.935 244.696 243.214 244.422 240.965 245.31C236.295 247.153 207.879 297.117 207.184 298.161C206.999 298.427 206.532 298.213 206.71 297.917Z" fill="#37474F"/>
<path d="M362.85 230.229C362.85 230.229 365.573 256.203 352.394 269.116C336.624 284.574 232.551 280.667 216.419 275.458C200.287 270.248 199.784 244.215 217.418 238.184C234.186 232.449 308.556 229.148 310.317 228.445C312.079 227.742 317.236 219.514 317.236 219.514L362.85 230.229Z" fill="#263238"/>
<path d="M340.828 229.496C340.85 229.37 341.042 229.415 341.042 229.533C341.027 232.811 342.241 236.267 344.394 238.754C346.866 241.603 350.507 243.201 353.807 244.873C354.125 245.036 353.881 245.532 353.556 245.428C351.543 244.822 349.56 243.948 347.724 242.92C346.052 241.98 344.513 240.803 343.344 239.279C341.183 236.452 340.243 233.011 340.828 229.496Z" fill="#37474F"/>
<path d="M311.028 226.832C311.76 225.892 312.567 224.997 313.337 224.079C315.157 221.919 316.977 219.743 318.887 217.656C319.064 217.456 319.419 217.738 319.257 217.952C317.976 219.632 316.615 221.253 315.283 222.888C314.602 223.724 313.914 224.56 313.218 225.397C312.574 226.174 311.775 226.943 311.294 227.839C310.798 228.771 311.45 229.563 312.412 229.666C313.277 229.755 314.069 229.319 314.735 228.815C316.237 227.661 317.421 226.018 318.672 224.605C319.434 223.746 320.204 222.881 320.981 222.037C321.81 221.134 322.69 220.276 323.512 219.373C323.563 219.314 323.667 219.395 323.623 219.462C322.905 220.446 322.239 221.482 321.514 222.474C320.796 223.465 320.063 224.442 319.316 225.411C318.613 226.329 317.88 227.232 317.133 228.112C316.496 228.86 315.771 229.592 314.92 230.096C313.536 230.91 311.146 231.08 310.414 229.296C310.029 228.416 310.488 227.528 311.028 226.832Z" fill="#37474F"/>
<path d="M218.624 275.554C224.174 275.658 229.724 275.983 235.281 276.102C240.787 276.22 246.3 276.25 251.813 276.198C262.876 276.094 273.939 275.672 284.98 274.91C296.139 274.141 308.171 273.031 319.249 271.491C324.555 270.759 329.927 270.145 335.167 269.02C339.895 268.006 344.18 266.038 347.724 262.604C354.902 255.641 357.692 245.406 358.839 235.631C358.995 234.321 359.12 233.004 359.224 231.687C359.231 231.598 359.365 231.598 359.357 231.687C358.706 241.714 357.152 252.17 350.847 260.229C348.117 263.714 344.646 266.57 340.576 268.206C335.611 270.196 330.105 270.663 324.866 271.373C313.736 272.883 301.659 274.044 290.471 274.918C279.208 275.791 267.923 276.338 256.63 276.501C245.338 276.671 234.038 276.509 222.753 275.954C221.377 275.887 220 275.806 218.624 275.687C218.543 275.68 218.55 275.554 218.624 275.554Z" fill="#37474F"/>
<path d="M203.802 251.289C204.86 246.886 207.509 243.194 211.239 240.648C215.235 237.917 220.015 236.674 224.751 235.986C230.109 235.209 235.526 234.809 240.913 234.284C251.961 233.211 263.017 232.219 274.08 231.309C285.135 230.399 308.948 228.549 310.288 228.497C310.406 228.49 310.428 228.69 310.31 228.704C299.639 229.888 289.93 230.91 279.23 231.879C268.485 232.856 257.74 233.877 247.003 234.943C241.653 235.468 236.303 236.008 230.952 236.556C225.994 237.066 220.896 237.57 216.249 239.486C212.26 241.129 208.678 243.771 206.643 247.648C204.675 251.4 204.268 255.877 205.052 259.999C205.785 263.825 207.583 267.554 210.21 270.44C212.8 273.282 216.086 275.458 219.875 276.279C220.851 276.486 222.035 276.642 222.931 276.819C222.997 276.834 223.071 276.975 222.997 276.982C215.005 277.182 207.613 271.351 204.719 264.047C203.143 260.021 202.788 255.5 203.802 251.289Z" fill="#37474F"/>
<path d="M331.777 166.315C326.486 187.05 315.978 211.803 311.649 215.762C306.173 220.764 272.696 227.328 270.927 227.498C268.026 227.779 262.04 197.935 264.748 197.994C271.911 198.157 293.978 195.908 295.562 194.361C297.205 192.74 308.416 179.28 319.974 164.051C327.944 153.528 335.056 153.454 331.777 166.315Z" fill="#FEA574"/>
<path d="M273.636 226.262C273.147 226.492 266.265 229.755 262.025 230.873C258.865 231.709 249.697 233.87 248.431 230.473C247.565 228.164 252.805 226.255 256.482 224.827C258.421 224.072 260.826 222.126 260.293 220.875C259.354 218.7 254.366 220.742 251.08 222.548C244.716 226.04 236.199 232.404 232.44 229.134C231.019 227.898 232.758 225.744 235.267 223.65C231.211 226.063 226.905 228.009 225.269 226.699C224.329 225.952 224.315 224.953 224.87 223.828C223.626 224.198 222.539 224.094 221.799 223.273C220.533 221.882 221.214 219.891 222.687 217.871C222.235 217.812 221.828 217.567 221.525 217.064C218.876 212.809 232.928 201.102 237.716 200.089C251.798 197.099 266.539 198.068 266.539 198.068C271.941 202.612 273.65 226.248 273.636 226.262Z" fill="#FEA574"/>
<path d="M253.36 212.876C250.052 213.312 246.774 214.467 243.932 216.25C240.328 218.507 237.908 221.193 234.86 223.887C234.778 223.961 234.889 224.087 234.971 224.013C236.421 222.733 242.422 217.937 243.969 216.857C246.803 214.866 249.948 213.497 253.374 212.942C253.404 212.928 253.389 212.868 253.36 212.876Z" fill="#263238"/>
<path d="M250.888 206.867C247.181 207.785 243.392 208.71 239.929 210.367C236.147 212.18 233.143 215.222 230.198 218.137C228.429 219.891 226.69 221.682 225.003 223.517C224.929 223.591 225.032 223.717 225.114 223.643C228.103 220.624 231.189 217.693 234.364 214.867C237.346 212.203 240.654 210.19 244.428 208.858C246.552 208.103 248.735 207.518 250.91 206.934C250.94 206.926 250.932 206.86 250.888 206.867Z" fill="#263238"/>
<path d="M247.084 201.576C243.488 202.227 240.358 202.775 237.146 204.618C232.891 207.052 228.747 211.233 227.289 212.713C225.684 214.349 224.13 216.036 222.605 217.753C222.546 217.819 222.664 217.93 222.724 217.864C226.209 214.127 229.953 210.582 233.89 207.326C235.77 205.772 237.812 204.425 240.084 203.508C242.334 202.605 244.731 202.116 247.092 201.613C247.099 201.598 247.099 201.576 247.084 201.576Z" fill="#263238"/>
<path d="M267.087 195.996L277.151 230.754C277.151 230.754 306.832 223.043 312.36 217.368C317.888 211.684 328.551 181.922 331.822 167.455C335.093 152.98 327.737 153.165 320.759 162.171C313.781 171.177 296.42 192.992 295.473 193.451C294.518 193.91 267.087 195.996 267.087 195.996Z" fill="#A766FE"/>
<path d="M280.347 215.503C279.126 211.403 277.868 207.311 276.803 203.167C276.196 200.814 275.574 198.461 274.99 196.1C274.968 196.011 275.116 195.959 275.145 196.048C276.536 200.111 277.92 204.196 279.119 208.325C280.318 212.432 281.546 216.531 282.686 220.653C283.337 222.999 283.914 225.352 284.417 227.735C284.425 227.779 284.351 227.809 284.336 227.765C282.819 223.739 281.576 219.625 280.347 215.503Z" fill="#263238"/>
<path opacity="0.1" d="M281.428 229.592C289.856 227.217 308.142 221.697 312.36 217.368C317.888 211.685 328.551 181.922 331.822 167.455C333.391 160.506 332.517 156.925 330.401 156.096C330.179 156.192 329.95 156.325 329.72 156.458C318.835 171.443 296.22 207.193 281.428 229.592Z" fill="black"/>
<path d="M365.847 234.728C365.677 234.898 302.932 221.149 302.355 220.424C301.541 219.395 312.759 172.213 324.585 158.131C327.545 154.608 336.965 154.852 341.175 158.404C362.073 176.016 366.439 234.121 365.847 234.728Z" fill="#A766FE"/>
<path d="M346.059 161.779C358.573 171.406 391.547 210.315 384.658 219.551C377.717 228.852 330.519 225.707 316.733 221.734C312.634 220.55 323.156 194.465 327.53 193.17C331.171 192.097 351.632 197.647 351.994 196.463C352.409 195.123 347.88 186.495 340.569 170.733C332.147 152.558 340.532 157.531 346.059 161.779Z" fill="#FEA574"/>
<path d="M308.297 190.136C299.18 190.372 296.872 191.83 289.079 187.938C283.959 185.385 280.133 187.56 283.611 192.385C289.301 200.281 301.127 202.449 305.441 202.02L308.297 190.136Z" fill="#FEA574"/>
<path d="M333.391 194.797C333.391 194.797 322.461 190.89 312.715 190.18C305.981 189.684 291.203 190.246 279.726 206.815C277.003 210.744 275.907 218.278 282.686 213.475C287.503 210.064 289.523 206.445 292.683 204.972C292.683 204.972 292.432 214.718 296.472 217.293C298.278 218.448 303.287 221.467 307.52 223.273C307.52 223.273 308.157 222.459 308.823 221.304C308.823 221.304 312.826 223.354 319.434 221.6L333.391 194.797Z" fill="#FEA574"/>
<path d="M306.21 190.735C303.384 192.859 297.456 197.469 293.926 202.923C290.004 208.983 284.077 221.711 288.584 224.56C291.884 226.647 294.578 221.992 294.578 221.992C294.578 221.992 293.238 227.772 296.635 229.008C299.728 230.132 301.593 226.403 301.593 226.403C301.593 226.403 301.386 230.044 304.575 230.554C308.408 231.168 308.223 223.428 312.648 220.697C313.625 220.083 306.21 190.735 306.21 190.735Z" fill="#FEA574"/>
<path d="M301.023 206.008C298.692 208.443 294.814 215.34 294.504 221.867C294.496 222.015 294.607 222.096 294.637 221.963C296.502 214.851 299.602 208.613 301.075 206.045C301.097 206.008 301.045 205.979 301.023 206.008Z" fill="#263238"/>
<path d="M307.024 210.145C305.226 212.454 301.548 219.736 301.46 226.366C301.46 226.514 301.571 226.588 301.6 226.455C303.243 218.944 305.759 212.831 307.084 210.182C307.098 210.145 307.047 210.116 307.024 210.145Z" fill="#263238"/>
<path d="M292.676 204.913C289.916 206.245 288.258 207.984 286.09 210.093C285.017 211.137 283.922 212.165 282.738 213.083C281.657 213.919 280.074 215.177 278.653 214.378C277.861 213.934 277.698 212.92 277.728 212.091C277.757 211.166 278.364 209.353 278.779 208.524C278.801 208.48 278.727 208.443 278.705 208.487C278.32 209.235 277.602 210.892 277.447 211.721C277.306 212.469 277.239 213.32 277.558 214.03C278.253 215.562 280.17 215.458 281.435 214.8C282.19 214.4 282.878 213.852 283.537 213.312C284.173 212.794 284.787 212.239 285.387 211.677C286.615 210.515 287.77 209.287 288.983 208.11C290.315 206.822 291.27 206.134 292.735 205.002C292.779 204.965 292.728 204.891 292.676 204.913Z" fill="#263238"/>
<path d="M288.28 216.139C288.754 214.356 291.684 206.785 292.742 204.972C292.772 204.928 292.705 204.884 292.676 204.928C290.767 207.451 288.073 213.749 287.525 215.717C286.985 217.663 286.401 220.128 286.734 222.14C287.237 225.174 289.346 225.419 290.115 225.441C291.033 225.47 291.899 225.137 292.631 224.59C293.445 223.983 294.141 222.888 294.607 222C294.629 221.955 294.57 221.904 294.541 221.955C293.69 223.324 292.136 224.797 290.448 224.849C289.716 224.871 288.939 224.664 288.406 224.146C287.777 223.532 287.585 222.621 287.518 221.785C287.355 219.876 287.792 217.967 288.28 216.139Z" fill="#263238"/>
<path d="M333.391 193.48L323.896 226.521C323.896 226.521 382.971 229.888 386.241 219.158C389.512 208.428 360.978 173.286 349.138 163.636C335.418 152.455 334.678 157.146 339.148 168.335C343.825 180.049 351.876 196.773 351.876 196.773L333.391 193.48Z" fill="#A766FE"/>
<path d="M370.539 202.072C367.601 200.666 364.53 199.534 361.429 198.564C358.351 197.602 355.191 196.981 352.009 196.485C350.196 196.204 348.368 196.004 346.54 195.797C346.481 195.789 346.474 195.878 346.533 195.885C349.73 196.337 352.904 197.069 356.035 197.883C359.15 198.697 362.236 199.563 365.314 200.488C367.053 201.014 368.77 201.62 370.494 202.198C370.576 202.22 370.613 202.109 370.539 202.072Z" fill="#263238"/>
<path d="M333.524 193.369C333.82 193.399 350.248 195.959 350.803 196.115C350.699 195.893 346.533 188.071 345.919 186.924C345.86 186.813 345.8 186.695 345.741 186.584C345.371 186.088 344.994 185.599 344.639 185.089C344.187 184.438 343.736 183.779 343.284 183.128C343.27 183.106 343.299 183.083 343.314 183.106C343.795 183.735 344.269 184.371 344.75 185.007C344.972 185.303 345.179 185.599 345.386 185.903C344.972 185.089 344.565 184.275 344.158 183.453C343.514 182.144 342.907 180.826 342.308 179.494C342.285 179.45 342.352 179.428 342.374 179.465C343.603 181.744 344.898 183.986 346.133 186.258C347.362 188.53 352.039 196.892 352.016 196.892C351.994 196.921 333.857 193.68 333.509 193.591C333.361 193.562 333.376 193.355 333.524 193.369Z" fill="#263238"/>
<path d="M335.781 213.527C336.817 209.842 337.823 206.149 339 202.501C339.666 200.429 340.324 198.357 341.013 196.285C341.035 196.203 341.175 196.24 341.153 196.322C340.258 200.059 339.355 203.811 338.289 207.503C337.231 211.181 336.203 214.866 335.093 218.537C334.464 220.623 333.775 222.681 333.013 224.723C332.998 224.76 332.932 224.745 332.939 224.701C333.709 220.934 334.737 217.234 335.781 213.527Z" fill="#263238"/>
<path d="M323.238 227.128C323.652 226.092 324.148 224.612 324.607 223.591C324.725 223.325 324.925 223.339 324.836 223.621C324.548 224.546 324.34 225.574 324.059 226.521C324.888 226.551 325.709 226.558 326.538 226.595C327.493 226.632 328.447 226.684 329.402 226.721C331.274 226.795 333.146 226.847 335.019 226.884C338.807 226.958 342.604 226.943 346.392 226.854C353.992 226.677 361.607 226.218 369.147 225.249C371.256 224.975 373.365 224.664 375.46 224.294C377.583 223.909 379.877 223.487 381.609 222.969C381.661 222.955 381.69 223.043 381.639 223.066C379.87 223.746 378.212 224.257 376.362 224.657C374.475 225.064 372.581 225.419 370.679 225.715C366.883 226.299 363.065 226.677 359.239 226.958C351.654 227.506 344.032 227.728 336.425 227.646C334.293 227.624 332.162 227.572 330.031 227.506C328.958 227.469 327.878 227.432 326.805 227.372C325.724 227.306 323.171 227.306 323.238 227.128Z" fill="#263238"/>
<path d="M243.562 231.472H319.146V234.521H243.562V231.472Z" fill="#455A64"/>
<path d="M277.321 231.472H319.146V234.521H277.321V231.472Z" fill="#A6A6A6"/>
<path d="M278.594 234.521H212.349L202.988 189.529H269.233L278.594 234.521Z" fill="#A6A6A6"/>
<path d="M275.589 234.521H209.344L199.983 189.529H266.228L275.589 234.521Z" fill="#C7C7C7"/>
<path d="M242.2 213.031C242.459 215.473 240.691 217.449 238.249 217.449C235.807 217.449 233.624 215.473 233.372 213.031C233.113 210.589 234.882 208.614 237.324 208.614C239.758 208.614 241.941 210.589 242.2 213.031Z" fill="#EBEBEB"/>
<path d="M329.335 173.219C329.335 173.219 340.384 162.23 347.599 162.423L353.77 167.81C353.77 167.81 355.783 168.454 356.397 167.174C357.907 164.006 358.151 156.384 351.558 151.493C345.519 147.016 335.692 147.43 327.508 149.658C319.649 151.796 312.863 157.08 315.32 162.201C317.777 167.314 329.335 173.219 329.335 173.219Z" fill="#A766FE"/>
<path opacity="0.1" d="M328.529 170.814C328.529 170.814 319.442 164.443 318.48 160.617C317.518 156.791 325.14 153.084 330.075 151.611C337.712 149.332 342.929 149.784 347.251 153.831C351.572 157.879 328.529 170.814 328.529 170.814Z" fill="black"/>
<path d="M328.529 170.814C328.529 170.814 337.335 155.622 348.472 154.039L347.606 162.423C347.606 162.423 340.953 162.497 329.343 173.219L328.529 170.814Z" fill="#A766FE"/>
<path d="M350.61 162.549C348.568 162.312 346.54 162.778 344.631 163.4C342.707 164.029 340.894 164.954 339.17 166.004C337.431 167.033 335.803 168.247 334.205 169.49L331.888 171.466L329.661 173.545L329.409 173.782L329.128 173.641C327.027 172.583 325.021 171.392 323.09 170.067C322.128 169.401 321.173 168.72 320.3 167.943C319.419 167.174 318.568 166.367 317.851 165.442C319.516 167.077 321.462 168.335 323.423 169.549C324.407 170.148 325.421 170.703 326.442 171.244C327.463 171.776 328.492 172.317 329.528 172.798L328.995 172.886L331.222 170.733C331.992 170.045 332.784 169.379 333.576 168.713C334.404 168.091 335.218 167.455 336.069 166.863C336.943 166.3 337.794 165.708 338.719 165.235C340.517 164.199 342.456 163.4 344.461 162.852C344.957 162.704 345.475 162.615 345.978 162.512C346.496 162.445 347.007 162.364 347.525 162.334C348.561 162.26 349.619 162.282 350.61 162.549Z" fill="#263238"/>
<path d="M353.77 167.81C352.616 167.063 351.558 166.197 350.522 165.309C349.5 164.406 348.501 163.474 347.599 162.43C348.753 163.178 349.811 164.043 350.847 164.931C351.876 165.834 352.875 166.767 353.77 167.81Z" fill="#263238"/>
<path d="M333.043 168.084C333.043 168.084 333.975 172.398 334.108 178.636C334.16 181.108 333.213 189.966 330.468 189.647C327.722 189.329 332.192 183.609 332.976 178.932C333.775 174.189 332.51 170.837 332.34 168.039L333.043 168.084Z" fill="#A766FE"/>
<g opacity="0.1">
<path d="M333.043 168.084C333.043 168.084 333.975 172.398 334.108 178.636C334.16 181.108 333.213 189.966 330.468 189.647C327.722 189.329 332.192 183.609 332.976 178.932C333.775 174.189 332.51 170.837 332.34 168.039L333.043 168.084Z" fill="black"/>
</g>
<path d="M323.297 168.572C323.297 168.572 322.017 173.241 321.255 178.851C320.951 181.071 320.899 189.151 323.408 189.151C325.917 189.144 322.476 183.535 322.246 179.243C322.017 174.884 323.497 171.118 323.933 168.616L323.297 168.572Z" fill="#A766FE"/>
<g opacity="0.1">
<path d="M323.297 168.572C323.297 168.572 322.017 173.241 321.255 178.851C320.951 181.071 320.899 189.151 323.408 189.151C325.917 189.144 322.476 183.535 322.246 179.243C322.017 174.884 323.497 171.118 323.933 168.616L323.297 168.572Z" fill="black"/>
</g>
<path d="M327.604 169.112C330.468 168.927 335.81 162.941 337.631 158.19C337.757 157.864 336.854 154.734 335.944 150.879C335.396 148.54 334.848 145.913 334.515 143.486L319.789 149.258C319.789 149.258 321.98 154.142 322.527 158.382C322.572 158.737 322.579 159.07 322.557 159.396C322.557 159.44 322.55 159.5 322.557 159.566C322.513 161.49 323.112 169.401 327.604 169.112Z" fill="#FEA574"/>
<path d="M322.564 159.389C322.564 159.433 322.557 159.485 322.564 159.559C323.053 159.559 323.571 159.522 324.148 159.426C332.776 158.049 333.457 147.216 333.457 143.9L319.797 149.251C319.797 149.251 321.987 154.135 322.55 158.375C322.564 158.73 322.587 159.063 322.564 159.389Z" fill="#263238"/>
<path d="M331.518 124.49C334.604 129.278 336.129 145.21 333.354 149.643C329.335 156.066 320.618 159.041 314.617 153.728C308.8 148.57 307.187 127.776 310.48 123.528C315.335 117.275 326.96 117.423 331.518 124.49Z" fill="#FEA574"/>
<path d="M321.58 136.108C321.092 136.049 320.655 135.916 320.182 135.805C319.649 135.687 319.212 135.642 318.813 135.228C318.605 135.006 318.62 134.554 318.82 134.332C319.279 133.807 319.974 133.792 320.618 133.911C321.321 134.044 321.832 134.318 322.298 134.865C322.749 135.398 322.217 136.19 321.58 136.108Z" fill="#263238"/>
<path d="M310.784 137.588C311.25 137.448 311.664 137.24 312.108 137.055C312.611 136.848 313.041 136.73 313.359 136.256C313.529 136.005 313.433 135.561 313.203 135.368C312.663 134.932 311.975 135.028 311.361 135.257C310.687 135.501 310.229 135.864 309.866 136.478C309.511 137.078 310.169 137.766 310.784 137.588Z" fill="#263238"/>
<path d="M322.402 148.637C322.18 148.918 321.965 149.295 321.58 149.377C321.21 149.458 320.751 149.34 320.396 149.251C320.359 149.243 320.33 149.28 320.359 149.31C320.692 149.687 321.306 149.865 321.787 149.717C322.261 149.569 322.446 149.125 322.505 148.666C322.52 148.607 322.439 148.592 322.402 148.637Z" fill="#263238"/>
<path d="M320.87 145.58C320.389 146.587 319.575 147.201 318.65 147.512C318.235 147.652 317.791 147.719 317.347 147.741C317.259 147.749 317.177 147.749 317.096 147.741C317.014 147.741 316.948 147.741 316.859 147.734C316.733 147.734 316.652 147.638 316.615 147.519V147.512C316.607 147.475 316.607 147.438 316.607 147.401C316.607 147.401 316.607 147.401 316.607 147.393L316.6 147.297C316.474 146.476 316.393 145.218 316.393 145.218C316.112 145.41 314.669 146.291 314.632 145.862C314.387 142.273 314.121 138.284 314.639 134.665C314.646 134.547 314.831 134.547 314.839 134.665C315.209 138.106 314.965 141.584 315.283 145.04C315.749 144.789 316.504 144.345 316.933 144.3C317.051 144.322 317.044 146.742 317.133 147.105C317.133 147.105 317.133 147.12 317.148 147.142C318.554 147.142 319.545 146.594 320.766 145.492C320.833 145.425 320.922 145.484 320.87 145.58Z" fill="#263238"/>
<path d="M317.777 147.253C317.777 147.253 318.635 148.148 319.678 148.37C320.063 148.459 320.47 148.459 320.87 148.296C321.691 147.963 321.617 147.179 321.373 146.528C321.173 145.995 320.862 145.551 320.862 145.551C320.862 145.551 319.76 146.875 317.777 147.253Z" fill="#263238"/>
<path d="M319.678 148.378C320.063 148.466 320.47 148.466 320.87 148.304C321.691 147.971 321.617 147.186 321.373 146.535C320.47 146.735 319.641 147.475 319.678 148.378Z" fill="#FF9ABB"/>
<path d="M319.479 139.024C319.479 138.98 319.567 139.061 319.575 139.105C319.708 140.171 320.041 141.362 321.055 141.562C321.084 141.57 321.092 141.621 321.055 141.621C319.863 141.644 319.434 140.053 319.479 139.024Z" fill="#263238"/>
<path d="M320.248 137.773C321.928 137.374 322.601 140.763 321.047 141.133C319.516 141.496 318.842 138.106 320.248 137.773Z" fill="#263238"/>
<path d="M313.292 139.838C313.277 139.801 313.218 139.905 313.233 139.949C313.485 140.993 313.596 142.228 312.722 142.769C312.693 142.783 312.708 142.835 312.745 142.828C313.855 142.421 313.692 140.785 313.292 139.838Z" fill="#263238"/>
<path d="M312.123 138.935C310.414 139.157 310.976 142.569 312.567 142.361C314.128 142.162 313.559 138.75 312.123 138.935Z" fill="#263238"/>
<path d="M330.001 134.754C327.811 132.023 327.707 126.155 325.643 125.319C321.173 123.513 316.385 131.824 311.657 133.57C307.076 135.265 304.471 132.867 303.946 128.841C303.421 124.816 305.678 121.168 310.554 118.526C315.594 115.795 321.232 116.18 324.488 116.92C324.488 116.92 322.653 115.477 322.883 114.744C323.105 114.012 326.005 114.981 326.967 115.492C327.944 116.01 328.891 117.297 328.891 117.297C328.891 117.297 329.639 116.742 330.912 116.321C332.088 115.928 333.894 116.306 334.071 116.55C334.256 116.794 332.658 117.616 331.511 118.097C331.511 118.097 334.745 120.206 335.603 122.707C336.454 125.208 336.869 138.395 335.988 138.861C334.848 139.453 330.889 135.864 330.001 134.754Z" fill="#455A64"/>
<path d="M330.941 117.963C330.889 117.956 330.86 118.03 330.912 118.052C332.377 118.615 333.694 119.406 334.671 120.664C335.81 122.122 336.343 123.95 336.573 125.763C337.031 129.285 336.506 132.823 336.217 136.33C336.21 136.434 336.38 136.449 336.395 136.345C336.943 132.645 337.424 128.671 336.787 124.956C336.247 121.789 334.323 118.615 330.941 117.963Z" fill="#455A64"/>
<path d="M325.384 124.046C323.97 124.35 322.513 125.016 321.321 125.83C320.145 126.629 319.323 127.835 318.391 128.893C316.297 131.254 313.832 133.392 310.754 134.303C310.717 134.317 310.732 134.369 310.776 134.362C313.655 133.711 316.052 131.912 318.058 129.803C319.072 128.745 319.915 127.443 321.047 126.503C322.335 125.445 323.933 124.89 325.465 124.298C325.621 124.239 325.547 124.009 325.384 124.046Z" fill="#455A64"/>
<path d="M321.181 116.639C318.99 116.365 316.755 116.476 314.587 116.831C312.5 117.172 310.428 117.742 308.571 118.778C305.374 120.568 303.028 123.869 303.502 127.65C303.739 129.567 304.627 131.439 306.122 132.704C306.225 132.786 306.351 132.645 306.262 132.556C303.754 130.003 302.954 126.096 304.738 122.907C306.647 119.473 310.495 117.867 314.18 117.164C316.496 116.72 318.835 116.632 321.188 116.683C321.195 116.661 321.195 116.639 321.181 116.639Z" fill="#455A64"/>
<path d="M323.26 144.293C325.391 143.701 326.945 141.717 326.893 139.401C326.834 136.663 324.555 134.488 321.824 134.547C319.086 134.606 316.911 136.878 316.97 139.616C317.029 142.354 319.308 144.529 322.039 144.47C322.461 144.463 322.868 144.404 323.26 144.293ZM320.781 135.368C321.121 135.272 321.469 135.22 321.839 135.213C324.207 135.161 326.183 137.048 326.235 139.416C326.287 141.784 324.4 143.76 322.032 143.812C319.664 143.863 317.688 141.976 317.636 139.608C317.592 137.603 318.931 135.886 320.781 135.368Z" fill="#37474F"/>
<path d="M311.997 145.987C313.825 145.477 314.965 143.146 314.565 140.585C314.365 139.298 313.81 138.136 312.996 137.322C312.16 136.478 311.146 136.101 310.155 136.256C309.156 136.412 308.312 137.078 307.772 138.136C307.246 139.157 307.069 140.437 307.269 141.725C307.69 144.426 309.666 146.372 311.679 146.061C311.79 146.039 311.894 146.017 311.997 145.987ZM310.007 136.959C310.088 136.937 310.169 136.922 310.251 136.907C311.028 136.789 311.834 137.1 312.523 137.788C313.233 138.506 313.729 139.534 313.906 140.689C314.269 143.035 313.226 145.144 311.568 145.403C309.918 145.662 308.275 143.96 307.912 141.621C307.735 140.467 307.89 139.335 308.349 138.439C308.756 137.662 309.333 137.144 310.007 136.959Z" fill="#37474F"/>
<path d="M317.222 140.163L317.562 139.594C316.718 139.083 314.868 138.513 313.869 139.978L314.417 140.348C315.32 139.039 317.148 140.119 317.222 140.163Z" fill="#37474F"/>
<path d="M339.266 138.025L339.799 137.633C339.614 137.381 337.971 135.191 336.469 135.183C335.063 135.176 326.405 137.366 326.042 137.462L326.205 138.106C328.684 137.477 335.381 135.842 336.469 135.849C337.461 135.857 338.822 137.418 339.266 138.025Z" fill="#37474F"/>
<path d="M331.777 137.751C331.777 137.751 333.931 131.927 336.484 132.571C339.037 133.215 338.319 141.029 335.951 142.694C333.583 144.359 331.999 142.199 331.999 142.199L331.777 137.751Z" fill="#FEA574"/>
<path d="M336.225 134.806C336.269 134.791 336.291 134.85 336.254 134.873C334.612 136.101 334.086 138.055 333.872 140.001C334.242 139.179 334.885 138.61 335.966 139.024C336.025 139.046 335.995 139.135 335.944 139.135C335.144 139.172 334.641 139.446 334.286 140.178C334.034 140.696 333.931 141.303 333.805 141.866C333.761 142.051 333.442 142.043 333.457 141.836C333.457 141.821 333.457 141.806 333.465 141.792C332.806 139.461 333.768 135.701 336.225 134.806Z" fill="#263238"/>
</svg>
