<svg width="500" height="400" viewBox="0 0 500 400" fill="none" xmlns="http://www.w3.org/2000/svg">
<path d="M95.0383 69.5639L83.2722 62.2665L81.0345 65.872C80.3772 66.9344 79.182 67.5055 77.9403 67.3992C77.2564 67.3395 76.5658 67.3196 75.8686 67.3328C74.6269 67.3594 73.4716 66.7087 72.8806 65.6131L70.8753 61.8748L58.671 68.4218L60.6763 72.1535C61.2606 73.2491 61.1676 74.5704 60.4572 75.593C60.0588 76.164 59.7002 76.7484 59.3682 77.3526C58.7706 78.4482 57.6285 79.1255 56.3802 79.0856L52.1439 78.9528L51.7123 92.7906L55.9619 92.9168C57.2102 92.9566 58.2925 93.7202 58.8237 94.849C58.9698 95.1544 59.1225 95.4599 59.2819 95.7587C59.4412 96.0575 59.6139 96.3563 59.7865 96.6418C60.4306 97.7042 60.4638 99.0256 59.8131 100.081L57.5621 103.713L69.3348 111.024L71.5725 107.412C72.2299 106.349 73.4317 105.778 74.6734 105.885C75.3573 105.944 76.0479 105.964 76.7318 105.951C77.9735 105.925 79.1288 106.575 79.7132 107.671L81.7184 111.409L93.9228 104.862L91.9175 101.124C91.3332 100.028 91.4261 98.7068 92.1366 97.6843C92.5284 97.1199 92.8936 96.5289 93.2189 95.9313C93.8165 94.8357 94.9586 94.1518 96.2069 94.1916L100.457 94.3244L100.888 80.4867L96.6385 80.3539C95.3968 80.314 94.3145 79.5504 93.7833 78.4283C93.6372 78.1228 93.4845 77.8174 93.3185 77.512C93.1592 77.2132 92.9865 76.9144 92.8139 76.6288C92.1698 75.5598 92.13 74.2318 92.7873 73.176L95.0383 69.5639ZM86.3 81.2835C89.2615 86.8013 87.1898 93.6737 81.6653 96.6352C76.1475 99.5966 69.2684 97.5249 66.307 92.0071C63.3456 86.4892 65.4239 79.6036 70.9417 76.6421C76.4662 73.6807 83.3386 75.7656 86.3 81.2835Z" fill="#EBEBEB"/>
<path d="M353.142 283.246L341.376 275.948L339.145 279.554C338.487 280.616 337.292 281.187 336.05 281.081C335.366 281.021 334.676 281.001 333.979 281.015C332.737 281.041 331.582 280.391 330.991 279.295L328.985 275.557L316.781 282.104L318.786 285.835C319.371 286.931 319.278 288.252 318.567 289.275C318.169 289.846 317.81 290.43 317.478 291.034C316.881 292.13 315.739 292.807 314.49 292.768L310.254 292.635L309.822 306.472L314.072 306.599C315.32 306.638 316.403 307.402 316.934 308.531C317.08 308.836 317.233 309.142 317.392 309.441C317.551 309.739 317.724 310.038 317.897 310.324C318.541 311.386 318.574 312.707 317.923 313.763L315.672 317.395L327.438 324.693L329.676 321.08C330.333 320.018 331.535 319.447 332.777 319.553C333.461 319.613 334.151 319.633 334.835 319.62C336.077 319.593 337.232 320.244 337.817 321.339L339.822 325.078L352.026 318.531L350.021 314.792C349.437 313.697 349.53 312.375 350.24 311.353C350.632 310.788 350.997 310.198 351.322 309.6C351.92 308.504 353.062 307.82 354.31 307.86L358.56 307.993L358.992 294.155L354.742 294.022C353.5 293.983 352.418 293.219 351.887 292.097C351.741 291.791 351.588 291.486 351.422 291.181C351.263 290.882 351.09 290.583 350.917 290.297C350.273 289.228 350.233 287.9 350.891 286.845L353.142 283.246ZM344.403 294.965C347.365 300.483 345.293 307.356 339.769 310.317C334.251 313.278 327.372 311.207 324.41 305.689C321.449 300.171 323.527 293.285 329.045 290.324C334.57 287.363 341.442 289.448 344.403 294.965Z" fill="#EBEBEB"/>
<path d="M59.5143 128.859L56.3072 123.295L54.6073 124.277C54.1093 124.57 53.4918 124.536 53.0071 124.224C52.7415 124.052 52.4626 123.892 52.1771 123.746C51.6658 123.487 51.3338 122.963 51.3338 122.392V120.426H44.9063V122.392C44.9063 122.969 44.5743 123.487 44.063 123.746C43.7775 123.892 43.4986 124.052 43.233 124.224C42.7483 124.543 42.1308 124.57 41.6328 124.277L39.9329 123.295L36.7258 128.859L38.4389 129.842C38.9436 130.127 39.2158 130.678 39.1893 131.256C39.1826 131.415 39.176 131.568 39.176 131.728C39.176 131.887 39.1826 132.046 39.1893 132.199C39.2158 132.777 38.9436 133.321 38.4456 133.613L36.7325 134.603L39.9396 140.167L41.6461 139.184C42.1441 138.892 42.7616 138.925 43.2463 139.237C43.5119 139.41 43.7908 139.569 44.0763 139.715C44.5876 139.974 44.9196 140.499 44.9196 141.07V143.035H51.3471V141.07C51.3471 140.492 51.6791 139.974 52.1904 139.715C52.4759 139.569 52.7548 139.41 53.0204 139.237C53.5051 138.919 54.1226 138.892 54.6206 139.184L56.3271 140.167L59.5342 134.603L57.8277 133.62C57.3297 133.334 57.0509 132.783 57.0841 132.206C57.0907 132.046 57.0973 131.887 57.0973 131.728C57.0973 131.568 57.0907 131.409 57.0841 131.256C57.0575 130.678 57.3297 130.127 57.8344 129.835L59.5143 128.859ZM53.3789 131.734C53.3789 134.643 51.0284 136.993 48.1201 136.993C45.2117 136.993 42.8545 134.643 42.8545 131.734C42.8545 128.826 45.2117 126.469 48.1201 126.469C51.0217 126.475 53.3789 128.833 53.3789 131.734Z" fill="#EBEBEB"/>
<path d="M461.287 252.058L458.08 246.493L456.38 247.476C455.882 247.768 455.265 247.735 454.78 247.423C454.515 247.25 454.236 247.091 453.95 246.945C453.439 246.686 453.107 246.161 453.107 245.59V243.625H446.679V245.59C446.679 246.168 446.347 246.686 445.836 246.945C445.551 247.091 445.272 247.25 445.006 247.423C444.521 247.742 443.904 247.768 443.406 247.476L441.706 246.493L438.499 252.058L440.212 253.04C440.717 253.326 440.989 253.877 440.962 254.455C440.956 254.614 440.949 254.767 440.949 254.926C440.949 255.085 440.956 255.245 440.962 255.397C440.989 255.975 440.717 256.52 440.219 256.812L438.506 257.801L441.713 263.365L443.419 262.383C443.917 262.091 444.535 262.124 445.019 262.436C445.285 262.609 445.564 262.768 445.849 262.914C446.361 263.173 446.693 263.697 446.693 264.269V266.234H453.12V264.269C453.12 263.691 453.452 263.173 453.964 262.914C454.249 262.768 454.528 262.609 454.794 262.436C455.278 262.117 455.896 262.091 456.394 262.383L458.1 263.365L461.307 257.801L459.601 256.818C459.103 256.533 458.824 255.982 458.857 255.404C458.864 255.245 458.87 255.085 458.87 254.926C458.87 254.767 458.864 254.607 458.857 254.455C458.831 253.877 459.103 253.326 459.608 253.034L461.287 252.058ZM455.145 254.933C455.145 257.841 452.795 260.192 449.887 260.192C446.978 260.192 444.621 257.841 444.621 254.933C444.621 252.024 446.978 249.667 449.887 249.667C452.795 249.667 455.145 252.024 455.145 254.933Z" fill="#EBEBEB"/>
<path d="M77.336 294.042C75.9018 303.843 67.4557 311.366 57.2633 311.366C46.055 311.366 36.9648 302.283 36.9648 291.068C36.9648 279.859 46.055 270.776 57.2633 270.776V291.068L77.336 294.042Z" fill="#DBDBDB"/>
<path d="M81.6919 286.938C81.6919 287.947 81.6188 288.943 81.4727 289.912L61.4 286.938V266.646C68.9298 266.646 75.51 270.749 79.0159 276.845C80.7224 279.82 81.6919 283.272 81.6919 286.938Z" fill="#EBEBEB"/>
<path d="M67.562 302.302H89.1419" stroke="#C7C7C7" stroke-miterlimit="10"/>
<path d="M90.6559 303.816C89.8192 303.816 89.142 303.139 89.142 302.302C89.142 301.466 89.8192 300.789 90.6559 300.789C91.4925 300.789 92.1698 301.466 92.1698 302.302C92.1698 303.139 91.4925 303.816 90.6559 303.816Z" stroke="#C7C7C7" stroke-miterlimit="10"/>
<path d="M112.907 301.174H96.1405V301.931H112.907V301.174Z" fill="#C7C7C7"/>
<path d="M105.629 302.681H96.1405V303.438H105.629V302.681Z" fill="#C7C7C7"/>
<path d="M396.408 71.8613H389.801V118.879H396.408V71.8613Z" fill="#EBEBEB"/>
<path d="M407.762 83.2422H401.156V118.879H407.762V83.2422Z" fill="#EBEBEB"/>
<path d="M419.117 101.057H412.51V118.872H419.117V101.057Z" fill="#EBEBEB"/>
<path d="M430.478 90.8782H423.871V118.872H430.478V90.8782Z" fill="#EBEBEB"/>
<path d="M441.832 80.1946H435.225V118.879H441.832V80.1946Z" fill="#EBEBEB"/>
<path d="M453.187 73.9065H446.58V118.873H453.187V73.9065Z" fill="#EBEBEB"/>
<path d="M385.97 65.8787L386.05 79.1255L386.089 92.3723L386.143 118.872L385.977 118.706C392.045 118.687 398.121 118.68 404.19 118.7L422.404 118.74L440.617 118.78L458.831 118.879L440.617 118.979L422.404 119.012L404.19 119.052C398.121 119.072 392.045 119.065 385.977 119.045H385.811V118.879L385.864 92.3789L385.904 79.1321L385.97 65.8787Z" fill="#EBEBEB"/>
<path d="M384.509 68.5346C384.994 68.3885 385.479 68.3553 385.97 68.3486C386.455 68.3553 386.939 68.3885 387.431 68.5346C386.946 68.6806 386.461 68.7138 385.97 68.7205C385.485 68.7205 385 68.6873 384.509 68.5346Z" fill="#EBEBEB"/>
<path d="M384.509 72.5651C384.994 72.419 385.479 72.3858 385.97 72.3792C386.455 72.3858 386.939 72.419 387.431 72.5651C386.946 72.7112 386.461 72.7444 385.97 72.751C385.485 72.7444 385 72.7112 384.509 72.5651Z" fill="#EBEBEB"/>
<path d="M384.509 76.589C384.994 76.4429 385.479 76.4097 385.97 76.4031C386.455 76.4097 386.939 76.4429 387.431 76.589C386.946 76.7351 386.461 76.7683 385.97 76.7749C385.485 76.7749 385 76.7417 384.509 76.589Z" fill="#EBEBEB"/>
<path d="M384.509 80.6195C384.994 80.4734 385.479 80.4402 385.97 80.4336C386.455 80.4402 386.939 80.4734 387.431 80.6195C386.946 80.7656 386.461 80.7988 385.97 80.8054C385.485 80.7988 385 80.7656 384.509 80.6195Z" fill="#EBEBEB"/>
<path d="M384.509 84.65C384.994 84.504 385.479 84.4708 385.97 84.4641C386.455 84.4708 386.939 84.504 387.431 84.65C386.946 84.7961 386.461 84.8293 385.97 84.8359C385.485 84.8293 385 84.7961 384.509 84.65Z" fill="#EBEBEB"/>
<path d="M384.509 88.6737C384.994 88.5276 385.479 88.4944 385.97 88.4878C386.455 88.4944 386.939 88.5276 387.431 88.6737C386.946 88.8198 386.461 88.853 385.97 88.8596C385.485 88.8596 385 88.8198 384.509 88.6737Z" fill="#EBEBEB"/>
<path d="M384.509 92.7042C384.994 92.5582 385.479 92.525 385.97 92.5183C386.455 92.525 386.939 92.5582 387.431 92.7042C386.946 92.8503 386.461 92.8835 385.97 92.8902C385.485 92.8835 385 92.8503 384.509 92.7042Z" fill="#EBEBEB"/>
<path d="M384.509 96.7282C384.994 96.5821 385.479 96.5489 385.97 96.5422C386.455 96.5489 386.939 96.5821 387.431 96.7282C386.946 96.8742 386.461 96.9074 385.97 96.9141C385.485 96.9141 385 96.8809 384.509 96.7282Z" fill="#EBEBEB"/>
<path d="M384.509 100.759C384.994 100.613 385.479 100.579 385.97 100.573C386.455 100.579 386.939 100.613 387.431 100.759C386.946 100.905 386.461 100.938 385.97 100.945C385.485 100.938 385 100.905 384.509 100.759Z" fill="#EBEBEB"/>
<path d="M384.509 104.789C384.994 104.643 385.479 104.61 385.97 104.603C386.455 104.61 386.939 104.643 387.431 104.789C386.946 104.935 386.461 104.968 385.97 104.975C385.485 104.968 385 104.935 384.509 104.789Z" fill="#EBEBEB"/>
<path d="M384.509 108.813C384.994 108.667 385.479 108.634 385.97 108.627C386.455 108.634 386.939 108.667 387.431 108.813C386.946 108.959 386.461 108.992 385.97 108.999C385.485 108.992 385 108.959 384.509 108.813Z" fill="#EBEBEB"/>
<path d="M384.509 112.843C384.994 112.697 385.479 112.664 385.97 112.657C386.455 112.664 386.939 112.697 387.431 112.843C386.946 112.989 386.461 113.023 385.97 113.029C385.485 113.023 385 112.989 384.509 112.843Z" fill="#EBEBEB"/>
<path d="M76.931 274.494C76.3201 277.509 75.6628 280.47 75.6097 283.544C75.696 283.691 75.696 284.248 75.603 284.102C75.603 284.6 74.8461 284.527 74.8328 284.042C74.8328 283.724 74.8261 283.405 74.8328 283.1C73.0068 280.968 70.4105 279.667 68.2924 277.827C66.5793 276.34 65.3309 274.547 64.6271 272.369C62.7347 266.52 64.1557 260.218 61.918 254.402C59.9924 249.382 56.6724 245.066 53.8371 240.55C50.8491 235.776 48.5915 230.73 48.213 225.039C47.9142 220.684 48.2595 214.86 51.4799 211.494C54.8929 207.922 59.335 210.385 62.1238 213.4C70.2113 222.131 74.1688 233.353 75.9815 244.9C76.9841 251.287 78.0133 257.715 78.0133 264.196C78.02 267.675 77.6216 271.088 76.931 274.494Z" fill="#FFC727"/>
<path d="M75.7225 285.895C75.9417 279.819 75.7358 273.75 74.9589 267.735C74.9656 267.715 74.9855 267.695 74.9855 267.668C74.9324 262.755 75.1781 257.848 74.8394 252.941C74.4676 247.602 73.5247 242.39 72.1967 237.217C72.1834 237.157 72.0905 237.177 72.1037 237.237C73.2193 242.29 73.9364 247.463 74.2817 252.629C74.4676 255.398 74.5273 258.18 74.4676 260.955C74.4477 261.858 74.3879 262.768 74.3613 263.684V263.678C71.9643 249.913 66.4664 236.958 58.5781 225.451C58.4718 225.292 58.1929 225.471 58.2992 225.637C63.9897 234.329 68.2791 243.93 71.0613 253.95C67.0905 247.104 61.2473 241.546 56.8317 234.986C56.8052 234.953 56.7454 234.993 56.772 235.026C60.7825 242.357 67.2101 248.04 71.4132 255.258C72.1967 258.226 72.8541 261.227 73.3653 264.255C74.0692 268.405 74.4676 272.595 74.6535 276.798C72.2365 272.588 69.7333 268.571 67.728 264.103C67.6749 263.983 67.5022 264.069 67.5487 264.189C69.2817 268.844 71.5792 273.837 74.7 277.754C74.8062 280.729 74.8062 283.71 74.7199 286.685C74.4941 294.633 73.372 302.502 72.9869 310.423C72.9736 310.662 73.3122 310.682 73.3521 310.45C74.7332 302.402 75.4237 294.036 75.7225 285.895Z" fill="#263238"/>
<path d="M65.4504 224.973C65.4239 224.913 65.3442 224.96 65.3641 225.013C66.9312 228.977 67.874 233.008 69.0493 237.084C69.1024 237.27 69.3747 237.224 69.3481 237.025C68.7904 232.875 67.1768 228.765 65.4504 224.973Z" fill="#263238"/>
<path d="M102.747 240.657C101.877 243.04 100.782 245.351 99.6199 247.602C97.1564 252.416 94.5668 256.845 94.2348 262.376C94.0888 264.846 94.0888 267.323 93.4048 269.72C92.8205 271.792 91.8245 273.724 90.6625 275.53C87.96 279.733 84.5338 283.392 82.0438 287.748C79.4542 292.269 77.5884 297.223 76.5127 302.322C76.4529 302.601 76.0147 302.541 76.0744 302.263C76.0811 302.243 76.0877 302.223 76.0877 302.196C76.0744 302.183 76.0612 302.17 76.0612 302.136C75.2909 290.317 75.8752 278.365 79.1355 266.924C80.5631 261.925 82.3625 256.931 84.4276 252.157C86.2336 247.987 88.5244 243.963 91.8245 240.796C93.9692 238.744 98.6305 234.847 101.824 236.739C103.365 237.649 103.298 239.163 102.747 240.657Z" fill="#FFC727"/>
<path d="M91.6718 267.834C89.7462 271.367 87.4421 274.667 85.0982 277.927C83.996 279.454 82.8804 280.975 81.7848 282.509C81.2669 283.232 80.6826 283.956 80.2112 284.733C80.4834 283.478 80.7556 282.223 81.0345 280.975C82.3824 274.952 83.664 268.877 85.7622 263.06C87.814 257.376 90.6094 252.011 93.4912 246.712C93.5642 246.573 93.3451 246.48 93.2654 246.613C90.8883 250.796 88.478 254.979 86.5059 259.382C85.4036 261.838 84.494 264.362 83.7038 266.918C84.5604 261.453 85.6294 256.201 87.2562 250.882C87.2695 250.836 87.2031 250.803 87.1832 250.849C85.158 256.075 83.7636 261.925 83.498 267.522C83.498 267.535 83.5046 267.542 83.5046 267.549C83.0398 269.102 82.6149 270.663 82.2231 272.243C80.5565 278.916 79.1222 285.656 77.8141 292.409C77.7079 287.98 77.854 283.618 78.5578 279.222C78.5711 279.122 78.425 279.102 78.4051 279.202C77.4423 283.737 77.0904 288.491 77.6813 293.106C77.1833 295.676 76.7052 298.245 76.2338 300.822C75.2378 306.313 73.9762 311.904 73.4649 317.462C73.4516 317.608 73.6509 317.628 73.6841 317.495C74.4078 314.487 74.7996 311.379 75.3706 308.338C75.9417 305.29 76.5393 302.243 77.1501 299.195C78.0465 294.766 78.9894 290.344 79.9522 285.922C80.6361 284.295 82.0106 282.821 83.0332 281.44C84.1553 279.926 85.2708 278.412 86.3598 276.871C88.385 274.009 90.2309 271.041 91.7847 267.894C91.8112 267.808 91.705 267.768 91.6718 267.834Z" fill="#263238"/>
<path d="M92.0237 262.754C89.5603 266.128 87.3359 269.839 85.6228 273.651C85.6029 273.697 85.6759 273.75 85.7025 273.697C87.8605 270.078 89.9786 266.44 92.13 262.821C92.1632 262.761 92.0636 262.701 92.0237 262.754Z" fill="#263238"/>
<path d="M41.3473 253.737C42.9608 256.334 44.8067 259.448 44.2423 262.642C43.8837 264.66 42.4628 266.334 42.2636 268.392C41.8054 272.927 46.4003 275.776 49.7203 277.814C58.007 282.9 69.2884 287.316 71.0945 298.152C71.1609 298.538 71.8249 298.418 71.7651 298.046C71.7651 298.02 71.7585 298 71.7452 297.973C71.7585 297.947 71.785 297.94 71.785 297.907C72.6682 292.362 72.4756 286.745 71.1277 281.287C69.7466 275.716 67.1437 270.749 64.1092 265.909C58.9698 257.708 53.5383 249.329 45.9488 243.16C43.8505 241.453 39.5611 238.406 38.0538 242.443C36.593 246.367 39.3686 250.577 41.3473 253.737Z" fill="#FFC727"/>
<path d="M49.3153 271.194C54.8796 276.865 63.5382 279.873 68.3721 286.26C65.3243 276.333 60.5037 267.469 53.2794 259.866C53.0935 259.674 53.3657 259.375 53.5649 259.561C58.8304 264.322 62.7945 269.959 65.7493 276.114C64.3748 271.699 62.5023 267.542 60.3377 263.412C60.258 263.259 60.4771 263.113 60.5701 263.266C63.3058 267.628 65.1915 272.555 66.4266 277.549C72.9803 292.15 74.0692 309.48 73.2591 325.104C73.2459 325.33 72.9072 325.343 72.9072 325.118C72.8873 312.827 72.3096 300.33 69.0029 288.425C68.9365 288.179 68.8568 287.934 68.7904 287.681C63.5382 280.802 54.9128 277.801 49.229 271.294C49.1692 271.227 49.2555 271.128 49.3153 271.194Z" fill="#263238"/>
<path d="M47.9142 266.221C50.8225 268.731 53.6844 271.3 56.5927 273.803C56.6193 273.83 56.5861 273.883 56.5529 273.857C53.4055 271.865 50.1917 269.202 47.7482 266.393C47.6553 266.28 47.7947 266.121 47.9142 266.221Z" fill="#263238"/>
<path d="M47.1307 254.999C49.8199 259.036 52.6286 262.814 55.942 266.38C55.9884 266.426 55.922 266.499 55.8756 266.453C52.3431 263.252 49.1692 259.342 46.9846 255.092C46.9315 254.992 47.0643 254.906 47.1307 254.999Z" fill="#263238"/>
<path d="M85.7622 307.568H60.9884L64.3283 346.492H81.9509L85.7622 307.568Z" fill="#455A64"/>
<path d="M34.4815 346.492C171.916 346.087 326.09 346.08 463.525 346.492C326.084 346.904 171.916 346.904 34.4815 346.492Z" fill="#263238"/>
<path d="M407.736 299.109H90.2642C85.5365 299.109 81.7052 295.277 81.7052 290.55V83.8199C81.7052 79.0923 85.5365 75.261 90.2642 75.261H407.729C412.457 75.261 416.288 79.0923 416.288 83.8199V290.55C416.295 295.277 412.464 299.109 407.736 299.109Z" fill="#263238"/>
<path d="M393.081 84.7031H105.125V289.408H393.081V84.7031Z" fill="white"/>
<path d="M96.207 211.54H94.3876C93.9295 211.54 93.5576 211.169 93.5576 210.71V163.653C93.5576 163.195 93.9295 162.823 94.3876 162.823H96.207C96.6651 162.823 97.037 163.195 97.037 163.653V210.71C97.037 211.169 96.6651 211.54 96.207 211.54Z" fill="#37474F"/>
<path d="M410.691 187.185C410.691 190.664 407.869 193.486 404.389 193.486C400.91 193.486 398.088 190.664 398.088 187.185C398.088 183.706 400.91 180.884 404.389 180.884C407.875 180.884 410.691 183.706 410.691 187.185Z" fill="#37474F"/>
<path d="M393.081 84.7031H105.125V289.408H393.081V84.7031Z" fill="white"/>
<path d="M393.081 84.6965H105.125V91.7283H393.081V84.6965Z" fill="#455A64"/>
<path d="M110.676 88.2158C110.676 89.0126 110.031 89.6567 109.235 89.6567C108.438 89.6567 107.794 89.0126 107.794 88.2158C107.794 87.419 108.438 86.7749 109.235 86.7749C110.031 86.7749 110.676 87.419 110.676 88.2158Z" fill="#C7C7C7"/>
<path d="M116.559 88.2158C116.559 89.0126 115.914 89.6567 115.118 89.6567C114.321 89.6567 113.677 89.0126 113.677 88.2158C113.677 87.419 114.321 86.7749 115.118 86.7749C115.914 86.7749 116.559 87.419 116.559 88.2158Z" fill="white"/>
<path d="M122.448 88.2158C122.448 89.0126 121.804 89.6567 121.007 89.6567C120.211 89.6567 119.566 89.0126 119.566 88.2158C119.566 87.419 120.211 86.7749 121.007 86.7749C121.798 86.7749 122.448 87.419 122.448 88.2158Z" fill="#FFC727"/>
<path d="M201.112 91.7349H105.125V289.408H201.112V91.7349Z" fill="#DBDBDB"/>
<path d="M393.081 91.7349H297.094V289.408H393.081V91.7349Z" fill="#DBDBDB"/>
<path d="M385.014 113.156H305.168V151.156H385.014V113.156Z" fill="white"/>
<path d="M305.161 117.36L385.007 117.36V113.156L305.161 113.156V117.36Z" fill="#455A64"/>
<path d="M316.94 134.629C319.13 134.629 320.905 132.855 320.905 130.665C320.905 128.476 319.13 126.701 316.94 126.701C314.751 126.701 312.976 128.476 312.976 130.665C312.976 132.855 314.751 134.629 316.94 134.629Z" fill="#263238"/>
<path d="M362.139 126.701H328.66V128.069H362.139V126.701Z" fill="#263238"/>
<path d="M352.843 131.602H328.66V132.75H352.843V131.602Z" fill="#263238"/>
<path d="M372.969 131.602H355.16V132.75H372.969V131.602Z" fill="#263238"/>
<path d="M345.4 134.583H328.66V135.731H345.4V134.583Z" fill="#263238"/>
<path d="M364.257 134.583H347.518V135.731H364.257V134.583Z" fill="#263238"/>
<path d="M358.666 137.558H328.66V138.706H358.666V137.558Z" fill="#263238"/>
<path d="M372.962 137.558H361.03V138.706H372.962V137.558Z" fill="#263238"/>
<path d="M352.843 140.532H328.66V141.681H352.843V140.532Z" fill="#263238"/>
<path d="M209.178 236.813H289.024V156.967H209.178V236.813Z" fill="#DBDBDB"/>
<path d="M223.071 177.849C225.26 177.849 227.035 176.074 227.035 173.885C227.035 171.696 225.26 169.921 223.071 169.921C220.881 169.921 219.107 171.696 219.107 173.885C219.107 176.074 220.881 177.849 223.071 177.849Z" fill="white"/>
<path d="M268.269 169.927H234.79V171.295H268.269V169.927Z" fill="white"/>
<path d="M258.973 174.828H234.79V175.977H258.973V174.828Z" fill="white"/>
<path d="M279.099 174.828H261.291V175.977H279.099V174.828Z" fill="white"/>
<path d="M251.53 177.802H234.79V178.951H251.53V177.802Z" fill="white"/>
<path d="M270.387 177.802H253.648V178.951H270.387V177.802Z" fill="white"/>
<path d="M264.797 180.784H234.79V181.933H264.797V180.784Z" fill="white"/>
<path d="M279.092 180.784H267.16V181.933H279.092V180.784Z" fill="white"/>
<path d="M258.973 183.759H234.79V184.907H258.973V183.759Z" fill="white"/>
<path d="M209.178 161.171H289.024V156.968H209.178V161.171Z" fill="#455A64"/>
<path d="M249.87 205.299C249.87 211.368 246.185 216.587 240.919 218.825L235.176 205.299H249.87Z" fill="#FFC727"/>
<path d="M233.296 204.29L239.04 217.815C239.026 217.815 239.026 217.829 239.013 217.829C238.562 218.015 238.11 218.181 237.665 218.32C236.244 218.758 234.777 218.984 233.303 218.984C231.782 218.984 230.321 218.745 228.94 218.32C224.339 216.886 220.707 213.254 219.286 208.652C218.861 207.271 218.622 205.81 218.622 204.29C218.622 202.769 218.861 201.308 219.286 199.927C220.707 195.326 224.339 191.694 228.94 190.273C230.321 189.848 231.782 189.609 233.303 189.609C234.823 189.609 236.284 189.848 237.665 190.273C242.28 191.694 245.899 195.326 247.333 199.927C247.758 201.308 247.997 202.769 247.997 204.29H233.296Z" fill="#FFC727"/>
<path d="M233.296 204.29L239.04 217.815C239.026 217.815 239.026 217.829 239.013 217.829C238.562 218.015 238.11 218.181 237.665 218.32C236.244 218.758 234.777 218.984 233.303 218.984C231.782 218.984 230.321 218.745 228.94 218.32C224.365 216.872 220.733 213.227 219.286 208.652C218.861 207.271 218.622 205.81 218.622 204.29C218.622 202.769 218.861 201.308 219.286 199.927C220.733 195.352 224.365 191.72 228.94 190.273C230.321 189.848 231.782 189.609 233.303 189.609C234.823 189.609 236.284 189.848 237.665 190.273C242.24 191.72 245.886 195.352 247.333 199.927C247.758 201.308 247.997 202.769 247.997 204.29H233.296Z" fill="white"/>
<path d="M233.296 204.296L223.722 215.432C220.475 212.643 218.609 208.572 218.609 204.296C218.609 196.242 225.235 189.609 233.296 189.609C241.351 189.609 247.984 196.235 247.984 204.296H233.296Z" fill="#455A64"/>
<path d="M257.466 223.758H246.371L232.626 210.013L232.832 209.814L246.49 223.473H257.466V223.758Z" fill="#263238"/>
<path d="M233.502 209.144H231.955V210.691H233.502V209.144Z" fill="#263238"/>
<path d="M257.466 213.128H244.963L239.027 207.191L239.226 206.992L245.076 212.842H257.466V213.128Z" fill="#263238"/>
<path d="M239.903 206.322H238.356V207.869H239.903V206.322Z" fill="#263238"/>
<path d="M257.466 202.61H238.555V202.895H257.466V202.61Z" fill="#263238"/>
<path d="M239.126 201.979H237.579V203.526H239.126V201.979Z" fill="#263238"/>
<path d="M275.507 201.196H261.769V202.47H275.507V201.196Z" fill="white"/>
<path d="M279.59 203.865H261.769V205.14H279.59V203.865Z" fill="white"/>
<path d="M271.297 206.534H261.769V207.809H271.297V206.534Z" fill="white"/>
<path d="M259.02 201.196H255.919V204.296H259.02V201.196Z" fill="#455A64"/>
<path d="M277.174 211.521H261.769V212.796H277.174V211.521Z" fill="white"/>
<path d="M274.617 214.19H261.769V215.465H274.617V214.19Z" fill="white"/>
<path d="M279.59 216.859H261.769V218.134H279.59V216.859Z" fill="white"/>
<path d="M259.02 211.521H255.919V214.622H259.02V211.521Z" fill="#FFC727"/>
<path d="M277.174 221.846H261.769V223.121H277.174V221.846Z" fill="white"/>
<path d="M274.617 224.515H261.769V225.79H274.617V224.515Z" fill="white"/>
<path d="M279.59 227.185H261.769V228.459H279.59V227.185Z" fill="white"/>
<path d="M259.02 221.846H255.919V224.947H259.02V221.846Z" fill="white"/>
<path d="M193.038 113.156H113.192V193.002H193.038V113.156Z" fill="white"/>
<path d="M113.195 117.36L193.041 117.36V113.156L113.195 113.156V117.36Z" fill="#455A64"/>
<path d="M124.965 132.617C127.154 132.617 128.929 130.843 128.929 128.653C128.929 126.464 127.154 124.689 124.965 124.689C122.776 124.689 121.001 126.464 121.001 128.653C121.001 130.843 122.776 132.617 124.965 132.617Z" fill="#FFC727"/>
<path d="M170.17 124.696H136.691V126.064H170.17V124.696Z" fill="#FFC727"/>
<path d="M160.874 129.596H136.691V130.745H160.874V129.596Z" fill="#FFC727"/>
<path d="M180.993 129.596H163.185V130.745H180.993V129.596Z" fill="#FFC727"/>
<path d="M153.43 132.571H136.691V133.72H153.43V132.571Z" fill="#FFC727"/>
<path d="M172.288 132.571H155.549V133.72H172.288V132.571Z" fill="#FFC727"/>
<path d="M166.697 135.552H136.691V136.701H166.697V135.552Z" fill="#FFC727"/>
<path d="M180.993 135.552H169.061V136.701H180.993V135.552Z" fill="#FFC727"/>
<path d="M160.874 138.527H136.691V139.676H160.874V138.527Z" fill="#FFC727"/>
<path d="M124.965 155.698C127.154 155.698 128.929 153.923 128.929 151.734C128.929 149.545 127.154 147.77 124.965 147.77C122.776 147.77 121.001 149.545 121.001 151.734C121.001 153.923 122.776 155.698 124.965 155.698Z" fill="#455A64"/>
<path d="M170.17 147.77H136.691V149.138H170.17V147.77Z" fill="#455A64"/>
<path d="M160.874 152.67H136.691V153.819H160.874V152.67Z" fill="#455A64"/>
<path d="M180.993 152.67H163.185V153.819H180.993V152.67Z" fill="#455A64"/>
<path d="M153.43 155.651H136.691V156.8H153.43V155.651Z" fill="#455A64"/>
<path d="M172.288 155.651H155.549V156.8H172.288V155.651Z" fill="#455A64"/>
<path d="M166.697 158.626H136.691V159.775H166.697V158.626Z" fill="#455A64"/>
<path d="M180.993 158.626H169.061V159.775H180.993V158.626Z" fill="#455A64"/>
<path d="M160.874 161.601H136.691V162.75H160.874V161.601Z" fill="#455A64"/>
<path d="M124.965 178.772C127.154 178.772 128.929 176.997 128.929 174.808C128.929 172.619 127.154 170.844 124.965 170.844C122.776 170.844 121.001 172.619 121.001 174.808C121.001 176.997 122.776 178.772 124.965 178.772Z" fill="#DBDBDB"/>
<path d="M170.17 170.844H136.691V172.212H170.17V170.844Z" fill="#DBDBDB"/>
<path d="M160.874 175.751H136.691V176.899H160.874V175.751Z" fill="#DBDBDB"/>
<path d="M180.993 175.751H163.185V176.899H180.993V175.751Z" fill="#DBDBDB"/>
<path d="M153.43 178.725H136.691V179.874H153.43V178.725Z" fill="#DBDBDB"/>
<path d="M172.288 178.725H155.549V179.874H172.288V178.725Z" fill="#DBDBDB"/>
<path d="M166.697 181.707H136.691V182.856H166.697V181.707Z" fill="#DBDBDB"/>
<path d="M180.993 181.707H169.061V182.856H180.993V181.707Z" fill="#DBDBDB"/>
<path d="M160.874 184.681H136.691V185.83H160.874V184.681Z" fill="#DBDBDB"/>
<path d="M193.038 198.818H113.192V236.819H193.038V198.818Z" fill="#FFC727"/>
<path d="M113.195 203.02H193.041V198.816H113.195V203.02Z" fill="#455A64"/>
<path d="M122.369 207.942L153.112 207.888C163.357 207.908 173.609 207.895 183.855 207.942C173.609 207.988 163.357 207.975 153.112 207.995L122.369 207.942Z" fill="white"/>
<path d="M122.369 209.482L153.112 209.429C163.357 209.449 173.609 209.435 183.855 209.482C173.609 209.528 163.357 209.515 153.112 209.535L122.369 209.482Z" fill="white"/>
<path d="M122.369 211.022L153.112 210.969C163.357 210.989 173.609 210.976 183.855 211.022C173.609 211.069 163.357 211.056 153.112 211.075L122.369 211.022Z" fill="white"/>
<path d="M122.369 212.563L153.112 212.51C163.357 212.53 173.609 212.516 183.855 212.563C173.609 212.609 163.357 212.596 153.112 212.616L122.369 212.563Z" fill="white"/>
<path d="M122.369 214.103L153.112 214.05C163.357 214.07 173.609 214.057 183.855 214.103C173.609 214.15 163.357 214.137 153.112 214.157L122.369 214.103Z" fill="white"/>
<path d="M122.369 215.637L153.112 215.584C163.357 215.604 173.609 215.591 183.855 215.637C173.609 215.684 163.357 215.67 153.112 215.69L122.369 215.637Z" fill="white"/>
<path d="M122.369 217.178L153.112 217.125C163.357 217.144 173.609 217.131 183.855 217.178C173.609 217.224 163.357 217.211 153.112 217.231L122.369 217.178Z" fill="white"/>
<path d="M122.369 218.718L153.112 218.665C163.357 218.685 173.609 218.672 183.855 218.718C173.609 218.765 163.357 218.751 153.112 218.771L122.369 218.718Z" fill="white"/>
<path d="M122.369 220.259L153.112 220.206C163.357 220.225 173.609 220.212 183.855 220.259C173.609 220.305 163.357 220.292 153.112 220.312L122.369 220.259Z" fill="white"/>
<path d="M122.369 221.799L153.112 221.746C163.357 221.766 173.609 221.753 183.855 221.799C173.609 221.846 163.357 221.832 153.112 221.852L122.369 221.799Z" fill="white"/>
<path d="M122.369 223.34L153.112 223.287C163.357 223.307 173.609 223.293 183.855 223.34C173.609 223.386 163.357 223.373 153.112 223.393L122.369 223.34Z" fill="white"/>
<path d="M122.369 224.88L153.112 224.827C163.357 224.847 173.609 224.834 183.855 224.88C173.609 224.926 163.357 224.913 153.112 224.933L122.369 224.88Z" fill="white"/>
<path d="M122.369 226.421L153.112 226.367C163.357 226.387 173.609 226.374 183.855 226.421C173.609 226.467 163.357 226.454 153.112 226.474L122.369 226.421Z" fill="white"/>
<path d="M122.369 227.961L153.112 227.908C163.357 227.928 173.609 227.915 183.855 227.961C173.609 228.008 163.357 227.994 153.112 228.014L122.369 227.961Z" fill="white"/>
<path d="M122.369 229.495L153.112 229.442C163.357 229.462 173.609 229.449 183.855 229.495C173.609 229.542 163.357 229.528 153.112 229.548L122.369 229.495Z" fill="white"/>
<path d="M133.537 218.718H128.876V231.294H133.537V218.718Z" fill="#DBDBDB"/>
<path d="M142.182 213.399H137.521V231.294H142.182V213.399Z" fill="#263238"/>
<path d="M150.834 217.231H146.173V231.288H150.834V217.231Z" fill="white"/>
<path d="M159.486 212.563H154.825V231.294H159.486V212.563Z" fill="#DBDBDB"/>
<path d="M168.138 215.073H163.477V231.294H168.138V215.073Z" fill="#263238"/>
<path d="M176.79 224.263H172.129V231.294H176.79V224.263Z" fill="#EBEBEB"/>
<path d="M124.042 206.859L124.168 212.968L124.254 219.077C124.314 223.147 124.334 227.224 124.341 231.294L124.035 231.108L138.988 231.102L153.942 231.122L168.895 231.181L183.848 231.294L168.895 231.407L153.942 231.467L138.988 231.487L124.035 231.48H123.73V231.294C123.743 227.224 123.756 223.147 123.816 219.077L123.902 212.968L124.042 206.859Z" fill="white"/>
<path d="M133.537 232.583H128.876V232.841H133.537V232.583Z" fill="#EBEBEB"/>
<path d="M142.182 232.583H137.521V232.841H142.182V232.583Z" fill="#EBEBEB"/>
<path d="M150.834 232.583H146.173V232.841H150.834V232.583Z" fill="#EBEBEB"/>
<path d="M159.486 232.583H154.825V232.841H159.486V232.583Z" fill="#EBEBEB"/>
<path d="M168.138 232.583H163.477V232.841H168.138V232.583Z" fill="#EBEBEB"/>
<path d="M176.79 232.583H172.129V232.841H176.79V232.583Z" fill="#EBEBEB"/>
<path d="M193.038 242.629H113.192V280.63H193.038V242.629Z" fill="white"/>
<path d="M113.195 246.838H193.041V242.635H113.195V246.838Z" fill="#455A64"/>
<path d="M124.965 264.103C127.154 264.103 128.929 262.328 128.929 260.139C128.929 257.949 127.154 256.175 124.965 256.175C122.776 256.175 121.001 257.949 121.001 260.139C121.001 262.328 122.776 264.103 124.965 264.103Z" fill="#263238"/>
<path d="M170.17 256.175H136.691V257.542H170.17V256.175Z" fill="#263238"/>
<path d="M160.874 261.082H136.691V262.23H160.874V261.082Z" fill="#263238"/>
<path d="M180.993 261.082H163.185V262.23H180.993V261.082Z" fill="#263238"/>
<path d="M153.431 264.056H136.691V265.205H153.431V264.056Z" fill="#263238"/>
<path d="M172.288 264.056H155.549V265.205H172.288V264.056Z" fill="#263238"/>
<path d="M166.697 267.031H136.691V268.18H166.697V267.031Z" fill="#263238"/>
<path d="M180.993 267.031H169.061V268.18H180.993V267.031Z" fill="#263238"/>
<path d="M160.874 270.012H136.691V271.161H160.874V270.012Z" fill="#263238"/>
<path d="M209.18 114.816V113.156H210.84" stroke="#DBDBDB" stroke-miterlimit="10"/>
<path d="M214.167 113.156H285.699" stroke="#DBDBDB" stroke-miterlimit="10" stroke-dasharray="5.01 5.01"/>
<path d="M287.366 113.156H289.026V114.816" stroke="#DBDBDB" stroke-miterlimit="10"/>
<path d="M289.026 117.969V147.916" stroke="#DBDBDB" stroke-miterlimit="10" stroke-dasharray="4.75 4.75"/>
<path d="M289.026 149.496V151.156H287.366" stroke="#DBDBDB" stroke-miterlimit="10"/>
<path d="M284.039 151.156H212.5" stroke="#DBDBDB" stroke-miterlimit="10" stroke-dasharray="5.01 5.01"/>
<path d="M210.84 151.156H209.18V149.496" stroke="#DBDBDB" stroke-miterlimit="10"/>
<path d="M209.18 146.342V116.389" stroke="#DBDBDB" stroke-miterlimit="10" stroke-dasharray="4.75 4.75"/>
<path d="M250.434 124.211H247.772V140.107H250.434V124.211Z" fill="#DBDBDB"/>
<path d="M241.158 130.823V133.486H257.054V130.823H241.158Z" fill="#DBDBDB"/>
<path d="M209.18 244.289V242.629H210.84" stroke="#DBDBDB" stroke-miterlimit="10"/>
<path d="M214.167 242.629H285.699" stroke="#DBDBDB" stroke-miterlimit="10" stroke-dasharray="5.01 5.01"/>
<path d="M287.366 242.629H289.026V244.289" stroke="#DBDBDB" stroke-miterlimit="10"/>
<path d="M289.026 247.443V277.396" stroke="#DBDBDB" stroke-miterlimit="10" stroke-dasharray="4.75 4.75"/>
<path d="M289.026 278.97V280.63H287.366" stroke="#DBDBDB" stroke-miterlimit="10"/>
<path d="M284.039 280.63H212.5" stroke="#DBDBDB" stroke-miterlimit="10" stroke-dasharray="5.01 5.01"/>
<path d="M210.84 280.63H209.18V278.97" stroke="#DBDBDB" stroke-miterlimit="10"/>
<path d="M209.18 275.816V245.869" stroke="#DBDBDB" stroke-miterlimit="10" stroke-dasharray="4.75 4.75"/>
<path d="M250.434 253.685H247.772V269.581H250.434V253.685Z" fill="#DBDBDB"/>
<path d="M241.156 260.299V262.961H257.052V260.299H241.156Z" fill="#DBDBDB"/>
<path d="M305.161 194.967H385.007V156.966H305.161V194.967Z" stroke="white" stroke-miterlimit="10" stroke-dasharray="5 5"/>
<path d="M346.422 168.022H343.759V183.918H346.422V168.022Z" fill="white"/>
<path d="M337.14 174.635V177.298H353.036V174.635H337.14Z" fill="white"/>
<path d="M305.161 280.632H385.007V200.786H305.161V280.632Z" stroke="white" stroke-miterlimit="10" stroke-dasharray="5 5"/>
<path d="M346.422 232.762H343.759V248.658H346.422V232.762Z" fill="white"/>
<path d="M337.142 239.373V242.036H353.038V239.373H337.142Z" fill="white"/>
<path d="M144.028 101.582H142.733V105.925C142.733 106.177 142.541 106.37 142.289 106.37C142.043 106.37 141.844 106.177 141.844 105.925V101.582H140.556C140.303 101.582 140.111 101.37 140.111 101.124C140.111 100.872 140.303 100.679 140.556 100.679H144.028C144.274 100.679 144.473 100.872 144.473 101.124C144.473 101.376 144.274 101.582 144.028 101.582Z" fill="white"/>
<path d="M149.865 101.39C150.369 101.927 150.688 102.645 150.688 103.448C150.688 104.251 150.369 104.975 149.865 105.506C149.387 106.038 148.67 106.376 147.919 106.376C147.136 106.376 146.419 106.038 145.927 105.506C145.423 104.975 145.124 104.251 145.124 103.448C145.124 102.645 145.423 101.927 145.927 101.39C146.425 100.852 147.142 100.52 147.919 100.52C148.67 100.52 149.387 100.852 149.865 101.39ZM149.759 103.448C149.759 102.897 149.539 102.379 149.207 102.027C148.869 101.662 148.411 101.449 147.919 101.449C147.401 101.449 146.943 101.662 146.598 102.027C146.259 102.386 146.047 102.897 146.047 103.448C146.047 103.999 146.259 104.517 146.598 104.862C146.937 105.228 147.395 105.447 147.919 105.447C148.404 105.447 148.862 105.228 149.207 104.862C149.539 104.517 149.759 103.999 149.759 103.448Z" fill="white"/>
<path d="M154.739 105.931V101.131C154.739 100.878 154.931 100.686 155.183 100.686H156.146C157.713 100.686 158.988 101.961 158.988 103.528C158.988 105.108 157.72 106.383 156.146 106.383H155.183C154.931 106.376 154.739 106.177 154.739 105.931ZM155.642 105.473H156.146C157.222 105.467 158.085 104.603 158.085 103.521C158.085 102.452 157.222 101.582 156.146 101.582H155.642V105.473Z" fill="white"/>
<path d="M164.958 101.39C165.462 101.927 165.781 102.645 165.781 103.448C165.781 104.251 165.462 104.975 164.958 105.506C164.479 106.038 163.762 106.376 163.012 106.376C162.229 106.376 161.511 106.038 161.02 105.506C160.515 104.975 160.217 104.251 160.217 103.448C160.217 102.645 160.515 101.927 161.02 101.39C161.518 100.852 162.235 100.52 163.012 100.52C163.762 100.52 164.479 100.852 164.958 101.39ZM164.851 103.448C164.851 102.897 164.632 102.379 164.3 102.027C163.962 101.662 163.503 101.449 163.012 101.449C162.494 101.449 162.036 101.662 161.691 102.027C161.352 102.386 161.14 102.897 161.14 103.448C161.14 103.999 161.352 104.517 161.691 104.862C162.029 105.228 162.487 105.447 163.012 105.447C163.497 105.447 163.955 105.228 164.3 104.862C164.632 104.517 164.851 103.999 164.851 103.448Z" fill="white"/>
<path d="M222.433 101.13C222.433 100.878 222.626 100.686 222.878 100.686C223.124 100.686 223.336 100.878 223.336 101.13V105.931C223.336 106.183 223.124 106.376 222.878 106.376C222.626 106.376 222.433 106.183 222.433 105.931V101.13Z" fill="#DBDBDB"/>
<path d="M225.753 105.931C225.753 106.177 225.548 106.376 225.315 106.376C225.063 106.376 224.87 106.17 224.87 105.931V101.203C224.87 101.203 224.87 101.203 224.87 101.197C224.864 101.057 224.93 100.911 225.05 100.825C225.255 100.686 225.528 100.725 225.667 100.925L228.297 104.563V101.21C228.297 100.971 228.489 100.772 228.735 100.772C228.98 100.772 229.18 100.978 229.18 101.21V105.938C229.18 106.183 228.974 106.383 228.735 106.383C228.602 106.383 228.482 106.316 228.403 106.217C228.389 106.203 228.37 106.183 228.363 106.17L225.76 102.558V105.931H225.753Z" fill="#DBDBDB"/>
<path d="M235.481 104.165H234.478V105.931C234.478 106.177 234.272 106.376 234.02 106.376C233.774 106.376 233.575 106.17 233.575 105.931V101.13C233.575 100.878 233.781 100.686 234.02 100.686H234.027H235.474C236.444 100.686 237.221 101.469 237.221 102.432C237.234 103.381 236.45 104.165 235.481 104.165ZM234.485 103.262H235.488C235.959 103.262 236.324 102.89 236.331 102.432C236.324 101.96 235.959 101.589 235.488 101.589H234.485V103.262Z" fill="#DBDBDB"/>
<path d="M242.094 105.699C242.174 105.938 242.048 106.19 241.809 106.27C241.776 106.276 241.709 106.296 241.63 106.296C241.63 106.296 241.63 106.296 241.623 106.296C241.543 106.296 241.417 106.283 241.304 106.21C241.198 106.144 241.112 106.037 241.045 105.925C240.932 105.685 240.873 105.393 240.873 104.948C240.866 104.796 240.833 104.689 240.773 104.597C240.727 104.51 240.627 104.424 240.527 104.357C240.355 104.245 240.142 104.178 240.069 104.165H239.106V105.931C239.106 106.177 238.901 106.376 238.648 106.376C238.396 106.376 238.203 106.17 238.203 105.931V101.13C238.203 100.878 238.396 100.686 238.648 100.686C238.648 100.686 238.648 100.686 238.655 100.686H240.102C241.072 100.686 241.842 101.469 241.842 102.432C241.842 102.97 241.596 103.441 241.205 103.767C241.311 103.846 241.41 103.946 241.49 104.065C241.656 104.304 241.756 104.603 241.756 104.942C241.749 105.187 241.769 105.34 241.789 105.42C241.942 105.466 242.048 105.566 242.094 105.699ZM240.952 102.432C240.952 101.96 240.58 101.589 240.116 101.589H239.113V103.262H240.116C240.58 103.262 240.952 102.883 240.952 102.432Z" fill="#DBDBDB"/>
<path d="M247.765 101.389C248.27 101.927 248.588 102.644 248.588 103.448C248.588 104.251 248.27 104.975 247.765 105.506C247.287 106.037 246.57 106.376 245.819 106.376C245.036 106.376 244.319 106.037 243.827 105.506C243.323 104.975 243.024 104.251 243.024 103.448C243.024 102.644 243.323 101.927 243.827 101.389C244.325 100.852 245.043 100.52 245.819 100.52C246.57 100.52 247.287 100.852 247.765 101.389ZM247.665 103.448C247.665 102.897 247.446 102.379 247.114 102.027C246.776 101.662 246.317 101.449 245.826 101.449C245.308 101.449 244.85 101.662 244.505 102.027C244.166 102.385 243.954 102.897 243.954 103.448C243.954 103.999 244.166 104.517 244.505 104.862C244.843 105.227 245.302 105.446 245.826 105.446C246.311 105.446 246.769 105.227 247.114 104.862C247.44 104.517 247.665 103.999 247.665 103.448Z" fill="#DBDBDB"/>
<path d="M249.943 103.454C249.943 101.821 251.291 100.52 252.944 100.52C253.635 100.52 254.292 100.759 254.797 101.157C255.009 101.31 255.042 101.615 254.883 101.814C254.73 102.007 254.425 102.053 254.226 101.887C253.874 101.622 253.429 101.449 252.938 101.449C252.353 101.449 251.842 101.668 251.47 102.04C251.085 102.405 250.859 102.903 250.859 103.454C250.859 103.992 251.085 104.49 251.47 104.855C251.835 105.227 252.347 105.446 252.938 105.446C253.343 105.446 253.728 105.327 254.053 105.134V104.019H252.891C252.639 104.019 252.426 103.806 252.426 103.554C252.426 103.295 252.639 103.096 252.891 103.096H254.491C254.498 103.096 254.498 103.096 254.498 103.096C254.505 103.096 254.505 103.096 254.505 103.096C254.764 103.096 254.976 103.288 254.976 103.554V105.353C254.976 105.413 254.963 105.44 254.949 105.493C254.943 105.506 254.943 105.519 254.936 105.533V105.539C254.91 105.612 254.863 105.679 254.783 105.732C254.272 106.13 253.628 106.369 252.938 106.369C251.297 106.376 249.943 105.081 249.943 103.454Z" fill="#DBDBDB"/>
<path d="M260.593 105.699C260.673 105.938 260.547 106.19 260.308 106.27C260.275 106.276 260.208 106.296 260.129 106.296C260.129 106.296 260.129 106.296 260.122 106.296C260.042 106.296 259.916 106.283 259.803 106.21C259.697 106.144 259.611 106.037 259.544 105.925C259.431 105.685 259.372 105.393 259.372 104.948C259.365 104.796 259.332 104.689 259.272 104.597C259.226 104.51 259.126 104.424 259.026 104.357C258.854 104.245 258.641 104.178 258.568 104.165H257.605V105.931C257.605 106.177 257.4 106.376 257.147 106.376C256.895 106.376 256.702 106.17 256.702 105.931V101.13C256.702 100.878 256.895 100.686 257.147 100.686C257.147 100.686 257.147 100.686 257.154 100.686H258.601C259.571 100.686 260.341 101.469 260.341 102.432C260.341 102.97 260.095 103.441 259.704 103.767C259.81 103.846 259.91 103.946 259.989 104.065C260.155 104.304 260.261 104.603 260.261 104.942C260.255 105.187 260.275 105.34 260.295 105.42C260.434 105.466 260.54 105.566 260.593 105.699ZM259.451 102.432C259.451 101.96 259.08 101.589 258.615 101.589H257.612V103.262H258.615C259.08 103.262 259.451 102.883 259.451 102.432Z" fill="#DBDBDB"/>
<path d="M261.915 105.931V101.13C261.915 100.878 262.107 100.686 262.36 100.686H262.366C262.366 100.686 262.366 100.686 262.386 100.686H265.022C265.261 100.686 265.467 100.878 265.467 101.13C265.467 101.383 265.255 101.589 265.022 101.589H262.818V103.076H264.71C264.956 103.076 265.155 103.288 265.155 103.521C265.155 103.773 264.949 103.979 264.71 103.979H262.818V105.48H265.022C265.261 105.48 265.467 105.685 265.467 105.938C265.467 106.183 265.255 106.383 265.022 106.383H262.386C262.366 106.383 262.366 106.376 262.366 106.376L262.36 106.383C262.107 106.376 261.915 106.177 261.915 105.931Z" fill="#DBDBDB"/>
<path d="M266.563 104.962C266.709 104.782 266.975 104.756 267.154 104.902C267.512 105.194 268.13 105.539 268.708 105.526C269.113 105.526 269.478 105.407 269.723 105.227C269.969 105.048 270.075 104.842 270.075 104.643C270.075 104.537 270.049 104.464 270.002 104.384C269.956 104.304 269.883 104.225 269.757 104.138C269.518 103.986 269.119 103.846 268.641 103.753H268.628C268.243 103.68 267.891 103.581 267.579 103.435C267.267 103.288 267.001 103.083 266.822 102.797C266.702 102.605 266.636 102.372 266.636 102.133C266.636 101.642 266.915 101.223 267.287 100.945C267.672 100.666 268.163 100.513 268.694 100.513C269.478 100.513 270.055 100.898 270.467 101.164C270.653 101.296 270.713 101.555 270.58 101.741C270.461 101.934 270.195 101.994 270.002 101.861C269.584 101.582 269.186 101.343 268.694 101.343C268.329 101.343 268.004 101.456 267.785 101.622C267.565 101.788 267.473 101.96 267.473 102.133C267.473 102.233 267.486 102.292 267.532 102.359C267.572 102.425 267.645 102.498 267.751 102.571C267.964 102.717 268.329 102.85 268.767 102.93H268.781C269.192 103.01 269.577 103.116 269.903 103.269C270.235 103.428 270.527 103.64 270.719 103.946C270.839 104.138 270.912 104.384 270.912 104.636C270.912 105.154 270.62 105.606 270.215 105.898C269.816 106.19 269.285 106.363 268.708 106.363C267.831 106.356 267.087 105.918 266.623 105.546C266.45 105.407 266.423 105.141 266.563 104.962Z" fill="#DBDBDB"/>
<path d="M271.908 104.962C272.054 104.782 272.326 104.756 272.506 104.902C272.864 105.194 273.482 105.539 274.059 105.526C274.464 105.526 274.83 105.407 275.075 105.227C275.321 105.048 275.427 104.842 275.427 104.643C275.427 104.537 275.401 104.464 275.354 104.384C275.308 104.304 275.235 104.225 275.109 104.138C274.869 103.986 274.471 103.846 273.993 103.753H273.98C273.595 103.68 273.236 103.581 272.931 103.435C272.625 103.288 272.353 103.083 272.174 102.797C272.054 102.605 271.988 102.372 271.988 102.133C271.988 101.642 272.267 101.223 272.638 100.945C273.024 100.666 273.515 100.513 274.046 100.513C274.83 100.513 275.407 100.898 275.819 101.164C276.005 101.296 276.065 101.555 275.932 101.741C275.812 101.934 275.547 101.994 275.354 101.861C274.943 101.582 274.537 101.343 274.046 101.343C273.681 101.343 273.356 101.456 273.136 101.622C272.917 101.788 272.831 101.96 272.831 102.133C272.831 102.233 272.844 102.292 272.891 102.359C272.931 102.425 273.004 102.498 273.11 102.571C273.322 102.717 273.688 102.85 274.126 102.93H274.139C274.551 103.01 274.936 103.116 275.261 103.269C275.593 103.428 275.885 103.64 276.078 103.946C276.197 104.138 276.271 104.384 276.271 104.636C276.271 105.154 275.978 105.606 275.573 105.898C275.175 106.19 274.644 106.363 274.066 106.363C273.19 106.356 272.446 105.918 271.981 105.546C271.795 105.407 271.775 105.141 271.908 104.962Z" fill="#DBDBDB"/>
<path d="M334.424 105.931V101.131C334.424 100.878 334.616 100.686 334.869 100.686H335.831C337.398 100.686 338.673 101.961 338.673 103.528C338.673 105.108 337.405 106.383 335.831 106.383H334.869C334.623 106.376 334.424 106.177 334.424 105.931ZM335.327 105.473H335.831C336.907 105.467 337.77 104.603 337.77 103.521C337.77 102.452 336.907 101.582 335.831 101.582H335.327V105.473Z" fill="white"/>
<path d="M344.649 101.39C345.154 101.927 345.473 102.645 345.473 103.448C345.473 104.251 345.154 104.975 344.649 105.506C344.171 106.038 343.454 106.376 342.704 106.376C341.92 106.376 341.203 106.038 340.712 105.506C340.207 104.975 339.908 104.251 339.908 103.448C339.908 102.645 340.207 101.927 340.712 101.39C341.21 100.852 341.927 100.52 342.704 100.52C343.454 100.52 344.171 100.852 344.649 101.39ZM344.543 103.448C344.543 102.897 344.324 102.379 343.992 102.027C343.653 101.662 343.195 101.449 342.704 101.449C342.186 101.449 341.728 101.662 341.382 102.027C341.044 102.386 340.831 102.897 340.831 103.448C340.831 103.999 341.044 104.517 341.382 104.862C341.721 105.228 342.179 105.447 342.704 105.447C343.195 105.447 343.647 105.228 343.992 104.862C344.324 104.517 344.543 103.999 344.543 103.448Z" fill="white"/>
<path d="M347.763 105.931C347.763 106.177 347.558 106.376 347.325 106.376C347.073 106.376 346.88 106.17 346.88 105.931V101.204C346.88 101.204 346.88 101.204 346.88 101.197C346.874 101.058 346.94 100.912 347.06 100.825C347.265 100.686 347.538 100.726 347.677 100.925L350.307 104.564V101.21C350.307 100.971 350.499 100.772 350.745 100.772C350.99 100.772 351.19 100.978 351.19 101.21V105.938C351.19 106.184 350.984 106.383 350.745 106.383C350.612 106.383 350.492 106.317 350.413 106.217C350.393 106.204 350.38 106.184 350.373 106.17L347.77 102.558V105.931H347.763Z" fill="white"/>
<path d="M352.611 105.931V101.131C352.611 100.878 352.803 100.686 353.056 100.686H353.062C353.062 100.686 353.062 100.686 353.075 100.686H355.712C355.951 100.686 356.156 100.878 356.156 101.131C356.156 101.383 355.944 101.589 355.712 101.589H353.507V103.076H355.406C355.652 103.076 355.851 103.289 355.851 103.521C355.851 103.773 355.645 103.979 355.406 103.979H353.507V105.48H355.712C355.951 105.48 356.156 105.686 356.156 105.938C356.156 106.184 355.944 106.383 355.712 106.383H353.075C353.062 106.383 353.062 106.376 353.062 106.376L353.056 106.383C352.81 106.376 352.611 106.177 352.611 105.931Z" fill="white"/>
<path d="M295.012 208.978L372.375 228.724L381.772 191.905L304.41 172.159L295.012 208.978Z" fill="#FFC727"/>
<path d="M303.363 176.231L380.726 195.977L381.766 191.904L304.403 172.158L303.363 176.231Z" fill="#455A64"/>
<path d="M338.931 189.687L319.405 184.703L319.121 185.816L338.647 190.8L338.931 189.687Z" fill="white"/>
<path d="M355.182 193.83L340.803 190.16L340.519 191.273L354.898 194.943L355.182 193.83Z" fill="white"/>
<path d="M324.868 189.18L318.697 187.605L318.413 188.718L324.584 190.293L324.868 189.18Z" fill="white"/>
<path d="M365.271 199.485L347.489 194.946L347.204 196.059L364.987 200.598L365.271 199.485Z" fill="white"/>
<path d="M345.822 194.514L326.553 189.596L326.269 190.709L345.538 195.627L345.822 194.514Z" fill="white"/>
<path d="M314.427 183.408L310.432 182.389L309.412 186.385L313.408 187.404L314.427 183.408Z" fill="white"/>
<g opacity="0.1">
<path d="M336.433 199.48L316.908 194.497L316.624 195.61L336.149 200.593L336.433 199.48Z" fill="black"/>
<path d="M357.983 204.979L338.303 199.956L338.019 201.069L357.699 206.092L357.983 204.979Z" fill="black"/>
<path d="M338.161 202.989L316.171 197.377L315.887 198.49L337.877 204.102L338.161 202.989Z" fill="black"/>
<path d="M351.553 206.407L339.87 203.425L339.586 204.538L351.269 207.52L351.553 206.407Z" fill="black"/>
<path d="M369.036 207.8L359.99 205.491L359.706 206.604L368.752 208.913L369.036 207.8Z" fill="black"/>
<path d="M311.881 193.212L307.886 192.192L306.866 196.188L310.862 197.207L311.881 193.212Z" fill="black"/>
</g>
<path d="M347.085 212.626L314.409 204.286L314.125 205.399L346.801 213.739L347.085 212.626Z" fill="white"/>
<path d="M363.334 216.771L348.955 213.101L348.671 214.214L363.05 217.884L363.334 216.771Z" fill="white"/>
<path d="M327.188 210.618L313.671 207.168L313.387 208.281L326.904 211.731L327.188 210.618Z" fill="white"/>
<path d="M355.568 217.862L328.901 211.055L328.617 212.168L355.284 218.975L355.568 217.862Z" fill="white"/>
<path d="M309.385 203L305.389 201.981L304.37 205.976L308.365 206.996L309.385 203Z" fill="white"/>
<path d="M397.039 124.908C407.57 128.64 433.293 141.581 438.552 149.158C441.839 153.898 426.965 170.153 413.699 180.173C410.936 182.258 397.118 170.087 396.209 166.422C395.585 163.925 415.246 153.879 414.19 152.146C412.251 148.965 398.008 137.518 391.182 129.855C387.371 125.572 390.492 122.591 397.039 124.908Z" fill="#FEA574"/>
<path d="M411.414 151.807L427.921 138.912C427.921 138.912 411.753 128.839 398.612 125.074C388.347 122.133 386.534 125.313 392.597 131.986C398.652 138.66 411.414 151.807 411.414 151.807Z" fill="#A766FE"/>
<path opacity="0.1" d="M421.434 143.972L411.408 151.807C411.408 151.807 398.652 138.66 392.59 131.987C387.696 126.588 387.935 123.481 393.619 124.032L421.434 143.972Z" fill="black"/>
<path d="M411.248 154.091L430.113 139.974L429.196 139.695L429.482 138.162L428.785 137.949L427.55 136.375L409.19 151.13L410.153 151.422L410.159 152.803L411.069 152.956L411.248 154.091Z" fill="#A766FE"/>
<path opacity="0.1" d="M411.248 154.091L430.113 139.974L429.196 139.695L429.482 138.162L428.785 137.949L427.55 136.375L409.19 151.13L410.153 151.422L410.159 152.803L411.069 152.956L411.248 154.091Z" fill="black"/>
<path d="M434.873 296.028C434.873 296.028 435.385 328.126 435.385 328.146C435.305 334.161 435.132 339.434 434.787 342.149C434.787 342.163 434.787 342.176 434.78 342.196C434.654 343.218 434.501 343.876 434.316 344.048C434.302 344.062 434.296 344.075 434.282 344.088C432.476 345.277 384.389 346.054 382.709 345.516C381.016 344.985 382.424 340.131 384.263 338.61C386.122 337.09 404.389 328.557 404.389 328.557L404.183 296.028H434.873Z" fill="#FEA574"/>
<path d="M435.498 321.691C435.498 321.691 435.378 328.126 435.378 328.145C435.298 334.161 435.126 339.433 434.781 342.149C434.781 342.163 434.781 342.176 434.774 342.196C434.588 343.205 434.422 343.876 434.309 344.048C434.296 344.062 434.289 344.075 434.276 344.088C432.47 345.277 384.383 346.054 382.703 345.516C381.01 344.985 382.418 340.131 384.257 338.61C386.116 337.09 404.383 328.557 404.383 328.557L404.416 322.003L435.498 321.691Z" fill="white"/>
<path d="M401.434 328.544C404.642 328.046 408.526 328.657 410.89 331.007C410.983 331.1 410.85 331.226 410.75 331.193C407.636 330.104 404.721 329.374 401.434 328.949C401.202 328.922 401.202 328.584 401.434 328.544Z" fill="#263238"/>
<path d="M399.084 329.858C402.291 329.36 406.175 329.971 408.539 332.322C408.632 332.415 408.499 332.541 408.4 332.508C405.286 331.419 402.371 330.688 399.084 330.264C398.858 330.237 398.858 329.898 399.084 329.858Z" fill="#263238"/>
<path d="M396.74 331.18C399.947 330.682 403.832 331.293 406.195 333.643C406.288 333.736 406.156 333.862 406.056 333.829C402.942 332.74 400.027 332.01 396.74 331.585C396.514 331.552 396.514 331.213 396.74 331.18Z" fill="#263238"/>
<path d="M382.696 345.516C384.383 346.054 432.443 346.16 434.256 344.965C434.953 344.526 435.265 336.631 435.385 328.145C435.385 328.059 435.385 327.966 435.385 327.88L404.363 328.033L404.383 328.557C404.383 328.557 386.109 337.083 384.257 338.61C382.411 340.124 381.003 344.985 382.696 345.516Z" fill="#A6A6A6"/>
<path d="M383.208 343.637C391.308 343.305 424.017 342.74 432.051 343.032C432.118 343.032 432.118 343.079 432.051 343.086C424.03 343.59 391.315 343.889 383.208 343.769C383.042 343.769 383.035 343.65 383.208 343.637Z" fill="#263238"/>
<path opacity="0.1" d="M406.813 328.112L388.765 345.781C385.326 345.715 383.042 345.622 382.696 345.516C381.01 344.978 382.418 340.131 384.25 338.61C386.103 337.089 404.376 328.557 404.376 328.557L404.356 328.039L406.72 328.026L406.813 328.112Z" fill="black"/>
<path d="M436.487 327.74L401.428 328.152C401.428 328.152 400.624 275.464 400.658 256.573C400.697 235 403.931 170.618 403.931 170.618L429.94 170.87C429.94 170.87 434.063 180 435.604 191.189C436.016 194.197 435.544 202.955 434.508 206.959L433.579 259.395L436.487 327.74Z" fill="#37474F"/>
<path d="M406.262 290.278C405.95 280.909 405.77 276.048 405.604 266.672C405.272 247.928 405.332 229.176 405.75 210.432C405.99 199.914 406.368 189.403 406.786 178.892C406.793 178.772 406.607 178.779 406.6 178.892C405.418 197.703 404.854 216.56 404.648 235.405C404.442 254.156 404.622 268.399 405.365 287.137C405.784 297.655 406.315 308.179 407.205 318.664C407.211 318.757 407.351 318.757 407.351 318.664C407.019 309.195 406.58 299.74 406.262 290.278Z" fill="#263238"/>
<path d="M406.049 321.386C413.041 320.914 420.066 320.901 427.072 321.034C429.05 321.074 431.029 321.127 433.008 321.227C433.081 321.233 433.074 321.333 433.008 321.339C426.016 321.771 418.991 321.851 411.985 321.711C410.007 321.671 408.028 321.612 406.049 321.499C405.97 321.499 405.976 321.393 406.049 321.386Z" fill="#263238"/>
<path d="M387.258 298.398C387.258 298.398 387.139 328.584 387.139 328.61C387.059 334.626 386.886 339.898 386.541 342.614C386.541 342.627 386.541 342.641 386.534 342.661C386.408 343.683 386.255 344.341 386.07 344.513C386.056 344.527 386.05 344.54 386.036 344.553C384.23 345.742 336.143 346.519 334.457 345.981C332.764 345.449 334.171 340.596 336.011 339.075C337.87 337.555 356.136 329.022 356.136 329.022L357.903 298.485L387.258 298.398Z" fill="#FEA574"/>
<path d="M387.258 322.15C387.258 322.15 387.139 328.584 387.139 328.604C387.059 334.62 386.886 339.892 386.541 342.607C386.541 342.621 386.541 342.634 386.534 342.654C386.348 343.663 386.182 344.334 386.07 344.507C386.056 344.52 386.05 344.533 386.036 344.546C384.23 345.735 336.143 346.512 334.457 345.974C332.764 345.443 334.171 340.589 336.011 339.068C337.87 337.548 356.136 329.015 356.136 329.015L356.163 322.462L387.258 322.15Z" fill="white"/>
<path d="M353.188 329.009C356.395 328.511 360.28 329.122 362.644 331.472C362.737 331.565 362.604 331.691 362.504 331.658C359.39 330.569 356.475 329.839 353.188 329.414C352.962 329.381 352.962 329.042 353.188 329.009Z" fill="#263238"/>
<path d="M350.844 330.324C354.051 329.826 357.936 330.436 360.3 332.787C360.393 332.88 360.26 333.006 360.16 332.973C357.046 331.884 354.131 331.154 350.844 330.729C350.619 330.695 350.619 330.357 350.844 330.324Z" fill="#263238"/>
<path d="M348.5 331.638C351.707 331.14 355.592 331.751 357.956 334.102C358.049 334.195 357.916 334.321 357.816 334.288C354.702 333.199 351.787 332.468 348.5 332.043C348.268 332.01 348.275 331.671 348.5 331.638Z" fill="#263238"/>
<path d="M334.457 345.974C336.143 346.512 384.39 346.811 386.202 345.615C386.9 345.177 387.026 337.09 387.139 328.604C387.139 328.517 387.139 328.424 387.139 328.338L356.116 328.491L356.136 329.015C356.136 329.015 337.863 337.541 336.011 339.068C334.171 340.589 332.764 345.443 334.457 345.974Z" fill="#A6A6A6"/>
<path d="M334.968 343.955C343.069 343.677 375.784 343.305 383.812 343.643C383.878 343.643 383.878 343.69 383.812 343.696C375.784 344.148 343.076 344.254 334.968 344.095C334.795 344.088 334.795 343.962 334.968 343.955Z" fill="#263238"/>
<path d="M414.522 204.024C414.515 204.044 395.306 249.535 393.599 256.812C391.992 263.678 389.15 328.61 389.15 328.61L354.888 328.345C354.888 328.345 359.928 262.642 360.565 255.298C361.402 245.657 369.795 223.678 378.686 200.179C382.457 190.219 387.524 180.459 390.186 170.485L429.137 170.87C429.137 170.87 428.625 188.46 420.498 201.102C420.498 201.096 416.859 202.742 414.522 204.024Z" fill="#37474F"/>
<path d="M358.049 321.924C365.047 321.585 372.072 321.705 379.071 321.977C381.05 322.05 383.028 322.143 385.001 322.282C385.074 322.289 385.067 322.389 384.994 322.395C377.995 322.694 370.964 322.641 363.972 322.369C361.993 322.289 360.014 322.196 358.042 322.043C357.969 322.03 357.976 321.924 358.049 321.924Z" fill="#263238"/>
<path d="M405.578 204.801C407.377 204.788 409.17 204.681 410.95 204.369C412.742 204.05 414.416 203.473 416.162 202.981C417.815 202.51 419.575 202.457 421.268 202.198C422.988 201.939 424.701 201.507 426.281 200.757C426.354 200.724 426.414 200.83 426.341 200.87C424.781 201.653 423.207 202.391 421.534 202.895C419.814 203.42 418.028 203.473 416.282 203.885C414.489 204.303 412.762 204.867 410.923 205.06C409.137 205.246 407.337 205.226 405.565 204.914C405.492 204.907 405.518 204.801 405.578 204.801Z" fill="#263238"/>
<path d="M402.231 233.227C402.61 232.164 402.962 231.095 403.36 230.033C404.163 227.888 404.98 225.743 405.87 223.619C407.636 219.396 409.31 215.146 411.175 210.949C412.238 208.566 413.187 206.155 414.422 203.825C414.456 203.765 414.562 203.792 414.548 203.851C413.918 206.029 413.028 208.161 412.238 210.312C411.441 212.457 410.591 214.595 409.741 216.726C408.048 220.969 406.395 225.219 404.549 229.422C404.031 230.604 403.5 231.779 402.942 232.948C402.371 234.143 401.919 235.378 401.242 236.54C401.202 236.606 401.089 236.573 401.102 236.507C401.375 235.398 401.846 234.316 402.231 233.227Z" fill="#263238"/>
<path d="M395.093 172.876C395.113 172.756 395.219 172.829 395.206 172.922C394.907 176.063 394.363 179.463 393.261 182.437L389.954 191.614L383.321 209.954C378.4 223.725 373.274 237.43 368.713 251.314C368.161 252.848 367.982 254.402 367.856 256.029C366.289 273.671 363.992 299.368 362.498 317.402C362.491 317.468 362.331 317.548 362.325 317.402C362.318 317.117 363.6 297.96 363.6 297.96C364.403 286.38 365.459 277.064 366.375 265.683C366.634 262.443 366.88 259.202 367.185 255.962C367.305 254.335 367.504 252.662 368.055 251.108C374.509 231.607 382.464 210.83 389.635 191.488L393.108 182.371C394.283 179.356 394.735 176.09 395.093 172.876Z" fill="#263238"/>
<path d="M389.449 134.709C391.315 134.098 393.845 129.231 394.243 125.771C394.27 125.532 393.141 123.613 391.886 121.21C391.129 119.749 390.319 118.109 389.688 116.555L380.91 122.87C380.91 122.87 383.188 125.738 384.27 128.447C384.356 128.673 384.423 128.892 384.463 129.111C384.469 129.145 384.476 129.178 384.489 129.224C384.781 130.519 386.521 135.665 389.449 134.709Z" fill="#FEA574"/>
<path d="M384.489 129.231C384.808 129.151 385.153 129.038 385.512 128.879C390.87 126.568 389.702 119.41 389.131 116.96L380.91 122.876C380.91 122.876 383.188 125.738 384.27 128.454C384.356 128.68 384.423 128.899 384.456 129.118C384.469 129.151 384.476 129.191 384.489 129.231Z" fill="#263238"/>
<path d="M388.188 104.829C390.286 108.109 391.289 119.012 389.383 122.033C386.621 126.416 380.651 128.434 376.561 124.775C372.597 121.236 371.541 107.007 373.805 104.112C377.139 99.8489 385.087 99.9817 388.188 104.829Z" fill="#FEA574"/>
<path d="M390.352 114.603C390.505 117.737 390.233 120.679 389.376 122.033C386.614 126.416 380.645 128.434 376.554 124.782C373.779 122.306 372.431 114.59 372.65 109.191C372.65 109.191 372.65 109.185 372.65 109.178C372.743 106.874 373.122 104.982 373.799 104.119C377.139 99.8557 385.087 99.9818 388.188 104.829C389.35 106.642 390.166 110.765 390.352 114.603Z" fill="#FEA574"/>
<path d="M379.722 114.742C379.722 114.716 379.781 114.769 379.788 114.802C379.841 115.539 380.027 116.369 380.718 116.542C380.738 116.548 380.738 116.582 380.718 116.582C379.888 116.555 379.655 115.446 379.722 114.742Z" fill="#263238"/>
<path d="M380.293 113.906C381.461 113.693 381.8 116.05 380.718 116.243C379.655 116.442 379.317 114.085 380.293 113.906Z" fill="#263238"/>
<path d="M375.446 115.174C375.439 115.147 375.392 115.214 375.399 115.247C375.525 115.971 375.552 116.827 374.928 117.166C374.908 117.179 374.914 117.212 374.941 117.206C375.724 116.973 375.685 115.844 375.446 115.174Z" fill="#263238"/>
<path d="M374.682 114.51C373.493 114.59 373.746 116.96 374.841 116.88C375.924 116.807 375.678 114.444 374.682 114.51Z" fill="#263238"/>
<path d="M381.056 112.764C380.724 112.73 380.426 112.644 380.1 112.571C379.735 112.491 379.436 112.472 379.157 112.193C379.011 112.04 379.018 111.734 379.151 111.575C379.456 111.21 379.934 111.197 380.379 111.27C380.864 111.349 381.216 111.535 381.534 111.9C381.846 112.259 381.495 112.81 381.056 112.764Z" fill="#263238"/>
<path d="M373.686 113.587C374.005 113.487 374.284 113.341 374.589 113.209C374.934 113.063 375.22 112.976 375.432 112.651C375.545 112.472 375.479 112.173 375.313 112.047C374.941 111.754 374.469 111.827 374.051 111.993C373.593 112.166 373.288 112.425 373.042 112.85C372.809 113.255 373.268 113.72 373.686 113.587Z" fill="#263238"/>
<path d="M381.229 121.316C381.076 121.515 380.937 121.774 380.678 121.834C380.426 121.894 380.113 121.821 379.868 121.761C379.841 121.754 379.821 121.781 379.841 121.801C380.074 122.053 380.492 122.173 380.824 122.066C381.149 121.96 381.269 121.655 381.302 121.336C381.309 121.296 381.249 121.289 381.229 121.316Z" fill="#263238"/>
<path d="M380.147 119.244C379.828 119.935 379.277 120.366 378.646 120.586C378.367 120.685 378.062 120.738 377.756 120.758C377.696 120.765 377.637 120.765 377.584 120.765C377.531 120.765 377.477 120.765 377.418 120.765C377.331 120.765 377.272 120.698 377.245 120.625V120.619C377.245 120.592 377.238 120.572 377.238 120.546C377.238 120.546 377.238 120.546 377.238 120.539L377.232 120.473C377.132 119.915 377.066 119.052 377.066 119.052C376.873 119.185 375.897 119.809 375.871 119.51C375.665 117.06 375.439 114.337 375.751 111.854C375.758 111.774 375.884 111.774 375.884 111.854C376.176 114.198 376.05 116.582 376.302 118.945C376.621 118.773 377.125 118.454 377.424 118.421C377.511 118.434 377.53 120.088 377.59 120.34C377.59 120.34 377.59 120.353 377.597 120.366C378.56 120.353 379.23 119.961 380.054 119.198C380.113 119.138 380.18 119.178 380.147 119.244Z" fill="#263238"/>
<path d="M378.048 120.426C378.048 120.426 378.646 121.024 379.363 121.17C379.629 121.223 379.901 121.223 380.173 121.103C380.731 120.864 380.671 120.327 380.499 119.888C380.359 119.523 380.133 119.224 380.133 119.224C380.133 119.224 379.403 120.141 378.048 120.426Z" fill="#263238"/>
<path d="M379.363 121.17C379.629 121.223 379.901 121.223 380.173 121.104C380.731 120.864 380.671 120.327 380.499 119.888C379.881 120.041 379.323 120.552 379.363 121.17Z" fill="#FF9ABB"/>
<path d="M390.067 114.756C387.371 115.34 385.479 112.299 385.744 109.59C385.744 109.59 378.639 111.595 377.451 105.832C377.451 105.832 375.997 108.873 372.723 109.437L372.617 111.383C371.84 111.276 370.744 109.278 372.325 107.359C372.325 107.359 372.033 104.444 373.918 102.392C375.804 100.347 378.095 101.184 378.095 101.184C378.095 101.184 379.589 99.5236 382.305 99.4771C385.02 99.4372 386.475 101.708 386.475 101.708C386.475 101.708 390.16 101.874 391.142 104.338C392.119 106.801 391.05 108.7 391.05 108.7C391.05 108.7 392.092 109.57 391.953 111.814C391.853 113.248 390.877 114.583 390.067 114.756Z" fill="#263238"/>
<path d="M377.537 105.294C377.557 105.772 377.61 106.257 377.723 106.715C377.816 107.179 377.982 107.631 378.181 108.049C378.6 108.886 379.29 109.57 380.16 109.895C381.016 110.287 381.993 110.221 382.929 110.181C383.394 110.101 383.872 110.048 384.336 109.942C384.801 109.829 385.266 109.696 385.738 109.59C385.293 109.769 384.834 109.928 384.383 110.101C383.918 110.247 383.44 110.327 382.962 110.44C381.999 110.539 380.977 110.606 380.034 110.207C379.098 109.835 378.334 109.072 377.949 108.156C377.564 107.246 377.438 106.25 377.537 105.294Z" fill="#263238"/>
<path d="M386.475 101.708C387.384 101.582 388.327 101.648 389.23 101.901C390.127 102.153 390.983 102.684 391.528 103.494C391.78 103.906 391.959 104.351 392.065 104.809C392.192 105.261 392.238 105.745 392.198 106.217C392.132 107.16 391.727 108.076 391.05 108.7C391.614 107.983 391.926 107.087 391.939 106.204C391.946 105.327 391.714 104.411 391.242 103.687C391.01 103.322 390.698 103.01 390.339 102.751C389.974 102.505 389.575 102.306 389.151 102.16C388.301 101.854 387.391 101.722 386.475 101.708Z" fill="#263238"/>
<path d="M378.095 101.183C377.364 101.037 376.627 100.991 375.91 101.077C375.193 101.164 374.503 101.403 373.932 101.828C373.361 102.246 372.936 102.843 372.63 103.494C372.331 104.158 372.145 104.875 372.053 105.612C372.006 104.869 372.132 104.112 372.391 103.395C372.65 102.677 373.108 102.02 373.732 101.555C374.363 101.097 375.127 100.851 375.89 100.818C376.647 100.778 377.404 100.898 378.095 101.183Z" fill="#263238"/>
<path d="M374.29 109.191C375.054 108.78 375.751 108.302 376.315 107.691C376.608 107.392 376.833 107.047 377.039 106.681C377.252 106.316 377.358 105.911 377.491 105.493C377.497 105.925 377.451 106.376 377.278 106.788C377.119 107.206 376.873 107.591 376.568 107.917C376.262 108.242 375.91 108.521 375.519 108.733C375.127 108.946 374.722 109.118 374.29 109.191Z" fill="#263238"/>
<path d="M387.69 114.576C387.69 114.576 389.177 110.599 390.923 111.044C392.67 111.489 392.158 116.834 390.532 117.963C388.911 119.092 387.829 117.611 387.829 117.611L387.69 114.576Z" fill="#FEA574"/>
<path d="M390.737 112.571C390.764 112.558 390.784 112.598 390.757 112.618C389.629 113.454 389.27 114.789 389.117 116.124C389.37 115.559 389.815 115.174 390.552 115.46C390.591 115.473 390.571 115.533 390.532 115.533C389.987 115.553 389.635 115.739 389.396 116.243C389.224 116.602 389.151 117.013 389.064 117.399C389.031 117.525 388.819 117.518 388.825 117.379C388.825 117.365 388.825 117.359 388.825 117.345C388.387 115.745 389.051 113.175 390.737 112.571Z" fill="#263238"/>
<path d="M436.487 193.5C436.487 193.5 411.056 198.207 396.999 198.506C392.059 198.612 377.418 195.784 377.418 195.784C377.139 195.624 382.564 189.655 383.234 180.405C384.456 163.573 381.793 137.81 384.29 130.088C385.259 127.093 391.707 122.976 395.306 124.112C402.643 126.422 418.234 147.02 427.397 163.985C433.944 176.109 436.487 193.5 436.487 193.5Z" fill="#A766FE"/>
<path d="M388.858 133.262C393.632 140.924 396.01 173.095 395.213 176.202C393.36 183.394 371.541 190.691 361.309 192.776C358.726 193.3 360.964 171.986 363.719 171.362C368.746 170.226 377.152 168.168 378.108 166.262C379.064 164.357 381.229 145.951 381.913 136.449C382.491 128.448 386.441 129.384 388.858 133.262Z" fill="#FEA574"/>
<path d="M364.988 171.568C364.988 171.568 360.598 170.864 356.442 170.366C351.442 169.768 338.839 170.698 331.582 182.856C328.8 187.517 330.858 191.501 334.603 187.172C337.246 184.124 338.813 181.787 339.948 181.036C339.948 181.036 339.689 187.205 342.518 189.389C343.779 190.366 347.292 192.955 350.313 194.582C350.313 194.582 350.844 194.018 351.415 193.207C351.415 193.207 356.946 195.346 361.302 192.776L364.988 171.568Z" fill="#FEA574"/>
<path d="M351.568 170.333C349.324 171.721 344.609 174.735 341.608 178.546C338.281 182.776 333.003 191.826 336.157 194.25C338.467 196.03 340.785 192.749 340.785 192.749C340.785 192.749 339.39 196.946 341.834 198.101C344.052 199.15 345.698 196.508 345.698 196.508C345.698 196.508 345.293 199.197 347.624 199.794C350.433 200.512 350.824 194.755 354.29 193.022C355.067 192.643 351.568 170.333 351.568 170.333Z" fill="#FEA574"/>
<path d="M346.668 181.322C344.769 182.975 341.416 187.829 340.738 192.65C340.725 192.763 340.798 192.829 340.831 192.73C342.704 187.57 345.433 183.155 346.708 181.349C346.721 181.329 346.688 181.302 346.668 181.322Z" fill="#263238"/>
<path d="M350.838 184.801C349.344 186.395 346.11 191.554 345.592 196.468C345.579 196.581 345.659 196.641 345.692 196.548C347.425 191.083 349.716 186.714 350.878 184.835C350.897 184.808 350.858 184.781 350.838 184.801Z" fill="#263238"/>
<path d="M377.418 162.889L397.723 168.042C397.723 168.042 395.777 148.905 390.704 136.203C386.74 126.29 383.121 126.801 381.554 135.678C379.981 144.563 377.418 162.889 377.418 162.889Z" fill="#A766FE"/>
<path d="M381.548 135.685C383.115 126.807 386.74 126.29 390.698 136.21C395.771 148.905 397.716 168.048 397.716 168.048L377.411 162.896C377.418 162.889 379.981 144.563 381.548 135.685Z" fill="#A766FE"/>
<path d="M397.384 165.505C395.658 158.387 394.536 150.778 393.095 143.6C395.412 150.678 396.508 158.122 397.384 165.505Z" fill="#263238"/>
<path d="M394.144 144.404C394.529 145.413 394.482 146.575 394.104 147.584C394.038 146.502 394.091 145.486 394.144 144.404Z" fill="#263238"/>
<path d="M375.512 164.158L398.221 170.426L397.882 169.529L399.27 168.812L399.004 168.135L399.496 166.189L376.588 160.718L376.946 161.661L375.864 162.504L376.295 163.321L375.512 164.158Z" fill="#A766FE"/>
<path opacity="0.1" d="M375.512 164.158L398.221 170.426L397.882 169.529L399.27 168.812L399.004 168.135L399.496 166.189L376.588 160.718L376.946 161.661L375.864 162.504L376.295 163.321L375.512 164.158Z" fill="black"/>
<path d="M191.904 161.822L271.671 158.301L269.995 120.338L190.229 123.86L191.904 161.822Z" fill="#A766FE"/>
<path d="M190.414 128.063L270.18 124.542L269.995 120.343L190.229 123.864L190.414 128.063Z" fill="#455A64"/>
<path d="M196.452 157.044L221.645 155.931L220.533 130.738L195.34 131.85L196.452 157.044Z" fill="white"/>
<path opacity="0.1" d="M199.658 137.677C199.413 139.364 200.92 140.738 202.58 140.353C203.509 140.134 204.227 139.35 204.366 138.407C204.612 136.721 203.104 135.346 201.444 135.732C200.515 135.944 199.798 136.734 199.658 137.677Z" fill="#020100"/>
<path d="M203.144 150.187L221.351 149.383L211.796 139.576L203.144 150.187Z" fill="#EBEBEB"/>
<path d="M196.159 150.499L211.192 149.835L203.383 143.52L196.159 150.499Z" fill="#DBDBDB"/>
<path d="M221.351 149.372L196.157 150.484L196.446 157.025L221.64 155.912L221.351 149.372Z" fill="#EBEBEB"/>
<path d="M252.697 129.304L224.824 130.534L224.884 131.901L252.757 130.67L252.697 129.304Z" fill="white"/>
<path d="M245.176 134.541L225.044 135.429L225.095 136.577L245.227 135.688L245.176 134.541Z" fill="white"/>
<path d="M261.931 133.801L247.105 134.455L247.156 135.603L261.982 134.948L261.931 133.801Z" fill="white"/>
<path d="M239.111 137.792L225.174 138.407L225.225 139.554L239.161 138.939L239.111 137.792Z" fill="white"/>
<path d="M254.814 137.094L240.877 137.709L240.928 138.857L254.864 138.242L254.814 137.094Z" fill="white"/>
<path d="M250.287 140.277L225.305 141.38L225.356 142.527L250.337 141.425L250.287 140.277Z" fill="white"/>
<path d="M262.192 139.753L252.256 140.191L252.306 141.339L262.243 140.9L262.192 139.753Z" fill="white"/>
<path d="M245.568 143.465L225.436 144.354L225.487 145.501L245.619 144.612L245.568 143.465Z" fill="white"/>
<path d="M203.821 346.253C202.228 346.751 155.602 345.748 153.902 344.606C153.245 344.188 157.242 300.025 157.242 300.025L186.81 300.589L183.45 330.131C183.45 330.131 200.654 338.278 202.394 339.725C204.12 341.173 205.422 345.761 203.821 346.253Z" fill="#FEA574"/>
<path d="M203.828 346.253C202.235 346.751 155.608 345.741 153.909 344.606C153.703 344.48 153.643 339.991 154.38 334.155C162.833 335.569 193.012 340.204 195.362 338.822C197.002 337.86 195.548 336.352 194.207 335.343C198.058 337.262 201.657 339.108 202.394 339.732C204.12 341.173 205.422 345.761 203.828 346.253Z" fill="#263238"/>
<path d="M184.28 323.052L155.257 322.641C155.257 322.641 161.007 253.12 160.768 251.779C160.462 250.065 139.865 169.316 139.865 169.316H167.567C167.567 169.316 189.413 244.581 190.196 251.832C191.471 263.545 184.28 323.052 184.28 323.052Z" fill="#263238"/>
<path d="M157.866 316.087C159.579 315.961 161.312 315.987 163.032 315.961C164.752 315.941 166.478 315.934 168.198 315.948C171.637 315.981 175.084 316.034 178.523 316.133C179.466 316.16 180.409 316.187 181.345 316.233C182.354 316.28 183.357 316.452 184.36 316.492C184.439 316.492 184.433 316.612 184.36 316.612C183.516 316.618 182.666 316.744 181.823 316.771C180.947 316.797 180.07 316.804 179.194 316.804C177.474 316.804 175.754 316.798 174.028 316.784C170.588 316.758 167.142 316.711 163.703 316.565C161.757 316.485 159.798 316.459 157.866 316.266C157.747 316.253 157.753 316.1 157.866 316.087Z" fill="#37474F"/>
<path d="M145.961 175.837C148.437 184.615 150.708 193.473 152.926 202.317C155.15 211.168 157.361 220.026 159.566 228.877C160.668 233.306 161.77 237.735 162.873 242.164C163.942 246.473 165.19 250.809 165.456 255.265C165.728 259.793 165.15 264.361 164.765 268.87C164.38 273.405 164.001 277.934 163.603 282.469C162.806 291.532 162.049 300.609 161.06 309.66C160.934 310.795 160.814 311.924 160.701 313.059C160.695 313.159 160.542 313.152 160.549 313.053C161.146 303.982 161.777 294.912 162.501 285.848C162.866 281.313 163.231 276.785 163.61 272.25C163.981 267.728 164.513 263.186 164.652 258.651C164.798 254.069 163.962 249.687 162.853 245.265C161.77 240.929 160.681 236.6 159.599 232.264C157.381 223.413 155.164 214.555 152.966 205.697C150.502 195.784 148.052 185.843 145.881 175.864C145.868 175.804 145.947 175.784 145.961 175.837Z" fill="#37474F"/>
<path d="M139.865 169.316C139.865 169.316 148.703 203.957 154.885 228.346L166.671 169.316H139.865Z" fill="#37474F"/>
<path d="M169.008 346.365C167.408 346.863 120.788 345.861 119.088 344.719C118.431 344.3 120.868 300.111 120.868 300.111L150.044 300.675L148.63 330.243C148.63 330.243 165.834 338.391 167.574 339.838C169.307 341.279 170.608 345.867 169.008 346.365Z" fill="#FEA574"/>
<path d="M169.008 346.365C167.414 346.863 120.788 345.854 119.088 344.719C118.883 344.593 118.929 340.223 119.095 334.261C127.548 335.675 158.191 340.316 160.542 338.935C162.182 337.972 160.728 336.465 159.387 335.456C163.238 337.375 166.837 339.221 167.574 339.845C169.307 341.279 170.602 345.874 169.008 346.365Z" fill="#263238"/>
<path d="M166.671 169.31C166.671 169.31 165.104 188.898 161.877 193.818C161.877 193.818 158.703 194.927 153.842 197.822C153.842 197.822 151.844 250.218 151.883 253.366C152.016 265.138 149.002 322.475 149.002 322.475L119.732 322.196C119.732 322.196 122.767 257.356 122.78 253.047C122.794 248.877 124.772 222.569 126.538 199.754C126.538 199.754 123.936 192.47 124.221 188.785C124.918 179.861 128.922 169.316 128.922 169.316L166.671 169.31Z" fill="#263238"/>
<path d="M156.372 187.935C156.485 187.205 156.591 186.468 156.704 185.737C156.91 184.396 157.182 183.061 157.421 181.72C157.952 178.685 158.51 175.638 159.187 172.63C159.201 172.557 159.327 172.577 159.32 172.65C159.201 173.865 159.061 175.08 158.889 176.288C158.716 177.497 158.596 178.712 158.424 179.921C158.085 182.318 157.753 184.721 157.341 187.105C157.182 188.021 156.611 189.675 157.932 189.96C158.982 190.186 159.752 189.157 160.057 188.294C160.436 187.244 160.568 186.076 160.761 184.98C160.98 183.772 161.166 182.557 161.339 181.335C161.711 178.685 162.122 176.043 162.554 173.4C162.567 173.327 162.687 173.347 162.687 173.42C162.6 176.142 162.461 178.838 162.102 181.541C161.93 182.829 161.737 184.117 161.518 185.399C161.312 186.6 161.159 187.889 160.628 188.997C160.21 189.867 159.433 190.651 158.437 190.757C158.417 190.757 158.397 190.757 158.377 190.757C158.397 190.777 158.417 190.797 158.417 190.83C158.404 191.262 158.41 191.693 158.364 192.125C158.318 192.55 158.238 192.975 158.152 193.393C158.072 193.818 157.966 194.25 157.826 194.655C157.753 194.854 157.687 195.046 157.594 195.232C157.501 195.432 157.368 195.584 157.249 195.764C157.202 195.837 157.109 195.79 157.109 195.717H157.102C157.109 195.644 157.109 195.578 157.109 195.505C157.109 195.491 157.109 195.478 157.109 195.465C157.109 195.339 157.116 195.212 157.136 195.086C157.169 194.88 157.215 194.675 157.255 194.469C157.348 194.064 157.454 193.652 157.567 193.247C157.68 192.842 157.766 192.437 157.866 192.032C157.972 191.614 158.112 191.209 158.205 190.784C158.211 190.764 158.225 190.757 158.231 190.744C157.454 190.75 156.664 190.339 156.385 189.588C156.193 189.064 156.292 188.493 156.372 187.935Z" fill="#37474F"/>
<path d="M151.478 198.459C152.315 197.769 153.304 197.204 154.234 196.647C155.243 196.042 156.292 195.491 157.375 195.02C159.493 194.104 161.677 193.473 163.862 192.749C163.928 192.729 163.968 192.835 163.908 192.862C161.79 193.705 159.765 194.821 157.72 195.823C156.711 196.315 155.695 196.786 154.672 197.238C153.643 197.689 152.62 198.22 151.571 198.606C151.478 198.632 151.412 198.513 151.478 198.459Z" fill="#37474F"/>
<path d="M134.951 182.105C136.439 182.099 141.591 181.727 143.119 180.02C144.002 179.031 144.586 177.796 145.024 176.581C145.516 175.213 145.874 173.825 146.18 172.404C146.193 172.331 146.299 172.358 146.299 172.424C146.346 174.011 146.12 175.631 145.702 177.165C145.343 178.473 144.858 179.934 143.803 180.85C142.694 181.813 141.18 182.152 139.759 182.331C138.152 182.53 136.552 182.484 134.951 182.264C134.845 182.245 134.845 182.105 134.951 182.105Z" fill="#37474F"/>
<path d="M170.177 182.504C169.718 182.497 168.37 181.554 168.204 181.315C167.082 179.615 166.803 174.23 166.71 172.809C166.704 172.736 166.677 172.763 166.671 172.829C166.657 174.416 166.724 176.036 166.857 177.57C166.969 178.878 167.116 180.339 167.441 181.255C167.786 182.218 169.679 182.882 170.17 182.67C170.203 182.65 170.203 182.504 170.177 182.504Z" fill="#37474F"/>
<path d="M121.027 316.519C122.74 316.393 124.473 316.419 126.193 316.393C127.913 316.373 129.639 316.366 131.359 316.379C134.799 316.412 138.245 316.466 141.684 316.565C142.627 316.592 143.57 316.618 144.506 316.665C145.516 316.711 146.518 316.884 147.521 316.924C147.601 316.924 147.594 317.043 147.521 317.043C146.678 317.05 145.828 317.176 144.984 317.203C144.108 317.229 143.231 317.236 142.355 317.236C140.635 317.236 138.915 317.229 137.189 317.216C133.75 317.189 130.303 317.143 126.864 316.997C124.918 316.917 122.96 316.891 121.027 316.698C120.908 316.685 120.914 316.525 121.027 316.519Z" fill="#37474F"/>
<path d="M124.6 312.707C124.593 312.707 124.586 312.707 124.58 312.707C124.38 312.701 124.234 312.528 124.241 312.335L130.848 198.878C130.762 198.38 128.902 192.045 128.736 188.805C128.564 185.385 132.103 172.046 132.249 171.481C132.302 171.289 132.501 171.182 132.687 171.229C132.88 171.282 132.993 171.475 132.939 171.667C132.9 171.807 129.281 185.465 129.447 188.772C129.619 192.118 131.545 198.745 131.558 198.798C131.565 198.825 124.952 312.375 124.952 312.375C124.945 312.561 124.792 312.707 124.6 312.707Z" fill="#37474F"/>
<path d="M156.671 115.606C156.326 115.712 155.994 115.878 155.708 116.11C154.42 117.159 154.121 118.912 154.161 120.473C154.207 122.146 154.639 123.919 154.128 125.552C153.929 126.19 153.563 126.801 152.986 127.146C152.328 127.538 151.565 127.451 150.867 127.226C150.13 127 149.307 126.562 148.524 126.841C147.873 127.066 147.468 127.717 147.282 128.348C146.804 129.995 147.813 131.674 148.006 133.295C148.218 135.028 147.893 136.794 147.089 138.341C146.339 139.789 145.137 140.984 143.716 141.774C143.026 142.159 142.269 142.458 141.498 142.63C140.629 142.823 139.739 142.823 138.862 142.976C138.052 143.122 137.169 143.441 136.711 144.178C136.359 144.742 136.352 147.205 138.172 149.609C138.305 149.782 137.986 150.007 137.787 149.875C137.408 149.636 137.05 149.377 136.704 149.098C133.829 146.761 132.209 143.122 132.448 139.417C132.574 137.438 133.212 135.539 134.248 133.852C134.825 132.923 135.483 132.026 135.901 131.004C136.266 130.094 136.352 129.131 136.266 128.162C136.1 126.316 135.489 124.53 135.642 122.657C135.781 120.984 136.386 119.371 137.309 117.969C139.234 115.041 142.395 113.175 145.854 112.731C149.261 112.292 156.863 115.546 156.671 115.606Z" fill="#263238"/>
<path d="M156.565 115.639C155.907 115.924 155.263 116.283 154.792 116.834C154.367 117.332 154.108 117.95 153.975 118.587C153.683 120.021 153.988 121.442 154.254 122.85C154.5 124.178 154.692 125.592 154.114 126.86C153.869 127.398 153.497 127.91 152.999 128.235C152.435 128.6 151.777 128.647 151.12 128.52C149.931 128.288 148.51 127.611 147.415 128.494C146.359 129.344 146.578 130.971 146.724 132.146C147.083 135.014 147.979 138.686 145.589 140.97C144.38 142.126 142.647 142.816 141.06 143.255C139.911 143.567 138.457 143.958 137.933 145.147C137.913 145.194 137.986 145.213 138.006 145.167C138.583 143.919 140.111 143.779 141.293 143.507C142.68 143.188 144.088 142.65 145.263 141.82C146.472 140.97 147.202 139.722 147.481 138.281C147.767 136.82 147.621 135.333 147.408 133.872C147.295 133.122 147.169 132.372 147.076 131.621C146.996 130.944 146.943 130.22 147.162 129.563C147.401 128.859 147.992 128.467 148.723 128.447C149.44 128.428 150.111 128.686 150.801 128.839C151.419 128.979 152.049 129.032 152.654 128.813C153.138 128.633 153.55 128.315 153.882 127.93C154.639 127.033 154.931 125.851 154.885 124.702C154.818 123.069 154.214 121.502 154.181 119.862C154.161 119.025 154.28 118.149 154.705 117.418C155.15 116.648 155.887 116.23 156.631 115.798C156.744 115.738 156.664 115.592 156.565 115.639Z" fill="#263238"/>
<path d="M144.579 111.881C141.093 112.266 138.178 114.789 136.837 117.956C136.087 119.736 135.841 121.668 135.981 123.58C136.113 125.366 136.492 127.179 136.233 128.972C135.947 130.957 134.626 132.431 133.557 134.052C132.694 135.36 132.129 136.827 131.89 138.381C131.439 141.356 132.202 144.503 134.002 146.92C134.234 147.225 134.473 147.524 134.732 147.81C134.765 147.843 134.819 147.796 134.785 147.756C132.767 145.499 131.897 142.358 132.183 139.364C132.322 137.889 132.747 136.449 133.457 135.154C134.341 133.554 135.688 132.232 136.359 130.512C136.99 128.899 136.837 127.126 136.638 125.446C136.425 123.613 136.22 121.801 136.631 119.975C137.388 116.582 139.832 113.627 143.205 112.598C146.97 111.449 150.801 112.89 154.134 114.616C154.579 114.849 155.024 115.081 155.469 115.32C155.522 115.347 155.569 115.274 155.515 115.247C152.222 113.328 148.517 111.449 144.579 111.881Z" fill="#263238"/>
<path d="M157.853 113.926C157.415 113.527 156.558 113.348 156.226 113.574C155.894 113.793 154.958 116.748 155.349 117.412C155.741 118.076 157.056 117.538 157.056 117.538L157.853 113.926Z" fill="#FFC727"/>
<path d="M167.394 163.58L167.62 175.093C167.62 175.093 166.073 174.874 160.96 174.111L160.137 169.848L157.381 173.639L128.922 169.323C128.922 169.323 141.85 138.779 148.962 133.168C154.612 128.706 160.203 130.001 163.225 134.231C163.988 135.3 171.033 150.087 171.299 155.764C171.531 160.764 167.394 163.58 167.394 163.58Z" fill="#FFC727"/>
<path d="M154.413 159.23C156.412 159.669 158.41 160.18 160.323 160.937C161.279 161.315 162.209 161.734 163.132 162.185C163.596 162.411 164.061 162.61 164.526 162.816C165.011 163.022 165.529 163.228 166.047 163.294C166.093 163.301 166.086 163.38 166.04 163.374C165.535 163.334 165.05 163.301 164.546 163.188C164.074 163.082 163.61 162.922 163.151 162.75C162.182 162.378 161.226 161.959 160.263 161.574C158.311 160.804 156.365 160.034 154.367 159.416C154.274 159.383 154.314 159.21 154.413 159.23Z" fill="#263238"/>
<path d="M149.194 160.684C150.874 160.671 152.581 160.744 154.254 160.937C155.097 161.036 155.921 161.182 156.751 161.362C157.149 161.448 157.541 161.534 157.932 161.634C158.364 161.74 158.782 161.913 159.214 162.012C159.26 162.026 159.254 162.099 159.207 162.092C158.796 162.012 158.371 162.006 157.952 161.953C157.534 161.9 157.116 161.84 156.704 161.787C155.867 161.68 155.031 161.581 154.194 161.461C152.521 161.229 150.854 161.01 149.181 160.837C149.088 160.83 149.108 160.691 149.194 160.684Z" fill="#263238"/>
<path d="M147.966 144.35C150.316 161.999 158.769 184.422 164.838 185.418C171.598 186.527 168.59 162.404 167.733 161.827C167.082 161.388 160.648 152.438 154.187 141.548C147.733 130.665 147.381 139.988 147.966 144.35Z" fill="#FEA574"/>
<path d="M167.819 161.74C166.777 160.259 158.132 146.096 154.261 140.08C150.383 134.058 146.864 134.828 147.581 143.991C148.298 153.161 152.282 170.897 158.862 180.306C165.203 189.369 169.134 185.97 169.679 177.311C170.123 170.226 167.819 161.74 167.819 161.74Z" fill="#FFC727"/>
<path d="M169.347 164.277C168.092 162.371 166.87 160.452 165.648 158.526C164.426 156.601 163.238 154.662 162.029 152.73L158.477 146.893L156.724 143.958C156.146 142.975 155.562 141.999 154.998 141.01C155.628 141.96 156.239 142.922 156.863 143.878L158.696 146.76L162.315 152.557C163.497 154.502 164.699 156.441 165.867 158.394C167.043 160.346 168.211 162.298 169.347 164.277Z" fill="#263238"/>
<path d="M157.853 145.459C157.567 144.921 157.355 144.363 157.156 143.805C157.056 143.527 156.963 143.241 156.877 142.955C156.79 142.67 156.717 142.384 156.638 142.092C156.97 142.604 157.182 143.168 157.388 143.732C157.581 144.29 157.753 144.861 157.853 145.459Z" fill="#263238"/>
<path d="M164.831 185.385C169.904 185.857 175.23 181.056 191 168.433C193.184 166.687 185.143 147.298 182.72 149.044C179.665 151.242 168.284 160.439 167.534 161.216C161.226 167.776 161.392 185.066 164.831 185.385Z" fill="#FEA574"/>
<path d="M178.052 153.971C178.052 153.971 182.647 147.876 185.84 144.025C187.62 141.88 191.006 138.474 193.031 137.491C196.066 136.03 209.698 131.847 210.787 135.134C211.77 138.108 199.598 140.207 199.598 140.207C199.598 140.207 211.69 137 212.214 140.798C212.739 144.596 198.675 145.14 198.675 145.14C198.675 145.14 211.172 142.126 211.092 146.123C211.033 149.144 198.324 150.359 198.324 150.359C198.324 150.359 209.08 147.843 209.153 150.95C209.233 154.39 197.573 156.242 197.573 156.242C196.425 164.184 192.633 167.497 189.652 169.529C188.935 170.034 178.052 153.971 178.052 153.971Z" fill="#FEA574"/>
<path d="M195.349 141.057C196.757 140.632 198.177 140.187 199.618 139.881C201.059 139.583 202.507 139.33 203.974 139.164C207.56 138.759 209.871 139.065 209.724 139.058C206.305 138.978 201.132 139.981 199.691 140.28C198.257 140.579 196.803 140.811 195.362 141.11C195.322 141.116 195.316 141.07 195.349 141.057Z" fill="#263238"/>
<path d="M196.345 146.276C198.164 145.804 199.957 145.273 201.796 144.888C203.629 144.503 205.402 144.297 207.254 144.038C207.4 144.018 207.361 144.105 207.221 144.124C205.382 144.456 203.702 144.908 201.863 145.267C200.03 145.618 198.171 145.904 196.358 146.329C196.325 146.329 196.318 146.282 196.345 146.276Z" fill="#263238"/>
<path d="M196.398 150.91C199.14 150.054 202.042 149.702 204.897 149.423C205.037 149.41 204.983 149.509 204.837 149.536C202.002 149.974 199.778 150.306 196.431 151.01C196.371 151.017 196.338 150.924 196.398 150.91Z" fill="#263238"/>
<path d="M180.595 150.147L184.141 175.897C184.141 175.897 169.811 186.494 164.705 185.558C161.339 184.94 160.622 167.298 168.138 160.578L180.595 150.147Z" fill="#FFC727"/>
<path d="M162.846 171.713C162.999 169.728 163.849 164.516 168.131 160.572C168.171 160.538 168.231 160.591 168.198 160.625C165.29 163.872 163.231 169.834 162.926 171.727C162.912 171.78 162.839 171.76 162.846 171.713Z" fill="#263238"/>
<path d="M178.603 177.437C178.058 174.628 177.673 171.786 177.288 168.951C176.903 166.109 176.518 163.274 176.206 160.425C176.026 158.818 175.841 157.205 175.721 155.591C175.721 155.552 175.787 155.532 175.794 155.578C176.339 158.387 176.737 161.222 177.142 164.051C177.547 166.886 177.919 169.735 178.264 172.577C178.457 174.183 178.629 175.797 178.749 177.41C178.749 177.484 178.616 177.517 178.603 177.437Z" fill="#263238"/>
<path d="M180.422 149.961C179.473 150.545 178.616 151.262 177.753 151.966C176.89 152.67 176.033 153.387 175.19 154.117C173.51 155.565 169.778 158.433 167.175 161.528C167.149 161.561 167.461 161.528 167.487 161.494C168.649 159.961 179.659 151.196 180.449 150.386C180.475 150.465 180.508 150.545 180.548 150.625C180.575 150.678 180.668 150.685 180.674 150.612C180.694 150.439 180.668 150.286 180.674 150.12C180.681 149.974 180.548 149.888 180.422 149.961Z" fill="#263238"/>
<path d="M147.096 149.762C149.672 157.796 156.704 183.187 164.798 185.598C155.834 183.373 148.962 158.248 147.096 149.762Z" fill="#263238"/>
<path d="M146.83 151.269C147.448 152.298 147.979 153.314 148.371 154.45C147.587 153.553 147.016 152.451 146.83 151.269Z" fill="#263238"/>
<path d="M151.14 131.555C151.14 131.555 160.177 143.912 163.683 143.268C167.189 142.63 163.231 134.224 163.231 134.224C163.231 134.224 159.201 127.677 151.14 131.555Z" fill="#FEA574"/>
<path d="M154.44 130.924C154.453 131.668 156.824 136.986 160.084 137.537C161.146 137.717 162.375 131.96 162.375 131.96L162.561 131.555L165.19 125.897L159.181 119.888L158.298 119.072C158.298 119.072 157.68 120.665 156.936 122.664C156.903 122.757 156.863 122.85 156.83 122.949C156.784 123.062 156.744 123.168 156.704 123.275C156.591 123.573 156.472 123.872 156.359 124.178C156.272 124.41 156.193 124.636 156.113 124.882C156.027 125.127 155.947 125.366 155.861 125.612C155.057 128.042 154.44 130.605 154.44 130.924Z" fill="#FEA574"/>
<path d="M156.936 122.664C157.607 127.77 160.974 130.526 162.567 131.555L165.197 125.897L159.187 119.888L158.304 119.072C158.298 119.078 157.68 120.672 156.936 122.664Z" fill="#263238"/>
<path d="M174.605 115.333C176.06 126.183 169.725 128.281 167.388 128.594C165.263 128.879 157.992 129.57 155.423 118.926C152.853 108.282 157.434 104.172 162.262 103.269C167.089 102.372 173.151 104.484 174.605 115.333Z" fill="#FEA574"/>
<path d="M172.793 114.623C172.534 114.609 172.301 114.556 172.042 114.516C171.757 114.47 171.525 114.463 171.299 114.257C171.179 114.145 171.173 113.906 171.272 113.786C171.498 113.494 171.863 113.461 172.208 113.501C172.587 113.547 172.866 113.673 173.131 113.945C173.39 114.204 173.138 114.636 172.793 114.623Z" fill="#263238"/>
<path d="M165.475 114.815C165.728 114.769 165.96 114.683 166.206 114.61C166.485 114.53 166.717 114.49 166.91 114.264C167.016 114.138 166.989 113.906 166.877 113.793C166.618 113.527 166.252 113.547 165.914 113.627C165.549 113.72 165.283 113.879 165.057 114.185C164.831 114.477 165.137 114.882 165.475 114.815Z" fill="#263238"/>
<path d="M167.222 116.821C167.215 116.794 167.169 116.861 167.169 116.894C167.255 117.638 167.235 118.501 166.584 118.8C166.564 118.806 166.571 118.846 166.591 118.839C167.401 118.653 167.421 117.505 167.222 116.821Z" fill="#263238"/>
<path d="M166.491 116.097C165.29 116.11 165.402 118.514 166.518 118.501C167.614 118.494 167.494 116.09 166.491 116.097Z" fill="#263238"/>
<path d="M166.02 116.25C165.814 116.396 165.622 116.648 165.369 116.681C165.077 116.721 164.845 116.482 164.639 116.25C164.619 116.223 164.599 116.25 164.599 116.276C164.612 116.734 164.811 117.199 165.309 117.246C165.761 117.286 166.066 116.861 166.159 116.396C166.186 116.316 166.106 116.19 166.02 116.25Z" fill="#263238"/>
<path d="M171.339 116.263C171.345 116.236 171.398 116.296 171.398 116.329C171.405 117.073 171.538 117.93 172.222 118.149C172.242 118.155 172.242 118.195 172.215 118.189C171.392 118.109 171.226 116.973 171.339 116.263Z" fill="#263238"/>
<path d="M171.976 115.459C173.171 115.32 173.364 117.717 172.255 117.85C171.166 117.976 170.973 115.579 171.976 115.459Z" fill="#263238"/>
<path d="M172.487 115.579C172.687 115.692 172.892 115.904 173.118 115.904C173.384 115.898 173.556 115.626 173.702 115.367C173.716 115.34 173.736 115.36 173.742 115.386C173.789 115.845 173.676 116.336 173.244 116.456C172.846 116.568 172.521 116.197 172.374 115.752C172.355 115.665 172.408 115.533 172.487 115.579Z" fill="#263238"/>
<path d="M167.494 123.109C167.673 123.281 167.853 123.52 168.125 123.547C168.384 123.567 168.689 123.447 168.928 123.354C168.955 123.348 168.975 123.368 168.961 123.394C168.769 123.68 168.364 123.859 168.019 123.799C167.68 123.74 167.514 123.447 167.428 123.142C167.414 123.102 167.467 123.082 167.494 123.109Z" fill="#263238"/>
<path d="M170.449 120.234C170.449 120.234 170.668 121.336 170.701 121.86C170.701 121.907 170.582 121.94 170.402 121.96C170.396 121.96 170.389 121.967 170.382 121.96C169.466 122.159 168.517 121.894 167.906 121.176C167.866 121.13 167.932 121.07 167.979 121.097C168.703 121.562 169.473 121.648 170.296 121.615C170.323 121.469 169.858 119.742 169.938 119.729C170.223 119.689 170.801 119.848 171.146 119.928C170.754 117.617 169.997 115.393 169.639 113.082C169.625 113.003 169.745 112.969 169.772 113.042C170.734 115.32 171.239 117.969 171.704 120.346C171.764 120.639 170.661 120.313 170.449 120.234Z" fill="#263238"/>
<path d="M170.336 121.767C170.336 121.767 169.911 122.511 169.247 122.843C169.001 122.963 168.729 123.036 168.43 122.996C167.819 122.91 167.74 122.372 167.793 121.887C167.833 121.495 167.972 121.143 167.972 121.143C167.972 121.143 168.935 121.854 170.336 121.767Z" fill="#263238"/>
<path d="M169.247 122.843C169.001 122.963 168.729 123.036 168.43 122.996C167.819 122.91 167.74 122.372 167.793 121.887C168.437 121.88 169.114 122.232 169.247 122.843Z" fill="#FF9ABB"/>
<path d="M155.456 119.53C157.899 118.421 158.045 115.884 158.045 115.884C161.08 114.636 162.74 112.319 162.912 112.08C162.833 112.305 162.282 113.932 161.97 114.749C168.955 113.547 171.193 108.248 171.193 108.248C173.417 110.539 173.849 111.987 174.167 112.711C174.167 112.711 174.28 108.434 172.129 105.546C169.493 102 165.814 102.611 165.814 102.611C165.814 102.611 160.429 100.918 156.153 105.426C151.551 110.287 155.456 119.53 155.456 119.53Z" fill="#263238"/>
<path d="M167.282 113.673C166.166 114.284 164.924 114.683 163.689 114.935C163.676 114.935 163.676 114.922 163.689 114.922C165.661 114.397 167.434 113.394 168.849 111.907C169.446 111.276 169.958 110.586 170.382 109.829C170.827 109.039 171.259 108.096 171.345 107.186C171.352 107.12 171.458 107.126 171.451 107.199C171.359 108.162 171.259 109.045 170.861 109.935C170.482 110.778 169.938 111.568 169.28 112.219C168.689 112.79 168.012 113.275 167.282 113.673Z" fill="#263238"/>
<path d="M157.262 119.53C157.262 119.53 154.712 116.23 153.205 117.153C151.697 118.076 153.723 122.943 155.575 123.534C157.428 124.125 158.005 122.425 158.005 122.425L157.262 119.53Z" fill="#FEA574"/>
<path d="M153.822 118.534C153.796 118.534 153.789 118.574 153.816 118.58C155.117 119.038 155.841 120.187 156.372 121.389C155.974 120.937 155.442 120.698 154.832 121.183C154.798 121.21 154.832 121.256 154.871 121.249C155.389 121.11 155.768 121.183 156.14 121.588C156.405 121.874 156.591 122.239 156.784 122.571C156.85 122.684 157.049 122.611 157.003 122.484C156.996 122.478 156.996 122.465 156.99 122.458C156.943 120.831 155.575 118.613 153.822 118.534Z" fill="#263238"/>
<path d="M430.385 89.7961C429.462 98.6007 421.574 104.995 412.769 104.079C409.21 103.707 406.049 102.193 403.599 99.942L395.578 101.117L399.589 94.1851C398.612 91.8146 398.207 89.1786 398.486 86.4628C399.409 77.6582 407.298 71.2638 416.102 72.1802C424.914 73.0965 431.308 80.9848 430.385 89.7961Z" fill="white"/>
<path d="M430.385 89.796C430.053 92.7243 428.977 95.5928 427.151 97.9234C426.733 98.5343 426.188 99.0456 425.697 99.5967C425.139 100.081 424.621 100.613 424.004 101.031C422.829 101.934 421.514 102.644 420.133 103.182C418.765 103.76 417.284 104.032 415.817 104.211C415.073 104.251 414.329 104.318 413.586 104.251C412.842 104.231 412.098 104.152 411.368 104.019C408.433 103.488 405.658 102.113 403.433 100.101L403.626 100.161L395.611 101.389L395.027 101.476L395.319 100.965L399.31 94.0124L399.29 94.2847C397.344 89.7097 397.782 84.2583 400.279 79.9954C401.521 77.8573 403.254 76.018 405.299 74.6502C407.344 73.2757 409.715 72.4125 412.145 72.0805C414.575 71.7552 417.078 71.9809 419.396 72.7512C421.713 73.5347 423.838 74.8428 425.578 76.5426C429.13 79.9157 430.909 84.9688 430.385 89.796ZM430.385 89.796C430.87 84.9621 429.057 79.9423 425.518 76.6289C423.758 74.9689 421.633 73.7073 419.336 72.9836C417.039 72.2664 414.575 72.0938 412.205 72.4457C409.834 72.8109 407.543 73.694 405.584 75.0619C403.626 76.4364 401.979 78.2292 400.784 80.2942C399.569 82.3526 398.938 84.7098 398.752 87.0803C398.599 89.4574 398.991 91.8611 399.881 94.0656L399.94 94.2116L399.861 94.3444L395.824 101.263L395.538 100.838L403.566 99.7162L403.679 99.7029L403.758 99.776C405.883 101.768 408.566 103.162 411.434 103.733C412.151 103.879 412.875 103.966 413.612 103.999C414.343 104.079 415.073 104.019 415.803 103.999C417.258 103.846 418.718 103.601 420.086 103.056C421.461 102.545 422.782 101.868 423.951 100.971C424.568 100.559 425.086 100.035 425.644 99.5568C426.135 99.0124 426.68 98.5077 427.105 97.9035C428.944 95.5728 430.033 92.7176 430.385 89.796Z" fill="#263238"/>
<path d="M406.182 88.1162C406.182 88.9329 406.846 89.5903 407.656 89.5903C408.473 89.5903 409.13 88.9329 409.13 88.1162C409.13 87.2995 408.473 86.6421 407.656 86.6421C406.839 86.6355 406.182 87.2995 406.182 88.1162Z" fill="#263238"/>
<path d="M413.26 88.1162C413.26 88.9329 413.924 89.5903 414.734 89.5903C415.551 89.5903 416.208 88.9329 416.208 88.1162C416.208 87.2995 415.551 86.6421 414.734 86.6421C413.918 86.6355 413.26 87.2995 413.26 88.1162Z" fill="#263238"/>
<path d="M420.339 88.1162C420.339 88.9329 421.003 89.5903 421.813 89.5903C422.629 89.5903 423.287 88.9329 423.287 88.1162C423.287 87.2995 422.629 86.6421 421.813 86.6421C420.996 86.6355 420.339 87.2995 420.339 88.1162Z" fill="#263238"/>
<path d="M209.001 93.415C208.078 102.22 200.189 108.614 191.385 107.698C187.826 107.326 184.665 105.812 182.215 103.561L174.194 104.736L178.204 97.804C177.228 95.4335 176.823 92.7975 177.102 90.0817C178.025 81.2771 185.913 74.8827 194.718 75.7991C203.529 76.7154 209.924 84.6037 209.001 93.415Z" fill="white"/>
<path d="M209.001 93.4149C208.669 96.3432 207.593 99.2117 205.767 101.542C205.349 102.153 204.804 102.664 204.313 103.216C203.755 103.7 203.237 104.231 202.62 104.65C201.444 105.553 200.13 106.263 198.748 106.801C197.381 107.379 195.9 107.651 194.432 107.83C193.689 107.87 192.945 107.937 192.201 107.87C191.458 107.85 190.714 107.771 189.984 107.638C187.049 107.107 184.273 105.732 182.049 103.72L182.241 103.78L174.227 105.008L173.643 105.095L173.935 104.583L177.925 97.6313L177.906 97.9036C175.96 93.3286 176.398 87.8772 178.895 83.6143C180.137 81.4762 181.87 79.6369 183.915 78.2691C185.96 76.8946 188.33 76.0314 190.761 75.6994C193.191 75.374 195.694 75.5998 198.011 76.37C200.329 77.1536 202.454 78.4616 204.193 80.1615C207.739 83.5346 209.519 88.5876 209.001 93.4149ZM209.001 93.4149C209.485 88.581 207.673 83.5678 204.134 80.2478C202.374 78.5878 200.249 77.3262 197.952 76.6024C195.654 75.8853 193.191 75.7127 190.82 76.0646C188.45 76.4298 186.159 77.3129 184.2 78.6808C182.241 80.0552 180.595 81.848 179.4 83.9131C178.184 85.9715 177.554 88.3287 177.368 90.6992C177.215 93.0763 177.607 95.48 178.496 97.6845L178.556 97.8305L178.477 97.9633L174.439 104.882L174.154 104.457L182.182 103.335L182.295 103.322L182.374 103.395C184.499 105.387 187.182 106.781 190.05 107.352C190.767 107.498 191.491 107.585 192.228 107.618C192.958 107.698 193.689 107.638 194.419 107.618C195.873 107.465 197.334 107.219 198.702 106.675C200.076 106.164 201.398 105.486 202.573 104.59C203.191 104.178 203.709 103.654 204.266 103.176C204.758 102.631 205.302 102.127 205.727 101.522C207.56 99.1917 208.649 96.3365 209.001 93.4149Z" fill="#263238"/>
<path d="M184.791 91.7351C184.791 92.5518 185.449 93.2092 186.265 93.2092C187.082 93.2092 187.739 92.5452 187.739 91.7351C187.739 90.9184 187.082 90.261 186.265 90.261C185.455 90.2544 184.791 90.9184 184.791 91.7351Z" fill="#263238"/>
<path d="M191.876 91.7351C191.876 92.5518 192.533 93.2092 193.35 93.2092C194.167 93.2092 194.824 92.5452 194.824 91.7351C194.824 90.9184 194.16 90.261 193.35 90.261C192.533 90.2544 191.876 90.9184 191.876 91.7351Z" fill="#263238"/>
<path d="M198.954 91.7351C198.954 92.5518 199.612 93.2092 200.428 93.2092C201.245 93.2092 201.903 92.5452 201.903 91.7351C201.903 90.9184 201.245 90.261 200.428 90.261C199.612 90.2544 198.954 90.9184 198.954 91.7351Z" fill="#263238"/>
</svg>
