<svg width="500" height="400" viewBox="0 0 500 400" fill="none" xmlns="http://www.w3.org/2000/svg">
<path d="M231.692 203.821H95.0188V46.0536H231.692V203.821ZM98.2028 200.637H228.508V49.2376H98.2028V200.637Z" fill="#EBEBEB"/>
<path d="M163.714 50.0336H160.53V202.229H163.714V50.0336Z" fill="#EBEBEB"/>
<path d="M234.558 52.5011H92.1532V56.9587H234.558V52.5011Z" fill="#EBEBEB"/>
<path d="M234.558 57.4363H92.1532V61.8939H234.558V57.4363Z" fill="#EBEBEB"/>
<path d="M234.558 62.451H92.1532V66.9087H234.558V62.451Z" fill="#EBEBEB"/>
<path d="M234.558 67.3864H92.1532V71.844H234.558V67.3864Z" fill="#EBEBEB"/>
<path d="M234.558 72.4011H92.1532V76.8587H234.558V72.4011Z" fill="#EBEBEB"/>
<path d="M234.558 77.4159H92.1532V81.8735H234.558V77.4159Z" fill="#EBEBEB"/>
<path d="M234.558 82.3511H92.1532V86.8087H234.558V82.3511Z" fill="#EBEBEB"/>
<path d="M234.558 87.3658H92.1532V91.8234H234.558V87.3658Z" fill="#EBEBEB"/>
<path d="M234.558 92.3807H92.1532V96.8383H234.558V92.3807Z" fill="#EBEBEB"/>
<path d="M225.165 51.5459H224.369V153.752H225.165V51.5459Z" fill="#263238"/>
<path d="M226.12 157.493H223.334L224.05 153.434H225.404L226.12 157.493Z" fill="#263238"/>
<path d="M228.03 51.5459H227.234V199.363H228.03V51.5459Z" fill="#263238"/>
<path d="M228.986 202.388H226.2L226.916 198.328H228.269L228.986 202.388Z" fill="#263238"/>
<path d="M239.572 45.4167H87.218V54.7299H239.572V45.4167Z" fill="#DBDBDB"/>
<path d="M255.572 292.415H413.26L416.523 227.78H252.308L255.572 292.415Z" fill="#EBEBEB"/>
<path d="M405.777 257.392H339.868L338.595 234.944H407.21L405.777 257.392ZM340.585 256.596H404.981L406.334 235.74H339.391L340.585 256.596Z" fill="#DBDBDB"/>
<path d="M404.583 283.182H342.416L341.381 262.884H405.777L404.583 283.182ZM343.212 282.386H403.867L405.061 263.68H342.336L343.212 282.386Z" fill="#DBDBDB"/>
<path d="M379.191 248.556H368.126L367.41 243.143H379.907L379.191 248.556ZM368.763 247.76H378.474L378.952 243.939H368.286L368.763 247.76Z" fill="#DBDBDB"/>
<path d="M379.191 275.779H368.126L367.41 270.366H379.907L379.191 275.779ZM368.763 274.983H378.474L378.952 271.162H368.286L368.763 274.983Z" fill="#DBDBDB"/>
<path d="M328.247 257.392H262.338L261.064 234.944H329.68L328.247 257.392ZM263.054 256.596H327.451L328.804 235.74H261.94L263.054 256.596Z" fill="#DBDBDB"/>
<path d="M327.053 283.182H264.885L263.85 262.884H328.247L327.053 283.182ZM265.681 282.386H326.336L327.53 263.68H264.806L265.681 282.386Z" fill="#DBDBDB"/>
<path d="M301.66 248.556H290.596L289.88 243.143H302.377L301.66 248.556ZM291.233 247.76H300.944L301.422 243.939H290.755L291.233 247.76Z" fill="#DBDBDB"/>
<path d="M301.66 275.779H290.596L289.88 270.366H302.377L301.66 275.779ZM291.233 274.983H300.944L301.422 271.162H290.755L291.233 274.983Z" fill="#DBDBDB"/>
<path d="M269.741 292.416L268.706 299.5L266.716 313.669H262.816V292.416H269.741Z" fill="#EBEBEB"/>
<path d="M269.741 292.416L268.706 299.5H262.816V292.416H269.741Z" fill="#DBDBDB"/>
<path d="M399.091 292.416L400.126 299.5L402.116 313.669H406.016V292.416H399.091Z" fill="#EBEBEB"/>
<path d="M399.091 292.416L400.126 299.5H406.016V292.416H399.091Z" fill="#DBDBDB"/>
<path d="M250 377.428C329.307 377.428 393.598 369.053 393.598 358.722C393.598 348.391 329.307 340.016 250 340.016C170.693 340.016 106.402 348.391 106.402 358.722C106.402 369.053 170.693 377.428 250 377.428Z" fill="#EBEBEB"/>
<path d="M118.262 338.186C142.001 338.186 161.246 333.588 161.246 327.917C161.246 322.246 142.001 317.649 118.262 317.649C94.5226 317.649 75.278 322.246 75.278 327.917C75.278 333.588 94.5226 338.186 118.262 338.186Z" fill="#EBEBEB"/>
<path d="M77.5864 313.669L120.73 313.51L163.793 313.43L250 313.271L336.207 313.43H379.27L422.414 313.669L379.27 313.828L336.207 313.908L250 314.067L163.793 313.908L120.73 313.828L77.5864 313.669Z" fill="#263238"/>
<path d="M119.536 175.802C119.536 175.802 98.1232 172.777 103.138 146.986C103.138 146.986 127.018 152.32 119.536 175.802Z" fill="#FFC727"/>
<path opacity="0.1" d="M119.536 175.802C119.536 175.802 98.1232 172.777 103.138 146.986C103.138 146.986 127.018 152.32 119.536 175.802Z" fill="black"/>
<path d="M118.421 170.389C118.023 169.115 117.546 167.762 116.988 166.568C116.988 166.409 116.909 166.25 116.909 166.09C116.909 165.772 116.829 165.374 116.829 165.056C116.75 164.26 116.75 163.543 116.67 162.747C116.59 161.235 116.511 159.643 116.431 158.13C116.431 158.051 116.272 158.051 116.272 158.13C116.272 159.643 116.272 161.235 116.272 162.747C116.272 163.543 116.352 164.26 116.431 165.056C116.431 165.215 116.431 165.374 116.431 165.533C115.237 162.986 113.804 160.518 112.133 158.21C111.416 157.175 110.62 156.22 109.824 155.265C108.949 154.31 108.073 153.354 107.198 152.399C107.118 152.32 107.038 152.399 107.118 152.479C108.71 154.15 109.984 156.061 111.257 157.971C111.894 158.926 112.531 159.961 113.088 160.996C113.008 160.996 112.929 160.916 112.849 160.916C112.61 160.837 112.372 160.678 112.053 160.598C111.496 160.359 110.859 160.12 110.302 159.961C109.188 159.563 107.994 159.086 106.879 158.688C106.8 158.688 106.8 158.767 106.8 158.847C107.914 159.324 109.028 159.802 110.222 160.28C110.78 160.518 111.337 160.757 111.894 160.996C112.133 161.076 112.451 161.235 112.69 161.314C112.849 161.394 113.088 161.474 113.247 161.553C113.645 162.349 114.123 163.145 114.521 163.862C115.476 165.852 116.431 167.921 117.148 169.991C117.227 170.15 117.227 170.309 117.307 170.468C116.75 170.15 116.113 169.911 115.556 169.593C114.839 169.274 114.043 168.956 113.327 168.558C111.814 167.842 110.302 167.205 108.869 166.329C108.79 166.25 108.71 166.409 108.79 166.409C110.222 167.205 111.735 168.08 113.168 168.876C113.884 169.274 114.68 169.672 115.396 169.991C116.033 170.309 116.75 170.707 117.386 170.787C118.023 172.777 118.58 174.767 118.819 176.836C119.058 179.782 119.058 182.727 119.138 185.672C119.138 185.752 119.217 185.752 119.217 185.672C119.456 183.045 119.536 180.339 119.536 177.632C119.695 175.165 119.217 172.856 118.421 170.389Z" fill="#263238"/>
<path d="M115.158 155.185C114.998 156.698 114.839 158.21 114.919 159.722C114.919 159.802 114.998 159.802 114.998 159.722C115.078 158.21 115.078 156.698 115.237 155.185C115.237 155.185 115.158 155.106 115.158 155.185Z" fill="#263238"/>
<path d="M109.028 156.538C108.073 156.14 107.118 155.742 106.242 155.185C106.163 155.106 106.083 155.265 106.163 155.265C107.038 155.822 107.914 156.3 108.949 156.618C109.028 156.618 109.028 156.538 109.028 156.538Z" fill="#263238"/>
<path d="M120.172 216.875C120.172 214.487 120.093 212.179 120.093 209.791C120.013 201.91 120.013 194.11 119.854 186.229C119.774 180.02 119.615 173.732 119.456 167.523C119.456 167.523 119.456 167.444 119.376 167.444C119.376 165.772 119.376 164.021 119.376 162.349C119.376 162.27 119.297 162.27 119.297 162.27C119.217 162.27 119.217 162.27 119.217 162.349C119.217 164.021 119.217 165.772 119.217 167.444L119.138 167.523C118.819 178.588 118.58 189.732 118.501 200.796C118.501 203.025 118.501 205.333 118.501 207.562C118.421 214.806 118.421 222.049 118.421 229.293C118.421 230.407 118.421 231.601 118.421 232.716C118.421 239.322 118.501 245.929 118.501 252.616C118.501 252.934 118.899 253.173 119.297 253.173C119.774 253.173 120.252 253.014 120.252 252.616C120.252 245.292 120.332 238.049 120.332 230.726C120.252 226.029 120.252 221.412 120.172 216.875Z" fill="#263238"/>
<path d="M111.257 209.632C111.257 209.632 100.989 201.99 91.198 207.164C81.4072 212.338 79.8948 232.158 79.8948 232.158C79.8948 232.158 94.2228 234.228 103.297 225.631C111.974 217.353 111.257 209.632 111.257 209.632Z" fill="#FFC727"/>
<path d="M114.043 210.109C112.212 209.313 110.143 209.154 108.073 209.313C107.675 209.234 107.198 209.234 106.8 209.154C106.322 209.154 105.844 209.074 105.367 209.074C104.332 208.995 103.377 208.915 102.342 208.836C100.272 208.676 98.2824 208.597 96.2128 208.358C96.1332 208.358 96.1332 208.517 96.2128 208.517C98.2028 208.756 100.193 209.074 102.262 209.234C103.297 209.313 104.332 209.472 105.367 209.552C105.606 209.552 105.844 209.632 106.083 209.632C105.765 209.711 105.446 209.791 105.208 209.87C103.616 210.348 102.024 210.985 100.511 211.781C99.7152 211.94 98.9192 212.179 98.1232 212.338C96.8496 212.656 95.576 212.975 94.3024 213.293C91.8348 213.93 89.3672 214.646 86.82 215.442C86.7404 215.442 86.7404 215.602 86.82 215.602C89.2876 214.965 91.7552 214.408 94.3024 213.85C95.4964 213.532 96.6904 213.293 97.8844 212.975C98.2028 212.895 98.5212 212.816 98.8396 212.736C96.0536 214.408 93.586 216.636 91.5164 219.104C89.4468 221.572 87.8548 224.278 86.422 227.144C86.422 227.223 86.5016 227.303 86.5016 227.223C88.1732 224.278 90.2428 221.572 92.6308 219.184C92.5512 219.343 92.5512 219.422 92.4716 219.582C92.3124 220.218 92.0736 220.776 91.9144 221.412C91.5164 222.606 91.1184 223.8 90.8 225.074C90.8 225.154 90.8796 225.154 90.9592 225.074C91.3572 223.88 91.8348 222.686 92.2328 221.572C92.4716 221.014 92.6308 220.378 92.8696 219.82C92.9492 219.502 93.1084 219.184 93.188 218.945C93.188 218.865 93.2676 218.786 93.2676 218.706C94.4616 217.592 95.6556 216.557 96.9292 215.602C98.6008 214.328 100.432 213.293 102.422 212.497C102.422 212.656 102.342 212.816 102.342 213.054C102.262 213.532 102.103 214.01 102.024 214.487C101.785 215.442 101.626 216.477 101.466 217.432C101.068 219.422 100.83 221.412 100.432 223.402C100.432 223.482 100.511 223.482 100.591 223.402C101.068 221.412 101.626 219.422 102.103 217.432C102.342 216.398 102.581 215.442 102.74 214.408C102.82 213.93 102.899 213.452 103.058 212.975C103.138 212.736 103.138 212.418 103.218 212.179C103.377 212.099 103.616 212.02 103.775 211.94C106.481 210.905 109.426 210.189 112.372 210.746C115.158 211.303 117.466 213.134 118.58 215.681C118.66 215.92 119.058 215.761 118.978 215.522C118.421 212.895 116.352 211.064 114.043 210.109Z" fill="#263238"/>
<path d="M98.2824 218.626C97.964 219.9 97.7252 221.253 97.4068 222.527C97.168 223.8 96.77 225.074 96.6904 226.348C96.6904 226.427 96.77 226.427 96.77 226.348C97.168 225.154 97.4068 223.8 97.6456 222.527C97.8844 221.253 98.1232 219.98 98.4416 218.626C98.4416 218.547 98.2824 218.547 98.2824 218.626Z" fill="#263238"/>
<path d="M88.3324 221.89C87.0588 222.527 85.7852 223.323 84.3524 223.88C84.2728 223.88 84.3524 224.039 84.432 223.96C85.7852 223.323 87.1384 222.766 88.3324 221.89C88.412 221.89 88.412 221.97 88.3324 221.89Z" fill="#263238"/>
<path d="M113.566 195.622C113.566 195.622 100.989 196.418 95.0984 188.14C89.208 179.861 90.5612 168.001 90.5612 168.001C90.5612 168.001 103.775 169.593 109.028 175.563C114.282 181.533 113.566 195.622 113.566 195.622Z" fill="#FFC727"/>
<path d="M119.456 208.04C119.058 206.686 118.501 205.333 117.944 204.06C117.466 202.786 116.909 201.512 116.352 200.318C115.237 197.771 113.964 195.304 112.61 192.916C111.735 191.403 110.78 189.891 109.824 188.458C109.824 188.219 109.745 187.98 109.745 187.821C109.665 187.423 109.665 187.025 109.586 186.627C109.426 185.831 109.347 185.035 109.188 184.239C108.869 182.488 108.551 180.737 108.232 179.065C108.232 178.986 108.073 178.986 108.073 179.065C108.312 180.816 108.471 182.488 108.71 184.239C108.79 185.115 108.949 185.911 109.028 186.786C109.108 187.105 109.108 187.423 109.188 187.662C107.277 184.876 105.208 182.17 102.979 179.622C102.66 179.304 102.342 178.906 102.024 178.588C102.024 178.508 101.944 178.428 101.944 178.269C101.864 178.03 101.785 177.792 101.705 177.553C101.546 177.075 101.307 176.518 101.148 176.04C100.83 175.085 100.511 174.05 100.193 173.016C100.193 172.936 100.034 172.936 100.034 173.016C100.272 174.05 100.591 175.085 100.83 176.12C100.989 176.598 101.148 177.075 101.307 177.553C101.307 177.632 101.387 177.712 101.387 177.792C99.7948 176.04 98.1232 174.369 96.372 172.697C96.2924 172.618 96.2128 172.697 96.2924 172.777C99.556 176.12 102.501 179.861 105.208 183.682C104.889 183.602 104.571 183.523 104.252 183.443C103.297 183.284 102.342 183.125 101.307 182.966C99.2376 182.727 97.2476 182.408 95.178 182.09C95.0984 182.09 95.0984 182.17 95.178 182.249C97.0884 182.647 99.0784 183.045 100.989 183.523C101.864 183.762 102.82 183.921 103.775 184.08C104.571 184.239 105.287 184.478 106.004 184.717C106.242 185.035 106.402 185.274 106.64 185.592C107.596 186.946 108.471 188.299 109.347 189.652C108.949 189.572 108.471 189.493 108.073 189.413C107.118 189.254 106.163 189.015 105.128 188.856C103.218 188.538 101.307 188.219 99.3968 187.742C99.3172 187.742 99.3172 187.821 99.3968 187.901C101.307 188.378 103.218 188.856 105.128 189.413C106.083 189.652 106.959 189.891 107.914 190.05C108.392 190.13 108.869 190.289 109.347 190.368C109.586 190.448 109.745 190.448 109.904 190.448C111.735 193.393 113.486 196.498 115.078 199.602C115.794 200.955 116.431 202.388 117.148 203.741C117.784 205.174 118.421 206.607 118.978 208.04C119.138 208.517 119.615 208.358 119.456 208.04Z" fill="#263238"/>
<path d="M106.561 179.145C106.322 177.951 106.083 176.757 105.765 175.563C105.765 175.483 105.606 175.483 105.606 175.563C105.844 176.757 106.083 177.951 106.322 179.145C106.561 180.339 106.72 181.533 107.038 182.647C107.118 181.453 106.8 180.259 106.561 179.145Z" fill="#263238"/>
<path d="M99.2376 178.747C98.6804 178.428 98.0436 178.19 97.4068 177.951C97.0884 177.792 96.77 177.712 96.4516 177.553C96.2924 177.473 96.1332 177.394 95.974 177.394C95.8148 177.314 95.576 177.234 95.4168 177.155C95.3372 177.075 95.2576 177.234 95.3372 177.234C95.4964 177.234 95.7352 177.394 95.8944 177.473C96.0536 177.553 96.2128 177.632 96.372 177.712C96.6904 177.871 97.0088 177.951 97.3272 178.11C97.964 178.349 98.5212 178.667 99.158 178.826C99.3172 178.906 99.3172 178.826 99.2376 178.747Z" fill="#263238"/>
<path d="M126.461 185.752C126.461 185.752 134.102 171.503 145.644 169.354C157.266 167.125 164.35 179.065 164.35 179.065C164.35 179.065 155.913 189.891 145.246 191.722C134.58 193.632 126.461 185.752 126.461 185.752Z" fill="#FFC727"/>
<path d="M153.445 175.722C150.42 175.324 147.396 175.324 144.371 175.802C144.53 175.722 144.689 175.642 144.848 175.563C145.724 175.165 146.6 174.687 147.396 174.21C149.147 173.254 150.978 172.299 152.808 171.583C152.888 171.583 152.808 171.424 152.729 171.503C150.898 172.379 149.067 173.016 147.236 173.891C146.361 174.289 145.406 174.767 144.53 175.244C143.973 175.563 143.336 175.802 142.779 176.2C140.232 176.757 137.764 177.553 135.376 178.667C135.854 178.11 136.331 177.632 136.809 177.075C137.923 175.881 138.958 174.687 140.152 173.573C140.232 173.493 140.152 173.414 140.072 173.493C138.878 174.608 137.605 175.642 136.411 176.757C135.854 177.314 135.296 177.871 134.739 178.508C134.5 178.826 134.182 179.145 133.943 179.463C128.928 182.17 124.63 186.309 121.764 191.324C120.172 194.189 119.058 197.214 118.421 200.398C118.421 200.478 118.501 200.557 118.58 200.478C120.172 195.144 123.197 190.05 127.098 186.07C131.316 181.772 136.729 178.588 142.62 177.075C146.122 176.2 149.704 175.881 153.366 176.12C153.525 175.961 153.525 175.722 153.445 175.722Z" fill="#263238"/>
<path opacity="0.1" d="M164.35 179.065C164.35 179.065 155.913 189.891 145.246 191.722C137.127 193.154 130.441 188.936 127.734 186.866L127.177 185.911C127.177 185.911 132.67 181.294 143.018 178.588C153.445 175.881 164.35 179.065 164.35 179.065Z" fill="black"/>
<path d="M146.679 170.628C145.804 171.185 144.928 171.662 144.132 172.299C143.336 172.936 142.54 173.573 141.903 174.369C141.824 174.448 141.903 174.528 141.983 174.448C142.779 173.812 143.495 173.095 144.291 172.458C145.087 171.822 145.883 171.185 146.759 170.707C146.838 170.707 146.759 170.548 146.679 170.628Z" fill="#263238"/>
<path d="M153.047 173.016C152.649 173.175 152.172 173.334 151.774 173.493C151.376 173.652 150.898 173.811 150.5 174.05C150.42 174.05 150.42 174.21 150.58 174.21C150.978 174.05 151.455 173.891 151.853 173.652C152.251 173.493 152.729 173.254 153.127 173.095C153.127 173.095 153.127 173.016 153.047 173.016Z" fill="#263238"/>
<path d="M124.948 203.662C124.948 203.662 127.018 217.751 137.605 222.686C148.192 227.621 161.166 222.686 161.166 222.686C161.166 222.686 156.072 192.199 124.948 203.662Z" fill="#FFC727"/>
<path d="M153.843 213.532C152.888 213.452 151.853 213.293 150.898 213.054C150.42 212.975 149.943 212.895 149.465 212.816C149.226 212.736 148.988 212.736 148.749 212.656C148.43 212.418 148.192 212.099 147.873 211.86C145.883 210.109 143.654 208.517 141.346 207.164C140.072 206.448 138.799 205.731 137.446 205.174C137.525 205.174 137.605 205.174 137.684 205.174C138.878 205.254 139.993 205.254 141.187 205.333C143.495 205.413 145.883 205.492 148.192 205.652C148.271 205.652 148.271 205.492 148.192 205.492C145.883 205.333 143.495 205.094 141.187 204.856C140.072 204.776 138.958 204.617 137.764 204.537C137.207 204.458 136.57 204.458 136.013 204.378C135.854 204.378 135.694 204.378 135.535 204.298C134.898 204.06 134.341 203.821 133.704 203.662C130.839 202.786 127.655 202.388 124.71 203.184C122.003 203.9 119.376 205.652 118.66 208.438C118.66 208.517 118.819 208.597 118.819 208.517C119.854 206.129 122.401 205.015 124.789 204.458C126.381 204.139 127.973 204.139 129.565 204.378C129.645 205.094 129.884 205.811 130.122 206.527C130.441 207.482 130.68 208.517 130.998 209.472C131.635 211.462 132.272 213.452 132.829 215.442C132.829 215.522 132.988 215.522 132.988 215.442C132.51 213.452 132.112 211.462 131.635 209.472C131.396 208.517 131.157 207.562 130.918 206.527C130.759 205.89 130.6 205.174 130.361 204.537C131.316 204.696 132.192 204.935 133.147 205.174C134.739 205.652 136.411 206.209 137.923 206.925C138.082 207.96 138.321 208.915 138.56 209.95C138.878 211.224 139.197 212.418 139.595 213.612C139.595 213.691 139.754 213.691 139.674 213.612C139.674 213.532 139.674 213.452 139.595 213.373C139.356 212.258 139.117 211.064 138.878 209.95C138.719 208.995 138.48 208.119 138.321 207.164C139.674 207.721 140.948 208.438 142.222 209.154C142.222 209.472 142.301 209.711 142.381 210.03C142.46 210.507 142.54 210.985 142.62 211.462C142.858 212.577 143.018 213.612 143.336 214.726C143.814 216.796 144.371 218.865 145.167 220.855V220.935L145.246 221.014C145.326 221.094 145.406 221.014 145.326 220.935C144.848 218.865 144.291 216.796 143.814 214.646C143.575 213.612 143.336 212.577 143.177 211.462C143.097 210.905 142.938 210.428 142.858 209.87C142.858 209.711 142.779 209.552 142.779 209.393C144.212 210.268 145.565 211.144 146.918 212.179C149.147 213.85 151.376 215.84 153.206 217.99C153.286 218.069 153.445 217.99 153.366 217.83C152.57 216.796 151.774 215.761 150.818 214.726C150.261 214.169 149.704 213.612 149.147 213.054C149.226 213.054 149.226 213.054 149.306 213.054C149.784 213.134 150.341 213.214 150.818 213.293C151.774 213.452 152.808 213.532 153.764 213.612C153.843 213.691 153.923 213.532 153.843 213.532Z" fill="#263238"/>
<path d="M146.361 218.308C146.361 218.149 146.361 218.069 146.281 217.91C146.281 217.751 146.202 217.592 146.122 217.432C145.883 216.477 145.724 215.522 145.565 214.567C145.565 214.487 145.485 214.487 145.485 214.567C145.485 215.92 145.804 217.114 146.361 218.308C146.361 218.388 146.281 218.388 146.361 218.308Z" fill="#263238"/>
<path d="M137.446 218.069C137.048 216.796 136.809 215.522 136.57 214.248C136.411 213.612 136.331 212.895 136.172 212.258C136.092 211.94 136.013 211.542 136.013 211.224C135.933 210.905 135.933 210.587 135.774 210.268C135.774 210.189 135.694 210.268 135.694 210.268C135.615 210.826 135.854 211.542 135.933 212.179C136.092 212.895 136.172 213.532 136.331 214.248C136.65 215.602 136.968 217.034 137.366 218.388C137.366 218.467 137.525 218.467 137.525 218.388C137.525 218.308 137.446 218.149 137.446 218.069Z" fill="#263238"/>
<path d="M152.808 209.472C150.898 209.234 148.908 208.915 146.998 208.676C146.918 208.676 146.918 208.756 146.998 208.836C148.908 209.154 150.898 209.393 152.808 209.632C152.888 209.552 152.968 209.472 152.808 209.472Z" fill="#263238"/>
<path d="M119.456 170.548C119.456 170.548 112.929 142.051 143.575 130.509C143.575 130.509 152.092 168.001 119.456 170.548Z" fill="#FFC727"/>
<path d="M126.063 154.389C126.142 154.31 126.302 154.23 126.381 154.15C126.938 153.832 127.496 153.514 128.132 153.195L131.714 151.205C134.023 149.932 136.331 148.578 138.719 147.225C138.799 147.146 138.719 147.066 138.64 147.146C136.252 148.419 133.864 149.613 131.476 150.887L127.973 152.718C127.496 152.956 127.018 153.195 126.54 153.514C127.575 151.603 128.69 149.693 129.884 147.862C131.476 145.394 133.227 143.086 135.058 140.857C135.137 140.778 134.978 140.618 134.898 140.698C132.192 143.245 129.884 146.27 127.814 149.374C127.814 149.295 127.814 149.136 127.814 149.056C127.814 148.34 127.894 147.623 127.894 146.907C127.894 145.554 127.814 144.121 127.894 142.768C127.894 142.688 127.734 142.688 127.734 142.768C127.655 144.121 127.496 145.474 127.416 146.907C127.416 147.623 127.336 148.26 127.336 148.976C127.336 149.374 127.257 149.772 127.336 150.17C126.7 151.205 126.063 152.16 125.506 153.195C124.471 155.026 123.595 156.936 122.799 158.926C122.799 158.21 122.72 157.494 122.72 156.777C122.64 155.185 122.401 153.673 122.401 152.081C122.401 152.001 122.242 152.001 122.242 152.081C122.242 153.673 122.162 155.185 122.242 156.777C122.242 157.573 122.322 158.369 122.322 159.086C122.322 159.404 122.322 159.643 122.401 159.961C121.446 162.508 120.65 165.135 120.093 167.762C119.536 170.628 119.217 173.493 118.978 176.359C119.217 173.812 119.934 171.185 120.57 168.717C120.968 167.364 121.366 166.011 121.764 164.737C123.038 164.1 124.232 163.384 125.506 162.668C126.779 161.951 128.053 161.235 129.326 160.598C131.874 159.165 134.421 157.732 137.048 156.538C137.127 156.538 137.048 156.379 136.968 156.459C134.262 157.653 131.635 158.847 129.008 160.12C127.734 160.757 126.381 161.474 125.187 162.19C124.152 162.827 123.038 163.384 122.003 164.1C122.322 163.225 122.64 162.349 122.958 161.474C123.914 159.006 124.948 156.698 126.063 154.389Z" fill="#263238"/>
<path d="M123.516 147.862C123.516 147.782 123.356 147.782 123.356 147.862C123.436 149.454 123.516 151.126 123.675 152.718C123.675 152.797 123.834 152.797 123.834 152.718C123.834 151.126 123.675 149.534 123.516 147.862Z" fill="#263238"/>
<path d="M138.162 153.354C136.252 154.15 134.341 154.867 132.431 155.663C132.351 155.663 132.431 155.742 132.431 155.742C134.341 155.026 136.252 154.23 138.162 153.514C138.321 153.434 138.242 153.275 138.162 153.354Z" fill="#263238"/>
<path d="M141.107 140.22C139.197 141.096 137.446 142.051 135.694 143.166C135.615 143.245 135.694 143.325 135.774 143.325C137.525 142.29 139.356 141.255 141.187 140.38C141.266 140.22 141.187 140.141 141.107 140.22Z" fill="#263238"/>
<path d="M140.709 232.158H96.5312V278.724H140.709V232.158Z" fill="#455A64"/>
<path d="M95.6556 248.635H93.4268V328.315H95.6556V248.635Z" fill="#263238"/>
<path d="M143.416 248.635H141.187V328.315H143.416V248.635Z" fill="#263238"/>
<path d="M120.73 248.635H118.501V328.315H120.73V248.635Z" fill="#263238"/>
<path d="M142.381 275.7H94.6207V282.147H142.381V275.7Z" fill="#263238"/>
<path d="M318.138 302.286V336.594C318.138 343.121 318.058 348.932 317.74 351.877C317.74 351.877 317.74 351.877 317.74 351.956C317.581 353.071 317.501 353.787 317.262 353.946C317.262 353.946 317.262 353.946 317.262 354.026C315.352 355.379 262.975 357.13 261.064 356.573C259.234 356.016 260.666 350.683 262.656 349.011C264.646 347.34 284.387 337.628 284.387 337.628L284.706 303.4L318.138 302.286Z" fill="#FEA574"/>
<path d="M318.138 329.589V336.594C318.138 343.121 318.058 348.932 317.74 351.877C317.74 351.877 317.74 351.877 317.74 351.956C317.58 353.071 317.421 353.787 317.262 353.946C317.262 353.946 317.262 353.946 317.262 354.026C315.352 355.379 262.975 357.13 261.064 356.573C259.234 356.016 260.666 350.683 262.656 349.011C264.646 347.34 284.387 337.628 284.387 337.628L284.308 330.464L318.138 329.589Z" fill="#C7C7C7"/>
<path d="M261.064 356.573C262.895 357.13 315.272 355.3 317.262 354.026C317.978 353.548 318.217 345.907 318.138 336.673C318.138 336.594 318.138 336.514 318.138 336.355L284.308 337.151V337.708C284.308 337.708 264.567 347.34 262.577 349.091C260.666 350.683 259.234 356.016 261.064 356.573Z" fill="#263238"/>
<path d="M261.622 354.504C270.457 353.946 306.038 352.752 314.794 352.912C314.874 352.912 314.874 352.991 314.794 352.991C306.038 353.708 270.457 354.663 261.622 354.742C261.462 354.663 261.383 354.504 261.622 354.504Z" fill="#455A64"/>
<path d="M281.522 337.867C284.944 337.071 289.243 337.469 291.949 339.857C292.029 339.937 291.949 340.096 291.79 340.096C288.288 339.141 285.104 338.584 281.522 338.345C281.283 338.265 281.283 337.867 281.522 337.867Z" fill="#455A64"/>
<path d="M279.054 339.459C282.477 338.663 286.775 339.061 289.482 341.449C289.561 341.529 289.482 341.688 289.322 341.688C285.82 340.733 282.636 340.176 279.054 339.937C278.895 339.857 278.815 339.539 279.054 339.459Z" fill="#455A64"/>
<path d="M276.666 341.051C280.089 340.255 284.387 340.653 287.094 343.041C287.173 343.121 287.094 343.28 286.934 343.28C283.432 342.325 280.248 341.768 276.666 341.529C276.427 341.449 276.348 341.131 276.666 341.051Z" fill="#455A64"/>
<path d="M321.162 175.165V177.473L319.889 277.61L319.809 278.008L319.093 338.026L282.397 337.31L289.482 175.324L289.561 173.175L289.959 154.31H320.924L321.162 175.165Z" fill="#455A64"/>
<path d="M283.989 331.181C289.72 331.101 288.049 331.101 293.78 331.101C296.566 331.101 314.954 331.181 317.58 331.658C317.66 331.658 317.66 331.738 317.58 331.738C314.954 332.136 296.566 331.738 293.78 331.658C288.049 331.499 289.72 331.499 283.989 331.34C283.83 331.34 283.83 331.181 283.989 331.181Z" fill="#263238"/>
<path d="M300.387 185.752C300.387 185.672 300.228 185.672 300.228 185.752C300.228 195.304 299.83 200.716 299.591 210.268C299.352 219.82 299.113 229.452 298.795 239.004C298.238 258.188 297.521 277.292 296.805 296.475C296.407 307.221 295.929 317.967 295.292 328.713C295.292 328.793 295.372 328.793 295.372 328.713C296.725 309.609 298.078 290.426 298.874 271.242C299.67 252.058 300.148 232.954 300.307 213.771C300.387 203.025 300.387 196.498 300.387 185.752Z" fill="#263238"/>
<path d="M321.162 175.165L319.889 277.61L295.292 154.389H320.924L321.162 175.165Z" fill="#263238"/>
<path d="M359.291 300.455L363.908 334.444C364.863 340.972 365.5 346.623 365.579 349.648C365.579 349.648 365.579 349.648 365.579 349.728C365.579 350.842 365.579 351.558 365.42 351.797C365.42 351.797 365.42 351.797 365.42 351.877C363.669 353.469 312.008 362.304 310.098 361.986C308.188 361.668 308.904 356.255 310.655 354.265C312.406 352.354 330.635 340.096 330.635 340.096L326.336 306.107L359.291 300.455Z" fill="#FEA574"/>
<path d="M362.952 327.44C362.952 327.44 363.908 334.365 363.908 334.444C364.863 340.972 365.5 346.623 365.579 349.648C365.579 349.648 365.579 349.648 365.579 349.728C365.579 350.842 365.5 351.558 365.42 351.797C365.42 351.797 365.42 351.797 365.42 351.877C363.669 353.469 312.008 362.304 310.098 361.986C308.188 361.668 308.904 356.255 310.655 354.265C312.406 352.354 330.635 340.096 330.635 340.096L329.6 333.012L362.952 327.44Z" fill="#C7C7C7"/>
<path d="M310.018 361.906C311.929 362.225 363.589 353.389 365.34 351.797C365.977 351.24 365.181 343.598 363.908 334.444C363.908 334.365 363.908 334.285 363.828 334.126L330.476 339.459L330.555 340.016C330.555 340.016 312.327 352.275 310.576 354.185C308.824 356.175 308.108 361.588 310.018 361.906Z" fill="#263238"/>
<path d="M310.257 359.837C318.934 358.165 354.037 352.115 362.793 351.081C362.873 351.081 362.873 351.081 362.793 351.16C354.196 353.071 319.093 358.802 310.337 359.996C310.098 359.996 310.098 359.837 310.257 359.837Z" fill="#455A64"/>
<path d="M327.769 340.574C331.112 339.38 335.331 339.141 338.436 341.131C338.515 341.21 338.436 341.37 338.356 341.37C334.774 340.892 331.51 340.733 327.928 340.972C327.61 341.051 327.53 340.733 327.769 340.574Z" fill="#455A64"/>
<path d="M325.54 342.564C328.884 341.37 333.102 341.131 336.207 343.121C336.286 343.2 336.207 343.36 336.127 343.36C332.545 342.882 329.282 342.723 325.7 342.962C325.381 342.962 325.302 342.643 325.54 342.564Z" fill="#455A64"/>
<path d="M323.391 344.474C326.734 343.28 330.953 343.041 334.058 345.031C334.137 345.111 334.058 345.27 333.978 345.27C330.396 344.792 327.132 344.633 323.55 344.872C323.152 344.872 323.152 344.554 323.391 344.474Z" fill="#455A64"/>
<path d="M293.064 154.31C293.223 154.946 295.372 165.056 297.601 173.652C299.193 179.941 300.944 185.513 301.899 186.07C303.014 186.707 308.267 189.095 310.098 189.811L318.217 267.58L329.202 339.698L365.181 334.126L339.55 176.359L335.411 154.31H293.064Z" fill="#455A64"/>
<path d="M329.441 332.534C335.092 331.658 333.421 331.818 339.152 330.942C341.938 330.544 360.166 327.838 362.793 327.917C362.873 327.917 362.873 327.997 362.793 327.997C360.246 328.793 342.018 331.181 339.232 331.499C333.58 332.216 335.172 331.977 329.52 332.614C329.361 332.693 329.361 332.534 329.441 332.534Z" fill="#263238"/>
<path d="M350.296 310.962C349.42 305.948 348.545 300.933 347.59 295.998C345.759 285.968 343.848 276.018 342.018 265.988C338.276 246.009 334.535 225.95 330.874 205.97C328.804 194.667 328.884 195.702 327.053 184.398C327.053 184.319 326.894 184.319 326.894 184.398C328.645 194.508 327.769 192.279 329.441 202.388C331.033 212.418 332.784 222.368 334.535 232.397C338.117 252.456 341.938 272.436 345.759 292.495C346.794 298.067 347.908 303.719 349.022 309.291C350.137 315.022 351.41 320.674 352.604 326.405C352.604 326.564 352.843 326.484 352.843 326.405C351.968 321.231 351.251 316.057 350.296 310.962Z" fill="#263238"/>
<path d="M340.426 185.115C339.47 184.876 338.436 184.796 337.48 184.637C336.684 184.478 335.888 184.398 335.092 184.239C333.66 183.921 332.147 183.443 330.953 182.488C329.6 181.453 328.884 179.861 328.247 178.269C327.849 177.394 327.451 176.438 327.053 175.563C326.894 175.085 326.655 174.687 326.416 174.289C326.177 173.812 325.859 173.254 325.7 172.697C325.7 172.618 325.54 172.697 325.62 172.697C325.779 173.016 325.859 173.493 325.938 173.812C326.098 174.289 326.177 174.687 326.336 175.165C326.575 175.961 326.814 176.757 327.053 177.473C327.53 178.906 327.928 180.339 328.724 181.612C330.157 183.921 332.784 184.876 335.331 185.194C336.048 185.274 336.844 185.354 337.56 185.354C338.515 185.433 339.47 185.513 340.346 185.354C340.505 185.354 340.585 185.115 340.426 185.115Z" fill="#263238"/>
<path d="M299.113 184.637C302.934 185.911 306.596 187.821 310.098 189.732C310.257 189.811 310.178 190.05 310.018 189.97C306.357 188.378 302.536 186.866 298.954 185.115C298.636 184.956 298.795 184.558 299.113 184.637Z" fill="#263238"/>
<path d="M297.999 159.404C297.999 159.245 298.238 159.245 298.238 159.404C298.238 163.782 298.476 167.682 298.874 171.742C299.034 173.652 300.546 184.16 303.889 183.364C304.446 183.204 304.685 182.727 304.844 181.851C304.924 180.816 304.606 179.622 304.367 178.667C303.969 176.438 303.73 174.289 303.491 172.06C303.173 167.921 303.093 163.782 303.65 159.643C303.65 159.484 303.889 159.484 303.889 159.643C303.889 165.374 304.048 171.105 304.924 176.836C305.322 179.543 306.675 183.682 303.889 184.08C300.944 184.478 299.113 177.632 298.715 175.722C297.601 170.389 297.601 164.737 297.999 159.404Z" fill="#263238"/>
<path d="M303.73 183.602C304.048 184.319 304.287 185.035 304.446 185.752C304.606 186.309 304.844 186.946 304.765 187.503C304.765 187.582 304.606 187.662 304.526 187.582C304.128 187.105 303.969 186.388 303.73 185.831C303.491 185.194 303.252 184.478 303.014 183.841C302.934 183.443 303.571 183.204 303.73 183.602Z" fill="#263238"/>
<path d="M340.028 178.747C335.65 178.428 289.561 173.175 289.561 173.175L289.959 154.389H293.143H335.49L339.63 176.438L340.028 178.747Z" fill="#263238"/>
<path d="M307.79 111.166C302.536 127.643 293.621 144.678 290.994 148.021C284.069 157.016 263.293 165.931 256.925 167.046C254.219 167.523 247.612 149.852 249.284 147.384C250.955 144.917 276.825 135.046 278.099 133.773C278.974 132.897 289.88 118.808 297.203 110.37C306.357 99.8631 309.143 106.868 307.79 111.166Z" fill="#FEA574"/>
<path d="M254.856 143.962L265.044 164.658C265.044 164.658 286.775 155.265 291.87 148.578C297.044 141.892 306.436 119.126 307.79 111.883C309.222 104.639 306.755 99.4652 297.044 110.052C287.332 120.639 279.293 131.146 277.542 132.977C275.87 134.728 254.856 143.962 254.856 143.962Z" fill="#EBEBEB"/>
<path d="M255.731 142.927L267.99 164.339C267.99 164.339 287.094 155.185 291.949 149.215C296.805 143.166 304.844 124.778 307.392 114.908C309.939 104.958 308.426 97.9527 297.203 110.052C285.979 122.151 279.611 131.066 277.303 132.977C276.109 133.932 255.731 142.927 255.731 142.927Z" fill="#37474F"/>
<path d="M260.826 144.917C261.441 144.917 261.94 144.418 261.94 143.802C261.94 143.187 261.441 142.688 260.826 142.688C260.21 142.688 259.711 143.187 259.711 143.802C259.711 144.418 260.21 144.917 260.826 144.917Z" fill="#263238"/>
<path d="M266.159 142.449C266.774 142.449 267.273 141.95 267.273 141.335C267.273 140.719 266.774 140.22 266.159 140.22C265.543 140.22 265.044 140.719 265.044 141.335C265.044 141.95 265.543 142.449 266.159 142.449Z" fill="#263238"/>
<path d="M307.312 114.908C304.765 124.858 296.805 143.245 291.87 149.215C289.8 151.762 285.104 154.946 280.407 157.653L305.004 103.764C308.904 102.729 308.984 108.142 307.312 114.908Z" fill="#263238"/>
<path d="M342.416 170.787C342.256 170.946 287.253 171.105 286.696 170.548C285.979 169.752 298.397 110.132 304.048 102.729C305.242 101.137 309.222 100.739 312.645 101.137C313.6 101.216 314.476 101.455 315.272 101.694H315.352C316.148 101.933 316.784 102.251 317.262 102.649C326.655 110.211 334.615 136.479 336.525 144.439C339.63 157.414 342.893 170.309 342.416 170.787Z" fill="#EBEBEB"/>
<path d="M317.103 101.933C317.103 101.933 312.645 126.37 311.849 132.738C311.053 139.106 312.247 172.618 312.247 172.618L346.794 175.165C346.794 175.165 339.311 152.956 339.232 151.524C339.232 151.524 333.023 124.937 327.212 113.793C323.471 106.629 317.103 101.933 317.103 101.933Z" fill="#37474F"/>
<path d="M346.794 175.165L331.112 173.971L319.889 104.321V104.4L326.894 113.395C326.973 113.554 327.053 113.713 327.132 113.793C332.943 124.937 339.152 151.523 339.152 151.523C339.311 152.956 346.794 175.165 346.794 175.165Z" fill="#263238"/>
<path d="M303.73 102.49C303.73 102.49 300.068 127.245 299.67 129.315C299.272 131.385 293.7 171.742 293.7 171.742L285.024 171.981L289.561 153.513C289.561 153.434 299.67 107.743 303.73 102.49Z" fill="#37474F"/>
<path d="M308.824 116.022L306.357 111.246L303.173 114.748L303.969 118.171L307.073 118.569L308.824 116.022Z" fill="#263238"/>
<path d="M307.073 118.569L308.586 153.673L301.979 165.294L298.556 152.24L303.969 118.171L307.073 118.569Z" fill="#263238"/>
<path d="M305.737 215.695L305.695 256.928L373.832 256.997L373.874 215.764L305.737 215.695Z" fill="#FFC727"/>
<path opacity="0.1" d="M305.668 215.696L305.648 235.118L373.785 235.187L373.805 215.765L305.668 215.696Z" fill="black"/>
<path d="M304.124 228.845L375.445 228.918L375.465 209.655L304.143 209.582L304.124 228.845Z" fill="#FFC727"/>
<path d="M324.744 198.647V209.632H329.918V203.343L349.58 203.423V209.632H354.754V198.647H324.744Z" fill="#263238"/>
<path d="M361 233.54L365.617 233.544L365.626 224.311L361.01 224.306L361 233.54Z" fill="#263238"/>
<path d="M313.923 233.444L318.54 233.448L318.55 224.215L313.933 224.21L313.923 233.444Z" fill="#263238"/>
<path d="M324.744 109.256C340.107 123.186 349.818 143.086 350.535 147.145C352.127 156.857 354.117 173.891 353.798 181.373C353.639 184.159 332.704 180.816 332.704 177.791C332.864 168.558 331.59 148.18 331.51 147.782C331.112 145.315 326.575 134.091 321.958 121.912C317.342 109.813 318.297 103.445 324.744 109.256Z" fill="#FEA574"/>
<path d="M330.476 206.846C332.545 207.88 334.217 206.129 334.217 206.129C334.217 206.129 335.092 207.721 336.844 208.199C338.754 208.756 340.505 205.97 340.505 205.97C340.505 205.97 341.779 207.403 343.61 207.721C345.52 208.04 347.669 205.492 347.669 205.492C347.669 205.492 349.58 206.129 351.331 205.333C353.321 204.378 354.992 198.726 355.39 195.463C355.788 192.199 353.878 182.488 353.719 180.657L332.704 177.871C332.704 177.871 326.655 192.04 326.734 195.94C326.814 199.204 328.167 205.652 330.476 206.846Z" fill="#FEA574"/>
<path d="M333.898 205.97C333.023 202.467 333.182 198.885 333.182 195.303C333.182 195.224 333.341 195.224 333.341 195.303C333.341 198.885 333.978 202.388 334.137 205.89C334.058 206.049 333.898 206.049 333.898 205.97Z" fill="#263238"/>
<path d="M340.187 205.89C340.028 205.094 340.107 204.219 340.107 203.423C340.107 202.547 340.187 201.671 340.266 200.796C340.426 199.045 340.585 197.293 340.824 195.622C340.824 195.542 340.983 195.542 340.983 195.622C340.824 197.373 340.744 199.124 340.664 200.796C340.664 201.671 340.585 202.547 340.585 203.423C340.585 204.219 340.585 205.094 340.426 205.89C340.426 205.97 340.187 205.97 340.187 205.89Z" fill="#263238"/>
<path d="M347.59 205.413C347.43 204.696 347.59 203.9 347.669 203.184C347.749 202.388 347.828 201.592 347.908 200.796C348.067 199.204 348.147 197.612 348.306 196.02C348.306 195.94 348.465 195.94 348.465 196.02C348.386 197.612 348.306 199.284 348.226 200.876C348.147 201.672 348.147 202.468 348.067 203.264C347.908 203.98 347.988 204.855 347.59 205.413C347.59 205.492 347.669 205.492 347.59 205.413Z" fill="#263238"/>
<path d="M331.67 177.871L354.913 179.145C354.913 179.145 353.162 153.673 351.331 146.588C349.5 139.504 333.739 115.942 324.426 107.346C315.67 99.3059 315.67 105.992 319.013 115.385C322.277 124.778 330.555 147.623 330.794 149.295C331.112 151.046 331.67 177.871 331.67 177.871Z" fill="#37474F"/>
<path d="M332.704 173.254C333.58 173.175 334.456 173.254 335.411 173.254C336.286 173.254 337.162 173.254 338.117 173.334C339.868 173.414 341.54 173.493 343.291 173.652C345.042 173.732 346.714 173.891 348.465 173.971C350.216 174.05 352.047 174.13 353.798 174.369C353.878 174.369 353.878 174.528 353.798 174.528C352.047 174.608 350.216 174.448 348.465 174.369C346.714 174.289 344.963 174.21 343.212 174.13C341.46 174.05 339.709 173.971 337.958 173.891C337.082 173.812 336.207 173.812 335.411 173.652C334.535 173.573 333.66 173.573 332.784 173.414C332.625 173.334 332.625 173.254 332.704 173.254Z" fill="#263238"/>
<path d="M307.153 110.609C308.028 110.609 314.078 105.833 315.909 102.172C316.068 101.933 315.59 99.306 315.113 96.122C314.874 94.2116 314.635 92.0624 314.556 90.0724C314.556 89.6744 313.202 90.4704 313.202 90.4704L310.655 91.1868L302.218 93.4952C302.218 93.4952 303.571 97.6344 303.65 101.057C303.65 101.376 303.65 101.614 303.571 101.853C303.571 101.853 303.571 101.933 303.571 102.012C303.571 103.604 305.72 110.689 307.153 110.609Z" fill="#FEA574"/>
<path d="M303.73 101.933C303.73 101.933 303.73 102.012 303.73 102.092C304.128 102.172 304.526 102.172 305.004 102.092C313.362 101.614 314.078 90.948 314.078 90.948L310.814 91.1868L302.377 93.4952C302.377 93.4952 303.73 97.6344 303.81 101.057C303.81 101.376 303.81 101.694 303.73 101.933Z" fill="#263238"/>
<path d="M314.317 73.2768C316.307 77.416 315.988 90.3908 313.362 93.6544C309.541 98.4304 302.218 99.9428 297.919 95.0872C293.78 90.3908 294.496 73.5156 297.601 70.4112C302.058 65.9536 311.372 67.1476 314.317 73.2768Z" fill="#FEA574"/>
<path d="M303.252 82.7491C303.252 83.7043 303.332 84.7391 304.128 84.9779V85.0575C303.173 84.8983 303.014 83.5451 303.252 82.7491Z" fill="#263238"/>
<path d="M304.048 81.8735C305.481 81.7939 305.481 84.5799 304.207 84.6595C302.934 84.7391 302.854 81.9531 304.048 81.8735Z" fill="#263238"/>
<path d="M298.158 82.9879C298.158 83.9431 297.999 84.9779 297.282 85.2167V85.2963C298.238 85.1371 298.397 83.7839 298.158 82.9879Z" fill="#263238"/>
<path d="M297.362 82.1123C295.929 82.0327 295.929 84.8187 297.203 84.8983C298.476 84.9779 298.556 82.1123 297.362 82.1123Z" fill="#263238"/>
<path d="M305.083 80.5203C304.685 80.4407 304.367 80.2815 303.969 80.1223C303.571 79.9631 303.173 79.8835 302.934 79.5651C302.775 79.4059 302.854 79.0079 303.014 78.8487C303.412 78.4507 303.969 78.5303 304.526 78.6895C305.083 78.8487 305.481 79.0875 305.8 79.6447C306.118 80.0427 305.64 80.6795 305.083 80.5203Z" fill="#263238"/>
<path d="M296.248 80.6795C296.646 80.5999 296.964 80.4407 297.362 80.3611C297.76 80.2019 298.158 80.2019 298.476 79.8039C298.636 79.6447 298.636 79.2467 298.397 79.0875C297.999 78.6895 297.442 78.6895 296.884 78.8487C296.327 79.0079 295.929 79.2467 295.611 79.7243C295.292 80.2019 295.77 80.7591 296.248 80.6795Z" fill="#263238"/>
<path d="M304.208 90.7887C303.969 91.0275 303.81 91.2663 303.491 91.3459C303.173 91.3459 302.854 91.2663 302.536 91.1071C302.536 91.1071 302.456 91.1071 302.536 91.1867C302.775 91.5051 303.252 91.7439 303.65 91.6643C304.048 91.5847 304.208 91.2663 304.287 90.8683C304.287 90.7887 304.208 90.7887 304.208 90.7887Z" fill="#263238"/>
<path d="M303.252 88.2415C302.775 89.0375 302.058 89.4355 301.262 89.5947C300.944 89.6743 300.546 89.6743 300.228 89.6743C300.148 89.6743 300.068 89.6743 299.989 89.6743C299.909 89.6743 299.83 89.6743 299.83 89.6743C299.75 89.6743 299.67 89.5947 299.67 89.5151V89.4355V89.3559C299.67 88.7191 299.67 87.6843 299.67 87.6843C299.432 87.8435 298.158 88.4007 298.238 88.0823C298.397 85.1371 298.476 81.9531 299.193 79.0875C299.193 79.0079 299.352 79.0079 299.352 79.0875C299.352 81.8735 298.874 84.6595 298.795 87.4455C299.193 87.2863 299.83 86.9679 300.228 86.9679C300.307 86.9679 300.068 88.9579 300.148 89.2763C301.262 89.4355 302.138 89.0375 303.173 88.2415C303.173 88.0823 303.252 88.1619 303.252 88.2415Z" fill="#263238"/>
<path d="M300.546 89.2764C300.546 89.2764 301.183 90.0724 301.979 90.3112C302.297 90.3908 302.616 90.4704 302.934 90.3908C303.65 90.2316 303.65 89.5948 303.491 89.0376C303.412 88.56 303.173 88.2416 303.173 88.2416C303.173 88.2416 302.218 89.1968 300.546 89.2764Z" fill="#263238"/>
<path d="M301.979 90.3908C302.297 90.4704 302.616 90.55 302.934 90.4704C303.65 90.3112 303.65 89.6744 303.491 89.1172C302.775 89.1172 302.058 89.6744 301.979 90.3908Z" fill="#FEA574"/>
<path d="M295.77 74.7892C296.248 73.6748 296.725 72.5604 297.442 72.3216C298.078 72.0828 298.556 73.6748 300.068 73.7544C302.138 73.834 303.093 71.9236 305.959 71.6848C310.098 71.2868 311.929 74.7096 312.168 80.5204C312.327 85.6944 315.511 86.172 315.511 86.172C315.511 86.172 317.182 74.63 313.919 70.8888C310.576 67.1476 303.173 65.6352 298.238 69.2968C296.327 70.7296 295.77 74.7892 295.77 74.7892Z" fill="#263238"/>
<path d="M312.804 84.182C312.804 84.182 315.113 79.7244 317.103 80.5204C319.093 81.3164 317.74 87.5252 315.67 88.56C313.6 89.6744 312.566 87.764 312.566 87.764L312.804 84.182Z" fill="#FEA574"/>
<path d="M316.625 82.2716C316.705 82.2716 316.705 82.2716 316.625 82.2716C315.192 83.1472 314.556 84.6596 314.237 86.2516C314.635 85.6148 315.192 85.2168 315.988 85.6944C316.068 85.6944 315.988 85.774 315.988 85.774C315.352 85.6944 314.874 85.9332 314.556 86.4904C314.317 86.8884 314.158 87.366 313.998 87.764C313.919 87.9232 313.68 87.8436 313.76 87.6844C313.441 85.6944 314.556 82.7492 316.625 82.2716Z" fill="#263238"/>
<path d="M303.73 102.251L306.755 109.654L315.829 100.341L318.456 103.286C318.456 103.286 309.541 118.092 309.541 117.375L306.516 111.087L302.138 115.465L302.456 104.4L303.73 102.251Z" fill="#EBEBEB"/>
<path d="M301.899 109.972C301.979 108.142 302.058 106.311 302.297 104.48C302.297 104.4 302.377 104.4 302.456 104.48C302.854 106.231 302.377 113.236 302.377 114.908C302.536 114.748 306.436 111.007 306.436 111.087C307.073 112.122 309.302 116.659 309.461 117.136C310.894 114.828 316.227 106.231 317.899 104.002C317.978 103.923 318.058 104.002 317.978 104.082C316.705 106.55 309.62 118.092 309.461 118.012C309.382 118.092 306.596 112.36 306.277 111.326C305.64 112.122 301.74 116.261 301.74 116.022C301.74 114.191 301.82 111.803 301.899 109.972Z" fill="#263238"/>
<path d="M200.887 109.813C210.916 129.554 221.105 177.155 222.06 183.523C222.697 187.821 200.011 191.722 200.011 188.776C200.011 184.956 195.394 140.061 195.872 122.31C196.031 112.52 198.817 105.754 200.887 109.813Z" fill="#FEA574"/>
<path d="M199.852 186.866C199.454 189.493 200.33 198.488 202.081 205.174C202.877 208.438 206.3 217.512 208.847 217.114C211.394 216.636 210.678 213.93 210.678 213.93C210.678 213.93 212.668 217.592 215.215 216.875C217.762 216.159 216.409 211.94 216.409 211.94C216.409 211.94 218.717 215.522 221.185 214.646C223.652 213.771 221.662 209.711 221.662 209.711C221.662 209.711 223.652 213.054 225.404 211.542C227.473 209.632 223.175 203.821 222.379 200.159C222.22 199.363 220.15 183.125 220.15 183.125L199.852 186.866Z" fill="#FEA574"/>
<path d="M221.583 209.711C218.399 205.413 217.762 203.025 217.364 197.771C217.364 197.692 217.205 197.692 217.205 197.771C217.125 202.945 217.523 206.129 221.424 209.87C221.583 210.03 221.742 209.87 221.583 209.711Z" fill="#263238"/>
<path d="M216.409 212.179C213.464 207.403 212.747 204.856 211.951 199.363C211.951 199.284 211.792 199.284 211.792 199.363C212.19 204.776 212.588 207.96 216.17 212.258C216.329 212.418 216.568 212.338 216.409 212.179Z" fill="#263238"/>
<path d="M210.359 213.532C207.892 208.756 206.936 205.89 206.857 200.478C206.857 200.318 206.698 200.318 206.698 200.478C206.3 205.97 207.414 209.552 210.28 213.612C210.439 213.85 210.518 213.771 210.359 213.532Z" fill="#263238"/>
<path d="M221.901 182.329C221.901 182.329 225.563 187.901 226.597 190.766C227.632 193.632 227.791 205.492 225.165 205.731C221.821 205.97 220.389 199.045 220.15 195.622C220.15 195.622 212.429 196.179 210.359 191.403C208.289 186.627 221.901 182.329 221.901 182.329Z" fill="#FEA574"/>
<path d="M224.289 205.492C221.105 203.502 221.026 198.965 220.548 195.622C220.548 195.383 220.309 195.304 220.07 195.383C216.807 195.383 212.27 194.428 210.28 191.642C210.2 191.562 210.12 191.642 210.12 191.722C211.792 194.985 216.25 196.338 219.752 196.1C220.309 199.443 220.548 203.98 224.289 205.492Z" fill="#263238"/>
<path d="M224.21 180.976L198.419 184.956C198.419 184.956 194.28 137.036 194.121 120.957C193.962 104.878 199.772 100.898 205.981 117.375C212.19 133.852 224.21 180.976 224.21 180.976Z" fill="#FFC727"/>
<path d="M198.26 180.976C208.847 178.588 220.309 177.712 222.299 177.394C222.379 177.394 222.379 177.553 222.299 177.553C220.309 177.712 207.334 180.18 198.26 181.135C198.18 181.135 198.18 180.976 198.26 180.976Z" fill="#263238"/>
<path d="M255.492 356.494C253.662 357.051 201.205 356.255 199.295 354.981C199.056 354.822 199.056 350.126 199.136 343.598L196.588 304.992L229.782 305.072L232.408 338.504C232.408 338.504 239.891 341.927 246.02 344.952C249.841 346.782 253.104 348.454 253.821 349.091C255.731 350.762 257.244 355.936 255.492 356.494Z" fill="#FEA574"/>
<path d="M255.492 356.493C253.662 357.051 201.205 356.255 199.295 354.981C199.056 354.822 199.056 350.125 199.136 343.598C212.11 346.464 246.657 351.16 247.692 348.454C248.09 347.339 247.294 346.145 246.02 345.031C249.841 346.862 253.104 348.533 253.821 349.17C255.731 350.762 257.244 355.936 255.492 356.493Z" fill="#263238"/>
<path d="M182.499 164.419C182.499 164.419 191.892 264.237 192.131 265.431C192.131 265.59 192.21 267.421 192.29 270.446C192.847 286.923 194.121 338.265 194.121 338.265H233.602C233.602 338.265 231.055 277.451 229.543 263.282C227.632 245.213 216.09 164.419 216.09 164.419H182.499Z" fill="#37474F"/>
<path d="M196.827 268.854C195.633 248.158 193.802 227.462 191.335 206.846C189.982 195.224 188.31 183.602 186.638 172.06C186.638 171.981 186.479 171.981 186.479 172.06C189.504 192.677 191.733 213.452 193.564 234.228C195.394 255.004 196.748 275.779 197.544 296.555C198.021 308.336 198.419 320.116 198.738 331.897C198.738 332.216 199.215 332.136 199.136 331.897C198.658 310.803 198.021 289.789 196.827 268.854Z" fill="#263238"/>
<path d="M231.055 331.897C230.02 331.738 228.906 331.817 227.871 331.738C226.677 331.658 225.483 331.658 224.289 331.658C221.981 331.579 219.752 331.499 217.444 331.499C212.827 331.419 208.21 331.419 203.593 331.579C202.32 331.658 201.046 331.658 199.772 331.738C198.419 331.817 197.066 331.897 195.713 331.897C195.633 331.897 195.633 332.056 195.713 332.056C198.021 332.056 200.409 332.295 202.718 332.375C205.026 332.454 207.255 332.534 209.563 332.534C214.18 332.613 218.797 332.534 223.414 332.375C224.687 332.295 225.961 332.295 227.234 332.295C227.951 332.295 228.588 332.215 229.224 332.215C229.861 332.215 230.418 332.215 231.055 332.136C231.214 332.056 231.214 331.977 231.055 331.897Z" fill="#263238"/>
<path d="M210.996 164.419L193.006 294.485C192.768 284.774 192.529 275.859 192.29 270.526C192.21 267.501 192.131 265.67 192.131 265.511C191.892 264.317 182.499 164.498 182.499 164.498H210.996V164.419Z" fill="#263238"/>
<path d="M189.345 363.419C187.434 363.26 139.276 342.325 138.003 340.414C137.844 340.176 139.674 335.798 142.222 329.828L152.808 292.416L183.534 304.754L174.858 337.947C174.858 337.947 180.43 343.996 184.967 349.091C187.753 352.275 190.141 355.061 190.618 355.936C191.812 358.245 191.255 363.578 189.345 363.419Z" fill="#FEA574"/>
<path d="M189.345 363.419C187.434 363.259 139.276 342.325 138.003 340.414C137.844 340.176 139.674 335.798 142.222 329.828C153.047 337.469 183.216 355.061 185.206 352.991C186.002 352.116 185.683 350.683 184.967 349.17C187.753 352.354 190.141 355.14 190.618 356.016C191.812 358.245 191.255 363.578 189.345 363.419Z" fill="#263238"/>
<path d="M138.799 326.007L177.325 337.947C177.325 337.947 196.111 271.958 197.544 256.436C198.976 241.074 200.33 209.711 200.966 186.946C200.966 186.946 207.414 183.125 209.006 181.055C210.518 179.065 212.11 171.503 215.294 164.339H168.171C156.948 186.229 165.385 195.94 165.385 200.716C165.385 223.721 161.883 254.287 160.768 258.824C158.54 268.376 138.799 326.007 138.799 326.007Z" fill="#37474F"/>
<path d="M177.166 329.509C176.211 329.111 175.096 328.872 174.141 328.554C173.027 328.235 171.833 327.917 170.718 327.519C168.569 326.882 166.34 326.166 164.112 325.609C159.654 324.335 155.196 323.141 150.739 322.106C149.465 321.788 148.271 321.549 146.998 321.231C145.644 320.912 144.371 320.674 143.018 320.355C142.938 320.355 142.858 320.435 143.018 320.435C145.246 320.992 147.475 321.867 149.704 322.504C151.853 323.141 154.082 323.778 156.311 324.415C160.768 325.688 165.226 326.803 169.684 327.837C170.957 328.156 172.151 328.395 173.345 328.713C173.982 328.872 174.698 329.031 175.335 329.191C175.892 329.35 176.529 329.509 177.086 329.589C177.246 329.668 177.325 329.589 177.166 329.509Z" fill="#263238"/>
<path d="M210.12 180.657C207.812 181.612 205.742 183.045 203.752 184.398C201.603 185.831 199.693 187.503 197.703 189.095C197.623 189.174 197.703 189.254 197.782 189.254C199.932 187.901 202.16 186.707 204.31 185.274C206.379 183.921 208.528 182.567 210.28 180.816C210.28 180.737 210.2 180.577 210.12 180.657Z" fill="#263238"/>
<path d="M210.359 167.364C210.12 168.797 209.722 170.309 209.404 171.742C209.086 173.095 208.926 174.528 208.528 175.881C208.21 177.155 207.653 178.428 206.618 179.304C206.061 179.781 205.504 180.259 204.946 180.737C204.628 180.975 204.31 181.214 203.991 181.453C204.071 181.294 204.071 181.055 204.071 180.896C204.15 180.339 204.23 179.781 204.389 179.224C204.628 177.951 204.787 176.757 204.946 175.483C205.344 173.015 205.663 170.627 206.14 168.16C206.14 168.08 205.981 168.001 205.981 168.16C205.344 170.548 204.708 172.936 204.15 175.324C203.912 176.518 202.956 182.329 202.956 182.727C202.877 183.125 202.877 183.602 202.877 184C202.877 184.398 202.797 184.876 202.877 185.274C202.877 185.353 203.036 185.353 203.036 185.274C203.275 184.876 203.275 184.398 203.434 184C203.514 183.602 203.673 183.125 203.673 182.727C203.673 182.567 203.752 182.408 203.752 182.249C204.31 181.931 204.867 181.453 205.424 181.055C205.981 180.657 206.618 180.259 207.175 179.781C208.21 178.906 208.847 177.791 209.245 176.518C209.643 175.165 209.802 173.732 209.961 172.299C210.12 170.627 210.28 168.956 210.518 167.364C210.518 167.364 210.439 167.284 210.359 167.364Z" fill="#263238"/>
<path d="M209.404 103.923C208.608 113.316 207.732 122.868 205.504 132.022C203.832 139.106 199.932 144.678 192.21 145.394C185.046 146.111 175.096 144.598 169.843 139.186C167.375 136.638 166.898 133.454 167.534 130.111C168.41 125.415 175.733 100.022 177.962 92.1419C179.315 87.2863 180.668 82.4307 182.818 77.8935C187.434 68.3415 192.37 69.1376 193.086 68.9784C193.723 68.66 197.782 67.5455 202.877 69.9335C205.742 71.2867 207.573 73.5952 208.528 76.5404C211.314 85.0576 210.12 95.1667 209.404 103.923Z" fill="#263238"/>
<path d="M191.414 70.1723C185.126 72.1623 182.818 78.4507 180.589 84.0227C177.484 91.8235 174.539 99.7039 171.912 107.664C170.639 111.485 169.524 115.385 168.49 119.286C167.455 123.027 166.181 127.007 165.942 130.828C165.465 137.275 170.878 140.937 176.45 142.608C176.688 142.688 176.848 142.29 176.609 142.21C173.504 141.096 170.32 139.822 168.251 137.116C165.624 133.614 166.5 129.713 167.375 125.813C168.888 119.126 170.798 112.599 173.027 106.072C175.176 99.5447 177.564 93.1767 180.032 86.7291C182.42 80.6795 184.648 72.5603 191.494 70.2519C191.494 70.2519 191.494 70.0927 191.414 70.1723Z" fill="#263238"/>
<path d="M210.359 83.7043C209.882 78.6895 208.051 73.5951 203.116 71.5255C209.404 74.5503 210.041 81.9531 210.12 88.1619C210.2 94.6095 209.961 101.137 209.563 107.584C209.165 113.793 208.608 120.082 207.653 126.211C206.618 132.818 204.548 138.947 199.852 143.882C199.772 143.962 199.852 144.121 200.011 144.041C204.469 140.141 206.618 134.171 207.732 128.519C209.165 121.037 209.722 113.316 210.2 105.674C210.598 98.4303 210.996 90.9479 210.359 83.7043Z" fill="#263238"/>
<path d="M191.016 105.196C191.335 105.992 195.952 110.848 199.693 110.211C200.887 109.972 200.011 103.286 200.011 103.286L200.091 102.808L200.728 95.6443L191.892 91.4255L190.618 90.8683C190.618 90.8683 190.539 92.8583 190.539 95.3259C190.539 95.4055 190.539 95.5647 190.539 95.6443C190.539 95.8035 190.539 95.8831 190.539 96.0423C190.539 96.4403 190.539 96.7587 190.539 97.1567C190.539 97.4751 190.539 97.7139 190.539 98.0323C190.539 98.3507 190.539 98.5895 190.539 98.9079C190.618 101.773 190.937 104.798 191.016 105.196Z" fill="#FEA574"/>
<path d="M190.539 95.2463C193.245 100.5 197.942 102.171 200.091 102.729L200.728 95.5647L191.892 91.3459L190.618 90.7887C190.618 90.7887 190.539 92.7787 190.539 95.2463Z" fill="#263238"/>
<path d="M209.882 84.9779C210.916 97.5547 203.434 99.5447 200.728 99.7835C198.26 99.9427 189.822 100.341 187.594 87.9231C185.285 75.5055 190.857 71.0479 196.429 70.3315C202.001 69.6151 208.847 72.4011 209.882 84.9779Z" fill="#FEA574"/>
<path d="M207.732 82.2716C207.414 82.2716 207.175 82.192 206.857 82.1124C206.538 82.0328 206.3 82.0328 205.981 81.794C205.822 81.6348 205.822 81.396 205.981 81.2368C206.22 80.9184 206.698 80.9184 207.096 80.998C207.494 81.0776 207.812 81.2368 208.13 81.5552C208.449 81.8736 208.13 82.3512 207.732 82.2716Z" fill="#263238"/>
<path d="M199.374 82.5103C199.693 82.5103 199.932 82.3511 200.25 82.3511C200.568 82.2715 200.807 82.2715 201.046 82.0327C201.205 81.8735 201.126 81.6347 201.046 81.4755C200.728 81.1571 200.33 81.1571 199.932 81.2367C199.534 81.3163 199.215 81.4755 198.897 81.7939C198.658 82.0327 198.976 82.5103 199.374 82.5103Z" fill="#263238"/>
<path d="M201.364 85.6944C201.285 85.6944 201.364 85.6148 201.364 85.6944C201.364 86.6496 201.285 87.6048 200.489 87.9232V88.0028C201.444 87.764 201.524 86.4904 201.364 85.6944Z" fill="#263238"/>
<path d="M200.568 84.8188C199.215 84.7392 199.136 87.5252 200.489 87.6048C201.683 87.6048 201.683 84.8188 200.568 84.8188Z" fill="#263238"/>
<path d="M200.011 84.8984C199.772 85.0576 199.534 85.2964 199.215 85.376C198.897 85.376 198.658 85.1372 198.419 84.8188H198.34C198.34 85.376 198.499 85.9332 199.136 86.0128C199.693 86.0924 200.011 85.6148 200.17 85.0576C200.17 84.978 200.091 84.8984 200.011 84.8984Z" fill="#263238"/>
<path d="M206.14 85.4556C206.14 86.4108 206.3 87.366 207.016 87.6844V87.764C206.061 87.6048 205.902 86.2516 206.14 85.4556Z" fill="#263238"/>
<path d="M206.857 84.5799C208.21 84.5003 208.289 87.2863 207.016 87.3659C205.822 87.4455 205.742 84.6595 206.857 84.5799Z" fill="#263238"/>
<path d="M207.494 84.7392C207.732 84.8984 207.971 85.1372 208.21 85.1372C208.528 85.1372 208.767 84.8188 208.926 84.58H209.006C209.006 85.1372 208.847 85.6944 208.369 85.774C207.892 85.8536 207.573 85.4556 207.414 84.8984C207.334 84.8188 207.414 84.6596 207.494 84.7392Z" fill="#263238"/>
<path d="M201.285 92.4603C201.444 92.6991 201.683 92.9379 202.001 93.0175C202.32 93.0971 202.638 92.9379 202.956 92.8583C202.956 92.8583 203.036 92.8583 202.956 92.9379C202.718 93.2563 202.24 93.4155 201.842 93.3359C201.444 93.2563 201.285 92.9379 201.205 92.5399C201.205 92.4603 201.205 92.4603 201.285 92.4603Z" fill="#263238"/>
<path d="M204.867 89.3559C204.867 89.3559 205.026 90.6295 205.026 91.2663C205.026 91.3459 204.867 91.3459 204.708 91.3459C203.673 91.5051 202.558 91.1867 201.922 90.3111C201.842 90.2315 201.922 90.1519 202.001 90.2315C202.797 90.7887 203.673 90.9479 204.628 90.9479C204.708 90.7887 204.23 88.7987 204.31 88.7191C204.628 88.7191 205.265 88.8783 205.663 89.0375C205.344 86.3311 204.628 83.7043 204.389 81.0775C204.389 80.9979 204.548 80.9183 204.548 80.9979C205.504 83.7043 205.902 86.7291 206.3 89.5151C206.379 89.9131 205.106 89.4355 204.867 89.3559Z" fill="#263238"/>
<path d="M205.822 86.3311C205.663 84.2615 206.538 82.5103 207.971 82.3511C209.324 82.1919 210.598 83.7839 210.757 85.8535C210.916 87.9231 210.041 89.6743 208.608 89.8335C207.255 89.9131 205.981 88.3211 205.822 86.3311ZM206.3 86.2515C206.459 88.0027 207.494 89.3559 208.528 89.2763C209.643 89.1967 210.359 87.6843 210.2 85.8535C210.041 84.1023 209.006 82.7491 207.971 82.8287C206.936 82.9879 206.14 84.5003 206.3 86.2515Z" fill="#263238"/>
<path d="M196.509 87.2067C196.35 85.1371 197.703 83.3063 199.613 83.1471C201.524 82.9879 203.275 84.5003 203.434 86.5699C203.593 88.6395 202.24 90.4703 200.33 90.6295C198.419 90.7887 196.668 89.2763 196.509 87.2067ZM196.986 87.1271C197.146 88.8783 198.658 90.2315 200.25 90.0723C201.922 89.9131 203.116 88.3211 202.956 86.5699C202.797 84.8187 201.285 83.4655 199.693 83.6247C198.021 83.7839 196.827 85.3759 196.986 87.1271Z" fill="#263238"/>
<path d="M203.195 86.2515C205.026 85.4555 205.902 85.9331 205.902 85.9331L206.14 85.5351C206.061 85.5351 205.026 84.8187 202.956 85.7739L203.195 86.2515Z" fill="#263238"/>
<path d="M196.668 86.8086L196.748 86.331C196.429 86.331 188.708 85.6146 187.832 85.6146C186.957 85.6146 185.046 86.9678 184.808 87.127L185.126 87.525C185.683 87.127 187.196 86.1718 187.832 86.0922C188.549 86.1718 193.962 86.5698 196.668 86.8086Z" fill="#263238"/>
<path d="M187.912 87.0475C189.265 86.9679 192.847 83.2267 192.927 76.6199C192.927 76.6199 192.449 82.5103 191.972 83.3859C191.494 84.2615 193.962 81.2367 194.121 75.9831C194.121 75.9831 197.066 78.1323 199.613 78.8487C202.16 79.5651 203.673 79.5651 203.832 79.3263C203.991 79.1671 200.33 77.9731 199.295 76.8587C199.295 76.8587 205.981 79.9631 209.086 80.2019C209.404 80.2019 209.882 72.8787 205.106 69.7743C200.33 66.6699 192.768 70.0131 190.778 72.0031C190.778 72.0031 188.39 72.3215 185.842 75.9035C183.216 79.3263 186.479 87.1271 187.912 87.0475Z" fill="#263238"/>
<path d="M189.663 88.7191C189.663 88.7191 186.957 84.7391 185.126 85.6943C183.295 86.6495 185.365 92.3807 187.434 93.1767C189.504 93.9727 190.3 92.0623 190.3 92.0623L189.663 88.7191Z" fill="#FEA574"/>
<path d="M185.763 87.3658C185.683 87.4454 185.683 87.3658 185.763 87.3658C187.196 88.0026 187.992 89.4354 188.549 90.7886C188.151 90.2314 187.514 89.913 186.798 90.4702V90.5498C187.434 90.3906 187.832 90.5498 188.23 91.0274C188.549 91.3458 188.708 91.8234 188.947 92.2214C189.026 92.3806 189.265 92.301 189.186 92.1418C189.186 90.2314 187.753 87.6046 185.763 87.3658Z" fill="#263238"/>
<path d="M189.186 92.9379C189.186 93.4155 188.788 93.8931 188.23 93.8931C187.753 93.8931 187.275 93.4951 187.275 92.9379C187.275 92.4603 187.673 91.9827 188.23 91.9827C188.788 92.0623 189.186 92.4603 189.186 92.9379Z" fill="white"/>
<path d="M217.364 168.638C217.364 168.638 174.937 169.274 164.43 168.558C164.43 168.558 173.027 119.922 184.33 107.664C184.808 107.186 185.206 106.788 185.683 106.39C186.4 105.833 186.32 101.137 186.638 100.818C186.957 100.5 200.728 102.251 200.887 102.649C201.046 102.968 201.762 107.346 201.762 107.346C204.867 111.326 214.896 125.096 216.09 130.748C217.284 136.4 213.543 142.688 213.543 142.688L217.364 168.638Z" fill="#A766FE"/>
<path d="M181.066 116.34C178.599 128.44 180.032 154.628 185.842 159.324C195.394 167.125 218.319 169.434 224.767 170.15C227.553 170.468 233.045 152.399 231.214 150.091C229.384 147.782 201.126 144.121 199.772 142.927C198.817 142.051 194.439 126.29 190.698 117.375C185.524 105.356 182.022 111.883 181.066 116.34Z" fill="#FEA574"/>
<path d="M226.359 148.578C226.359 148.578 234.796 148.499 240.368 148.738C243.473 148.817 248.726 149.534 250.955 150.648C254.298 152.32 267.194 161.474 265.044 164.658C263.134 167.523 259.234 163.782 259.234 163.782C259.234 163.782 263.85 167.523 260.985 169.752C258.119 172.06 253.662 166.648 253.662 166.648C253.662 166.648 258.836 170.309 255.572 172.379C252.786 174.21 246.896 168.558 246.896 168.558C246.896 168.558 252.706 171.742 250 173.971C247.055 176.359 237.105 168.956 237.105 168.956C230.02 170.548 225.563 170.548 220.389 169.672C219.513 169.513 226.359 148.578 226.359 148.578Z" fill="#FEA574"/>
<path d="M255.094 167.842C254.696 167.444 254.298 167.046 253.98 166.648C253.264 165.852 252.547 165.056 251.672 164.339C250.876 163.623 250.08 162.986 249.204 162.349C248.328 161.712 247.373 161.076 246.498 160.439C246.418 160.359 246.338 160.518 246.418 160.518C247.294 161.155 248.09 161.951 248.886 162.668C249.682 163.384 250.478 164.1 251.274 164.817C252.07 165.533 252.866 166.17 253.662 166.886C254.06 167.205 254.458 167.603 254.856 167.921C255.174 168.24 255.572 168.638 255.97 168.956C256.05 168.956 256.05 168.956 256.05 168.876C255.811 168.558 255.413 168.24 255.094 167.842Z" fill="#263238"/>
<path d="M260.268 164.578C259.791 163.782 256.925 160.916 256.129 160.2C254.617 158.847 253.025 157.653 251.274 156.698C251.194 156.698 251.114 156.777 251.194 156.777C252.706 158.13 254.219 159.404 255.731 160.757C256.448 161.394 259.711 164.419 260.109 164.737C260.189 164.737 260.268 164.658 260.268 164.578Z" fill="#263238"/>
<path d="M250.398 171.105C249.92 170.389 247.214 167.682 246.418 167.125C245.702 166.568 242.518 164.498 241.562 164.021C241.483 164.021 241.403 164.1 241.483 164.1C242.995 165.215 244.587 166.329 246.1 167.603C246.816 168.16 249.602 170.707 250.318 171.264C250.398 171.264 250.478 171.185 250.398 171.105Z" fill="#263238"/>
<path d="M218.478 170.866L228.588 147.305C228.588 147.305 200.887 142.688 200.091 142.131C199.215 141.574 194.2 123.186 190.937 116.022C187.673 108.778 182.101 104.56 179.952 120.082C177.803 135.604 180.907 154.469 184.012 158.369C187.753 163.225 202.718 169.195 218.478 170.866Z" fill="#A766FE"/>
<path d="M204.23 167.921C200.091 166.807 196.031 164.817 192.131 163.225C188.708 161.792 185.285 160.041 183.375 156.698C182.42 155.026 181.942 153.195 181.544 151.285C181.146 149.215 180.748 147.066 180.43 144.917C180.032 142.449 179.713 140.061 179.474 137.594C179.315 136.32 179.156 135.046 179.076 133.852C178.917 132.579 178.678 131.305 178.678 130.032C178.678 129.952 178.519 129.952 178.519 130.032C178.599 131.226 178.519 132.34 178.599 133.534C178.599 134.33 178.678 135.046 178.758 135.842C178.678 135.683 178.599 135.524 178.519 135.365C178.28 134.808 178.121 134.25 177.962 133.614C177.962 133.534 177.803 133.534 177.882 133.614C178.042 134.25 178.201 134.808 178.36 135.365C178.44 135.683 178.519 135.922 178.678 136.24C178.758 136.4 178.838 136.638 178.917 136.798C179.076 139.106 179.395 141.335 179.634 143.643C179.952 145.872 180.27 148.021 180.668 150.17C180.987 152.081 181.385 153.991 182.181 155.822C182.897 157.573 184.012 159.006 185.444 160.28C186.877 161.474 188.549 162.429 190.22 163.225C194.041 165.056 198.101 166.488 202.24 167.682C207.016 169.195 208.528 169.115 204.23 167.921Z" fill="#263238"/>
<path d="M214.578 144.917C213.543 144.758 201.524 142.29 201.046 142.131C200.489 141.972 200.25 141.653 200.091 141.096C199.693 140.141 199.374 139.106 199.056 138.151C198.419 136.479 197.862 134.808 197.225 133.136C197.225 132.738 197.146 132.34 197.146 132.022C197.066 131.544 196.986 131.146 196.986 130.668C196.827 129.713 196.509 128.758 196.429 127.803C196.429 127.723 196.27 127.723 196.27 127.803C196.588 128.758 196.588 129.713 196.668 130.668C196.668 131.066 196.748 131.464 196.748 131.783C196.35 130.828 196.031 129.793 195.633 128.838C195.156 127.723 194.678 126.529 194.28 125.415C194.28 125.335 194.121 125.415 194.2 125.415C194.598 126.45 194.917 127.564 195.235 128.599C195.554 129.713 195.952 130.748 196.27 131.783C196.986 133.932 197.703 136.002 198.419 138.071C198.738 139.106 199.136 140.141 199.454 141.096C199.772 141.892 200.17 142.37 201.046 142.608C203.116 143.166 213.384 144.837 214.578 144.917C214.737 144.917 214.737 145.156 214.578 144.917Z" fill="#263238"/>
<path d="M223.414 147.703C221.822 151.126 220.23 154.469 218.797 157.892C217.364 161.314 216.011 164.737 214.976 168.319C214.976 168.399 215.056 168.399 215.056 168.399C216.648 165.056 218.08 161.633 219.434 158.21C220.866 154.787 222.14 151.285 223.573 147.862C223.652 147.703 223.493 147.544 223.414 147.703Z" fill="#263238"/>
<path d="M253.184 144.996C251.99 145.713 244.985 143.723 242.199 145.872C240.289 147.305 238.458 150.648 238.06 155.026C237.662 159.563 241.244 159.324 242.597 157.414C244.826 154.071 246.816 149.454 246.816 149.454C248.567 149.772 250.557 150.489 250.557 150.489L253.184 144.996Z" fill="#FEA574"/>
<path d="M244.667 160.916C242.518 158.688 231.772 166.966 235.115 170.707C238.538 174.448 247.055 163.464 244.667 160.916Z" fill="#FEA574"/>
<path d="M248.249 164.1C246.1 161.872 235.354 170.15 238.697 173.891C242.04 177.632 250.637 166.727 248.249 164.1Z" fill="#FEA574"/>
<path d="M251.035 165.294C248.726 163.543 240.13 172.538 243.712 175.483C247.373 178.428 253.662 167.284 251.035 165.294Z" fill="#FEA574"/>
<path d="M254.139 165.772C251.512 164.817 246.02 175.563 250.239 177.314C254.458 178.986 257.084 166.886 254.139 165.772Z" fill="#FEA574"/>
<path d="M244.348 164.578C243.712 164.976 243.234 165.454 242.677 165.931C242.12 166.409 241.562 166.966 241.005 167.523C240.528 168.081 239.97 168.638 239.572 169.195C239.095 169.832 238.697 170.548 238.219 171.105C238.14 171.185 238.299 171.265 238.299 171.185C238.697 170.548 239.334 169.991 239.811 169.513C240.368 168.956 240.846 168.399 241.324 167.842C241.801 167.285 242.279 166.727 242.836 166.25C243.393 165.693 243.95 165.215 244.428 164.658L244.348 164.578Z" fill="#263238"/>
<path d="M248.567 165.613C248.09 166.329 246.498 169.036 246.02 169.752C245.542 170.468 244.985 171.105 244.508 171.822C243.95 172.538 243.473 173.254 242.916 173.891C242.836 173.971 242.916 174.05 242.995 173.971C243.632 173.334 244.269 172.777 244.826 172.06C245.383 171.424 245.94 170.707 246.418 169.991C246.896 169.274 248.488 166.409 248.806 165.613C248.726 165.613 248.647 165.533 248.567 165.613Z" fill="#263238"/>
<path d="M251.592 167.205C251.114 168.24 250.716 169.354 250.239 170.389C250 170.946 249.761 171.424 249.522 171.981C249.443 172.22 249.284 172.458 249.204 172.777C249.045 173.016 248.965 173.414 248.806 173.652C248.726 173.732 248.886 173.812 248.886 173.732C249.045 173.414 249.284 173.095 249.443 172.856C249.602 172.618 249.761 172.379 249.841 172.14C250.08 171.662 250.318 171.105 250.557 170.628C251.035 169.593 251.433 168.478 251.751 167.444C251.831 167.125 251.672 167.125 251.592 167.205Z" fill="#263238"/>
</svg>
