<svg width="500" height="400" viewBox="0 0 500 400" fill="none" xmlns="http://www.w3.org/2000/svg">
<path d="M388.021 249.006C387.243 248.514 386.211 248.498 385.393 248.919C384.988 249.133 384.607 249.387 384.186 249.578C383.781 249.784 383.345 249.967 383.019 250.292C382.686 250.61 382.424 251.007 382.289 251.451C382.146 251.896 382.177 252.365 382.154 252.817L382.058 255.564L382.098 255.533L370.887 255.144L370.958 255.215L371.093 251.602C371.085 250.975 370.839 250.356 370.426 249.887C370.013 249.395 369.426 249.141 368.949 248.807C368.449 248.522 367.957 248.101 367.33 247.942C366.718 247.775 366.051 247.815 365.464 248.077L362.256 249.76L362.502 249.832L357.278 239.899L357.166 240.264L360.374 238.565C360.946 238.215 361.383 237.652 361.605 237.024C361.716 236.707 361.772 236.373 361.78 236.04L361.811 235.143L361.851 234.245C361.875 233.912 361.843 233.571 361.756 233.245C361.581 232.594 361.176 231.998 360.62 231.601L357.548 229.672L357.659 230.156L363.598 220.644L363.066 220.771L366.154 222.693C366.766 223.026 367.488 223.129 368.171 222.994C368.513 222.931 368.838 222.796 369.132 222.621L369.902 222.177L370.696 221.78C371.006 221.629 371.292 221.43 371.53 221.184C372.014 220.692 372.324 220.033 372.387 219.35L372.491 215.714L372.117 216.071L383.329 216.38L383.011 216.047L382.932 219.676C382.956 220.343 383.218 221.002 383.662 221.502C383.885 221.748 384.147 221.962 384.44 222.121L385.203 222.582L385.965 223.042C386.243 223.233 386.544 223.368 386.862 223.447C387.505 223.614 388.196 223.542 388.791 223.264L391.975 221.534L391.69 221.446L397.073 231.292L397.128 231.117L393.96 232.856C393.428 233.189 393.031 233.713 392.841 234.301C392.634 234.897 392.706 235.524 392.674 236.111C392.682 236.699 392.571 237.326 392.746 237.922C392.904 238.517 393.27 239.049 393.778 239.406L396.851 241.304L396.835 241.241L390.951 250.792H390.967L388.021 249.006ZM388.021 249.006L390.935 250.824L390.943 250.832L390.951 250.824L396.89 241.312L396.914 241.272L396.874 241.249L393.817 239.335C393.333 238.994 392.984 238.477 392.841 237.914C392.674 237.342 392.793 236.747 392.793 236.135C392.841 235.532 392.777 234.92 392.976 234.373C393.166 233.825 393.547 233.34 394.04 233.039L397.224 231.355L397.335 231.3L397.271 231.189L392.047 221.256L391.952 221.065L391.761 221.168L388.577 222.836C388.077 223.058 387.505 223.106 386.981 222.963C386.719 222.891 386.473 222.772 386.251 222.621L385.473 222.129L384.694 221.645C384.464 221.51 384.25 221.343 384.075 221.137C383.726 220.732 383.527 220.2 383.511 219.668L383.646 216.079L383.662 215.753L383.337 215.745L372.125 215.356L371.76 215.34L371.744 215.706L371.617 219.294C371.57 219.811 371.331 220.303 370.966 220.66C370.784 220.843 370.569 220.994 370.339 221.105L369.513 221.518L368.711 221.97C368.489 222.097 368.251 222.193 367.997 222.24C367.496 222.335 366.956 222.256 366.512 222.01L363.455 220.136L363.121 219.938L362.923 220.263L357.039 229.815L356.857 230.117L357.158 230.299L360.207 232.189C360.636 232.483 360.954 232.935 361.089 233.444C361.16 233.698 361.184 233.968 361.176 234.23L361.152 235.135L361.128 236.04C361.128 236.31 361.089 236.572 361.001 236.826C360.835 237.334 360.493 237.779 360.049 238.065L356.904 239.788L356.666 239.915L356.793 240.145L362.169 249.99L362.256 250.149L362.415 250.062L365.575 248.347C366.091 248.109 366.686 248.061 367.234 248.204C367.79 248.331 368.251 248.712 368.791 249.014C369.307 249.347 369.862 249.586 370.236 250.022C370.617 250.451 370.855 251.015 370.871 251.594L370.791 255.199V255.271H370.863L382.098 255.596H382.13V255.564L382.209 252.817C382.233 252.365 382.193 251.896 382.336 251.459C382.463 251.023 382.717 250.626 383.043 250.316C383.368 249.99 383.797 249.808 384.202 249.601C384.615 249.403 385.004 249.149 385.401 248.934C386.211 248.506 387.243 248.514 388.021 249.006Z" fill="#EBEBEB"/>
<path d="M385.711 232.388C384.845 230.148 383.138 228.203 380.915 227.219C378.724 226.202 376.111 226.012 373.793 226.861C371.49 227.695 369.458 229.426 368.433 231.713C367.377 233.976 367.266 236.659 368.147 239.017C369.076 241.336 370.887 243.321 373.197 244.305C375.484 245.29 378.152 245.338 380.431 244.401C382.701 243.472 384.607 241.677 385.536 239.43C386.529 237.231 386.584 234.635 385.711 232.388ZM385.711 232.388C386.552 234.642 386.441 237.223 385.425 239.391C384.44 241.59 382.487 243.234 380.288 244.035C378.072 244.853 375.571 244.671 373.475 243.694C371.347 242.749 369.72 240.883 368.886 238.74C368.052 236.596 368.108 234.11 369.053 231.991C369.934 229.831 371.76 228.116 373.936 227.227C376.119 226.329 378.668 226.377 380.867 227.314C383.075 228.267 384.813 230.164 385.711 232.388Z" fill="#EBEBEB"/>
<path d="M120.777 173.123L124.707 166.319L126.787 167.526C127.399 167.883 128.153 167.843 128.749 167.462C129.074 167.248 129.415 167.049 129.765 166.875C130.392 166.557 130.797 165.922 130.797 165.215V162.809H138.658V165.215C138.658 165.922 139.063 166.557 139.69 166.875C140.039 167.049 140.381 167.248 140.706 167.462C141.302 167.851 142.056 167.883 142.667 167.526L144.748 166.319L148.678 173.123L146.582 174.33C145.97 174.68 145.629 175.355 145.669 176.061C145.677 176.252 145.685 176.442 145.685 176.641C145.685 176.831 145.677 177.03 145.669 177.22C145.629 177.927 145.97 178.594 146.582 178.943L148.678 180.158L144.748 186.963L142.659 185.756C142.048 185.399 141.294 185.438 140.698 185.827C140.373 186.042 140.031 186.24 139.682 186.415C139.055 186.733 138.65 187.368 138.65 188.074V190.48H130.789V188.074C130.789 187.368 130.384 186.733 129.757 186.415C129.408 186.24 129.066 186.042 128.741 185.827C128.145 185.438 127.391 185.407 126.779 185.756L124.691 186.963L120.761 180.158L122.849 178.951C123.46 178.602 123.794 177.927 123.762 177.22C123.754 177.03 123.746 176.831 123.746 176.641C123.746 176.45 123.754 176.252 123.762 176.061C123.802 175.355 123.46 174.68 122.849 174.33L120.777 173.123ZM128.288 176.641C128.288 180.198 131.17 183.072 134.719 183.072C138.276 183.072 141.159 180.19 141.159 176.641C141.159 173.092 138.276 170.201 134.719 170.201C131.17 170.201 128.288 173.084 128.288 176.641Z" fill="#EBEBEB"/>
<path d="M388.982 271.802L392.912 264.997L394.993 266.196C395.604 266.553 396.358 266.514 396.954 266.133C397.279 265.918 397.621 265.72 397.97 265.545C398.597 265.227 399.002 264.592 399.002 263.886V261.48H406.863V263.886C406.863 264.592 407.268 265.227 407.895 265.545C408.244 265.72 408.586 265.918 408.911 266.133C409.507 266.522 410.261 266.553 410.873 266.196L412.953 264.989L416.883 271.794L414.787 273.001C414.176 273.358 413.834 274.025 413.874 274.732C413.882 274.922 413.89 275.113 413.89 275.311C413.89 275.502 413.882 275.7 413.874 275.891C413.834 276.597 414.176 277.264 414.787 277.614L416.883 278.829L412.953 285.633L410.865 284.426C410.253 284.069 409.499 284.109 408.903 284.498C408.578 284.712 408.236 284.911 407.887 285.085C407.26 285.403 406.855 286.038 406.855 286.745V289.151H398.994V286.745C398.994 286.038 398.589 285.403 397.962 285.085C397.613 284.911 397.271 284.712 396.946 284.498C396.35 284.109 395.596 284.077 394.985 284.426L392.896 285.633L388.966 278.829L391.054 277.622C391.666 277.272 391.999 276.597 391.967 275.891C391.959 275.7 391.952 275.502 391.952 275.311C391.952 275.121 391.959 274.922 391.967 274.732C392.007 274.025 391.666 273.35 391.054 273.001L388.982 271.802ZM396.501 275.319C396.501 278.876 399.383 281.751 402.933 281.751C406.49 281.751 409.372 278.868 409.372 275.319C409.372 271.762 406.49 268.88 402.933 268.88C399.375 268.872 396.501 271.762 396.501 275.319Z" fill="#EBEBEB"/>
<path d="M344.089 101.862L413.652 101.759C413.652 101.759 410.19 97.2568 406.371 96.701C406.371 96.701 398.923 74.6357 386.505 74.4928C374.96 74.3658 370.355 88.094 370.355 88.094C370.355 88.094 364.995 81.9485 359.89 84.7672C354.784 87.5859 351.902 95.6529 351.902 95.6529C351.902 95.6529 346.17 98.7654 344.089 101.862Z" fill="#EBEBEB"/>
<path d="M173.316 75.9141L85.3485 76.049C85.3485 76.049 85.3405 70.4275 97.457 69.308C97.457 69.308 108.486 44.7257 125.382 47.997C135.902 50.0376 141.302 64.4725 141.302 64.4725C141.302 64.4725 149.234 53.0945 155.594 55.2859C161.954 57.4774 165.749 69.57 165.749 69.57C165.749 69.57 172.315 72.7381 173.316 75.9141Z" fill="#EBEBEB"/>
<path d="M322.643 49.8946L262.831 49.9899C262.831 49.9899 268.469 44.7257 270.978 44.7257C273.487 44.7257 280.784 27.075 290.137 27.8055C299.498 28.5439 304.477 41.6688 304.477 41.6688C304.477 41.6688 315.847 38.0878 322.643 49.8946Z" fill="#EBEBEB"/>
<path d="M183.868 122.172L132.719 122.252C132.719 122.252 135.259 118.933 138.062 118.52C138.062 118.52 143.493 102.275 152.616 102.148C161.104 102.029 164.518 112.112 164.518 112.112C164.518 112.112 168.441 107.579 172.204 109.643C175.968 111.708 178.104 117.631 178.104 117.631C178.104 117.631 182.336 119.902 183.868 122.172Z" fill="#EBEBEB"/>
<path d="M372.213 262.838L354.896 259.916L339.905 244.655L313.099 272.524L294.552 261.003L281.474 271.635L255.852 243.488L235.684 241.622L214.072 209.632L190.577 233.166L176.706 211.696L168.052 210.457L156.539 189.123L134.052 226.337L102.61 348.629H412.683L372.213 262.838Z" fill="#DBDBDB"/>
<path d="M369.132 303.76L369.616 303.141L343.533 282.791L305.485 279.535L305.421 279.551L271.851 288.452L242.481 262.956L242.37 262.933L201.217 257.025L170.561 236.397L156.348 203.97L155.617 204.296L169.925 236.929L170.021 236.993L200.923 257.788L201.018 257.795L242.14 263.703L271.653 289.325L271.851 289.27L305.556 280.337L343.232 283.569L369.132 303.76Z" fill="white"/>
<path d="M367.973 303.292C367.973 305.269 369.577 306.881 371.562 306.881C373.547 306.881 375.151 305.277 375.151 303.292C375.151 301.307 373.547 299.703 371.562 299.703C369.577 299.703 367.973 301.315 367.973 303.292Z" fill="#DBDBDB"/>
<path d="M371.562 307.278C373.761 307.278 375.548 305.491 375.548 303.292C375.548 301.092 373.761 299.306 371.562 299.306C369.362 299.306 367.576 301.092 367.576 303.292C367.576 305.491 369.362 307.278 371.562 307.278ZM371.562 300.1C373.324 300.1 374.754 301.529 374.754 303.292C374.754 305.047 373.324 306.484 371.562 306.484C369.799 306.484 368.37 305.054 368.37 303.292C368.37 301.529 369.799 300.1 371.562 300.1Z" fill="white"/>
<path d="M339.96 283.18C339.96 285.165 341.564 286.769 343.549 286.769C345.534 286.769 347.138 285.165 347.138 283.18C347.138 281.203 345.534 279.591 343.549 279.591C341.564 279.591 339.96 281.195 339.96 283.18Z" fill="#DBDBDB"/>
<path d="M343.549 287.166C345.749 287.166 347.535 285.379 347.535 283.18C347.535 280.98 345.749 279.194 343.549 279.194C341.35 279.194 339.563 280.98 339.563 283.18C339.563 285.379 341.35 287.166 343.549 287.166ZM343.549 279.988C345.312 279.988 346.741 281.417 346.741 283.18C346.741 284.934 345.312 286.372 343.549 286.372C341.787 286.372 340.357 284.942 340.357 283.18C340.357 281.417 341.795 279.988 343.549 279.988Z" fill="white"/>
<path d="M301.936 279.392C301.936 281.377 303.54 282.981 305.525 282.981C307.51 282.981 309.114 281.377 309.114 279.392C309.114 277.415 307.51 275.803 305.525 275.803C303.54 275.803 301.936 277.415 301.936 279.392Z" fill="#DBDBDB"/>
<path d="M305.517 283.378C307.716 283.378 309.503 281.592 309.503 279.392C309.503 277.193 307.716 275.406 305.517 275.406C303.317 275.406 301.531 277.193 301.531 279.392C301.531 281.592 303.325 283.378 305.517 283.378ZM305.517 276.2C307.279 276.2 308.709 277.63 308.709 279.392C308.709 281.147 307.279 282.584 305.517 282.584C303.754 282.584 302.325 281.155 302.325 279.392C302.333 277.638 303.762 276.2 305.517 276.2Z" fill="white"/>
<path d="M271.915 292.557C269.933 292.557 268.326 290.95 268.326 288.968C268.326 286.986 269.933 285.379 271.915 285.379C273.897 285.379 275.504 286.986 275.504 288.968C275.504 290.95 273.897 292.557 271.915 292.557Z" fill="#DBDBDB"/>
<path d="M271.915 292.954C274.114 292.954 275.901 291.167 275.901 288.968C275.901 286.769 274.114 284.982 271.915 284.982C269.715 284.982 267.929 286.769 267.929 288.968C267.929 291.167 269.723 292.954 271.915 292.954ZM271.915 285.776C273.677 285.776 275.107 287.205 275.107 288.968C275.107 290.723 273.677 292.16 271.915 292.16C270.152 292.16 268.723 290.731 268.723 288.968C268.731 287.205 270.16 285.776 271.915 285.776Z" fill="white"/>
<path d="M238.725 263.735C238.725 265.712 240.329 267.324 242.314 267.324C244.299 267.324 245.903 265.72 245.903 263.735C245.903 261.75 244.299 260.146 242.314 260.146C240.329 260.146 238.725 261.758 238.725 263.735Z" fill="#DBDBDB"/>
<path d="M242.314 267.721C244.514 267.721 246.3 265.934 246.3 263.735C246.3 261.535 244.514 259.749 242.314 259.749C240.115 259.749 238.328 261.535 238.328 263.735C238.328 265.934 240.115 267.721 242.314 267.721ZM242.314 260.543C244.069 260.543 245.506 261.972 245.506 263.735C245.506 265.489 244.077 266.927 242.314 266.927C240.56 266.927 239.122 265.497 239.122 263.735C239.122 261.98 240.552 260.543 242.314 260.543Z" fill="white"/>
<path d="M197.485 257.097C197.485 259.074 199.089 260.686 201.074 260.686C203.059 260.686 204.663 259.082 204.663 257.097C204.663 255.112 203.059 253.508 201.074 253.508C199.089 253.508 197.485 255.12 197.485 257.097Z" fill="#DBDBDB"/>
<path d="M201.074 261.083C203.273 261.083 205.06 259.296 205.06 257.097C205.06 254.897 203.273 253.111 201.074 253.111C198.875 253.111 197.088 254.897 197.088 257.097C197.088 259.296 198.875 261.083 201.074 261.083ZM201.074 253.913C202.829 253.913 204.266 255.342 204.266 257.105C204.266 258.859 202.837 260.297 201.074 260.297C199.319 260.297 197.882 258.867 197.882 257.105C197.882 255.342 199.311 253.913 201.074 253.913Z" fill="white"/>
<path d="M166.63 236.754C166.63 238.739 168.234 240.343 170.219 240.343C172.204 240.343 173.808 238.739 173.808 236.754C173.808 234.769 172.204 233.166 170.219 233.166C168.234 233.166 166.63 234.777 166.63 236.754Z" fill="#DBDBDB"/>
<path d="M170.211 240.74C172.411 240.74 174.197 238.954 174.197 236.754C174.197 234.555 172.411 232.769 170.211 232.769C168.012 232.769 166.225 234.555 166.225 236.754C166.225 238.954 168.02 240.74 170.211 240.74ZM170.211 233.563C171.966 233.563 173.403 234.992 173.403 236.754C173.403 238.517 171.974 239.946 170.211 239.946C168.456 239.946 167.019 238.517 167.019 236.754C167.019 234.992 168.456 233.563 170.211 233.563Z" fill="white"/>
<path d="M152.227 204.145C152.227 206.122 153.831 207.734 155.816 207.734C157.801 207.734 159.405 206.13 159.405 204.145C159.405 202.16 157.801 200.556 155.816 200.556C153.831 200.556 152.227 202.16 152.227 204.145Z" fill="#DBDBDB"/>
<path d="M155.816 208.123C158.015 208.123 159.802 206.336 159.802 204.137C159.802 201.938 158.015 200.151 155.816 200.151C153.617 200.151 151.83 201.938 151.83 204.137C151.83 206.336 153.617 208.123 155.816 208.123ZM155.816 200.953C157.571 200.953 159.008 202.382 159.008 204.145C159.008 205.9 157.579 207.337 155.816 207.337C154.061 207.337 152.624 205.908 152.624 204.145C152.624 202.382 154.053 200.953 155.816 200.953Z" fill="white"/>
<path d="M302.841 374.085C241.304 374.085 191.419 369.602 191.419 364.072C191.419 358.543 241.304 354.06 302.841 354.06C364.378 354.06 414.263 358.543 414.263 364.072C414.263 369.602 364.378 374.085 302.841 374.085Z" fill="#EBEBEB"/>
<path d="M194.063 246.529H230.468V348.653H194.063V246.529Z" fill="#A766FE"/>
<g opacity="0.1">
<path d="M194.063 246.529H202.4V348.653H194.063V246.529Z" fill="black"/>
</g>
<path d="M146.097 207.932H182.502V348.653H146.097V207.932Z" fill="#A766FE"/>
<g opacity="0.1">
<path d="M146.105 207.932H154.442V348.653H146.105V207.932Z" fill="black"/>
</g>
<path d="M241.917 269.523H278.322V348.645H241.917V269.523Z" fill="#A766FE"/>
<g opacity="0.1">
<path d="M241.917 269.523H250.254V348.645H241.917V269.523Z" fill="black"/>
</g>
<path d="M98.1398 156.529H134.545V348.645H98.1398V156.529Z" fill="#A766FE"/>
<g opacity="0.1">
<path d="M98.1398 156.529H106.477V348.645H98.1398V156.529Z" fill="black"/>
</g>
<path d="M291.217 317.973V298.282C291.217 298.282 158.627 286.991 105.055 140.109L99.7278 141.483C99.7278 141.483 135.307 292.041 291.217 317.973Z" fill="#37474F"/>
<path d="M94.7573 146.421L111.511 140.879L97.6316 127.04L94.7573 146.421Z" fill="#37474F"/>
<path d="M417.034 348.653L375.15 348.454L333.267 348.391L249.5 348.256L165.733 348.383L123.85 348.454L81.966 348.653L123.85 348.843L165.733 348.915L249.5 349.05L333.267 348.915L375.15 348.843L417.034 348.653Z" fill="#263238"/>
<path d="M212.65 77.2478C210.292 90.7617 218.224 105.411 235.549 110.858C251.302 115.804 269.144 107.602 273.058 97.2169C277.219 86.1883 270.104 75.6678 261.267 74.7309C252.732 73.8178 245.935 78.5262 239.615 75.9695C236.59 74.7467 233.191 70.3877 228.8 68.3868C223.909 66.1398 214.167 68.5694 212.65 77.2478Z" fill="#263238"/>
<path d="M266.611 106.435C262.244 109.953 256.868 112.136 251.326 113.073C245.76 113.994 239.996 113.446 234.612 111.803C229.237 110.143 224.171 107.205 220.384 103.005C216.581 98.8286 214.04 93.5962 212.944 88.1096C214.302 93.5247 216.946 98.6222 220.757 102.656C222.671 104.657 224.838 106.411 227.22 107.833C229.594 109.254 232.151 110.365 234.811 111.159C237.463 111.953 240.186 112.549 242.949 112.779C245.713 113.033 248.5 112.938 251.239 112.541C253.986 112.152 256.686 111.429 259.274 110.405C261.863 109.389 264.356 108.095 266.611 106.435Z" fill="#263238"/>
<path d="M263.649 74.4847C262.005 73.9368 260.267 73.7463 258.552 73.7383C256.829 73.7463 255.122 73.9448 253.454 74.3497C251.771 74.7626 250.072 75.1278 248.357 75.4375C246.642 75.7313 244.871 75.9298 243.108 75.8186C242.227 75.7551 241.354 75.6757 240.472 75.4454C239.599 75.2152 238.781 74.8261 238.011 74.3894C236.478 73.5001 235.137 72.3806 233.763 71.3405C232.389 70.3003 230.944 69.3555 229.364 68.6964C227.792 68.0136 226.077 67.6722 224.346 67.5928C226.077 67.5213 227.84 67.7992 229.483 68.3947C231.135 68.9982 232.643 69.9271 234.065 70.9276C235.502 71.9121 236.844 73.0158 238.32 73.8574C239.059 74.2703 239.829 74.6197 240.639 74.8261C241.433 75.0246 242.298 75.0961 243.148 75.1437C246.554 75.3581 249.953 74.4926 253.343 73.8336C255.058 73.4843 256.821 73.3334 258.567 73.3969C260.29 73.524 262.045 73.7939 263.649 74.4847Z" fill="#263238"/>
<path d="M386.306 102.275C384.631 98.384 332.664 96.4864 288.477 95.9226C288.462 95.9226 288.446 95.9226 288.438 95.9147C268.5 95.6606 249.349 93.8344 237.28 94.4617C229.61 94.8587 225.497 97.6536 224.608 98.7334C221.646 102.291 216.223 113.7 236.645 128.111C252.096 139.013 269.826 148.763 282.999 165.461C296.163 182.159 303.563 203.16 302.619 217.476C301.674 231.784 291.28 245.473 292.312 243.988C292.63 243.527 296.497 243.757 301.896 240.629C308.518 236.786 316.228 228.656 321.436 226.266C332.092 221.383 346.487 222.208 357.722 210.806C369.561 198.801 372.459 177.641 378.112 160.888C384.988 140.553 400.797 135.805 386.306 102.275Z" fill="#FFC727"/>
<g opacity="0.2">
<path d="M386.306 102.275C384.631 98.384 332.664 96.4864 288.477 95.9226C288.462 95.9226 288.446 95.9226 288.438 95.9147C268.5 95.6606 249.349 93.8344 237.28 94.4617C229.61 94.8587 225.497 97.6536 224.608 98.7334C221.646 102.291 216.223 113.7 236.645 128.111C252.096 139.013 269.826 148.763 282.999 165.461C296.163 182.159 303.563 203.16 302.619 217.476C301.674 231.784 291.28 245.473 292.312 243.988C292.63 243.527 296.497 243.757 301.896 240.629C308.518 236.786 316.228 228.656 321.436 226.266C332.092 221.383 346.487 222.208 357.722 210.806C369.561 198.801 372.459 177.641 378.112 160.888C384.988 140.553 400.797 135.805 386.306 102.275Z" fill="black"/>
</g>
<path opacity="0.1" d="M375.778 168.486C376.524 165.89 377.294 163.349 378.12 160.896C379.914 155.6 382.304 151.36 384.615 147.39C384.615 147.39 338.031 135.805 324.446 141.451C317.014 144.539 338.817 146.485 375.778 168.486Z" fill="black"/>
<path opacity="0.1" d="M313.187 232.101C316.22 229.6 319.086 227.353 321.436 226.274C324.065 225.075 326.923 224.217 329.893 223.431C326.907 204.081 323.517 190.718 315.164 181.849C309.812 176.18 323.294 208.806 313.187 232.101Z" fill="black"/>
<path opacity="0.1" d="M371.712 182.937C372.411 180.603 373.07 178.245 373.721 175.886C358.699 169.82 345.979 161.054 345.828 163.103C345.669 165.334 361.859 176.442 371.712 182.937Z" fill="black"/>
<path d="M400.13 144.682C400.13 144.682 404.425 125.594 391.34 102.608C390.07 100.369 367.901 90.9046 353.085 89.6581C338.269 88.4115 327.002 92.8023 309.391 95.3749C291.781 97.9474 244.982 92.2624 233.668 94.6761C225.886 96.3356 224.632 98.7494 224.632 98.7494C224.632 98.7494 233.723 95.8751 239.186 95.9624C260.807 96.3118 299.189 107.769 309.256 107.618C321.548 107.436 335.228 106.332 345.201 108.722C356.372 111.398 393.603 137.687 400.13 144.682Z" fill="#FFC727"/>
<path d="M278.465 288.158C279.648 286.848 298.784 242.884 298.45 240.748C298.339 239.939 257.321 227.346 257.321 227.346L246.078 255.874L272.018 261.48C272.018 261.48 272.224 281.584 272.836 283.894C273.455 286.189 277.282 289.468 278.465 288.158Z" fill="#FEA574"/>
<path d="M278.465 288.158C278.989 287.579 282.967 278.773 287.255 268.896C287.533 268.245 287.818 267.586 288.096 266.935C288.827 265.251 289.557 263.544 290.272 261.853C290.55 261.194 290.82 260.535 291.098 259.884L291.114 259.852C291.383 259.201 291.653 258.542 291.923 257.907C292.344 256.922 292.741 255.954 293.138 255.001C293.392 254.381 293.638 253.778 293.885 253.182L293.893 253.159C294.131 252.563 294.369 251.976 294.599 251.412L294.607 251.388C294.956 250.531 295.29 249.713 295.592 248.927C295.806 248.403 296.013 247.887 296.203 247.386C296.584 246.418 296.926 245.528 297.211 244.734C297.362 244.337 297.497 243.956 297.616 243.607C297.926 242.741 298.156 242.035 298.291 241.542C298.402 241.138 298.442 240.868 298.426 240.741C298.387 240.455 293.583 238.494 287.302 236.024C286.413 240.693 284.523 249.117 280.966 261.71C275.114 282.41 272.462 274.287 272.153 270.19C272.145 270.15 272.145 270.111 272.137 270.071C272.137 270.317 272.145 270.571 272.153 270.817C272.153 270.857 272.145 270.897 272.153 270.936C272.161 271.389 272.177 271.849 272.185 272.302C272.193 272.794 272.208 273.302 272.224 273.795C272.248 274.621 272.264 275.446 272.304 276.248C272.32 277.042 272.359 277.812 272.391 278.543C272.415 278.98 272.431 279.4 272.447 279.797C272.455 279.996 272.47 280.194 272.478 280.385C272.494 280.647 272.502 280.901 272.526 281.147C272.558 281.687 272.597 282.171 272.637 282.584C272.645 282.68 272.645 282.775 272.661 282.87C272.709 283.315 272.764 283.656 272.812 283.863C273.455 286.189 277.282 289.46 278.465 288.158Z" fill="#263238"/>
<path d="M263.109 263.925L274.281 230.807C274.281 230.807 231.913 214.396 231.182 211.609C230.897 210.521 258.647 169.916 263.808 154.25C267.246 143.817 258.766 132.28 258.766 132.28L228.221 140.482C228.221 140.482 229.841 149.208 228.785 150.955C219.129 166.986 192.054 211.243 194.595 226.623C197.025 241.344 263.109 263.925 263.109 263.925Z" fill="#263238"/>
<path d="M256.495 259.646C257.702 255.803 262.847 240.264 264.3 236.421C264.721 235.317 265.126 234.206 265.563 233.102C265.991 232.022 266.365 230.863 266.912 229.839C266.944 229.775 267.039 229.807 267.032 229.879C266.849 230.903 266.484 231.911 266.19 232.904C265.896 233.912 265.571 234.913 265.261 235.913C264.642 237.89 263.998 239.859 263.347 241.828C262.077 245.671 257.893 257.74 256.837 259.765C256.733 259.931 256.432 259.844 256.495 259.646Z" fill="#37474F"/>
<path d="M226.514 212.458C230.166 208.052 256.154 162.428 257.504 159.768C258.766 157.283 260.044 154.782 260.616 152.035C261.863 146.088 259.997 139.887 257.416 134.559C257.337 134.392 257.575 134.257 257.662 134.424C260.219 139.061 262.005 144.333 261.656 149.693C261.474 152.456 260.632 155.028 259.457 157.521C258.194 160.197 256.813 162.817 255.479 165.453C252.724 170.9 229.15 210.116 227.204 212.593C231.754 215.047 236.304 217.476 240.941 219.771C245.721 222.137 250.564 224.376 255.431 226.552C258.178 227.782 260.942 228.989 263.721 230.156C263.84 230.204 263.784 230.403 263.665 230.355C253.684 226.615 243.958 222.24 234.517 217.294C231.841 215.896 229.174 214.475 226.561 212.966C226.371 212.847 226.395 212.609 226.514 212.458Z" fill="#37474F"/>
<path d="M235.295 204.629C243.156 192.108 259.917 166.081 263.816 154.25C267.246 143.817 258.766 132.288 258.766 132.288L247.007 135.44L235.295 204.629Z" fill="#37474F"/>
<path d="M310.678 317.639C312.337 317.02 349.568 286.816 350.251 284.768C350.529 283.99 346.439 278.312 341.31 271.587C341.255 271.516 341.199 271.444 341.143 271.381C340.087 269.991 319.698 248.18 319.698 248.18L295.743 268.475L316.911 290.596L317.252 290.993C317.252 290.993 308.169 308.929 307.653 311.263C307.136 313.582 309.026 318.259 310.678 317.639Z" fill="#FEA574"/>
<path d="M343.843 274.93C347.718 280.115 350.481 284.117 350.251 284.76C349.568 286.816 312.337 317.012 310.678 317.631C309.026 318.251 307.144 313.582 307.653 311.255C307.97 309.834 311.464 302.625 314.147 297.194C312.448 301.021 311.138 308.754 326.089 293.899C335.308 284.728 340.826 278.527 343.843 274.93Z" fill="#263238"/>
<path d="M228.221 140.482C228.221 140.482 235.319 156.957 241.107 160.689C241.107 160.689 262.164 212.45 268.85 226.051C277.671 244.004 308.224 285.355 308.224 285.355L337.364 263.211C337.364 263.211 299.022 215.729 298.529 214.538C295.75 207.766 273.693 157.894 273.781 156.576C274.606 143.102 265.031 130.597 265.031 130.597L228.221 140.482Z" fill="#263238"/>
<path d="M241.266 160.729C241.6 161.047 241.727 161.555 241.909 161.968C242.092 162.381 242.267 162.794 242.441 163.214C242.791 164.048 243.148 164.882 243.489 165.723C244.204 167.462 244.919 169.201 245.641 170.932C246.364 172.671 247.078 174.41 247.777 176.157C248.452 177.856 249.151 179.563 249.691 181.31C249.714 181.381 249.611 181.413 249.579 181.357C248.642 179.745 247.848 178.022 247.07 176.331C246.284 174.624 245.546 172.901 244.823 171.162C244.109 169.423 243.402 167.677 242.711 165.93C242.386 165.112 242.084 164.294 241.774 163.476C241.616 163.056 241.457 162.627 241.314 162.198C241.163 161.769 240.917 161.309 240.949 160.848C240.965 160.689 241.155 160.618 241.266 160.729Z" fill="#37474F"/>
<path d="M228.522 142.943C230.865 146.786 233.104 150.685 235.661 154.393C236.2 155.171 236.764 156.298 237.622 156.767C237.955 156.95 238.448 157.029 238.781 156.799C239.273 156.457 239.027 155.774 238.821 155.346C238.328 154.321 237.709 153.345 237.161 152.344C236.582 151.28 236.002 150.224 235.43 149.16C234.152 146.81 233.001 144.388 231.706 142.046C231.667 141.975 231.778 141.919 231.818 141.983C233.152 144.301 234.636 146.54 235.986 148.859C236.677 150.042 237.376 151.225 238.058 152.416C238.384 152.98 238.71 153.551 239.027 154.115C239.305 154.607 239.623 155.1 239.773 155.647C240.02 156.521 239.662 157.434 238.733 157.672C237.82 157.91 236.979 157.402 236.399 156.727C235.645 155.838 235.033 154.806 234.39 153.829C233.699 152.773 233.017 151.709 232.373 150.621C230.92 148.152 229.539 145.627 228.451 142.975C228.451 142.935 228.499 142.904 228.522 142.943Z" fill="#37474F"/>
<path d="M238.924 157.132C239.504 157.616 241.711 160.515 241.846 160.673C241.901 160.745 241.528 161.031 241.465 160.967C241.322 160.824 238.884 157.823 238.646 157.212C238.63 157.164 238.876 157.084 238.924 157.132Z" fill="#37474F"/>
<path d="M236.542 159.681C238.503 159.736 240.504 160.221 242.418 160.626C243.378 160.824 244.331 161.039 245.276 161.293C246.276 161.555 247.332 161.729 248.285 162.134C248.349 162.158 248.341 162.253 248.269 162.253C247.237 162.253 246.205 162.007 245.189 161.864C244.252 161.729 243.323 161.571 242.394 161.396C240.433 161.015 238.36 160.697 236.494 159.975C236.351 159.911 236.375 159.681 236.542 159.681Z" fill="#37474F"/>
<path d="M305.858 278.042C309.034 275.565 322.08 265.688 325.462 263.338C326.431 262.663 327.399 261.98 328.376 261.321C329.345 260.67 330.305 259.931 331.338 259.399C331.401 259.368 331.457 259.447 331.409 259.503C330.686 260.241 329.805 260.86 329.003 261.519C328.185 262.178 327.36 262.821 326.534 263.473C324.906 264.751 323.255 266.005 321.603 267.26C318.379 269.705 308.081 277.272 306.072 278.336C305.898 278.408 305.691 278.17 305.858 278.042Z" fill="#37474F"/>
<path d="M261.307 133.392C263.768 136.679 265.602 140.339 266.746 144.277C267.301 146.207 267.675 148.192 267.889 150.193C268.127 152.44 267.976 154.75 268.675 156.926C269.398 159.165 270.485 161.309 271.43 163.46C272.399 165.684 273.376 167.907 274.344 170.13C276.258 174.545 278.171 178.959 280.093 183.374C283.944 192.235 287.803 201.096 291.646 209.965C292.567 212.093 293.472 214.245 294.544 216.309C295.584 218.326 296.822 220.215 298.164 222.034C300.999 225.869 304.032 229.561 306.954 233.316C312.845 240.883 318.784 248.426 324.541 256.096C325.271 257.065 325.994 258.034 326.724 259.002C326.772 259.066 326.685 259.153 326.629 259.09C320.539 251.634 314.592 244.083 308.645 236.516C305.668 232.729 302.698 228.942 299.736 225.138C298.402 223.423 297.076 221.692 295.893 219.874C294.639 217.945 293.599 215.904 292.646 213.816C288.668 205.066 284.96 196.181 281.133 187.368C277.282 178.499 273.423 169.638 269.588 160.769C268.723 158.768 267.818 156.791 267.579 154.607C267.349 152.408 267.341 150.208 266.96 148.017C266.238 143.888 264.784 139.879 262.744 136.21C262.236 135.297 261.68 134.408 261.092 133.542C261.021 133.415 261.219 133.272 261.307 133.392Z" fill="#37474F"/>
<path d="M328.042 160.707L340.617 195.943L282.454 216.7L269.879 181.464L328.042 160.707Z" fill="#455A64"/>
<path d="M328.04 160.702L333.961 177.296L275.798 198.053L269.877 181.459L328.04 160.702Z" fill="#37474F"/>
<path d="M333.424 171.471L272.51 193.21L266.641 176.766L327.556 155.027L333.424 171.471Z" fill="#455A64"/>
<path d="M306.581 151.939L309.931 161.317L305.517 162.889L303.611 157.553L286.786 163.556L288.692 168.899L284.277 170.471L280.934 161.086L306.581 151.939Z" fill="#263238"/>
<path d="M286.238 192.737L282.267 194.154L279.465 186.302L283.436 184.885L286.238 192.737Z" fill="#263238"/>
<path d="M326.473 178.386L322.502 179.803L319.7 171.951L323.671 170.534L326.473 178.386Z" fill="#263238"/>
<path d="M229.587 107.634C219.558 123.935 206.862 138.87 201.003 138.981C193.126 139.132 176.373 131.01 168.067 125.992C165.63 124.515 177.484 105.76 180.096 107.333C183.249 109.23 199.414 119.33 199.78 119.417C200.55 119.608 218.74 107.198 223.012 104.133C230.15 99.0114 234.033 100.401 229.587 107.634Z" fill="#FEA574"/>
<path d="M155.991 117.829C159.008 121.489 168.099 126.571 170.759 126.952C173.427 127.333 182.566 112.16 181.573 109.587C180.573 107.015 169.473 95.47 164.741 94.4775C160 93.477 152.87 114.034 155.991 117.829Z" fill="#FEA574"/>
<path d="M171.712 97.463C172.077 99.9482 168.941 98.9557 168.941 98.9557C168.941 98.9557 173.109 101.481 172.49 104.188C171.887 106.792 168.139 105.459 167.869 105.363C168.091 105.498 171.863 107.92 170.958 110.572C170.021 113.335 166.487 111.342 166.257 111.215C166.424 111.406 168.591 113.994 167.448 115.86C165.479 119.06 159.762 112.597 156.721 112.541C156.721 112.541 156.038 117.686 155.983 117.829C155.983 117.829 150.417 111.795 150.718 107.698C150.877 105.538 152.926 105.26 152.926 105.26C152.926 105.26 150.917 103.513 151.56 101.401C151.894 100.313 153.926 99.8847 153.926 99.8847C153.926 99.8847 152.378 98.4158 153.061 96.5737C153.609 95.0969 155.562 94.8984 155.562 94.8984C155.562 94.8984 154.728 92.8022 155.776 91.4762C157.88 88.7846 170.934 92.1432 171.712 97.463Z" fill="#FEA574"/>
<path d="M155.872 94.811C155.824 94.803 155.832 94.7395 155.879 94.7395C160.445 94.7951 165.439 96.256 169.123 98.9953C169.242 99.0827 169.147 99.3209 168.996 99.2494C164.653 97.1453 160.636 95.6288 155.872 94.811Z" fill="#263238"/>
<path d="M153.871 99.837C153.815 99.829 153.831 99.7417 153.887 99.7417C158.587 99.8211 164.169 101.623 168.044 105.276C168.179 105.403 168.171 105.649 168.004 105.514C165.249 103.283 158.166 100.552 153.871 99.837Z" fill="#263238"/>
<path d="M166.448 111.564C162.597 108.206 158.055 106.411 153.124 105.244C153.061 105.228 153.085 105.141 153.148 105.141C155.713 105.054 158.778 106.126 161.088 107.158C163.303 108.15 165.106 109.492 166.559 111.429C166.622 111.509 166.527 111.636 166.448 111.564Z" fill="#263238"/>
<path d="M168.941 98.9558C169.695 99.5196 170.41 100.139 171.037 100.822C171.656 101.505 172.228 102.291 172.387 103.14C172.466 103.561 172.411 103.982 172.196 104.339C171.974 104.696 171.672 105.022 171.307 105.213C170.584 105.617 169.632 105.554 168.861 105.268L166.932 104.554L168.496 105.895C169.179 106.483 169.814 107.198 170.267 107.976C170.719 108.746 170.966 109.635 170.703 110.397C170.449 111.207 169.798 111.723 168.965 111.684C168.139 111.676 167.234 111.318 166.487 110.874L164.391 109.627L165.955 111.485C166.384 111.985 166.773 112.581 167.051 113.184C167.329 113.788 167.512 114.447 167.416 115.034C167.321 115.614 166.908 116.146 166.368 116.289C165.804 116.448 165.106 116.289 164.463 116.074C163.153 115.614 161.922 114.876 160.675 114.193C160.048 113.851 159.421 113.502 158.778 113.184C158.134 112.883 157.46 112.557 156.729 112.549C157.444 112.636 158.063 113.018 158.682 113.359C159.294 113.716 159.889 114.113 160.485 114.502C161.684 115.288 162.891 116.059 164.256 116.622C164.939 116.876 165.693 117.13 166.535 116.956C167.4 116.765 168.012 115.987 168.155 115.169C168.306 114.336 168.067 113.55 167.766 112.867C167.448 112.176 167.059 111.557 166.567 110.961L166.035 111.572C166.916 112.104 167.853 112.525 168.957 112.565C169.497 112.581 170.108 112.422 170.568 112.057C171.037 111.692 171.323 111.191 171.49 110.667C171.831 109.572 171.458 108.444 170.934 107.595C170.402 106.721 169.727 105.991 168.949 105.34L168.583 105.967C169.568 106.292 170.68 106.3 171.601 105.745C172.053 105.467 172.395 105.062 172.641 104.609C172.895 104.141 172.943 103.569 172.816 103.069C172.554 102.06 171.871 101.322 171.196 100.671C170.521 99.9959 169.751 99.4322 168.941 98.9558Z" fill="#263238"/>
<path d="M180.025 107.285C180.025 107.285 174.388 87.9746 167.917 93.874C165.995 95.6287 160.191 105.125 162.081 106.324C164.518 107.872 167.678 104.363 169.306 101.846C169.306 101.846 170.299 108.682 175.269 109.413C178.389 109.873 180.025 107.285 180.025 107.285Z" fill="#FEA574"/>
<path d="M168.488 93.4214C167.631 93.9851 166.94 94.7712 166.281 95.5493C165.622 96.3433 165.042 97.1929 164.502 98.0583C163.438 99.821 162.43 101.592 161.668 103.537C161.485 104.029 161.318 104.537 161.271 105.125C161.247 105.411 161.271 105.744 161.382 106.054C161.437 106.213 161.501 106.34 161.628 106.507C161.747 106.641 161.874 106.761 162.009 106.84C162.557 107.197 163.192 107.261 163.772 107.189C164.351 107.094 164.868 106.88 165.352 106.618C166.305 106.078 167.075 105.331 167.758 104.545C168.448 103.759 169.036 102.902 169.6 102.036L168.949 101.885C169.092 102.687 169.314 103.426 169.592 104.156C169.87 104.887 170.219 105.593 170.64 106.252C171.069 106.911 171.585 107.507 172.18 108.007C172.776 108.515 173.459 108.896 174.189 109.143C173.498 108.801 172.879 108.364 172.347 107.825C171.815 107.293 171.386 106.673 171.021 106.022C170.656 105.371 170.362 104.68 170.132 103.966C169.909 103.259 169.735 102.513 169.647 101.798L169.536 100.893L168.996 101.647C168.409 102.465 167.829 103.283 167.146 104.005C166.479 104.728 165.757 105.427 164.923 105.879C164.121 106.324 163.121 106.562 162.462 106.133C161.85 105.808 162.089 104.712 162.406 103.815C162.732 102.878 163.153 101.965 163.581 101.044C164.01 100.123 164.455 99.2176 164.939 98.3283C165.971 96.5894 166.98 94.795 168.488 93.4214Z" fill="#263238"/>
<path d="M191.768 114.089L182.328 135.257C182.328 135.257 197.628 140.649 202.606 138.886C207.593 137.123 221.678 122.252 228.372 110.739C235.065 99.2257 231.127 97.7091 220.059 105.498C208.99 113.287 200.224 118.758 199.883 118.607C199.542 118.456 191.768 114.089 191.768 114.089Z" fill="#EBEBEB"/>
<path d="M194.865 117.21C194.897 117.146 195.008 117.186 194.984 117.257C193.031 123.53 190.617 129.691 187.989 135.71C187.957 135.774 187.846 135.734 187.87 135.662C189.894 129.414 192.165 123.205 194.865 117.21Z" fill="#263238"/>
<path d="M211.055 132.359C217.01 126.563 224.156 117.98 228.372 110.731C233.795 101.409 232.238 98.638 225.569 102.06L211.055 132.359Z" fill="#C7C7C7"/>
<path d="M226.72 134.876L228.276 147.271C228.276 147.271 254.216 144.674 267.595 133.257C267.595 133.257 253.319 104.617 238.805 98.4635C231.548 95.3907 226.021 98.3682 224.052 103.712C223.552 105.062 217.978 120.203 219.336 126.269C220.551 131.629 226.72 134.876 226.72 134.876Z" fill="#EBEBEB"/>
<path d="M227.26 106.292L227.308 106.07L227.316 106.015V105.983C227.324 105.967 227.268 105.943 227.268 105.967C227.244 106.007 227.228 106.038 227.212 106.07C227.149 106.213 227.101 106.356 227.054 106.499C226.958 106.785 226.879 107.078 226.792 107.372C226.633 107.96 226.49 108.547 226.355 109.135C226.085 110.318 225.902 111.517 225.736 112.716C225.402 115.122 225.307 117.559 225.41 119.989C225.513 122.419 225.918 124.856 226.704 127.183C227.474 129.509 228.777 131.7 230.603 133.352L230.547 133.265C231.278 135.448 232.04 137.616 232.81 139.775L233.985 143.015C234.398 144.087 234.787 145.175 235.287 146.207C234.827 145.159 234.485 144.055 234.112 142.967L233.032 139.696L230.952 133.13L230.936 133.082L230.897 133.042C229.213 131.359 228.118 129.199 227.379 126.952C226.649 124.697 226.331 122.315 226.156 119.941C225.998 117.559 226.101 115.161 226.276 112.764C226.371 111.565 226.522 110.374 226.68 109.183C226.76 108.587 226.855 107.992 226.966 107.404L227.141 106.523C227.173 106.38 227.204 106.229 227.252 106.086C227.26 106.054 227.276 106.015 227.292 105.983C227.26 105.959 227.292 106.03 227.276 106.062L227.26 106.292Z" fill="#263238"/>
<path d="M219.796 117.075C219.828 116.948 219.86 116.813 219.884 116.686C219.876 116.178 219.884 115.669 219.947 115.169C220.027 114.55 220.178 113.954 220.376 113.367C220.392 113.327 220.448 113.343 220.432 113.383C220.241 114.216 220.114 115.082 220.051 115.947C220.471 114.193 220.995 112.462 221.678 110.786C221.694 110.739 221.766 110.755 221.758 110.81C221.234 112.906 220.686 114.994 220.233 117.106C219.789 119.211 219.455 121.339 219.074 123.451C219.058 123.53 218.931 123.506 218.931 123.427C219.018 121.291 219.344 119.171 219.796 117.075Z" fill="#263238"/>
<path d="M227.459 112.335C227.459 112.755 227.8 113.097 228.221 113.097C228.642 113.097 228.983 112.755 228.983 112.335C228.983 111.914 228.642 111.572 228.221 111.572C227.8 111.58 227.459 111.914 227.459 112.335Z" fill="#263238"/>
<path d="M228.038 120.354C227.617 120.354 227.276 120.013 227.276 119.592C227.276 119.171 227.617 118.829 228.038 118.829C228.459 118.829 228.8 119.171 228.8 119.592C228.8 120.013 228.459 120.354 228.038 120.354Z" fill="#263238"/>
<path d="M232.278 133.05C231.857 133.05 231.516 132.709 231.516 132.288C231.516 131.867 231.857 131.525 232.278 131.525C232.699 131.525 233.04 131.867 233.04 132.288C233.04 132.709 232.699 133.05 232.278 133.05Z" fill="#263238"/>
<path d="M234.533 139.743C234.112 139.743 233.771 139.402 233.771 138.981C233.771 138.56 234.112 138.219 234.533 138.219C234.954 138.219 235.295 138.56 235.295 138.981C235.295 139.402 234.954 139.743 234.533 139.743Z" fill="#263238"/>
<path d="M228.983 126.857C228.562 126.857 228.221 126.515 228.221 126.095C228.221 125.674 228.562 125.332 228.983 125.332C229.404 125.332 229.745 125.674 229.745 126.095C229.745 126.515 229.404 126.857 228.983 126.857Z" fill="#263238"/>
<path d="M242.529 97.05C261.402 97.1294 276.194 101.139 279.624 105.427C282.459 108.976 291.241 124.475 294.949 133.931C295.989 136.583 274.821 146.072 274.066 143.118C272.899 138.544 263.252 116.4 263.157 116.043C262.942 115.28 243.99 107.475 239.146 105.681C230.261 102.402 232.524 97.0103 242.529 97.05Z" fill="#FEA574"/>
<path d="M287.85 167.915C290.2 167.676 290.693 165.279 290.693 165.279C290.693 165.279 292.36 166.16 294.099 165.652C296.092 165.064 296.044 161.69 296.044 161.69C296.044 161.69 297.918 162.23 299.697 161.507C301.547 160.753 301.983 157.339 301.983 157.339C301.983 157.339 304.008 156.886 305.096 155.155C306.962 152.193 304.635 147.382 303.19 144.309C301.745 141.236 294.766 133.876 293.575 132.335L273.773 141.443C273.773 141.443 276.337 157.069 278.552 160.443C280.418 163.278 285.206 168.177 287.85 167.915Z" fill="#FEA574"/>
<path d="M290.312 165.286C287.604 162.746 285.794 159.538 283.809 156.441C283.761 156.37 283.872 156.306 283.92 156.37C285.857 159.474 288.39 162.15 290.447 165.175C290.502 165.255 290.383 165.358 290.312 165.286Z" fill="#263238"/>
<path d="M295.75 161.737C295.155 161.142 294.758 160.356 294.345 159.633C293.9 158.855 293.464 158.069 293.043 157.275C292.201 155.687 291.399 154.083 290.637 152.447C290.605 152.376 290.709 152.305 290.748 152.384C291.59 153.964 292.455 155.536 293.361 157.077C293.813 157.847 294.274 158.617 294.742 159.387C295.179 160.102 295.695 160.816 295.957 161.61C296.005 161.729 295.846 161.833 295.75 161.737Z" fill="#263238"/>
<path d="M301.952 157.267C301.412 156.775 301.11 155.949 300.784 155.306C300.419 154.575 300.046 153.845 299.665 153.115C298.911 151.662 298.156 150.208 297.354 148.779C297.315 148.708 297.418 148.636 297.466 148.708C298.291 150.153 299.133 151.59 299.943 153.043C300.34 153.758 300.737 154.472 301.126 155.187C301.459 155.798 301.944 156.521 302.023 157.227C302.031 157.275 301.975 157.291 301.952 157.267Z" fill="#263238"/>
<path d="M269.128 132.717L290.462 122.196C290.462 122.196 283.388 106.245 279.092 103.164C274.797 100.075 256.511 96.8119 243.196 96.9389C229.658 97.0739 229.11 102.418 241.822 107.054C254.542 111.691 262.72 115.892 262.792 116.257C262.863 116.622 269.128 132.717 269.128 132.717Z" fill="#EBEBEB"/>
<path d="M267.945 130.255C267.016 128.032 262.672 116.352 262.53 116.257C262.228 116.066 257.361 113.692 255.923 112.994C254.693 112.398 253.462 111.818 252.215 111.247C251.167 111.024 250.119 110.81 249.095 110.492C249.016 110.469 249.047 110.365 249.119 110.373C249.849 110.469 250.572 110.627 251.286 110.81C249.929 110.191 248.571 109.571 247.213 108.944C247.189 108.928 247.205 108.889 247.229 108.897C250.302 109.968 262.895 115.558 262.919 115.741C262.95 116.003 268.088 129.763 268.111 130.073C268.111 130.16 267.968 130.319 267.945 130.255Z" fill="#263238"/>
<path d="M269.128 126.936C269.056 126.96 269.009 126.857 269.072 126.817C274.837 123.665 280.847 120.91 286.921 118.401C286.985 118.369 287.04 118.48 286.977 118.52C281.181 121.608 275.226 124.491 269.128 126.936Z" fill="#263238"/>
<path d="M232.532 98.3048C232.548 99.1147 230.166 104.982 226.641 105.705C225.489 105.935 223.941 99.7261 223.941 99.7261L223.719 99.2973L220.654 93.2471L226.966 86.4981L227.895 85.585C227.895 85.585 228.626 87.3 229.515 89.4359C229.555 89.5311 229.602 89.6344 229.642 89.7376C229.698 89.8567 229.745 89.9678 229.793 90.0869C229.928 90.4045 230.071 90.7301 230.198 91.0556C230.301 91.3018 230.396 91.5479 230.492 91.8099C230.595 92.0719 230.69 92.334 230.793 92.596C231.746 95.2003 232.516 97.9634 232.532 98.3048Z" fill="#FEA574"/>
<path d="M229.507 89.4278C228.967 95.0017 225.418 98.1221 223.719 99.2972L220.654 93.2469L226.966 86.4979L227.895 85.5848C227.895 85.5689 228.618 87.284 229.507 89.4278Z" fill="#263238"/>
<path d="M209.848 81.3527C207.466 93.0166 214.183 95.7638 216.7 96.2799C218.987 96.7405 226.823 98.0347 230.396 86.6805C233.977 75.3263 229.301 70.5226 224.14 69.1887C218.963 67.8389 212.23 69.6889 209.848 81.3527Z" fill="#FEA574"/>
<path d="M213.762 87.8554C213.762 87.8554 214.119 88.7685 214.81 89.2449C215.064 89.4196 215.358 89.5467 215.699 89.5467C216.406 89.5546 216.581 88.9512 216.605 88.4033C216.62 87.9507 216.525 87.5378 216.525 87.5378C216.525 87.5378 215.326 88.173 213.762 87.8554Z" fill="#263238"/>
<path d="M214.81 89.245C215.064 89.4196 215.358 89.5467 215.699 89.5467C216.406 89.5546 216.581 88.9512 216.605 88.4033C215.882 88.2842 215.056 88.578 214.81 89.245Z" fill="#FF9BBC"/>
<path d="M212.65 78.5022C212.928 78.526 213.19 78.5022 213.476 78.4943C213.794 78.4863 214.04 78.5181 214.318 78.3275C214.461 78.2243 214.508 77.9702 214.421 77.8194C214.223 77.47 213.834 77.3827 213.452 77.3747C213.04 77.3668 212.722 77.4621 212.396 77.7161C212.079 77.9623 212.285 78.4625 212.65 78.5022Z" fill="#263238"/>
<path d="M220.13 81.1462C219.852 81.1383 219.59 81.0827 219.312 81.051C219.002 81.0113 218.748 81.0113 218.494 80.7889C218.359 80.6698 218.351 80.4158 218.447 80.2728C218.685 79.9473 219.074 79.8997 219.455 79.9394C219.868 79.9791 220.17 80.1061 220.471 80.3999C220.765 80.6778 220.503 81.1621 220.13 81.1462Z" fill="#263238"/>
<path d="M217.891 83.4092C217.907 83.3774 217.946 83.4568 217.938 83.4965C217.732 84.2826 217.629 85.2116 218.28 85.6403C218.304 85.6562 218.288 85.6959 218.264 85.68C217.414 85.3545 217.565 84.1158 217.891 83.4092Z" fill="#263238"/>
<path d="M218.78 82.7502C220.074 82.9487 219.59 85.5213 218.391 85.3386C217.216 85.156 217.7 82.5835 218.78 82.7502Z" fill="#263238"/>
<path d="M219.264 82.9806C219.463 83.1711 219.63 83.4649 219.9 83.5443C220.209 83.6317 220.495 83.4093 220.749 83.187C220.773 83.1632 220.797 83.187 220.789 83.2267C220.702 83.719 220.416 84.1875 219.876 84.1636C219.384 84.1398 219.122 83.6396 219.09 83.1156C219.082 83.0203 219.185 82.9012 219.264 82.9806Z" fill="#263238"/>
<path d="M213.564 82.3054C213.564 82.2736 213.492 82.3292 213.492 82.361C213.373 83.1629 213.103 84.0601 212.333 84.1951C212.309 84.1951 212.301 84.2427 212.333 84.2427C213.23 84.2824 213.579 83.0835 213.564 82.3054Z" fill="#263238"/>
<path d="M213 81.3446C211.737 81.0111 211.166 83.5678 212.341 83.8775C213.5 84.1713 214.064 81.6146 213 81.3446Z" fill="#263238"/>
<path d="M212.428 81.3923C212.198 81.4797 211.944 81.6861 211.698 81.6464C211.412 81.6067 211.269 81.2812 211.15 80.9795C211.134 80.9477 211.11 80.9636 211.102 80.9953C210.983 81.4797 211.031 82.0276 211.475 82.2261C211.888 82.4087 212.293 82.0593 212.515 81.5988C212.563 81.5114 212.523 81.3526 212.428 81.3923Z" fill="#263238"/>
<path d="M216.89 89.8883C216.668 90.0471 216.446 90.2773 216.152 90.2614C215.866 90.2456 215.557 90.0709 215.318 89.9359C215.294 89.92 215.263 89.9438 215.279 89.9756C215.445 90.317 215.85 90.5711 216.239 90.5552C216.613 90.5473 216.835 90.2535 216.97 89.9359C216.978 89.8883 216.922 89.8644 216.89 89.8883Z" fill="#263238"/>
<path d="M213.921 86.1564C213.921 86.1564 213.516 87.3077 213.405 87.8714C213.397 87.927 213.524 87.9746 213.714 88.0223C213.722 88.0302 213.73 88.0302 213.738 88.0302C214.699 88.3796 215.763 88.2446 216.525 87.5538C216.573 87.5062 216.517 87.4347 216.454 87.4585C215.604 87.8555 214.763 87.8317 213.881 87.665C213.873 87.4982 214.635 85.7117 214.548 85.6879C214.246 85.6006 213.603 85.6879 213.222 85.7197C213.992 83.29 215.144 81.0033 215.874 78.5737C215.898 78.4863 215.779 78.4308 215.731 78.5102C214.358 80.8207 213.405 83.5918 212.547 86.0849C212.436 86.3946 213.675 86.204 213.921 86.1564Z" fill="#263238"/>
<path d="M229.356 88.1097C227.395 87.7444 228.022 83.5998 228.022 83.5998C228.022 83.5998 224.108 82.5755 224.314 76.6126C224.314 76.6126 223.703 79.2486 224.807 81.718C224.807 81.718 218.105 79.1534 216.74 72.6187C216.74 72.6187 217.121 75.8662 217.923 77.2001C217.923 77.2001 215.247 75.628 214.461 72.9046C214.461 72.9046 212.373 75.9138 211.197 76.5887C211.197 76.5887 211.586 70.332 214.913 67.9897C221.924 63.059 228.729 71.1101 228.729 71.1101C228.729 71.1101 233.239 73.1984 233.882 77.2239C234.882 83.4251 229.356 88.1097 229.356 88.1097Z" fill="#263238"/>
<path d="M227.991 86.9902C227.991 86.9902 230.833 83.4569 232.453 84.497C234.073 85.5372 231.762 90.7776 229.737 91.381C227.713 91.9845 227.117 90.1186 227.117 90.1186L227.991 86.9902Z" fill="#FEA574"/>
<path d="M231.754 85.9819C231.786 85.9819 231.786 86.0296 231.762 86.0375C230.341 86.506 229.523 87.7446 228.92 89.0388C229.364 88.5545 229.944 88.3084 230.603 88.8483C230.635 88.88 230.595 88.9277 230.563 88.9197C230.007 88.7609 229.586 88.8324 229.174 89.2612C228.88 89.5629 228.665 89.9599 228.451 90.3172C228.38 90.4363 228.157 90.3569 228.213 90.214C228.221 90.206 228.221 90.1901 228.229 90.1822C228.308 88.4116 229.848 86.0296 231.754 85.9819Z" fill="#263238"/>
<path d="M223.957 99.845L227.268 104.458L232.048 96.4229L234.358 98.0585C234.358 98.0585 230.642 109.873 230.492 109.421L227.3 105.522L225.005 109.333L223.369 101.56L223.957 99.845Z" fill="#EBEBEB"/>
<path d="M223.981 105.546C223.751 104.252 223.489 102.958 223.322 101.655C223.314 101.608 223.385 101.568 223.409 101.624C223.965 102.791 224.807 107.737 225.092 108.897C225.092 108.889 225.1 108.889 225.1 108.881C225.196 108.714 227.268 105.49 227.3 105.522C227.927 106.11 230.261 108.944 230.436 109.214C231.024 107.34 233.342 100.472 234.128 98.6461C234.152 98.5906 234.231 98.6144 234.215 98.67C233.771 100.607 230.73 109.834 230.642 109.834C230.603 109.889 227.705 106.396 227.3 105.705C226.982 106.38 224.965 109.937 224.91 109.754C224.545 108.492 224.211 106.84 223.981 105.546Z" fill="#263238"/>
<path d="M231.691 96.4547C232.262 95.1049 233.803 97.9474 232.58 99.5989C230.77 102.044 227.339 104.95 226.593 104.966C225.839 104.982 223.393 101.957 223.107 101.298C222.822 100.639 223.481 99.1543 223.719 99.2972C223.957 99.4401 226.045 102.664 226.347 102.807C226.649 102.958 230.468 99.3528 231.691 96.4547Z" fill="#FFC727"/>
<path d="M345.915 351.916H381.836V359.856H345.915V351.916Z" fill="#FFC727"/>
<g opacity="0.1">
<path d="M380.351 352.639C380.042 353.695 379.97 354.759 379.954 355.815C379.962 356.871 380.034 357.935 380.351 358.991C380.669 357.935 380.74 356.871 380.748 355.815C380.732 354.759 380.669 353.703 380.351 352.639Z" fill="black"/>
<path d="M377.675 352.639C377.366 353.695 377.294 354.759 377.278 355.815C377.286 356.871 377.358 357.935 377.675 358.991C377.993 357.935 378.064 356.871 378.072 355.815C378.064 354.759 377.993 353.703 377.675 352.639Z" fill="black"/>
<path d="M376.373 352.639C376.064 353.695 375.992 354.759 375.976 355.815C375.984 356.871 376.056 357.935 376.373 358.991C376.691 357.935 376.762 356.871 376.77 355.815C376.754 354.759 376.683 353.703 376.373 352.639Z" fill="black"/>
<path d="M369.195 352.639C368.886 353.695 368.814 354.759 368.798 355.815C368.806 356.871 368.878 357.935 369.195 358.991C369.513 357.935 369.585 356.871 369.592 355.815C369.585 354.759 369.513 353.703 369.195 352.639Z" fill="black"/>
<path d="M367.258 352.639C366.948 353.695 366.877 354.759 366.861 355.815C366.869 356.871 366.941 357.935 367.258 358.991C367.576 357.935 367.647 356.871 367.655 355.815C367.639 354.759 367.568 353.703 367.258 352.639Z" fill="black"/>
<path d="M359.231 352.639C358.921 353.695 358.85 354.759 358.834 355.815C358.842 356.871 358.913 357.935 359.231 358.991C359.548 357.935 359.62 356.871 359.628 355.815C359.612 354.759 359.548 353.703 359.231 352.639Z" fill="black"/>
<path d="M357.381 352.639C357.071 353.695 357 354.759 356.984 355.815C356.992 356.871 357.063 357.935 357.381 358.991C357.698 357.935 357.77 356.871 357.778 355.815C357.762 354.759 357.69 353.703 357.381 352.639Z" fill="black"/>
<path d="M353.975 352.639C353.665 353.695 353.593 354.759 353.578 355.815C353.585 356.871 353.657 357.935 353.975 358.991C354.292 357.935 354.364 356.871 354.372 355.815C354.356 354.759 354.284 353.703 353.975 352.639Z" fill="black"/>
<path d="M360.779 352.639C360.469 353.695 360.398 354.759 360.382 355.815C360.39 356.871 360.462 357.935 360.779 358.991C361.097 357.935 361.168 356.871 361.176 355.815C361.168 354.759 361.097 353.703 360.779 352.639Z" fill="black"/>
<path d="M373.999 352.639C373.69 353.695 373.618 354.759 373.602 355.815C373.61 356.871 373.682 357.935 373.999 358.991C374.317 357.935 374.388 356.871 374.396 355.815C374.38 354.759 374.317 353.703 373.999 352.639Z" fill="black"/>
<path d="M364.701 352.639C364.392 353.695 364.32 354.759 364.304 355.815C364.312 356.871 364.384 357.935 364.701 358.991C365.019 357.935 365.091 356.871 365.098 355.815C365.091 354.759 365.019 353.703 364.701 352.639Z" fill="black"/>
<path d="M363.368 352.639C363.058 353.695 362.986 354.759 362.971 355.815C362.978 356.871 363.05 357.935 363.368 358.991C363.685 357.935 363.757 356.871 363.765 355.815C363.749 354.759 363.677 353.703 363.368 352.639Z" fill="black"/>
<path d="M349.536 352.639C349.226 353.695 349.155 354.759 349.139 355.815C349.147 356.871 349.218 357.935 349.536 358.991C349.854 357.935 349.925 356.871 349.933 355.815C349.917 354.759 349.846 353.703 349.536 352.639Z" fill="black"/>
<path d="M347.527 352.639C347.218 353.695 347.146 354.759 347.13 355.815C347.138 356.871 347.21 357.935 347.527 358.991C347.845 357.935 347.916 356.871 347.924 355.815C347.916 354.759 347.845 353.703 347.527 352.639Z" fill="black"/>
<path d="M352.394 352.639C352.085 353.695 352.013 354.759 351.997 355.815C352.005 356.871 352.077 357.935 352.394 358.991C352.712 357.935 352.784 356.871 352.791 355.815C352.776 354.759 352.704 353.703 352.394 352.639Z" fill="black"/>
<path d="M370.744 352.639C370.434 353.695 370.363 354.759 370.347 355.815C370.355 356.871 370.426 357.935 370.744 358.991C371.061 357.935 371.133 356.871 371.141 355.815C371.133 354.759 371.061 353.703 370.744 352.639Z" fill="black"/>
</g>
<path opacity="0.1" d="M345.915 351.916V353.6L381.836 354.735V351.916H345.915Z" fill="black"/>
<path d="M348.369 343.976H384.289V351.916H348.369V343.976Z" fill="#FFC727"/>
<g opacity="0.1">
<path d="M382.813 344.707C382.503 345.763 382.431 346.827 382.416 347.883C382.424 348.939 382.495 350.003 382.813 351.059C383.13 350.003 383.202 348.939 383.21 347.883C383.194 346.827 383.122 345.763 382.813 344.707Z" fill="black"/>
<path d="M380.137 344.707C379.827 345.763 379.756 346.827 379.74 347.883C379.748 348.939 379.819 350.003 380.137 351.059C380.454 350.003 380.526 348.939 380.534 347.883C380.518 346.827 380.446 345.763 380.137 344.707Z" fill="black"/>
<path d="M378.827 344.707C378.517 345.763 378.446 346.827 378.43 347.883C378.438 348.939 378.509 350.003 378.827 351.059C379.144 350.003 379.216 348.939 379.224 347.883C379.208 346.827 379.144 345.763 378.827 344.707Z" fill="black"/>
<path d="M371.657 344.707C371.347 345.763 371.276 346.827 371.26 347.883C371.268 348.939 371.339 350.003 371.657 351.059C371.974 350.003 372.046 348.939 372.054 347.883C372.038 346.827 371.967 345.763 371.657 344.707Z" fill="black"/>
<path d="M369.712 344.707C369.402 345.763 369.33 346.827 369.315 347.883C369.323 348.939 369.394 350.003 369.712 351.059C370.029 350.003 370.101 348.939 370.109 347.883C370.093 346.827 370.029 345.763 369.712 344.707Z" fill="black"/>
<path d="M361.692 344.707C361.383 345.763 361.311 346.827 361.295 347.883C361.303 348.939 361.375 350.003 361.692 351.059C362.01 350.003 362.081 348.939 362.089 347.883C362.073 346.827 362.002 345.763 361.692 344.707Z" fill="black"/>
<path d="M359.834 344.707C359.525 345.763 359.453 346.827 359.437 347.883C359.445 348.939 359.517 350.003 359.834 351.059C360.152 350.003 360.223 348.939 360.231 347.883C360.215 346.827 360.144 345.763 359.834 344.707Z" fill="black"/>
<path d="M356.428 344.707C356.118 345.763 356.047 346.827 356.031 347.883C356.039 348.939 356.11 350.003 356.428 351.059C356.746 350.003 356.817 348.939 356.825 347.883C356.817 346.827 356.746 345.763 356.428 344.707Z" fill="black"/>
<path d="M363.241 344.707C362.931 345.763 362.859 346.827 362.844 347.883C362.851 348.939 362.923 350.003 363.241 351.059C363.558 350.003 363.63 348.939 363.638 347.883C363.622 346.827 363.55 345.763 363.241 344.707Z" fill="black"/>
<path d="M376.453 344.707C376.143 345.763 376.072 346.827 376.056 347.883C376.064 348.939 376.135 350.003 376.453 351.059C376.77 350.003 376.842 348.939 376.85 347.883C376.842 346.827 376.77 345.763 376.453 344.707Z" fill="black"/>
<path d="M367.163 344.707C366.853 345.763 366.782 346.827 366.766 347.883C366.774 348.939 366.845 350.003 367.163 351.059C367.48 350.003 367.552 348.939 367.56 347.883C367.544 346.827 367.473 345.763 367.163 344.707Z" fill="black"/>
<path d="M365.821 344.707C365.511 345.763 365.44 346.827 365.424 347.883C365.432 348.939 365.503 350.003 365.821 351.059C366.139 350.003 366.21 348.939 366.218 347.883C366.202 346.827 366.139 345.763 365.821 344.707Z" fill="black"/>
<path d="M351.99 344.707C351.68 345.763 351.608 346.827 351.593 347.883C351.6 348.939 351.672 350.003 351.99 351.059C352.307 350.003 352.379 348.939 352.387 347.883C352.379 346.827 352.307 345.763 351.99 344.707Z" fill="black"/>
<path d="M349.989 344.707C349.679 345.763 349.608 346.827 349.592 347.883C349.6 348.939 349.671 350.003 349.989 351.059C350.306 350.003 350.378 348.939 350.386 347.883C350.37 346.827 350.298 345.763 349.989 344.707Z" fill="black"/>
<path d="M354.848 344.707C354.538 345.763 354.467 346.827 354.451 347.883C354.459 348.939 354.53 350.003 354.848 351.059C355.166 350.003 355.237 348.939 355.245 347.883C355.229 346.827 355.166 345.763 354.848 344.707Z" fill="black"/>
<path d="M373.205 344.707C372.896 345.763 372.824 346.827 372.808 347.883C372.816 348.939 372.888 350.003 373.205 351.059C373.523 350.003 373.594 348.939 373.602 347.883C373.586 346.827 373.515 345.763 373.205 344.707Z" fill="black"/>
</g>
<path opacity="0.1" d="M348.377 343.976V345.668L384.289 346.803V343.976H348.377Z" fill="black"/>
<path d="M342.819 328.168H378.739V336.108H342.819V328.168Z" fill="#FFC727"/>
<g opacity="0.1">
<path d="M377.263 328.898C376.953 329.954 376.881 331.018 376.866 332.074C376.873 333.13 376.945 334.194 377.263 335.25C377.58 334.194 377.652 333.13 377.66 332.074C377.644 331.018 377.572 329.954 377.263 328.898Z" fill="black"/>
<path d="M374.587 328.898C374.277 329.954 374.206 331.018 374.19 332.074C374.198 333.13 374.269 334.194 374.587 335.25C374.904 334.194 374.976 333.13 374.984 332.074C374.968 331.018 374.896 329.954 374.587 328.898Z" fill="black"/>
<path d="M373.277 328.898C372.967 329.954 372.896 331.018 372.88 332.074C372.888 333.13 372.959 334.194 373.277 335.25C373.594 334.194 373.666 333.13 373.674 332.074C373.658 331.018 373.594 329.954 373.277 328.898Z" fill="black"/>
<path d="M366.107 328.898C365.797 329.954 365.726 331.018 365.71 332.074C365.718 333.13 365.789 334.194 366.107 335.25C366.424 334.194 366.496 333.13 366.504 332.074C366.488 331.018 366.417 329.954 366.107 328.898Z" fill="black"/>
<path d="M364.162 328.898C363.852 329.954 363.78 331.018 363.765 332.074C363.772 333.13 363.844 334.194 364.162 335.25C364.479 334.194 364.551 333.13 364.559 332.074C364.551 331.018 364.479 329.954 364.162 328.898Z" fill="black"/>
<path d="M356.142 328.898C355.832 329.954 355.761 331.018 355.745 332.074C355.753 333.13 355.825 334.194 356.142 335.25C356.46 334.194 356.531 333.13 356.539 332.074C356.523 331.018 356.452 329.954 356.142 328.898Z" fill="black"/>
<path d="M354.284 328.898C353.975 329.954 353.903 331.018 353.887 332.074C353.895 333.13 353.967 334.194 354.284 335.25C354.602 334.194 354.673 333.13 354.681 332.074C354.665 331.018 354.602 329.954 354.284 328.898Z" fill="black"/>
<path d="M350.878 328.898C350.568 329.954 350.497 331.018 350.481 332.074C350.489 333.13 350.56 334.194 350.878 335.25C351.196 334.194 351.267 333.13 351.275 332.074C351.267 331.018 351.196 329.954 350.878 328.898Z" fill="black"/>
<path d="M357.69 328.898C357.381 329.954 357.309 331.018 357.293 332.074C357.301 333.13 357.373 334.194 357.69 335.25C358.008 334.194 358.079 333.13 358.087 332.074C358.072 331.018 358 329.954 357.69 328.898Z" fill="black"/>
<path d="M370.911 328.898C370.601 329.954 370.529 331.018 370.514 332.074C370.521 333.13 370.593 334.194 370.911 335.25C371.228 334.194 371.3 333.13 371.308 332.074C371.292 331.018 371.22 329.954 370.911 328.898Z" fill="black"/>
<path d="M361.613 328.898C361.303 329.954 361.232 331.018 361.216 332.074C361.224 333.13 361.295 334.194 361.613 335.25C361.93 334.194 362.002 333.13 362.01 332.074C361.994 331.018 361.922 329.954 361.613 328.898Z" fill="black"/>
<path d="M360.271 328.898C359.961 329.954 359.89 331.018 359.874 332.074C359.882 333.13 359.953 334.194 360.271 335.25C360.589 334.194 360.66 333.13 360.668 332.074C360.66 331.018 360.589 329.954 360.271 328.898Z" fill="black"/>
<path d="M346.439 328.898C346.13 329.954 346.058 331.018 346.042 332.074C346.05 333.13 346.122 334.194 346.439 335.25C346.757 334.194 346.829 333.13 346.836 332.074C346.829 331.018 346.757 329.954 346.439 328.898Z" fill="black"/>
<path d="M344.439 328.898C344.129 329.954 344.057 331.018 344.042 332.074C344.05 333.13 344.121 334.194 344.439 335.25C344.756 334.194 344.828 333.13 344.836 332.074C344.82 331.018 344.748 329.954 344.439 328.898Z" fill="black"/>
<path d="M349.298 328.898C348.988 329.954 348.917 331.018 348.901 332.074C348.909 333.13 348.98 334.194 349.298 335.25C349.615 334.194 349.687 333.13 349.695 332.074C349.687 331.018 349.615 329.954 349.298 328.898Z" fill="black"/>
<path d="M367.655 328.898C367.345 329.954 367.274 331.018 367.258 332.074C367.266 333.13 367.338 334.194 367.655 335.25C367.973 334.194 368.044 333.13 368.052 332.074C368.036 331.018 367.965 329.954 367.655 328.898Z" fill="black"/>
</g>
<path opacity="0.1" d="M342.827 328.168V329.859L378.739 330.994V328.168H342.827Z" fill="black"/>
<path d="M343.724 320.236H379.645V328.176H343.724V320.236Z" fill="#FFC727"/>
<g opacity="0.1">
<path d="M345.344 327.31C345.653 326.254 345.725 325.19 345.741 324.134C345.733 323.078 345.661 322.014 345.344 320.958C345.026 322.014 344.955 323.078 344.947 324.134C344.963 325.198 345.034 326.254 345.344 327.31Z" fill="black"/>
<path d="M348.02 327.31C348.329 326.254 348.401 325.19 348.417 324.134C348.409 323.078 348.337 322.014 348.02 320.958C347.702 322.014 347.63 323.078 347.623 324.134C347.638 325.198 347.702 326.254 348.02 327.31Z" fill="black"/>
<path d="M349.33 327.31C349.639 326.254 349.711 325.19 349.727 324.134C349.719 323.078 349.647 322.014 349.33 320.958C349.012 322.014 348.941 323.078 348.933 324.134C348.941 325.198 349.012 326.254 349.33 327.31Z" fill="black"/>
<path d="M356.499 327.31C356.809 326.254 356.881 325.19 356.896 324.134C356.889 323.078 356.817 322.014 356.499 320.958C356.182 322.014 356.11 323.078 356.102 324.134C356.118 325.198 356.19 326.254 356.499 327.31Z" fill="black"/>
<path d="M358.437 327.31C358.746 326.254 358.818 325.19 358.834 324.134C358.826 323.078 358.754 322.014 358.437 320.958C358.119 322.014 358.048 323.078 358.04 324.134C358.056 325.198 358.127 326.254 358.437 327.31Z" fill="black"/>
<path d="M366.464 327.31C366.774 326.254 366.845 325.19 366.861 324.134C366.853 323.078 366.782 322.014 366.464 320.958C366.147 322.014 366.075 323.078 366.067 324.134C366.083 325.198 366.154 326.254 366.464 327.31Z" fill="black"/>
<path d="M368.322 327.31C368.632 326.254 368.703 325.19 368.719 324.134C368.711 323.078 368.64 322.014 368.322 320.958C368.005 322.014 367.933 323.078 367.925 324.134C367.933 325.198 368.005 326.254 368.322 327.31Z" fill="black"/>
<path d="M371.72 327.31C372.03 326.254 372.102 325.19 372.117 324.134C372.109 323.078 372.038 322.014 371.72 320.958C371.403 322.014 371.331 323.078 371.323 324.134C371.339 325.198 371.411 326.254 371.72 327.31Z" fill="black"/>
<path d="M364.916 327.31C365.226 326.254 365.297 325.19 365.313 324.134C365.305 323.078 365.233 322.014 364.916 320.958C364.598 322.014 364.527 323.078 364.519 324.134C364.535 325.198 364.598 326.254 364.916 327.31Z" fill="black"/>
<path d="M351.696 327.31C352.005 326.254 352.077 325.19 352.093 324.134C352.085 323.078 352.013 322.014 351.696 320.958C351.378 322.014 351.307 323.078 351.299 324.134C351.315 325.198 351.386 326.254 351.696 327.31Z" fill="black"/>
<path d="M360.994 327.31C361.303 326.254 361.375 325.19 361.391 324.134C361.383 323.078 361.311 322.014 360.994 320.958C360.676 322.014 360.604 323.078 360.597 324.134C360.612 325.198 360.684 326.254 360.994 327.31Z" fill="black"/>
<path d="M362.327 327.31C362.637 326.254 362.709 325.19 362.724 324.134C362.716 323.078 362.645 322.014 362.327 320.958C362.01 322.014 361.938 323.078 361.93 324.134C361.946 325.198 362.018 326.254 362.327 327.31Z" fill="black"/>
<path d="M376.159 327.31C376.469 326.254 376.54 325.19 376.556 324.134C376.548 323.078 376.476 322.014 376.159 320.958C375.841 322.014 375.77 323.078 375.762 324.134C375.778 325.198 375.849 326.254 376.159 327.31Z" fill="black"/>
<path d="M378.168 327.31C378.477 326.254 378.549 325.19 378.565 324.134C378.557 323.078 378.485 322.014 378.168 320.958C377.85 322.014 377.779 323.078 377.771 324.134C377.787 325.198 377.85 326.254 378.168 327.31Z" fill="black"/>
<path d="M373.3 327.31C373.61 326.254 373.682 325.19 373.697 324.134C373.69 323.078 373.618 322.014 373.3 320.958C372.983 322.014 372.911 323.078 372.903 324.134C372.919 325.198 372.991 326.254 373.3 327.31Z" fill="black"/>
<path d="M354.951 327.31C355.261 326.254 355.332 325.19 355.348 324.134C355.34 323.078 355.269 322.014 354.951 320.958C354.634 322.014 354.562 323.078 354.554 324.134C354.562 325.198 354.634 326.254 354.951 327.31Z" fill="black"/>
</g>
<path opacity="0.1" d="M343.732 320.236V321.919L379.645 323.054V320.236H343.732Z" fill="black"/>
<path d="M345.915 312.296H381.836V320.236H345.915V312.296Z" fill="#FFC727"/>
<g opacity="0.1">
<path d="M380.351 313.026C380.042 314.082 379.97 315.146 379.954 316.202C379.962 317.258 380.034 318.322 380.351 319.378C380.669 318.322 380.74 317.258 380.748 316.202C380.732 315.138 380.669 314.082 380.351 313.026Z" fill="black"/>
<path d="M377.675 313.026C377.366 314.082 377.294 315.146 377.278 316.202C377.286 317.258 377.358 318.322 377.675 319.378C377.993 318.322 378.064 317.258 378.072 316.202C378.057 315.138 377.993 314.082 377.675 313.026Z" fill="black"/>
<path d="M376.373 313.026C376.064 314.082 375.992 315.146 375.976 316.202C375.984 317.258 376.056 318.322 376.373 319.378C376.691 318.322 376.762 317.258 376.77 316.202C376.754 315.138 376.683 314.082 376.373 313.026Z" fill="black"/>
<path d="M369.195 313.026C368.886 314.082 368.814 315.146 368.798 316.202C368.806 317.258 368.878 318.322 369.195 319.378C369.513 318.322 369.585 317.258 369.592 316.202C369.577 315.138 369.513 314.082 369.195 313.026Z" fill="black"/>
<path d="M367.258 313.026C366.948 314.082 366.877 315.146 366.861 316.202C366.869 317.258 366.941 318.322 367.258 319.378C367.576 318.322 367.647 317.258 367.655 316.202C367.639 315.138 367.568 314.082 367.258 313.026Z" fill="black"/>
<path d="M359.231 313.026C358.921 314.082 358.85 315.146 358.834 316.202C358.842 317.258 358.913 318.322 359.231 319.378C359.548 318.322 359.62 317.258 359.628 316.202C359.612 315.138 359.54 314.082 359.231 313.026Z" fill="black"/>
<path d="M357.381 313.026C357.071 314.082 357 315.146 356.984 316.202C356.992 317.258 357.063 318.322 357.381 319.378C357.698 318.322 357.77 317.258 357.778 316.202C357.762 315.138 357.69 314.082 357.381 313.026Z" fill="black"/>
<path d="M353.975 313.026C353.665 314.082 353.593 315.146 353.578 316.202C353.585 317.258 353.657 318.322 353.975 319.378C354.292 318.322 354.364 317.258 354.372 316.202C354.356 315.138 354.284 314.082 353.975 313.026Z" fill="black"/>
<path d="M360.779 313.026C360.469 314.082 360.398 315.146 360.382 316.202C360.39 317.258 360.462 318.322 360.779 319.378C361.097 318.322 361.168 317.258 361.176 316.202C361.168 315.138 361.097 314.082 360.779 313.026Z" fill="black"/>
<path d="M373.999 313.026C373.69 314.082 373.618 315.146 373.602 316.202C373.61 317.258 373.682 318.322 373.999 319.378C374.317 318.322 374.388 317.258 374.396 316.202C374.38 315.138 374.309 314.082 373.999 313.026Z" fill="black"/>
<path d="M364.701 313.026C364.392 314.082 364.32 315.146 364.304 316.202C364.312 317.258 364.384 318.322 364.701 319.378C365.019 318.322 365.091 317.258 365.098 316.202C365.083 315.138 365.019 314.082 364.701 313.026Z" fill="black"/>
<path d="M363.368 313.026C363.058 314.082 362.986 315.146 362.971 316.202C362.978 317.258 363.05 318.322 363.368 319.378C363.685 318.322 363.757 317.258 363.765 316.202C363.749 315.138 363.677 314.082 363.368 313.026Z" fill="black"/>
<path d="M349.536 313.026C349.226 314.082 349.155 315.146 349.139 316.202C349.147 317.258 349.218 318.322 349.536 319.378C349.854 318.322 349.925 317.258 349.933 316.202C349.917 315.138 349.846 314.082 349.536 313.026Z" fill="black"/>
<path d="M347.527 313.026C347.218 314.082 347.146 315.146 347.13 316.202C347.138 317.258 347.21 318.322 347.527 319.378C347.845 318.322 347.916 317.258 347.924 316.202C347.908 315.138 347.845 314.082 347.527 313.026Z" fill="black"/>
<path d="M352.394 313.026C352.085 314.082 352.013 315.146 351.997 316.202C352.005 317.258 352.077 318.322 352.394 319.378C352.712 318.322 352.784 317.258 352.791 316.202C352.776 315.138 352.704 314.082 352.394 313.026Z" fill="black"/>
<path d="M370.744 313.026C370.434 314.082 370.363 315.146 370.347 316.202C370.355 317.258 370.426 318.322 370.744 319.378C371.061 318.322 371.133 317.258 371.141 316.202C371.133 315.138 371.061 314.082 370.744 313.026Z" fill="black"/>
</g>
<path opacity="0.1" d="M345.915 312.296V313.987L381.836 315.114V312.296H345.915Z" fill="black"/>
<path d="M345.915 336.108H381.836V344.048H345.915V336.108Z" fill="#FFC727"/>
<g opacity="0.1">
<path d="M347.527 343.182C347.837 342.126 347.908 341.062 347.924 340.006C347.916 338.95 347.845 337.886 347.527 336.83C347.21 337.886 347.138 338.95 347.13 340.006C347.146 341.07 347.218 342.126 347.527 343.182Z" fill="black"/>
<path d="M350.203 343.182C350.513 342.126 350.584 341.062 350.6 340.006C350.592 338.95 350.521 337.886 350.203 336.83C349.885 337.886 349.814 338.95 349.806 340.006C349.822 341.07 349.893 342.126 350.203 343.182Z" fill="black"/>
<path d="M351.513 343.182C351.823 342.126 351.894 341.062 351.91 340.006C351.902 338.95 351.831 337.886 351.513 336.83C351.196 337.886 351.124 338.95 351.116 340.006C351.124 341.07 351.196 342.126 351.513 343.182Z" fill="black"/>
<path d="M358.683 343.182C358.993 342.126 359.064 341.062 359.08 340.006C359.072 338.95 359.001 337.886 358.683 336.83C358.365 337.886 358.294 338.95 358.286 340.006C358.302 341.07 358.373 342.126 358.683 343.182Z" fill="black"/>
<path d="M360.628 343.182C360.938 342.126 361.009 341.062 361.025 340.006C361.017 338.95 360.946 337.886 360.628 336.83C360.311 337.886 360.239 338.95 360.231 340.006C360.239 341.07 360.311 342.126 360.628 343.182Z" fill="black"/>
<path d="M368.648 343.182C368.957 342.126 369.029 341.062 369.045 340.006C369.037 338.95 368.965 337.886 368.648 336.83C368.33 337.886 368.259 338.95 368.251 340.006C368.267 341.07 368.338 342.126 368.648 343.182Z" fill="black"/>
<path d="M370.506 343.182C370.815 342.126 370.887 341.062 370.903 340.006C370.895 338.95 370.823 337.886 370.506 336.83C370.188 337.886 370.117 338.95 370.109 340.006C370.124 341.07 370.188 342.126 370.506 343.182Z" fill="black"/>
<path d="M373.912 343.182C374.222 342.126 374.293 341.062 374.309 340.006C374.301 338.95 374.229 337.886 373.912 336.83C373.594 337.886 373.523 338.95 373.515 340.006C373.523 341.07 373.594 342.126 373.912 343.182Z" fill="black"/>
<path d="M367.099 343.182C367.409 342.126 367.48 341.062 367.496 340.006C367.488 338.95 367.417 337.886 367.099 336.83C366.782 337.886 366.71 338.95 366.702 340.006C366.718 341.07 366.79 342.126 367.099 343.182Z" fill="black"/>
<path d="M353.879 343.182C354.189 342.126 354.26 341.062 354.276 340.006C354.268 338.95 354.197 337.886 353.879 336.83C353.562 337.886 353.49 338.95 353.482 340.006C353.498 341.07 353.57 342.126 353.879 343.182Z" fill="black"/>
<path d="M363.177 343.182C363.487 342.126 363.558 341.062 363.574 340.006C363.566 338.95 363.495 337.886 363.177 336.83C362.859 337.886 362.788 338.95 362.78 340.006C362.796 341.07 362.867 342.126 363.177 343.182Z" fill="black"/>
<path d="M364.519 343.182C364.829 342.126 364.9 341.062 364.916 340.006C364.908 338.95 364.836 337.886 364.519 336.83C364.201 337.886 364.13 338.95 364.122 340.006C364.13 341.07 364.201 342.126 364.519 343.182Z" fill="black"/>
<path d="M378.342 343.182C378.652 342.126 378.724 341.062 378.739 340.006C378.731 338.95 378.66 337.886 378.342 336.83C378.025 337.886 377.953 338.95 377.945 340.006C377.961 341.07 378.033 342.126 378.342 343.182Z" fill="black"/>
<path d="M380.351 343.182C380.661 342.126 380.732 341.062 380.748 340.006C380.74 338.95 380.669 337.886 380.351 336.83C380.034 337.886 379.962 338.95 379.954 340.006C379.97 341.07 380.042 342.126 380.351 343.182Z" fill="black"/>
<path d="M375.492 343.182C375.802 342.126 375.873 341.062 375.889 340.006C375.881 338.95 375.81 337.886 375.492 336.83C375.174 337.886 375.103 338.95 375.095 340.006C375.103 341.07 375.174 342.126 375.492 343.182Z" fill="black"/>
<path d="M357.135 343.182C357.444 342.126 357.516 341.062 357.532 340.006C357.524 338.95 357.452 337.886 357.135 336.83C356.817 337.886 356.746 338.95 356.738 340.006C356.754 341.07 356.825 342.126 357.135 343.182Z" fill="black"/>
</g>
<path opacity="0.1" d="M345.915 336.108V337.791L381.836 338.926V336.108H345.915Z" fill="black"/>
<path d="M309.995 360.547H345.915V368.487H309.995V360.547Z" fill="#FFC727"/>
<g opacity="0.1">
<path d="M344.431 361.278C344.121 362.334 344.05 363.398 344.034 364.454C344.042 365.51 344.113 366.574 344.431 367.63C344.748 366.574 344.82 365.51 344.828 364.454C344.82 363.39 344.748 362.334 344.431 361.278Z" fill="black"/>
<path d="M341.755 361.278C341.445 362.334 341.374 363.398 341.358 364.454C341.366 365.51 341.437 366.574 341.755 367.63C342.072 366.574 342.144 365.51 342.152 364.454C342.144 363.39 342.072 362.334 341.755 361.278Z" fill="black"/>
<path d="M340.453 361.278C340.143 362.334 340.072 363.398 340.056 364.454C340.064 365.51 340.135 366.574 340.453 367.63C340.77 366.574 340.842 365.51 340.85 364.454C340.834 363.39 340.762 362.334 340.453 361.278Z" fill="black"/>
<path d="M333.275 361.278C332.965 362.334 332.894 363.398 332.878 364.454C332.886 365.51 332.957 366.574 333.275 367.63C333.593 366.574 333.664 365.51 333.672 364.454C333.664 363.39 333.593 362.334 333.275 361.278Z" fill="black"/>
<path d="M331.338 361.278C331.028 362.334 330.956 363.398 330.941 364.454C330.949 365.51 331.02 366.574 331.338 367.63C331.655 366.574 331.727 365.51 331.735 364.454C331.719 363.39 331.647 362.334 331.338 361.278Z" fill="black"/>
<path d="M323.31 361.278C323.001 362.334 322.929 363.398 322.913 364.454C322.921 365.51 322.993 366.574 323.31 367.63C323.628 366.574 323.699 365.51 323.707 364.454C323.699 363.39 323.628 362.334 323.31 361.278Z" fill="black"/>
<path d="M321.46 361.278C321.151 362.334 321.079 363.398 321.063 364.454C321.071 365.51 321.143 366.574 321.46 367.63C321.778 366.574 321.849 365.51 321.857 364.454C321.841 363.39 321.77 362.334 321.46 361.278Z" fill="black"/>
<path d="M318.054 361.278C317.744 362.334 317.673 363.398 317.657 364.454C317.665 365.51 317.736 366.574 318.054 367.63C318.372 366.574 318.443 365.51 318.451 364.454C318.435 363.39 318.364 362.334 318.054 361.278Z" fill="black"/>
<path d="M324.859 361.278C324.549 362.334 324.477 363.398 324.462 364.454C324.47 365.51 324.541 366.574 324.859 367.63C325.176 366.574 325.248 365.51 325.256 364.454C325.248 363.39 325.176 362.334 324.859 361.278Z" fill="black"/>
<path d="M338.079 361.278C337.769 362.334 337.698 363.398 337.682 364.454C337.69 365.51 337.761 366.574 338.079 367.63C338.396 366.574 338.468 365.51 338.476 364.454C338.46 363.39 338.396 362.334 338.079 361.278Z" fill="black"/>
<path d="M328.781 361.278C328.471 362.334 328.4 363.398 328.384 364.454C328.392 365.51 328.463 366.574 328.781 367.63C329.099 366.574 329.17 365.51 329.178 364.454C329.17 363.39 329.099 362.334 328.781 361.278Z" fill="black"/>
<path d="M327.447 361.278C327.137 362.334 327.066 363.398 327.05 364.454C327.058 365.51 327.129 366.574 327.447 367.63C327.765 366.574 327.836 365.51 327.844 364.454C327.828 363.39 327.757 362.334 327.447 361.278Z" fill="black"/>
<path d="M313.616 361.278C313.306 362.334 313.234 363.398 313.219 364.454C313.226 365.51 313.298 366.574 313.616 367.63C313.933 366.574 314.005 365.51 314.013 364.454C313.997 363.39 313.933 362.334 313.616 361.278Z" fill="black"/>
<path d="M311.607 361.278C311.297 362.334 311.226 363.398 311.21 364.454C311.218 365.51 311.289 366.574 311.607 367.63C311.924 366.574 311.996 365.51 312.004 364.454C311.996 363.39 311.924 362.334 311.607 361.278Z" fill="black"/>
<path d="M316.474 361.278C316.164 362.334 316.093 363.398 316.077 364.454C316.085 365.51 316.156 366.574 316.474 367.63C316.792 366.574 316.863 365.51 316.871 364.454C316.855 363.39 316.784 362.334 316.474 361.278Z" fill="black"/>
<path d="M334.831 361.278C334.522 362.334 334.45 363.398 334.434 364.454C334.442 365.51 334.514 366.574 334.831 367.63C335.149 366.574 335.22 365.51 335.228 364.454C335.212 363.39 335.141 362.334 334.831 361.278Z" fill="black"/>
</g>
<path opacity="0.1" d="M309.995 360.547V362.23L345.915 363.366V360.547H309.995Z" fill="black"/>
<path d="M303.976 352.607H339.897V360.547H303.976V352.607Z" fill="#FFC727"/>
<g opacity="0.1">
<path d="M338.42 353.337C338.11 354.393 338.039 355.457 338.023 356.513C338.031 357.569 338.102 358.633 338.42 359.689C338.738 358.633 338.809 357.569 338.817 356.513C338.801 355.457 338.73 354.393 338.42 353.337Z" fill="black"/>
<path d="M335.744 353.337C335.435 354.393 335.363 355.457 335.347 356.513C335.355 357.569 335.427 358.633 335.744 359.689C336.062 358.633 336.133 357.569 336.141 356.513C336.125 355.457 336.054 354.393 335.744 353.337Z" fill="black"/>
<path d="M334.434 353.337C334.125 354.393 334.053 355.457 334.037 356.513C334.045 357.569 334.117 358.633 334.434 359.689C334.752 358.633 334.823 357.569 334.831 356.513C334.815 355.457 334.752 354.393 334.434 353.337Z" fill="black"/>
<path d="M327.264 353.337C326.955 354.393 326.883 355.457 326.867 356.513C326.875 357.569 326.947 358.633 327.264 359.689C327.582 358.633 327.653 357.569 327.661 356.513C327.645 355.457 327.574 354.393 327.264 353.337Z" fill="black"/>
<path d="M325.319 353.337C325.009 354.393 324.938 355.457 324.922 356.513C324.93 357.569 325.001 358.633 325.319 359.689C325.637 358.633 325.708 357.569 325.716 356.513C325.708 355.457 325.637 354.393 325.319 353.337Z" fill="black"/>
<path d="M317.3 353.337C316.99 354.393 316.919 355.457 316.903 356.513C316.911 357.569 316.982 358.633 317.3 359.689C317.617 358.633 317.689 357.569 317.697 356.513C317.681 355.457 317.609 354.393 317.3 353.337Z" fill="black"/>
<path d="M315.442 353.337C315.132 354.393 315.061 355.457 315.045 356.513C315.053 357.569 315.124 358.633 315.442 359.689C315.759 358.633 315.831 357.569 315.839 356.513C315.823 355.457 315.759 354.393 315.442 353.337Z" fill="black"/>
<path d="M312.035 353.337C311.726 354.393 311.654 355.457 311.638 356.513C311.646 357.569 311.718 358.633 312.035 359.689C312.353 358.633 312.424 357.569 312.432 356.513C312.424 355.457 312.353 354.393 312.035 353.337Z" fill="black"/>
<path d="M318.848 353.337C318.538 354.393 318.467 355.457 318.451 356.513C318.459 357.569 318.53 358.633 318.848 359.689C319.166 358.633 319.237 357.569 319.245 356.513C319.229 355.457 319.158 354.393 318.848 353.337Z" fill="black"/>
<path d="M332.068 353.337C331.758 354.393 331.687 355.457 331.671 356.513C331.679 357.569 331.75 358.633 332.068 359.689C332.386 358.633 332.457 357.569 332.465 356.513C332.449 355.457 332.378 354.393 332.068 353.337Z" fill="black"/>
<path d="M322.77 353.337C322.461 354.393 322.389 355.457 322.373 356.513C322.381 357.569 322.453 358.633 322.77 359.689C323.088 358.633 323.159 357.569 323.167 356.513C323.151 355.457 323.08 354.393 322.77 353.337Z" fill="black"/>
<path d="M321.428 353.337C321.119 354.393 321.047 355.457 321.031 356.513C321.039 357.569 321.111 358.633 321.428 359.689C321.746 358.633 321.818 357.569 321.825 356.513C321.818 355.457 321.746 354.393 321.428 353.337Z" fill="black"/>
<path d="M307.597 353.337C307.287 354.393 307.216 355.457 307.2 356.513C307.208 357.569 307.279 358.633 307.597 359.689C307.915 358.633 307.986 357.569 307.994 356.513C307.986 355.457 307.915 354.393 307.597 353.337Z" fill="black"/>
<path d="M305.596 353.337C305.286 354.393 305.215 355.457 305.199 356.513C305.207 357.569 305.279 358.633 305.596 359.689C305.914 358.633 305.985 357.569 305.993 356.513C305.977 355.457 305.906 354.393 305.596 353.337Z" fill="black"/>
<path d="M310.455 353.337C310.146 354.393 310.074 355.457 310.058 356.513C310.066 357.569 310.138 358.633 310.455 359.689C310.773 358.633 310.844 357.569 310.852 356.513C310.844 355.457 310.773 354.393 310.455 353.337Z" fill="black"/>
<path d="M328.813 353.337C328.503 354.393 328.432 355.457 328.416 356.513C328.424 357.569 328.495 358.633 328.813 359.689C329.13 358.633 329.202 357.569 329.21 356.513C329.194 355.457 329.122 354.393 328.813 353.337Z" fill="black"/>
</g>
<path opacity="0.1" d="M303.984 352.615V354.298L339.897 355.434V352.615H303.984Z" fill="black"/>
<path d="M306.986 344.739H342.906V352.679H306.986V344.739Z" fill="#FFC727"/>
<g opacity="0.1">
<path d="M308.597 351.813C308.907 350.757 308.979 349.693 308.994 348.637C308.987 347.581 308.915 346.517 308.597 345.461C308.28 346.517 308.208 347.581 308.2 348.637C308.216 349.701 308.288 350.757 308.597 351.813Z" fill="black"/>
<path d="M311.273 351.813C311.583 350.757 311.654 349.693 311.67 348.637C311.662 347.581 311.591 346.517 311.273 345.461C310.956 346.517 310.884 347.581 310.876 348.637C310.892 349.701 310.964 350.757 311.273 351.813Z" fill="black"/>
<path d="M312.583 351.813C312.893 350.757 312.964 349.693 312.98 348.637C312.972 347.581 312.901 346.517 312.583 345.461C312.266 346.517 312.194 347.581 312.186 348.637C312.202 349.701 312.266 350.757 312.583 351.813Z" fill="black"/>
<path d="M319.753 351.813C320.063 350.757 320.134 349.693 320.15 348.637C320.142 347.581 320.071 346.517 319.753 345.461C319.436 346.517 319.364 347.581 319.356 348.637C319.372 349.701 319.443 350.757 319.753 351.813Z" fill="black"/>
<path d="M321.698 351.813C322.008 350.757 322.08 349.693 322.095 348.637C322.088 347.581 322.016 346.517 321.698 345.461C321.381 346.517 321.309 347.581 321.301 348.637C321.309 349.701 321.381 350.757 321.698 351.813Z" fill="black"/>
<path d="M329.718 351.813C330.028 350.757 330.099 349.693 330.115 348.637C330.107 347.581 330.035 346.517 329.718 345.461C329.4 346.517 329.329 347.581 329.321 348.637C329.337 349.701 329.408 350.757 329.718 351.813Z" fill="black"/>
<path d="M331.576 351.813C331.885 350.757 331.957 349.693 331.973 348.637C331.965 347.581 331.893 346.517 331.576 345.461C331.258 346.517 331.187 347.581 331.179 348.637C331.195 349.701 331.258 350.757 331.576 351.813Z" fill="black"/>
<path d="M334.982 351.813C335.292 350.757 335.363 349.693 335.379 348.637C335.371 347.581 335.3 346.517 334.982 345.461C334.664 346.517 334.593 347.581 334.585 348.637C334.593 349.701 334.664 350.757 334.982 351.813Z" fill="black"/>
<path d="M328.17 351.813C328.479 350.757 328.551 349.693 328.567 348.637C328.559 347.581 328.487 346.517 328.17 345.461C327.852 346.517 327.78 347.581 327.773 348.637C327.788 349.701 327.86 350.757 328.17 351.813Z" fill="black"/>
<path d="M314.949 351.813C315.259 350.757 315.331 349.693 315.346 348.637C315.338 347.581 315.267 346.517 314.949 345.461C314.632 346.517 314.56 347.581 314.552 348.637C314.568 349.701 314.64 350.757 314.949 351.813Z" fill="black"/>
<path d="M324.247 351.813C324.557 350.757 324.628 349.693 324.644 348.637C324.636 347.581 324.565 346.517 324.247 345.461C323.93 346.517 323.858 347.581 323.85 348.637C323.866 349.701 323.938 350.757 324.247 351.813Z" fill="black"/>
<path d="M325.589 351.813C325.899 350.757 325.97 349.693 325.986 348.637C325.978 347.581 325.907 346.517 325.589 345.461C325.271 346.517 325.2 347.581 325.192 348.637C325.2 349.701 325.271 350.757 325.589 351.813Z" fill="black"/>
<path d="M339.421 351.813C339.73 350.757 339.802 349.693 339.818 348.637C339.81 347.581 339.738 346.517 339.421 345.461C339.103 346.517 339.031 347.581 339.024 348.637C339.031 349.701 339.103 350.757 339.421 351.813Z" fill="black"/>
<path d="M341.421 351.813C341.731 350.757 341.803 349.693 341.818 348.637C341.81 347.581 341.739 346.517 341.421 345.461C341.104 346.517 341.032 347.581 341.024 348.637C341.04 349.701 341.112 350.757 341.421 351.813Z" fill="black"/>
<path d="M336.562 351.813C336.872 350.757 336.943 349.693 336.959 348.637C336.951 347.581 336.88 346.517 336.562 345.461C336.245 346.517 336.173 347.581 336.165 348.637C336.173 349.701 336.245 350.757 336.562 351.813Z" fill="black"/>
<path d="M318.205 351.813C318.515 350.757 318.586 349.693 318.602 348.637C318.594 347.581 318.522 346.517 318.205 345.461C317.887 346.517 317.816 347.581 317.808 348.637C317.824 349.701 317.895 350.757 318.205 351.813Z" fill="black"/>
</g>
<path opacity="0.1" d="M306.986 344.739V346.43L342.906 347.557V344.739H306.986Z" fill="black"/>
<path d="M384.829 332.162C361.184 336.401 367.433 371.433 391.11 367.177C414.755 362.937 408.514 327.914 384.829 332.162Z" fill="#FFC727"/>
<path opacity="0.1" d="M384.829 332.162C361.184 336.401 367.433 371.433 391.11 367.177C414.755 362.937 408.514 327.914 384.829 332.162Z" fill="black"/>
<path d="M387.053 331.764C364.519 335.806 370.768 370.829 393.333 366.78C415.867 362.738 409.618 327.715 387.053 331.764Z" fill="#FFC727"/>
<path opacity="0.1" d="M404.481 350.098C404.362 356.339 400.725 362.381 392.793 363.81C374.063 367.169 368.878 338.1 387.577 334.742C387.696 334.718 387.823 334.694 387.942 334.686C370.402 338.196 375.428 365.708 393.293 362.5C400.582 361.19 404.092 355.799 404.481 350.098Z" fill="black"/>
<g opacity="0.1">
<path d="M388.244 338.371C387.934 338.45 387.735 338.776 387.807 339.093L388.045 340.054C386.354 340.633 385.242 341.515 384.186 342.801C384.012 343.023 383.924 343.198 383.988 343.436C384.075 343.77 384.424 343.968 384.766 343.881C384.909 343.841 385.028 343.794 385.155 343.603C386.1 342.372 387.132 341.602 388.371 341.142L390.046 347.867C386.584 349.55 385.385 351.297 385.973 353.655C386.608 356.204 389.196 357.474 392.222 356.815L392.69 358.689C392.769 358.999 393.095 359.197 393.413 359.126C393.722 359.046 393.921 358.721 393.849 358.403L393.373 356.506C395.421 355.815 396.938 354.624 398.2 352.829C398.335 352.647 398.391 352.472 398.335 352.258C398.256 351.948 397.899 351.726 397.581 351.805C397.367 351.861 397.248 351.988 397.192 352.083C396.16 353.671 394.881 354.783 393.055 355.442L391.348 348.589C394.754 346.898 395.914 345.207 395.318 342.801C394.715 340.371 392.134 339.053 389.188 339.712L388.958 338.799C388.887 338.49 388.553 338.291 388.244 338.371ZM391.046 347.367L389.411 340.808C391.753 340.276 393.643 341.285 394.072 343.015C394.484 344.651 393.96 345.85 391.046 347.367ZM390.356 349.098L392.007 355.727C389.593 356.275 387.68 355.275 387.227 353.449C386.822 351.797 387.41 350.574 390.356 349.098Z" fill="black"/>
</g>
</svg>
