<svg width="32" height="32" viewBox="0 0 32 32" fill="none" xmlns="http://www.w3.org/2000/svg">
<path fill-rule="evenodd" clip-rule="evenodd" d="M20.7746 6.36817C18.6258 5.41073 16.2251 5.17353 13.9306 5.69193C11.636 6.21033 9.57041 7.45655 8.04195 9.24476C6.51348 11.033 5.60399 13.2673 5.44911 15.6146C5.29423 17.962 5.90226 20.2965 7.18253 22.27C8.46279 24.2435 10.3467 25.7503 12.5533 26.5657C14.7599 27.3811 17.1709 27.4614 19.4268 26.7946C21.6828 26.1278 23.6627 24.7496 25.0714 22.8656C26.4801 20.9816 27.2421 18.6927 27.2437 16.3403V15.2252C27.2437 14.9037 27.3714 14.5954 27.5987 14.3681C27.8261 14.1408 28.1344 14.013 28.4558 14.013C28.7773 14.013 29.0856 14.1408 29.3129 14.3681C29.5403 14.5954 29.668 14.9037 29.668 15.2252V16.3403C29.6664 18.4885 29.1458 20.6045 28.1507 22.5083C27.1555 24.412 25.7152 26.0472 23.9522 27.2747C22.1893 28.5021 20.1559 29.2856 18.0251 29.5583C15.8943 29.831 13.7292 29.5849 11.714 28.841C10.037 28.2216 8.50166 27.2714 7.19933 26.0467C5.897 24.822 4.85424 23.348 4.13307 21.7122C3.4119 20.0764 3.02704 18.3123 3.00137 16.5248C2.97571 14.7373 3.30977 12.9629 3.98369 11.307C4.65761 9.65123 5.65762 8.14785 6.92426 6.8863C8.1909 5.62475 9.69829 4.6308 11.3568 3.96355C13.0153 3.29631 14.7911 2.96939 16.5785 3.00225C18.3659 3.03511 20.1284 3.42707 21.7613 4.15483C21.9067 4.21961 22.0379 4.3124 22.1475 4.4279C22.257 4.5434 22.3427 4.67935 22.3997 4.82798C22.4567 4.97661 22.4839 5.13502 22.4797 5.29415C22.4755 5.45328 22.44 5.61003 22.3752 5.75544C22.3104 5.90085 22.2176 6.03207 22.1021 6.14162C21.9866 6.25117 21.8507 6.3369 21.7021 6.39391C21.5534 6.45092 21.395 6.47809 21.2359 6.47389C21.0768 6.46968 20.92 6.43295 20.7746 6.36817Z" fill="#343A3E"/>
<path fill-rule="evenodd" clip-rule="evenodd" d="M29.313 5.78632C29.5402 6.01363 29.6678 6.32188 29.6678 6.64329C29.6678 6.96471 29.5402 7.27296 29.313 7.50027L17.1917 19.6337C16.9644 19.8609 16.6561 19.9885 16.3347 19.9885C16.0133 19.9885 15.705 19.8609 15.4777 19.6337L11.8414 15.9973C11.7256 15.8855 11.6332 15.7517 11.5697 15.6038C11.5062 15.4559 11.4728 15.2969 11.4714 15.1359C11.47 14.975 11.5006 14.8154 11.5616 14.6664C11.6225 14.5174 11.7125 14.3821 11.8263 14.2683C11.9401 14.1545 12.0755 14.0645 12.2244 14.0035C12.3734 13.9426 12.533 13.9119 12.694 13.9133C12.8549 13.9147 13.014 13.9482 13.1619 14.0117C13.3097 14.0752 13.4435 14.1676 13.5553 14.2833L16.3347 17.0615L27.599 5.78632C27.8263 5.55908 28.1346 5.43143 28.456 5.43143C28.7774 5.43143 29.0856 5.55908 29.313 5.78632Z" fill="#343A3E"/>
</svg>
