<svg width="32" height="32" viewBox="0 0 32 32" fill="none" xmlns="http://www.w3.org/2000/svg">
<path d="M21.3333 5.66666C21.0681 5.66666 20.8138 5.77202 20.6262 5.95955C20.4387 6.14709 20.3333 6.40144 20.3333 6.66666C20.3333 6.93188 20.4387 7.18623 20.6262 7.37377C20.8138 7.5613 21.0681 7.66666 21.3333 7.66666V5.66666ZM10.6667 7.66666C10.9319 7.66666 11.1862 7.5613 11.3738 7.37377C11.5613 7.18623 11.6667 6.93188 11.6667 6.66666C11.6667 6.40144 11.5613 6.14709 11.3738 5.95955C11.1862 5.77202 10.9319 5.66666 10.6667 5.66666V7.66666ZM17 25.3333C17 25.0681 16.8946 24.8138 16.7071 24.6262C16.5196 24.4387 16.2652 24.3333 16 24.3333C15.7348 24.3333 15.4804 24.4387 15.2929 24.6262C15.1054 24.8138 15 25.0681 15 25.3333H17ZM12 28.3333C11.7348 28.3333 11.4804 28.4387 11.2929 28.6262C11.1054 28.8138 11 29.0681 11 29.3333C11 29.5985 11.1054 29.8529 11.2929 30.0404C11.4804 30.228 11.7348 30.3333 12 30.3333V28.3333ZM20 30.3333C20.2652 30.3333 20.5196 30.228 20.7071 30.0404C20.8946 29.8529 21 29.5985 21 29.3333C21 29.0681 20.8946 28.8138 20.7071 28.6262C20.5196 28.4387 20.2652 28.3333 20 28.3333V30.3333ZM17 4.24933C17 3.98411 16.8946 3.72976 16.7071 3.54222C16.5196 3.35468 16.2652 3.24933 16 3.24933C15.7348 3.24933 15.4804 3.35468 15.2929 3.54222C15.1054 3.72976 15 3.98411 15 4.24933H17ZM15 11.6387C15 11.9039 15.1054 12.1582 15.2929 12.3458C15.4804 12.5333 15.7348 12.6387 16 12.6387C16.2652 12.6387 16.5196 12.5333 16.7071 12.3458C16.8946 12.1582 17 11.9039 17 11.6387H15ZM16 3.99999L15.4373 4.82666L16 5.21066L16.5627 4.82666L16 3.99999ZM16 12L15.4373 12.8267C15.6032 12.9396 15.7993 13 16 13C16.2007 13 16.3968 12.9396 16.5627 12.8267L16 12ZM27 9.33333V22.6667H29V9.33333H27ZM25.3333 24.3333H6.66667V26.3333H25.3333V24.3333ZM5 22.6667V9.33333H3V22.6667H5ZM21.3333 7.66666H25.3333V5.66666H21.3333V7.66666ZM6.66667 7.66666H10.6667V5.66666H6.66667V7.66666ZM6.66667 24.3333C5.74667 24.3333 5 23.5867 5 22.6667H3C3 23.6391 3.38631 24.5718 4.07394 25.2594C4.76158 25.947 5.69421 26.3333 6.66667 26.3333V24.3333ZM27 22.6667C27 23.5867 26.2533 24.3333 25.3333 24.3333V26.3333C26.3058 26.3333 27.2384 25.947 27.9261 25.2594C28.6137 24.5718 29 23.6391 29 22.6667H27ZM29 9.33333C29 8.36087 28.6137 7.42824 27.9261 6.7406C27.2384 6.05297 26.3058 5.66666 25.3333 5.66666V7.66666C26.2533 7.66666 27 8.41333 27 9.33333H29ZM5 9.33333C5 8.41333 5.74667 7.66666 6.66667 7.66666V5.66666C5.69421 5.66666 4.76158 6.05297 4.07394 6.7406C3.38631 7.42824 3 8.36087 3 9.33333H5ZM15 25.3333V29.3333H17V25.3333H15ZM16 28.3333H12V30.3333H16V28.3333ZM16 30.3333H20V28.3333H16V30.3333ZM15 4.24933V11.6387H17V4.24933H15ZM11.6213 3.66666C12.1613 3.72533 12.892 3.85466 13.6133 4.05866C14.3467 4.26533 15 4.52933 15.4373 4.82666L16.5627 3.17333C15.8667 2.69999 14.976 2.36399 14.1547 2.13333C13.3964 1.9207 12.6224 1.76866 11.84 1.67866L11.6213 3.66666ZM11.6213 11.632C12.2919 11.7117 12.9547 11.8473 13.6027 12.0373C14.336 12.2533 14.9947 12.5253 15.4373 12.8267L16.5627 11.1733C15.872 10.7027 14.9867 10.36 14.1653 10.1187C13.4049 9.89547 12.6271 9.73669 11.84 9.64399L11.6213 11.632ZM9.66667 3.67066V9.51066H11.6667V3.67066H9.66667ZM11.84 9.64399C11.7871 9.63838 11.7377 9.61486 11.7 9.57733C11.6707 9.54666 11.6667 9.52399 11.6667 9.51066H9.66667C9.66667 10.6707 10.5933 11.5187 11.6213 11.6307L11.84 9.64399ZM11.84 1.67866C10.6 1.54266 9.66667 2.55333 9.66667 3.67066H11.6667C11.6667 3.65066 11.6733 3.64666 11.6693 3.65066C11.6631 3.65608 11.6559 3.66017 11.648 3.66266C11.6394 3.66547 11.6304 3.66682 11.6213 3.66666L11.84 1.67866ZM20.16 1.67866C19.5187 1.74933 18.68 1.89733 17.8453 2.13199C17.0227 2.36399 16.1333 2.69999 15.4373 3.17333L16.5627 4.82666C17 4.52933 17.652 4.26533 18.3867 4.05866C19.0393 3.87575 19.7054 3.74467 20.3787 3.66666L20.16 1.67866ZM20.16 9.64399C19.5107 9.71466 18.668 9.87466 17.8347 10.1187C17.0133 10.3587 16.128 10.7027 15.4373 11.1733L16.5627 12.8267C17.0053 12.5253 17.6627 12.2533 18.3973 12.0373C19.0453 11.8473 19.7081 11.7117 20.3787 11.632L20.16 9.64399ZM20.3333 3.67066V9.51066H22.3333V3.67066H20.3333ZM20.3787 11.6307C21.4067 11.5187 22.3333 10.6707 22.3333 9.51066H20.3333C20.3333 9.52399 20.3293 9.54666 20.3 9.57733C20.2624 9.61495 20.2129 9.63849 20.16 9.64399L20.3787 11.6307ZM20.3787 3.66666H20.368C20.3625 3.66586 20.3572 3.66452 20.352 3.66266C20.344 3.65977 20.3368 3.65523 20.3307 3.64933C20.3267 3.64666 20.3333 3.65066 20.3333 3.67066H22.3333C22.3333 2.55333 21.4 1.54266 20.16 1.67866L20.3787 3.66666Z" fill="#343A3E"/>
</svg>
