<svg width="17" height="21" viewBox="0 0 17 21" fill="none" xmlns="http://www.w3.org/2000/svg">
<path d="M2.5 21C1.95 21 1.47933 20.8043 1.088 20.413C0.696 20.021 0.5 19.55 0.5 19V9C0.5 8.45 0.696 7.979 1.088 7.587C1.47933 7.19567 1.95 7 2.5 7H3.5V5C3.5 3.61667 3.98767 2.43733 4.963 1.462C5.93767 0.487333 7.11667 0 8.5 0C9.88333 0 11.0627 0.487333 12.038 1.462C13.0127 2.43733 13.5 3.61667 13.5 5V7H14.5C15.05 7 15.521 7.19567 15.913 7.587C16.3043 7.979 16.5 8.45 16.5 9V19C16.5 19.55 16.3043 20.021 15.913 20.413C15.521 20.8043 15.05 21 14.5 21H2.5ZM8.5 16C9.05 16 9.521 15.8043 9.913 15.413C10.3043 15.021 10.5 14.55 10.5 14C10.5 13.45 10.3043 12.979 9.913 12.587C9.521 12.1957 9.05 12 8.5 12C7.95 12 7.47933 12.1957 7.088 12.587C6.696 12.979 6.5 13.45 6.5 14C6.5 14.55 6.696 15.021 7.088 15.413C7.47933 15.8043 7.95 16 8.5 16ZM5.5 7H11.5V5C11.5 4.16667 11.2083 3.45833 10.625 2.875C10.0417 2.29167 9.33333 2 8.5 2C7.66667 2 6.95833 2.29167 6.375 2.875C5.79167 3.45833 5.5 4.16667 5.5 5V7Z" fill="#BDBDBD"/>
</svg>
