<svg width="635" height="516" viewBox="0 0 635 516" fill="none" xmlns="http://www.w3.org/2000/svg">
<mask id="mask0_129_284" style="mask-type:luminance" maskUnits="userSpaceOnUse" x="125" y="98" width="86" height="85">
<path d="M180.302 180.904C202.57 174.162 215.156 150.645 208.414 128.379C201.671 106.112 178.153 93.527 155.885 100.269C133.617 107.011 121.031 130.528 127.774 152.794C134.516 175.061 158.034 187.646 180.302 180.904Z" fill="white"/>
</mask>
<g mask="url(#mask0_129_284)">
<mask id="mask1_129_284" style="mask-type:luminance" maskUnits="userSpaceOnUse" x="98" y="96" width="140" height="89">
<path d="M98.7242 184.046L237.494 184.046V96.7714L98.7242 96.7714V184.046Z" fill="white"/>
</mask>
<g mask="url(#mask1_129_284)">
<path d="M98.7242 184.046L237.494 184.046V96.7714L98.7242 96.7714V184.046Z" fill="#6D418A"/>
<path d="M215.14 82.7978L110.478 187.453L121.093 198.068L225.756 93.4127L215.14 82.7978Z" fill="white"/>
<path d="M121.096 82.8042L110.48 93.4191L215.143 198.075L225.759 187.46L121.096 82.8042Z" fill="white"/>
<path d="M220.332 93.4129L215.165 88.2467L115.951 187.454L121.118 192.62L220.332 93.4129Z" fill="#E05353"/>
<path d="M121.096 88.2125L115.929 93.3786L215.143 192.585L220.31 187.419L121.096 88.2125Z" fill="#E05353"/>
<path d="M181.214 79.7398H154.956V201.09H181.214V79.7398Z" fill="white"/>
<path d="M250.97 127.287H85.1999V153.543H250.97V127.287Z" fill="white"/>
<path d="M158.148 197.916H178.07V82.9013H158.148V197.916Z" fill="#E05353"/>
<path d="M247.81 150.389V130.468L88.3768 130.468V150.389L247.81 150.389Z" fill="#E05353"/>
</g>
</g>
<path d="M412.843 49.7816L433.549 58.1129L435.488 53.2942L414.782 44.9629L412.843 49.7816Z" fill="#5B2930"/>
<path d="M416.397 41.7249L425.987 47.1475L436.661 49.8873C447.564 41.9533 467.429 16.2105 442.484 6.16454C417.538 -3.88142 413.143 28.3113 416.397 41.7249Z" fill="#FFCB64"/>
<path d="M427.699 47.9466C431.524 45.7776 434.264 40.6975 435.862 35.8458C436.49 33.9622 437.004 31.9644 436.832 30.1379C436.661 28.3113 435.691 26.7702 434.207 26.8273C433.179 26.8843 432.095 27.6834 431.295 28.7109C430.496 29.7383 429.868 31.0511 429.355 32.3069C428.955 33.2201 428.67 34.4188 429.069 34.9896C429.297 35.275 429.583 35.3321 429.925 35.3321C431.181 35.2179 432.38 33.3914 432.608 31.7361C432.78 30.0808 432.209 28.6538 431.467 27.6264C430.439 26.2565 428.67 25.3432 427.071 26.4848C426.386 26.9985 425.758 27.7976 425.359 28.6538C423.817 31.5648 423.589 34.9325 423.646 38.0719C423.646 41.1542 423.817 44.3506 422.79 47.49" stroke="white" stroke-width="2.1921" stroke-miterlimit="10"/>
<path d="M413.308 44.841L436.609 54.2164L438.548 49.3977L415.247 40.0223L413.308 44.841Z" fill="#5B2930"/>
<path d="M416.625 49.3736L431.124 55.1957L427.699 63.7576C427.243 64.9562 425.873 65.527 424.617 65.0704L414.456 60.9607C413.257 60.504 412.686 59.1341 413.143 57.8784L416.625 49.3736Z" fill="#5B2930"/>
<path d="M531.305 55.367H563.9C577.029 55.367 587.647 44.7502 587.647 31.622C587.647 18.4937 577.029 7.87698 563.9 7.87698H531.305C518.176 7.87698 507.559 18.4937 507.559 31.622C507.559 44.6931 518.176 55.367 531.305 55.367Z" fill="#10AF63"/>
<path d="M545.348 51.3143C545.348 67.4677 522.058 66.7257 522.058 66.7257C522.058 66.7257 533.018 64.1001 533.018 47.8895L545.348 51.3143Z" fill="#10AF63"/>
<path d="M483.412 92.4685C483.412 92.4685 491.404 73.5752 481.985 69.1801C472.567 64.785 467.087 108.279 467.087 108.279C467.087 108.279 502.364 110.049 502.193 99.4892C502.022 89.0437 483.412 92.4685 483.412 92.4685Z" fill="#6D418A"/>
<path d="M165.859 37.3299C165.916 35.5604 163.29 35.3321 159.979 31.7361C156.668 28.083 156.725 25.5145 154.956 25.3432C152.958 25.2291 152.615 28.5397 148.163 32.1357C145.023 34.6472 143.082 34.7613 142.968 36.1883C142.854 38.0719 146.165 38.3573 149.476 42.2958C152.273 45.5493 152.216 48.0037 153.814 48.1179C155.412 48.232 155.812 45.9489 159.18 42.7524C163.119 39.2135 165.859 39.1564 165.859 37.3299Z" fill="#6D418A"/>
<path d="M209.47 26.7131V32.6494C209.47 47.3758 221.4 59.3625 236.185 59.3625H282.879C297.607 59.3625 309.594 47.4329 309.594 32.6494V26.7131C309.594 11.9867 297.664 0 282.879 0H236.185C221.458 0 209.47 11.9867 209.47 26.7131Z" fill="#6D418A"/>
<path d="M262.329 54.3395C262.329 74.5456 291.442 73.5752 291.442 73.5752C291.442 73.5752 277.742 70.2646 277.742 50.0586L262.329 54.3395Z" fill="#6D418A"/>
<path d="M255.883 19.9941L250.331 41H245.087L241.601 27.5234C241.415 26.8203 241.303 26.0342 241.264 25.165H241.205C241.117 26.1221 240.99 26.9082 240.824 27.5234L237.25 41H231.786L226.264 19.9941H231.435L234.394 33.9834C234.521 34.5791 234.613 35.3799 234.672 36.3857H234.76C234.799 35.6338 234.94 34.8135 235.185 33.9248L238.993 19.9941H244.062L247.504 34.1006C247.631 34.6182 247.743 35.3701 247.841 36.3564H247.899C247.938 35.585 248.041 34.8037 248.207 34.0127L251.107 19.9941H255.883ZM272.494 41H267.88V32.4746C267.88 30.2773 267.079 29.1787 265.478 29.1787C264.657 29.1787 263.993 29.4863 263.485 30.1016C262.978 30.7168 262.724 31.498 262.724 32.4453V41H258.095V18.793H262.724V28.2266H262.782C263.915 26.498 265.453 25.6338 267.396 25.6338C270.795 25.6338 272.494 27.6846 272.494 31.7861V41ZM283.319 41.3662C280.819 41.3662 278.852 40.668 277.416 39.2715C275.99 37.8652 275.277 35.9609 275.277 33.5586C275.277 31.0781 276.02 29.1396 277.504 27.7432C278.988 26.3369 280.995 25.6338 283.524 25.6338C286.015 25.6338 287.968 26.3369 289.384 27.7432C290.8 29.1396 291.508 30.9902 291.508 33.2949C291.508 35.7852 290.775 37.7529 289.311 39.1982C287.855 40.6436 285.858 41.3662 283.319 41.3662ZM283.437 29.1787C282.343 29.1787 281.493 29.5547 280.888 30.3066C280.282 31.0586 279.979 32.123 279.979 33.5C279.979 36.3809 281.142 37.8213 283.466 37.8213C285.683 37.8213 286.791 36.3418 286.791 33.3828C286.791 30.5801 285.673 29.1787 283.437 29.1787Z" fill="white"/>
<path d="M536.721 37H533.557V31.2969H527.756V37H524.602V22.9961H527.756V28.582H533.557V22.9961H536.721V37ZM548.615 32.8789H542.092C542.196 34.3307 543.111 35.0566 544.836 35.0566C545.936 35.0566 546.903 34.7962 547.736 34.2754V36.502C546.812 36.9967 545.611 37.2441 544.133 37.2441C542.518 37.2441 541.265 36.7982 540.373 35.9062C539.481 35.0078 539.035 33.7578 539.035 32.1562C539.035 30.4961 539.517 29.181 540.48 28.2109C541.444 27.2409 542.629 26.7559 544.035 26.7559C545.493 26.7559 546.62 27.1888 547.414 28.0547C548.215 28.9206 548.615 30.0957 548.615 31.5801V32.8789ZM545.754 30.9844C545.754 29.5521 545.174 28.8359 544.016 28.8359C543.521 28.8359 543.091 29.041 542.727 29.4512C542.368 29.8613 542.15 30.3724 542.072 30.9844H545.754ZM553.537 37H550.451V22.1953H553.537V37ZM559.221 37H556.135V22.1953H559.221V37ZM566.584 37.2441C564.917 37.2441 563.605 36.7786 562.648 35.8477C561.698 34.9102 561.223 33.6406 561.223 32.0391C561.223 30.3854 561.717 29.0931 562.707 28.1621C563.697 27.2246 565.035 26.7559 566.721 26.7559C568.381 26.7559 569.683 27.2246 570.627 28.1621C571.571 29.0931 572.043 30.3268 572.043 31.8633C572.043 33.5234 571.555 34.8353 570.578 35.7988C569.608 36.7624 568.277 37.2441 566.584 37.2441ZM566.662 29.1191C565.933 29.1191 565.367 29.3698 564.963 29.8711C564.559 30.3724 564.357 31.082 564.357 32C564.357 33.9206 565.132 34.8809 566.682 34.8809C568.16 34.8809 568.898 33.8945 568.898 31.9219C568.898 30.0534 568.153 29.1191 566.662 29.1191Z" fill="white"/>
<path d="M1.90649e-05 493.846C0.059905 501.378 141.091 506.232 315.06 504.726C489.029 503.136 630.06 495.771 630 488.154C629.94 480.622 488.909 475.768 314.94 477.274C140.971 478.864 -0.0598669 486.229 1.90649e-05 493.846Z" fill="#A766FE"/>
<path d="M101.434 372.551H248.081V356.169H101.434V372.551Z" fill="#844928"/>
<path d="M71.6368 283.593H277.879V266.069H71.6368V283.593Z" fill="#AD6E47"/>
<path d="M255.745 283.589H93.8567" stroke="#844928" stroke-width="2.9197" stroke-miterlimit="10" stroke-linecap="round" stroke-linejoin="round"/>
<path d="M267.39 493.127H283.544L247.924 283.589H218.983L267.39 493.127Z" fill="#AD6E47"/>
<path d="M82.0975 493.127H66L101.62 283.589H130.561L82.0975 493.127Z" fill="#AD6E47"/>
<path d="M380.814 282.618C380.814 282.618 332.807 272.515 308.49 294.776C284.172 317.037 310.145 359.333 319.45 377.826C328.754 396.32 363.632 473.035 363.632 473.035H380.871C380.871 473.035 362.376 378.74 346.621 342.152L402.905 343.294L380.814 282.618Z" fill="#FEA574"/>
<path d="M369.797 422.177C376.305 449.918 380.814 473.035 380.814 473.035H363.575C363.575 473.035 351.93 447.406 340.285 422.234C350.731 424.631 362.319 423.49 369.797 422.177Z" fill="#5B2930"/>
<path d="M308.49 294.776C332.807 272.515 380.814 282.618 380.814 282.618L402.848 343.236L346.564 342.095C350.846 351.97 355.241 366.011 359.522 381.251C354.042 383.135 343.938 389.357 334.862 410.248C328.412 396.32 322.532 383.877 319.507 377.769C310.145 359.333 284.172 317.094 308.49 294.776Z" fill="#F07951"/>
<path d="M448.743 289.81C448.743 289.81 410.383 275.255 362.49 276.454L388.749 351.17L476.257 348.488C476.2 348.545 472.319 296.546 448.743 289.81Z" fill="#F79237"/>
<path d="M398.339 298.886C398.339 298.886 346.336 294.434 330.809 302.025C306.834 313.784 302.039 338.556 286.398 369.379C270.815 400.202 229.544 478.514 229.544 478.514H244.956C244.956 478.514 262.024 464.359 282.06 446.436C302.039 428.513 339.315 392.667 345.879 355.166L424.94 368.066L398.339 298.886Z" fill="#FEA574"/>
<path d="M290.223 438.958C287.312 441.698 284.515 444.21 282.06 446.436C262.081 464.359 244.956 478.514 244.956 478.514H229.544C229.544 478.514 243.358 452.315 258.028 424.232C274.126 424.689 285.2 433.764 290.223 438.958Z" fill="#5B2930"/>
<path d="M248.324 475.718H233.711C233.711 475.718 234.567 469.21 232.854 469.667C231.199 470.067 223.15 479.827 219.097 481.311C215.044 482.852 189.757 489.245 186.902 496.723C185.932 499.234 208.879 498.663 217.613 498.549C226.347 498.435 240.161 499.405 248.324 497.579C256.487 495.752 247.582 479.542 247.582 479.542C247.582 479.542 252.263 475.718 248.324 475.718Z" fill="#FFC727"/>
<path d="M449.143 293.52C449.143 293.52 442.978 298.943 442.521 303.509C442.521 303.509 421.286 293.52 373.964 295.347L404.504 375.543C437.098 375.543 507.139 381.365 522.552 363.442C537.964 345.52 525.349 308.418 525.349 308.418L449.143 293.52Z" fill="#FFCB64"/>
<path d="M387.036 298.886L414.265 375.772" stroke="#F79237" stroke-width="2.5657" stroke-miterlimit="10" stroke-linecap="round"/>
<path opacity="0.5" d="M442.521 303.566C442.978 299 449.143 293.577 449.143 293.577L525.292 308.589C525.292 308.589 533.169 331.821 528.831 350.428C513.476 355.109 499.49 339.013 479.397 323.202C455.822 304.594 442.521 303.566 442.521 303.566Z" fill="#F79237"/>
<path d="M398.339 330.736C398.339 330.736 448.972 326.17 456.792 326.455C464.555 326.74 469.579 320.633 469.579 320.633C469.579 320.633 469.407 304.879 473.46 302.025" stroke="#F79237" stroke-width="2.5657" stroke-miterlimit="10" stroke-linecap="round"/>
<path d="M343.482 429.027C342.454 426.743 341.37 424.517 340.342 422.234C350.731 424.631 362.376 423.49 369.854 422.234C370.368 424.403 370.882 426.572 371.338 428.684C363.404 429.712 353.3 430.339 343.482 429.027Z" fill="#5B2930"/>
<path d="M381.842 469.21H365.002C365.002 469.21 361.634 463.274 359.865 464.929C358.095 466.585 357.067 474.69 357.067 474.69C357.067 474.69 324.416 483.709 325.672 490.501C326.071 492.727 377.96 490.501 386.009 490.501C394.115 490.501 381.727 474.69 381.727 474.69C381.727 474.69 384.639 469.21 381.842 469.21Z" fill="#FFC727"/>
<path d="M378.816 211.669L341.598 250.483C341.598 250.483 271.614 261.442 262.823 260.814C254.089 260.186 240.504 258.93 234.51 266.465C234.51 266.465 259.113 268.52 264.707 271.488C270.358 274.399 271.386 271.488 271.386 271.488C271.386 271.488 348.676 292.55 365.744 285.872C382.812 279.193 407.244 239.238 407.244 239.238L378.816 211.669Z" fill="#FEA574"/>
<path d="M298.386 256.761C321.961 253.736 341.655 250.483 341.655 250.483L378.873 211.669L407.358 239.181C407.358 239.181 395.37 258.816 382.298 272.858L364.831 286.157C355.812 295.404 298.386 256.761 298.386 256.761Z" fill="#F07951"/>
<path d="M256.373 264.809C256.373 264.809 248.324 263.325 244.385 266.408" stroke="#F07951" stroke-width="2.5657" stroke-miterlimit="10" stroke-linecap="round"/>
<path d="M408.214 153.391C401.992 157.557 399.024 170.058 397.368 173.654C395.713 177.25 377.389 190.321 375.163 205.047L369.34 213.952L408.271 246.43C408.271 246.43 433.217 212.411 441.037 197.456C448.743 182.558 425.739 141.746 408.214 153.391Z" fill="#473043"/>
<path opacity="0.62" d="M408.214 153.391C401.992 157.557 399.024 170.058 397.368 173.654C395.713 177.25 377.389 190.321 375.163 205.047L369.34 213.952L408.271 246.43C408.271 246.43 433.217 212.411 441.037 197.456C448.743 182.558 425.739 141.746 408.214 153.391Z" fill="#37474F"/>
<path d="M280.405 135.639L303.181 208.986C303.181 208.986 312.6 192.89 329.268 200.938C329.268 200.938 340.913 193.689 349.019 202.935L333.663 135.924C333.663 135.924 324.873 127.02 311.801 137.009C311.801 137.009 298.729 123.709 280.405 135.639Z" fill="white"/>
<path d="M329.268 200.938L311.801 137.009" stroke="#EDDBE8" stroke-width="1.4598" stroke-miterlimit="10"/>
<path d="M382.869 105.102C383.668 108.64 381.785 111.437 378.702 112.978C377.96 113.321 377.161 114.063 377.332 114.862C377.446 115.547 378.131 116.004 378.816 116.232C379.501 116.46 380.186 116.574 380.757 116.974C381.499 117.545 381.785 118.515 381.899 119.428C382.298 121.712 382.241 124.052 382.527 126.335C382.812 128.618 383.383 130.958 384.81 132.785C387.893 136.666 392.345 134.897 396.227 133.47L409.984 164.464L438.468 139.863L420.944 122.796C420.944 122.796 431.618 103.789 424.14 94.0281C401.478 64.5181 372.88 90.3751 382.869 105.102Z" fill="#FEA574"/>
<path d="M387.036 108.869C387.207 110.182 388.064 111.152 388.92 111.038C389.776 110.924 390.347 109.782 390.176 108.469C390.005 107.156 389.148 106.186 388.292 106.3C387.436 106.414 386.865 107.556 387.036 108.869Z" fill="#5B2930"/>
<path d="M384.582 102.248C384.582 102.248 389.32 102.19 393.886 102.818" stroke="#5B2930" stroke-width="2.5657" stroke-miterlimit="10" stroke-linecap="round" stroke-linejoin="round"/>
<path d="M386.408 121.655C388.635 120.056 393.258 117.83 394.971 116.974C394.971 116.974 397.368 124.737 387.493 126.449L386.408 121.655Z" fill="white"/>
<path d="M396.227 133.413C402.163 131.472 413.865 126.107 415.692 117.145L420.202 121.883C420.202 121.883 414.55 127.591 411.24 136.781C409.299 142.203 406.445 146.541 403.59 149.909L396.227 133.413Z" fill="#F07951"/>
<path d="M438.468 131.472C438.468 131.472 415.407 144.543 404.561 167.832V173.654C404.561 173.654 396.798 185.583 394.571 196.714C392.345 207.844 382.356 215.892 385.952 224.74L427.623 252.766C427.623 252.766 432.075 265.266 438.468 272.23C438.468 272.23 435.671 281.99 440.409 292.208C444.005 299.97 472.604 304.708 472.604 304.708C472.604 304.708 515.131 328.053 533.969 320.291C552.863 312.528 540.933 254.763 522.552 222.228C504.228 189.75 481.167 141.119 444.234 136.952L438.468 131.472Z" fill="#37474F"/>
<path d="M427.622 252.88C427.622 252.88 473.175 202.935 453.082 179.019" stroke="#331F2F" stroke-width="2.5657" stroke-miterlimit="10" stroke-linecap="round"/>
<path d="M457.876 202.935C457.876 202.935 472.832 200.938 471.006 184.784" stroke="#331F2F" stroke-width="2.5657" stroke-miterlimit="10" stroke-linecap="round"/>
<path d="M404.561 173.711C404.561 173.711 414.779 154.19 430.591 152.135C446.403 150.08 458.162 164.407 458.162 164.407" stroke="#331F2F" stroke-width="2.5657" stroke-miterlimit="10" stroke-linecap="round"/>
<path d="M444.291 137.009C444.291 137.009 431.961 145.4 426.081 150.48" stroke="#331F2F" stroke-width="2.5657" stroke-miterlimit="10" stroke-linecap="round"/>
<path d="M385.152 234.443L370.653 250.483L309.688 190.036C309.688 190.036 311.173 182.958 307.69 178.962C304.208 174.967 304.208 168.574 302.781 169.03C301.297 169.544 300.155 173.597 301.525 178.962C302.039 180.903 292.164 173.711 292.164 173.711L287.711 160.697C287.711 160.697 285.999 167.375 286.455 170.8C286.969 174.282 287.94 175.309 288.453 178.962C288.967 182.615 289.709 185.127 291.422 186.325C293.134 187.581 293.134 191.234 295.874 191.976C298.614 192.718 304.265 197.456 304.265 197.456C304.265 197.456 343.767 298.829 373.108 298.829C389.148 298.829 399.766 287.47 421.229 258.359L385.152 234.443Z" fill="#FEA574"/>
<path d="M370.653 250.483C370.653 250.483 374.82 254.193 377.161 259.615" stroke="#F07951" stroke-width="2.5657" stroke-miterlimit="10" stroke-linecap="round"/>
<path d="M411.525 108.298C411.525 108.298 415.578 101.334 418.318 103.446C421.115 105.501 421.115 115.661 415.692 117.202L420.944 122.739C420.944 122.739 427.052 119.543 430.362 110.125C433.673 100.706 435.614 82.8977 419.973 84.553C419.973 84.553 409.356 68 396.912 68C390.69 68 385.267 73.8221 385.267 73.8221C385.267 73.8221 368.484 73.1371 368.998 83.126C368.998 83.126 358.837 92.1445 367.171 100.079C375.505 108.013 382.869 105.102 382.869 105.102C382.869 105.102 380.357 100.821 382.983 98.4233C385.609 96.083 397.425 97.8525 401.193 96.8821C401.25 96.8821 403.933 105.102 411.525 108.298Z" fill="#5B2930"/>
<path d="M385.952 224.797L380.186 235.813L422.199 262.412L427.622 252.88L385.952 224.797Z" fill="#6D418A"/>
<path d="M253.404 433.136C254.946 430.225 256.487 427.257 258.028 424.289C274.126 424.746 285.257 433.821 290.223 438.958C287.312 441.641 284.629 444.153 282.174 446.322C276.923 441.299 267.104 434.164 253.404 433.136Z" fill="#5B2930"/>
<path d="M214.645 266.065H193.524C191.013 266.065 188.558 264.524 187.017 261.898C182.393 254.079 179.425 243.233 179.025 231.018H229.144C228.745 243.233 225.719 254.136 221.153 261.898C219.611 264.524 217.214 266.065 214.645 266.065Z" fill="#FFC727"/>
<path d="M180.737 234.957C156.306 234.957 162.414 259.729 185.875 259.729" stroke="#FFC727" stroke-width="4.7004" stroke-miterlimit="10"/>
<path d="M392.459 435.305H578.322L574.84 422.177H395.941L392.459 435.305Z" fill="#844928"/>
<path d="M579.578 493.127H588.54L572.1 435.305H557.315L579.578 493.127Z" fill="#AD6E47"/>
<path d="M391.203 493.127H382.241L398.681 435.305H413.466L391.203 493.127Z" fill="#AD6E47"/>
<path d="M511.135 340.554C513.247 315.039 519.412 264.067 535.681 236.441C535.681 236.441 521.467 159.041 586.257 164.35C652.074 169.772 635.691 235.014 624.617 293.52C616.625 335.588 597.673 385.703 587.684 410.476C583.916 419.837 574.897 425.944 564.793 425.944H398.396C372.309 425.944 358.437 356.993 385.209 356.993C405.303 356.993 465.697 356.365 494.524 356.079C503.201 355.965 510.393 349.287 511.135 340.554Z" fill="#FFC727"/>
<path d="M603.439 173.711C582.889 169.829 554.461 195.401 557.316 238.724C557.316 238.724 527.004 298.144 525.064 354.652C524.778 363.442 517.7 370.406 508.909 370.406H388.863" stroke="#CEA120" stroke-width="2.9197" stroke-miterlimit="10"/>
<path d="M550.466 234.957L568.276 246.487" stroke="#CEA120" stroke-width="2.9197" stroke-miterlimit="10"/>
<path d="M507.025 358.819L515.816 379.368" stroke="#CEA120" stroke-width="2.9197" stroke-miterlimit="10"/>
<path d="M515.816 356.193L530.144 366.354" stroke="#CEA120" stroke-width="2.9197" stroke-miterlimit="10"/>
</svg>
