<svg width="1600" height="711" viewBox="0 0 1600 711" fill="none" xmlns="http://www.w3.org/2000/svg">
<g className="clouds">
<path d="M1335.27 54.7788C1335.1 53.6376 1334.94 52.4964 1334.94 51.2736C1334.94 38.9647 1344.89 29.0197 1357.2 29.0197C1359.48 29.0197 1361.6 29.3458 1363.64 29.9979C1364.86 13.2056 1378.8 0 1395.92 0C1412.87 0 1426.81 13.1241 1428.12 29.7534C1429.91 29.2643 1431.79 29.0197 1433.74 29.0197C1446.05 29.0197 1456 38.9647 1456 51.2736C1456 52.4964 1455.92 53.6376 1455.67 54.7788H1335.27Z" fill="white" fill-opacity="0.2"/>
<path d="M590.245 53.3448C590.082 52.4481 590 51.4699 590 50.4917C590 40.5467 598.071 32.4766 608.016 32.4766C609.81 32.4766 611.603 32.7212 613.234 33.2918C614.212 19.7601 625.544 9 639.321 9C653.098 9 664.348 19.5971 665.408 33.1288C666.875 32.7212 668.342 32.5582 669.973 32.5582C679.919 32.5582 687.989 40.6283 687.989 50.5732C687.989 51.5514 687.908 52.5296 687.745 53.4263H590.245V53.3448Z" fill="white" fill-opacity="0.2"/>
<path d="M50.4293 86.8569C50.1431 85.2826 50 83.5651 50 81.8477C50 64.3871 64.1664 50.2183 81.624 50.2183C84.7721 50.2183 87.9201 50.6477 90.782 51.6495C92.4992 27.8917 112.389 9 136.572 9C160.755 9 180.503 27.6055 182.363 51.3633C184.939 50.6477 187.514 50.3615 190.376 50.3615C207.834 50.3615 222 64.5303 222 81.9908C222 83.7083 221.857 85.4257 221.571 87H50.4293V86.8569Z" fill="white" fill-opacity="0.2"/>
<path d="M814.245 132.823C814.082 132.008 814 131.193 814 130.378C814 121.9 820.848 115.053 829.326 115.053C830.875 115.053 832.342 115.298 833.81 115.705C834.625 104.13 844.245 95 856.065 95C867.804 95 877.424 104.048 878.321 115.542C879.543 115.216 880.848 115.053 882.152 115.053C890.63 115.053 897.478 121.9 897.478 130.378C897.478 131.193 897.397 132.008 897.234 132.823H814.245Z" fill="white" fill-opacity="0.2"/>
</g>
<g className="others">
<path d="M223.447 630.836L0 643V398.982C13.6841 395.345 29.3955 400.234 38.8461 410.907C49.3999 422.862 51.9936 440.899 46.2397 455.775C68.3311 445.55 96.3552 451.005 114.273 467.462C117.224 470.175 119.997 473.126 122.322 476.406C128.642 485.379 131.326 496.828 129.626 507.65C143.996 510.184 156.845 517.071 164.805 529.294C172.736 541.517 175.359 557.079 171.871 571.211C177.267 567.752 184.542 572.165 189.878 575.742C199.359 582.063 208.422 589.307 214.951 598.638C221.51 607.97 225.296 619.597 223.447 630.836Z" fill="white" fill-opacity="0.2"/>
<path d="M1770.88 587.906V581.526C1729.18 571.3 1621.64 536.24 1573.31 439.021V410.281L1563.27 387.742V378.769H1557.01V387.742H1551.79L1537.06 349.85H1536.05L1535.03 326H1534.62L1533.6 349.85H1532.59L1517.86 387.742H1512.64V378.769H1506.38V387.742L1496.34 410.281V430.434H1251.07V410.281L1241.02 387.742V378.769H1234.76V387.742H1229.54L1214.81 349.85H1213.8L1212.79 326H1212.37L1211.36 349.85H1210.34L1195.61 387.742H1190.4V378.769H1184.14V387.742L1174.09 410.281V439.021C1123.53 540.682 1008.24 574.401 971.213 582.778V558.779L917.252 521.185V583.315H829.781V630.359H607.109V584.507H607.556V582.241H607.109V578.247H607.377V575.802C593.574 566.023 581.798 575.802 581.798 575.802V578.247H582.096V582.241H581.619V584.507H582.096V630.359H569.425V556.722H551.538V485.171H542.326V456.55H505.537V485.171H496.324V556.722H478.437V630.359H0V734.138H1770.88V630.359H1580.35V610.236H1573.31V602.484H1770.88V593.511C1762.27 591.901 1737.25 586.505 1706.64 574.162V566.083C1732.9 577.68 1756.22 584.358 1770.88 587.906ZM587.045 615.632H584.034V611.19H587.045V615.632ZM587.045 609.669H584.034V605.257H587.045V609.669ZM587.045 603.737H584.034V599.324H587.045V603.737ZM587.045 597.804H584.034V593.362H587.045V597.804ZM587.045 591.871H584.034V587.429H587.045V591.871ZM601.355 615.632H587.85V611.19H601.355V615.632ZM601.355 609.669H587.85V605.257H601.355V609.669ZM601.355 603.737H587.85V599.324H601.355V603.737ZM601.355 597.804H587.85V593.362H601.355V597.804ZM601.355 591.871H587.85V587.429H601.355V591.871ZM605.141 615.632H602.13V611.19H605.141V615.632ZM605.141 609.669H602.13V605.257H605.141V609.669ZM605.141 603.737H602.13V599.324H605.141V603.737ZM605.141 597.804H602.13V593.362H605.141V597.804ZM605.141 591.871H602.13V587.429H605.141V591.871ZM1107.43 527.296C1123.8 514.864 1139.54 500.137 1153.4 482.786V498.438C1139.24 514.179 1123.53 527.445 1107.43 538.625V527.296ZM1153.4 507.53V594.226H1132.74V526.998C1139.86 520.976 1146.78 514.507 1153.4 507.53ZM1107.43 546.079C1113.87 541.756 1120.25 537.105 1126.54 532.096V594.226H1107.43V546.079ZM1046.97 563.28C1064.53 555.142 1083.16 544.826 1101.23 531.858V542.799C1082.83 554.903 1064.17 564.324 1046.97 571.598V563.28ZM1101.23 550.163V594.226H1071.77V566.888C1081.46 561.999 1091.36 556.453 1101.23 550.163ZM1046.97 578.276C1053.02 575.772 1059.22 573.029 1065.57 569.959V594.226H1046.97V578.276ZM971.213 589.128C985.106 586.028 1011.07 579.201 1040.77 566.083V574.162C1003.11 589.337 974.016 593.988 973.33 594.077V594.226H971.213V589.128ZM1040.77 580.81V594.226H1000.52C1011.58 591.215 1025.41 586.862 1040.77 580.81ZM1174.09 610.236H1167.05V630.359H971.213V602.484H1174.09V610.236ZM1174.09 513.642H1171.73V518.859H1174.09V521.304H1171.73V526.551H1174.09V560.657H1171.73V565.874H1174.09V568.319H1171.73V573.566H1174.09V594.226H1159.6V500.763C1164.67 495.069 1169.5 489.017 1174.09 482.667V513.642ZM1174.09 466.597H1171.73V471.844H1174.09C1173.52 472.679 1172.96 473.484 1172.42 474.289H1171.73V475.273C1167.89 480.848 1163.83 486.184 1159.6 491.282V474.677C1164.79 467.611 1169.62 460.128 1174.09 452.228V466.597ZM1496.34 453.688H1489.06L1496.34 446.414V453.688ZM1496.34 433.207V439.259L1490.28 433.207H1496.34ZM1487.54 433.207L1496.34 442.002V443.701L1487.36 452.675L1477.52 442.837L1487.18 433.207H1487.54ZM1485.63 453.688H1467L1466.85 453.539L1476.15 444.208L1485.63 453.688ZM1484.44 433.207L1476.15 441.465L1467.9 433.207H1484.44ZM1474.78 442.837L1465.48 452.168L1456.15 442.837L1465.48 433.535L1474.78 442.837ZM1464.11 453.539L1463.93 453.688H1445.63L1445.45 453.539L1454.78 444.208L1464.11 453.539ZM1463.07 433.207L1454.78 441.465L1446.49 433.207H1463.07ZM1453.41 442.837L1444.07 452.168L1434.77 442.837L1444.07 433.535L1453.41 442.837ZM1442.73 453.539L1442.55 453.688H1424.25L1424.07 453.539L1433.4 444.208L1442.73 453.539ZM1441.69 433.207L1433.4 441.465L1425.11 433.207H1441.69ZM1432.03 442.837L1422.7 452.168L1413.4 442.837L1422.7 433.535L1432.03 442.837ZM1421.33 453.539L1421.18 453.688H1402.84L1402.69 453.539L1412.03 444.208L1421.33 453.539ZM1420.28 433.207L1412.03 441.465L1403.74 433.207H1420.28ZM1410.65 442.837L1401.32 452.168L1392.02 442.837L1401.32 433.535L1410.65 442.837ZM1399.95 453.539L1399.8 453.688H1381.47L1381.32 453.539L1390.65 444.208L1399.95 453.539ZM1398.91 433.207L1390.65 441.465L1382.36 433.207H1398.91ZM1389.28 442.837L1379.95 452.168L1370.62 442.837L1379.95 433.535L1389.28 442.837ZM1378.58 453.539L1378.43 453.688H1360.09L1359.94 453.539L1369.27 444.208L1378.58 453.539ZM1377.53 433.207L1369.27 441.465L1360.99 433.207H1377.53ZM1367.9 442.837L1358.57 452.168L1349.24 442.837L1358.57 433.535L1367.9 442.837ZM1357.2 453.539L1357.05 453.688H1338.72L1338.57 453.539L1347.87 444.208L1357.2 453.539ZM1356.16 433.207L1347.87 441.465L1339.61 433.207H1356.16ZM1346.5 442.837L1337.2 452.168L1327.86 442.837L1337.2 433.535L1346.5 442.837ZM1335.82 453.539L1335.68 453.688H1317.34L1317.19 453.539L1326.49 444.208L1335.82 453.539ZM1334.78 433.207L1326.49 441.465L1318.23 433.207H1334.78ZM1325.12 442.837L1315.82 452.168L1306.49 442.837L1315.82 433.535L1325.12 442.837ZM1314.45 453.539L1314.27 453.688H1295.96L1295.82 453.539L1305.12 444.208L1314.45 453.539ZM1313.41 433.207L1305.12 441.465L1296.86 433.207H1313.41ZM1303.75 442.837L1294.44 452.168L1285.11 442.837L1294.44 433.535L1303.75 442.837ZM1293.07 453.539L1292.89 453.688H1274.59L1274.41 453.539L1283.74 444.208L1293.07 453.539ZM1292.03 433.207L1283.74 441.465L1275.45 433.207H1292.03ZM1282.37 442.837L1273.04 452.168L1263.74 442.837L1273.04 433.535L1282.37 442.837ZM1271.7 453.539L1271.52 453.688H1252.89L1262.37 444.208L1271.7 453.539ZM1270.65 433.207L1262.37 441.465L1254.08 433.207H1270.65ZM1251.07 433.207H1251.33L1260.99 442.837L1251.07 452.764V433.207ZM1251.07 573.566H1253.42V568.319H1251.07V565.874H1253.42V560.657H1251.07V526.551H1253.42V521.304H1251.07V518.859H1253.42V513.642H1251.07V479.536H1253.42V474.289H1251.07V471.844H1253.42V466.597H1251.07V460.933H1496.34V466.597H1493.98V471.844H1496.34V474.289H1493.98V479.536H1496.34V513.642H1493.98V518.859H1496.34V521.304H1493.98V526.551H1496.34V560.657H1493.98V565.874H1496.34V568.319H1493.98V573.566H1496.34V594.226H1251.07V573.566ZM1496.34 602.484V610.236H1489.3V630.359H1471.06L1399.15 602.484H1496.34ZM1258.1 630.359V610.236H1251.07V602.484H1338.78L1337.46 602.991L1266.9 630.359H1258.1ZM1289.76 630.359L1334.16 613.157L1361.64 602.484H1376.28L1448.16 630.359H1289.76ZM1587.8 594.226H1573.31V573.566H1575.67V568.319H1573.31V565.874H1575.67V560.657H1573.31V526.551H1575.67V521.304H1573.31V518.859H1575.67V513.642H1573.31V482.667C1577.9 489.017 1582.76 495.069 1587.8 500.763V594.226ZM1587.8 491.282C1583.57 486.184 1579.51 480.848 1575.67 475.273V474.289H1575.01C1574.45 473.484 1573.88 472.679 1573.34 471.844H1575.67V466.597H1573.31V452.228C1577.79 460.128 1582.65 467.611 1587.8 474.677V491.282ZM1614.66 594.226H1594V507.53C1600.62 514.507 1607.57 520.976 1614.66 526.998V594.226ZM1639.98 594.226H1620.87V532.096C1627.16 537.105 1633.54 541.756 1639.98 546.079V594.226ZM1639.98 538.625C1623.91 527.445 1608.16 514.179 1594 498.438V482.786C1607.87 500.167 1623.61 514.864 1639.98 527.296V538.625ZM1675.63 594.226H1646.18V550.163C1656.04 556.453 1665.94 561.999 1675.63 566.888V594.226ZM1700.44 594.226H1681.83V569.959C1688.18 573.029 1694.41 575.772 1700.44 578.276V594.226ZM1700.44 571.598C1683.26 564.324 1664.6 554.903 1646.18 542.799V531.858C1664.24 544.826 1682.88 555.142 1700.44 563.28V571.598ZM1746.88 594.226H1706.64V580.81C1721.99 586.862 1735.85 591.215 1746.88 594.226Z" fill="#DCC2FF" fill-opacity="0.3"/>
<path d="M1194 388.249L1202.62 403.245L1204.35 387.564H1220.03L1201.25 385.656L1202.02 400.651L1194 388.249Z" fill="#DCC2FF" fill-opacity="0.3"/>
<path d="M1232.05 388.249L1223.43 403.245L1221.7 387.564H1206.02L1224.8 385.656L1224.03 400.651L1232.05 388.249Z" fill="#DCC2FF" fill-opacity="0.3"/>
<path d="M1174 479.536H1240.13L1174.09 481.414L1174 479.536Z" fill="#DCC2FF" fill-opacity="0.3"/>
<path d="M1174 464.54L1240.13 466.538L1174.09 466.448L1174 464.54Z" fill="#DCC2FF" fill-opacity="0.3"/>
<path d="M1174.09 526.521H1240.12L1174.09 528.429V526.521Z" fill="#DCC2FF" fill-opacity="0.3"/>
<path d="M1174.09 573.566H1240.12L1174.09 575.444V573.566Z" fill="#DCC2FF" fill-opacity="0.3"/>
<path d="M1195.32 427.095V420.06C1195.32 418.897 1196.27 417.943 1197.43 417.943H1202.14L1196.99 420L1195.32 427.095Z" fill="#DCC2FF" fill-opacity="0.3"/>
<path d="M1209.78 427.095V420.06C1209.78 418.897 1210.73 417.943 1211.89 417.943H1216.6L1211.44 420L1209.78 427.095Z" fill="#DCC2FF" fill-opacity="0.3"/>
<path d="M1224.23 427.095V420.06C1224.23 418.897 1225.19 417.943 1226.35 417.943H1231.06L1225.9 420L1224.23 427.095Z" fill="#DCC2FF" fill-opacity="0.3"/>
<path d="M1186.82 504.669V486.751H1198.36L1189.41 490.388L1186.82 504.669Z" fill="#DCC2FF" fill-opacity="0.3"/>
<path d="M1204.92 504.669V486.751H1216.45L1207.48 490.388L1204.92 504.669Z" fill="#DCC2FF" fill-opacity="0.3"/>
<path d="M1222.98 504.669V486.751H1234.52L1225.58 490.388L1222.98 504.669Z" fill="#DCC2FF" fill-opacity="0.3"/>
<path d="M1186.82 552.906V534.988H1198.36L1189.41 538.595L1186.82 552.906Z" fill="#DCC2FF" fill-opacity="0.3"/>
<path d="M1204.92 552.905V534.988H1216.45L1207.48 538.595L1204.92 552.905Z" fill="#DCC2FF" fill-opacity="0.3"/>
<path d="M1222.98 552.905V534.988H1234.52L1225.58 538.595L1222.98 552.905Z" fill="#DCC2FF" fill-opacity="0.3"/>
<path d="M1173.05 621.922V624.755L1250.56 621.922H1173.05Z" fill="#DCC2FF" fill-opacity="0.3"/>
<path d="M1173.05 636.382V639.244L1250.56 636.382H1173.05Z" fill="#DCC2FF" fill-opacity="0.3"/>
<path d="M1516.31 388.249L1524.93 403.245L1526.66 387.564H1542.34L1523.56 385.656L1524.33 400.651L1516.31 388.249Z" fill="#DCC2FF" fill-opacity="0.3"/>
<path d="M1554.35 388.249L1545.74 403.245L1544.01 387.564H1528.33L1547.11 385.656L1546.33 400.651L1554.35 388.249Z" fill="#DCC2FF" fill-opacity="0.3"/>
<path d="M1496.31 479.536H1562.43L1496.4 481.414L1496.31 479.536Z" fill="#DCC2FF" fill-opacity="0.3"/>
<path d="M1496.31 464.54L1562.43 466.538L1496.34 466.597L1496.31 464.54Z" fill="#DCC2FF" fill-opacity="0.3"/>
<path d="M1496.4 526.521H1562.43L1496.4 528.429V526.521Z" fill="#DCC2FF" fill-opacity="0.3"/>
<path d="M1496.4 573.566H1562.43L1496.4 575.444V573.566Z" fill="#DCC2FF" fill-opacity="0.3"/>
<path d="M1517.62 427.095V420.06C1517.62 418.897 1518.58 417.943 1519.74 417.943H1524.45L1519.29 420L1517.62 427.095Z" fill="#DCC2FF" fill-opacity="0.3"/>
<path d="M1532.08 427.095V420.06C1532.08 418.897 1533.04 417.943 1534.2 417.943H1538.91L1533.75 420L1532.08 427.095Z" fill="#DCC2FF" fill-opacity="0.3"/>
<path d="M1546.54 427.095V420.06C1546.54 418.897 1547.5 417.943 1548.66 417.943H1553.37L1548.21 420L1546.54 427.095Z" fill="#DCC2FF" fill-opacity="0.3"/>
<path d="M1509.13 504.669V486.751H1520.66L1511.72 490.388L1509.13 504.669Z" fill="#DCC2FF" fill-opacity="0.3"/>
<path d="M1527.22 504.669V486.751H1538.76L1529.79 490.388L1527.22 504.669Z" fill="#DCC2FF" fill-opacity="0.3"/>
<path d="M1545.29 504.669V486.751H1556.83L1547.88 490.388L1545.29 504.669Z" fill="#DCC2FF" fill-opacity="0.3"/>
<path d="M1509.13 552.906V534.988H1520.66L1511.72 538.595L1509.13 552.906Z" fill="#DCC2FF" fill-opacity="0.3"/>
<path d="M1527.22 552.906V534.988H1538.76L1529.79 538.595L1527.22 552.906Z" fill="#DCC2FF" fill-opacity="0.3"/>
<path d="M1545.29 552.906V534.988H1556.83L1547.88 538.595L1545.29 552.906Z" fill="#DCC2FF" fill-opacity="0.3"/>
<path d="M1495.35 621.922V624.755L1572.87 621.922H1495.35Z" fill="#DCC2FF" fill-opacity="0.3"/>
<path d="M1495.35 636.382V639.244L1572.87 636.382H1495.35Z" fill="#DCC2FF" fill-opacity="0.3"/>
</g>
<g opacity="0.3" className="time">
<path d="M806.997 183.504H723.866V203.946H806.997V183.504Z" fill="#EDDAE8"/>
<path d="M798.734 187.35H792.394V199.317H798.734V187.35Z" fill="#E0C7DB"/>
<path d="M786.695 187.35H780.355V199.317H786.695V187.35Z" fill="#E0C7DB"/>
<path d="M774.656 187.35H768.317V199.317H774.656V187.35Z" fill="#E0C7DB"/>
<path d="M762.547 187.35H756.207V199.317H762.547V187.35Z" fill="#E0C7DB"/>
<path d="M750.508 187.35H744.168V199.317H750.508V187.35Z" fill="#E0C7DB"/>
<path d="M738.398 187.35H732.058V199.317H738.398V187.35Z" fill="#E0C7DB"/>
<path d="M806.997 176.951H723.866V183.504H806.997V176.951Z" fill="#E0C7DB"/>
<path opacity="0.3" d="M806.997 176.951H723.866V183.504H806.997V176.951Z" fill="#E0C7DB"/>
<path d="M738.042 147.248H765.467H792.892C793.605 165.696 807.068 176.951 807.068 176.951H765.538H724.009C723.866 176.951 737.329 165.768 738.042 147.248Z" fill="#E0C7DB"/>
<path d="M792.821 141.977H738.042V147.248H792.821V141.977Z" fill="#E0C7DB"/>
<path opacity="0.3" d="M792.821 141.977H738.042V147.248H792.821V141.977Z" fill="#E0C7DB"/>
<path d="M792.821 110.992H738.042V141.977H792.821V110.992Z" fill="#EDDAE8"/>
<path opacity="0.2" d="M785.057 115.907H780.426V136.35H785.057V115.907Z" fill="#EDDAE8"/>
<path opacity="0.2" d="M778.147 115.907H773.517V136.35H778.147V115.907Z" fill="#EDDAE8"/>
<path opacity="0.2" d="M771.237 115.907H766.607V136.35H771.237V115.907Z" fill="#EDDAE8"/>
<path opacity="0.2" d="M764.256 115.907H759.626V136.35H764.256V115.907Z" fill="#EDDAE8"/>
<path opacity="0.2" d="M757.346 115.907H752.716V136.35H757.346V115.907Z" fill="#EDDAE8"/>
<path opacity="0.2" d="M750.437 115.907H745.806V136.35H750.437V115.907Z" fill="#EDDAE8"/>
<path d="M792.821 105.721H738.042V110.992H792.821V105.721Z" fill="#E0C7DB"/>
<path opacity="0.3" d="M792.821 105.721H738.042V110.992H792.821V105.721Z" fill="#E0C7DB"/>
<path d="M765.396 6C765.396 59.8494 792.821 105.721 792.821 105.721H765.396H737.971C738.042 105.721 765.396 59.8494 765.396 6Z" fill="#E0C7DB"/>
<path d="M810.06 315.42H720.803V324.324H810.06V315.42Z" fill="#E0C7DB"/>
<path d="M820.887 203.946H710.047V315.42H820.887V203.946Z" fill="#EDDAE8"/>
<path opacity="0.2" d="M817.753 208.576H813.123V311.432H817.753V208.576Z" fill="#EDDAE8"/>
<path opacity="0.2" d="M809.205 208.576H804.575V311.432H809.205V208.576Z" fill="#EDDAE8"/>
<path opacity="0.2" d="M799.446 208.576H794.816V311.432H799.446V208.576Z" fill="#EDDAE8"/>
<path opacity="0.2" d="M790.898 208.576H786.268V311.432H790.898V208.576Z" fill="#EDDAE8"/>
<path opacity="0.2" d="M781.139 208.576H776.509V311.432H781.139V208.576Z" fill="#EDDAE8"/>
<path opacity="0.2" d="M772.52 208.576H767.889V311.432H772.52V208.576Z" fill="#EDDAE8"/>
<path opacity="0.2" d="M762.76 208.576H758.13V311.432H762.76V208.576Z" fill="#EDDAE8"/>
<path opacity="0.2" d="M754.212 208.576H749.582V311.432H754.212V208.576Z" fill="#EDDAE8"/>
<path opacity="0.2" d="M744.453 208.576H739.823V311.432H744.453V208.576Z" fill="#EDDAE8"/>
<path opacity="0.2" d="M735.834 208.576H731.204V311.432H735.834V208.576Z" fill="#EDDAE8"/>
<path opacity="0.2" d="M726.075 208.576H721.444V311.432H726.075V208.576Z" fill="#EDDAE8"/>
<path opacity="0.2" d="M717.526 208.576H712.896V311.432H717.526V208.576Z" fill="#EDDAE8"/>
<path d="M797.238 288.638H789.758V309.081H797.238V288.638Z" fill="#E0C7DB"/>
<path d="M786.054 288.638H778.574V309.081H786.054V288.638Z" fill="#E0C7DB"/>
<path d="M774.799 288.638H767.319V309.081H774.799V288.638Z" fill="#E0C7DB"/>
<path d="M763.544 288.638H756.064V309.081H763.544V288.638Z" fill="#E0C7DB"/>
<path d="M752.289 288.638H744.809V309.081H752.289V288.638Z" fill="#E0C7DB"/>
<path d="M741.034 288.638H733.554V309.081H741.034V288.638Z" fill="#E0C7DB"/>
<path d="M799.517 214.132H731.275V282.797H799.517V214.132Z" fill="#E0C7DB"/>
<path d="M744.881 247.468C744.881 258.793 754.141 267.982 765.467 267.982C776.794 267.982 785.983 258.722 785.983 247.396C785.983 236.071 776.722 226.882 765.396 226.882C753.999 226.882 744.881 236.071 744.881 247.468Z" fill="#F4F4F4"/>
<path d="M741.533 247.468C741.533 260.645 752.289 271.329 765.467 271.258C778.646 271.258 789.331 260.503 789.26 247.325C789.26 234.148 778.503 223.463 765.325 223.535C752.147 223.535 741.533 234.29 741.533 247.468ZM744.881 247.468C744.881 236.142 753.999 226.882 765.396 226.882C776.722 226.882 785.983 236 785.983 247.396C785.983 258.722 776.865 267.982 765.467 267.982C754.141 267.982 744.881 258.793 744.881 247.468Z" fill="#EDDAE8"/>
<path d="M762.547 247.396C762.547 248.963 763.829 250.317 765.468 250.246C767.035 250.246 768.388 248.963 768.388 247.325C768.388 245.758 767.106 244.405 765.468 244.476C763.829 244.476 762.547 245.829 762.547 247.396Z" fill="#EDDAE8"/>
<path d="M776.509 237.638C772.306 246.399 765.467 248.678 765.467 248.678C765.467 248.678 767.747 241.84 776.509 237.638Z" fill="#EDDAE8"/>
<path d="M746.234 247.681C757.418 245.26 765.254 247.681 765.254 247.681C765.254 247.681 757.418 250.103 746.234 247.681Z" fill="#EDDAE8"/>
<path d="M810.06 412.364H720.803V421.267H810.06V412.364Z" fill="#E0C7DB"/>
<path d="M820.887 324.324H710.047V412.364H820.887V324.324Z" fill="#EDDAE8"/>
<path opacity="0.2" d="M817.753 328.883H813.123V408.375H817.753V328.883Z" fill="#EDDAE8"/>
<path opacity="0.2" d="M809.205 328.883H804.575V408.375H809.205V328.883Z" fill="#EDDAE8"/>
<path opacity="0.2" d="M799.446 328.883H794.816V408.375H799.446V328.883Z" fill="#EDDAE8"/>
<path opacity="0.2" d="M790.898 328.883H786.268V408.375H790.898V328.883Z" fill="#EDDAE8"/>
<path opacity="0.2" d="M781.139 328.883H776.509V408.375H781.139V328.883Z" fill="#EDDAE8"/>
<path opacity="0.2" d="M772.52 328.883H767.889V408.375H772.52V328.883Z" fill="#EDDAE8"/>
<path opacity="0.2" d="M762.76 328.883H758.13V408.375H762.76V328.883Z" fill="#EDDAE8"/>
<path opacity="0.2" d="M754.212 328.883H749.582V408.375H754.212V328.883Z" fill="#EDDAE8"/>
<path opacity="0.2" d="M744.453 328.883H739.823V408.375H744.453V328.883Z" fill="#EDDAE8"/>
<path opacity="0.2" d="M735.834 328.883H731.204V408.375H735.834V328.883Z" fill="#EDDAE8"/>
<path opacity="0.2" d="M726.075 328.883H721.444V408.375H726.075V328.883Z" fill="#EDDAE8"/>
<path opacity="0.2" d="M717.526 328.883H712.896V408.375H717.526V328.883Z" fill="#EDDAE8"/>
<path d="M797.238 334.083H789.758V401.465H797.238V334.083Z" fill="#E0C7DB"/>
<path d="M786.054 334.083H778.574V401.465H786.054V334.083Z" fill="#E0C7DB"/>
<path d="M774.799 334.083H767.319V401.465H774.799V334.083Z" fill="#E0C7DB"/>
<path d="M763.544 334.083H756.064V401.465H763.544V334.083Z" fill="#E0C7DB"/>
<path d="M752.289 334.083H744.809V401.465H752.289V334.083Z" fill="#E0C7DB"/>
<path d="M741.034 334.082H733.554V401.465H741.034V334.082Z" fill="#E0C7DB"/>
<path d="M829.792 621.208H701V630.112H829.792V621.208Z" fill="#E0C7DB"/>
<path d="M820.887 421.267H710.047V621.208H820.887V421.267Z" fill="#EDDAE8"/>
<path opacity="0.2" d="M817.753 425.897H813.123V617.291H817.753V425.897Z" fill="#EDDAE8"/>
<path opacity="0.2" d="M809.205 425.897H804.575V617.291H809.205V425.897Z" fill="#EDDAE8"/>
<path opacity="0.2" d="M799.446 425.897H794.816V617.291H799.446V425.897Z" fill="#EDDAE8"/>
<path opacity="0.2" d="M790.898 425.897H786.268V617.291H790.898V425.897Z" fill="#EDDAE8"/>
<path opacity="0.2" d="M781.139 425.897H776.509V617.291H781.139V425.897Z" fill="#EDDAE8"/>
<path opacity="0.2" d="M772.519 425.897H767.889V617.291H772.519V425.897Z" fill="#EDDAE8"/>
<path opacity="0.2" d="M762.76 425.897H758.13V617.291H762.76V425.897Z" fill="#EDDAE8"/>
<path opacity="0.2" d="M754.212 425.897H749.582V617.291H754.212V425.897Z" fill="#EDDAE8"/>
<path opacity="0.2" d="M744.453 425.897H739.823V617.291H744.453V425.897Z" fill="#EDDAE8"/>
<path opacity="0.2" d="M735.834 425.897H731.204V617.291H735.834V425.897Z" fill="#EDDAE8"/>
<path opacity="0.2" d="M726.074 425.897H721.444V617.291H726.074V425.897Z" fill="#EDDAE8"/>
<path opacity="0.2" d="M717.526 425.897H712.896V617.291H717.526V425.897Z" fill="#EDDAE8"/>
<path d="M797.238 431.097H789.758V610.381H797.238V431.097Z" fill="#E0C7DB"/>
<path d="M786.054 431.097H778.574V610.381H786.054V431.097Z" fill="#E0C7DB"/>
<path d="M774.799 431.097H767.319V610.381H774.799V431.097Z" fill="#E0C7DB"/>
<path d="M763.544 431.097H756.064V610.381H763.544V431.097Z" fill="#E0C7DB"/>
<path d="M752.289 431.097H744.809V610.381H752.289V431.097Z" fill="#E0C7DB"/>
<path d="M741.034 431.097H733.554V610.381H741.034V431.097Z" fill="#E0C7DB"/>
</g>
</svg>
