<svg width="24" height="24" viewBox="0 0 24 24" fill="none" xmlns="http://www.w3.org/2000/svg">
<path d="M18.0916 2.56214C18.0916 2.41489 18.0331 2.27367 17.929 2.16955C17.8249 2.06543 17.6837 2.00693 17.5364 2.00693H14.7603C13.3625 1.9373 11.9938 2.42378 10.9535 3.36007C9.91317 4.29637 9.28571 5.60637 9.20822 7.00384V10.002H6.43216C6.28491 10.002 6.14369 10.0605 6.03957 10.1646C5.93545 10.2687 5.87695 10.4099 5.87695 10.5572V13.4443C5.87695 13.5915 5.93545 13.7328 6.03957 13.8369C6.14369 13.941 6.28491 13.9995 6.43216 13.9995H9.20822V21.4393C9.20822 21.5866 9.26672 21.7278 9.37084 21.8319C9.47496 21.9361 9.61618 21.9946 9.76344 21.9946H13.0947C13.242 21.9946 13.3832 21.9361 13.4873 21.8319C13.5914 21.7278 13.6499 21.5866 13.6499 21.4393V13.9995H16.5592C16.6827 14.0013 16.8032 13.9618 16.9018 13.8874C17.0003 13.813 17.0712 13.7079 17.1033 13.5887L17.9028 10.7015C17.9249 10.6195 17.9279 10.5335 17.9115 10.4501C17.8951 10.3668 17.8598 10.2883 17.8084 10.2207C17.7569 10.1531 17.6906 10.0983 17.6145 10.0603C17.5385 10.0224 17.4548 10.0025 17.3698 10.002H13.6499V7.00384C13.6775 6.72898 13.8066 6.47429 14.0119 6.2895C14.2173 6.1047 14.4841 6.00307 14.7603 6.00446H17.5364C17.6837 6.00446 17.8249 5.94596 17.929 5.84184C18.0331 5.73772 18.0916 5.5965 18.0916 5.44925V2.56214Z" fill="white"/>
</svg>
