<svg width="32" height="32" viewBox="0 0 32 32" fill="none" xmlns="http://www.w3.org/2000/svg">
<path fill-rule="evenodd" clip-rule="evenodd" d="M6.35 30C5.19631 30 4.08987 29.5409 3.27409 28.7236C2.4583 27.9064 2 26.798 2 25.6422V14.5095C1.99996 13.8986 2.12812 13.2945 2.37617 12.7365C2.62422 12.1784 2.98662 11.6789 3.43985 11.2702L13.5899 2.11881C14.3886 1.39855 15.4253 1 16.5 1C17.5747 1 18.6114 1.39855 19.4102 2.11881L29.5602 11.2702C30.0134 11.6789 30.3758 12.1784 30.6238 12.7365C30.8719 13.2945 31 13.8986 31 14.5095V25.6422C31 26.798 30.5417 27.9064 29.7259 28.7236C28.9101 29.5409 27.8037 30 26.65 30H6.35ZM28.825 14.5095V25.6422C28.825 26.2201 28.5958 26.7743 28.188 27.1829C27.7801 27.5915 27.2268 27.8211 26.65 27.8211H22.3V19.8318C22.3 18.676 21.8417 17.5676 21.0259 16.7504C20.2101 15.9331 19.1037 15.474 17.95 15.474H15.05C13.8963 15.474 12.7899 15.9331 11.9741 16.7504C11.1583 17.5676 10.7 18.676 10.7 19.8318V27.8211H6.35C5.77315 27.8211 5.21993 27.5915 4.81204 27.1829C4.40415 26.7743 4.175 26.2201 4.175 25.6422V14.5095C4.175 13.8921 4.436 13.3038 4.89565 12.8898L15.0457 3.73846C15.445 3.37873 15.963 3.17971 16.5 3.17971C17.037 3.17971 17.555 3.37873 17.9544 3.73846L28.1044 12.8898C28.3311 13.0941 28.5124 13.3439 28.6366 13.6229C28.7607 13.9019 28.8249 14.204 28.825 14.5095ZM12.875 27.8211V19.8318C12.875 19.2539 13.1042 18.6997 13.512 18.2911C13.9199 17.8825 14.4732 17.6529 15.05 17.6529H17.95C18.5268 17.6529 19.0801 17.8825 19.488 18.2911C19.8958 18.6997 20.125 19.2539 20.125 19.8318V27.8211H12.875Z" fill="white"/>
</svg>
