<svg width="80" height="105" viewBox="0 0 80 105" fill="none" xmlns="http://www.w3.org/2000/svg">
<path d="M10 105C7.25 105 4.89667 104.022 2.94 102.065C0.979999 100.105 0 97.75 0 95V45C0 42.25 0.979999 39.895 2.94 37.935C4.89667 35.9783 7.25 35 10 35H15V25C15 18.0833 17.4383 12.1867 22.315 7.31C27.1883 2.43667 33.0833 0 40 0C46.9167 0 52.8133 2.43667 57.69 7.31C62.5633 12.1867 65 18.0833 65 25V35H70C72.75 35 75.105 35.9783 77.065 37.935C79.0217 39.895 80 42.25 80 45V95C80 97.75 79.0217 100.105 77.065 102.065C75.105 104.022 72.75 105 70 105H10ZM40 80C42.75 80 45.105 79.0217 47.065 77.065C49.0217 75.105 50 72.75 50 70C50 67.25 49.0217 64.895 47.065 62.935C45.105 60.9783 42.75 60 40 60C37.25 60 34.8967 60.9783 32.94 62.935C30.98 64.895 30 67.25 30 70C30 72.75 30.98 75.105 32.94 77.065C34.8967 79.0217 37.25 80 40 80ZM25 35H55V25C55 20.8333 53.5417 17.2917 50.625 14.375C47.7083 11.4583 44.1667 10 40 10C35.8333 10 32.2917 11.4583 29.375 14.375C26.4583 17.2917 25 20.8333 25 25V35Z" fill="#EFBE00"/>
</svg>
