<svg width="48" height="48" viewBox="0 0 48 48" fill="none" xmlns="http://www.w3.org/2000/svg">
<g clip-path="url(#clip0_22_22906)">
<path d="M47.2 44.2402H46.784V38.9552C46.784 38.5442 46.472 38.2002 46.063 38.1592C40.2762 37.5873 29.3984 32.6321 24.8 35.0135V39.0167C25.8862 38.4568 27.3783 38.2611 29.3066 38.4222C31.8203 38.6316 34.7827 39.403 37.6014 40.175C37.7884 40.226 37.9505 40.3431 38.0576 40.5046C38.1647 40.6661 38.2095 40.861 38.1838 41.0531C38.158 41.2452 38.0634 41.4214 37.9175 41.549C37.7716 41.6766 37.5844 41.7468 37.3906 41.7468C36.6081 41.7468 27.0167 38.2799 24.8 41.0306V43.366C24.8 43.5782 24.7157 43.7816 24.5657 43.9317C24.4157 44.0817 24.2122 44.166 24 44.166C23.7878 44.166 23.5843 44.0817 23.4343 43.9317C23.2843 43.7816 23.2 43.5782 23.2 43.366V41.0306C20.9816 38.2777 11.4028 41.7468 10.6094 41.7468C10.4156 41.7468 10.2284 41.6766 10.0825 41.549C9.9366 41.4214 9.84199 41.2452 9.81623 41.0531C9.79047 40.861 9.83531 40.6661 9.94242 40.5046C10.0495 40.3431 10.2116 40.226 10.3986 40.175C13.2174 39.4029 16.1798 38.6315 18.6934 38.4222C20.6217 38.262 22.1138 38.4575 23.2 39.0171V35.0135C18.599 32.6307 7.7415 37.5856 1.937 38.1592C1.73953 38.1789 1.55642 38.2712 1.4232 38.4183C1.28998 38.5654 1.21613 38.7567 1.216 38.9552V44.2402H0.8C0.358 44.2402 0 44.5982 0 45.0402C0 45.4822 0.358 45.8402 0.8 45.8402H20.171C20.511 46.9172 21.519 47.7002 22.706 47.7002H25.294C26.481 47.7002 27.489 46.9172 27.829 45.8402H47.2C47.642 45.8402 48 45.4822 48 45.0402C48 44.5982 47.642 44.2402 47.2 44.2402ZM26.3142 22.4962C26.1113 22.4341 25.9414 22.294 25.8418 22.1067C25.7422 21.9193 25.7211 21.7001 25.7831 21.4972C25.8451 21.2943 25.9853 21.1243 26.1726 21.0247C26.36 20.9251 26.5792 20.904 26.7821 20.9661C29.4226 21.7735 32.2306 21.2269 35.2688 19.3007C35.9932 17.7747 36.5657 16.2496 37.0608 14.6415C35.5575 15.2023 34.5601 15.3425 33.2662 15.2968C32.8246 15.2811 32.4794 14.9104 32.4952 14.4688C32.511 14.0272 32.8815 13.6847 33.3232 13.6978C34.6218 13.7446 35.6342 13.5467 37.6097 12.691C38.5401 9.04919 39.0659 5.04449 39.1111 1.10939C39.1201 0.330986 38.1178 0.000585616 37.6631 0.631386C35.0051 4.29799 11.4897 15.8082 19.0131 27.9724C18.658 29.242 18.3716 30.5299 18.1551 31.8304C18.0736 32.3164 18.4474 32.7615 18.9451 32.7615C19.3281 32.7615 19.6671 32.4844 19.7331 32.0934C21.155 23.5704 25.6861 15.8174 33.1188 10.5033C33.4837 10.2424 33.9928 10.3352 34.2448 10.7063C34.4892 11.0663 34.4 11.5541 34.0461 11.8072C28.1372 16.0334 23.9636 22.0538 22.0404 29.0519C27.2384 29.4406 31.1871 26.2462 33.8957 21.8415C31.4487 22.9258 28.8843 23.2822 26.3142 22.4962Z" fill="url(#paint0_linear_22_22906)"/>
</g>
<defs>
<linearGradient id="paint0_linear_22_22906" x1="0" y1="0.299866" x2="53.5201" y2="36.4669" gradientUnits="userSpaceOnUse">
<stop stop-color="#FF8A00"/>
<stop offset="1" stop-color="#FFD226"/>
</linearGradient>
<clipPath id="clip0_22_22906">
<rect width="48" height="48" fill="white"/>
</clipPath>
</defs>
</svg>
