<svg width="400" height="400" viewBox="0 0 400 400" fill="none" xmlns="http://www.w3.org/2000/svg">
<path d="M78.4002 301.12H50.2402V310.08H78.4002V301.12Z" fill="#EBEBEB"/>
<path d="M169.201 82.4H141.041V91.36H169.201V82.4Z" fill="#EBEBEB"/>
<path d="M62.6402 321.36L48.7202 321.6L41.6802 321.68H34.5602H34.1602V321.28V312.32V311.92H34.5602L48.6402 312L55.6802 312.08L62.7202 312.16H62.8802V312.32L62.6402 321.36ZM62.6402 321.36L62.4802 312.4L62.6402 312.56L55.6002 312.64L48.5602 312.72L34.5602 312.8L34.9602 312.4V321.36L34.5602 320.96H41.5202L48.4802 321.04L62.6402 321.36Z" fill="#EBEBEB"/>
<path d="M335.121 236.88C330.401 236.96 318.641 237.2 314.081 237.2H306.961H306.561V236.8V227.84V227.44H306.961L321.041 227.52C324.561 227.52 331.601 227.6 335.121 227.68H335.281V227.84L335.121 236.88ZM335.121 236.88L334.961 227.92L335.121 228.08C331.601 228.16 324.561 228.24 321.041 228.24L306.961 228.32L307.361 227.92V236.88L306.961 236.48H313.921C318.401 236.56 330.481 236.8 335.121 236.88Z" fill="#EBEBEB"/>
<path d="M319.441 248.16C314.721 248.24 302.961 248.48 298.401 248.48H291.281H290.881V248.08V239.12V238.72H291.281L305.361 238.8C308.881 238.8 315.921 238.88 319.441 238.96H319.601V239.12L319.441 248.16ZM319.441 248.16L319.201 239.2L319.361 239.36L312.321 239.44C307.841 239.52 295.841 239.52 291.201 239.6L291.601 239.2V248.16L291.201 247.76H298.161C302.721 247.84 314.801 248.08 319.441 248.16Z" fill="#EBEBEB"/>
<path d="M303.84 227.92H275.68V236.88H303.84V227.92Z" fill="#EBEBEB"/>
<path d="M365.519 312.4H337.359V321.36H365.519V312.4Z" fill="#EBEBEB"/>
<path d="M349.84 35.92H321.68V44.88H349.84V35.92Z" fill="#EBEBEB"/>
<path d="M365.441 56.16L351.441 56.4L344.401 56.48H337.281H336.881V56.08V47.12V46.72H337.281L351.361 46.8L358.401 46.88L365.441 46.96H365.601V47.12L365.441 56.16ZM365.441 56.16L365.281 47.2L365.441 47.36L358.401 47.44L351.361 47.52L337.281 47.6L337.681 47.2V56.16L337.281 55.76H344.241L351.201 55.84L365.441 56.16Z" fill="#EBEBEB"/>
<path d="M78.3198 44.88L64.3198 45.12L57.2798 45.2H50.1598H49.7598V44.8V35.84V35.44H50.1598L64.2398 35.52L71.2798 35.6L78.3198 35.68H78.4798V35.84L78.3198 44.88ZM78.3198 44.88L78.1598 35.92L78.3198 36.08L71.2798 36.16L64.2398 36.24L50.1598 36.32L50.5598 35.92V44.88L50.1598 44.48H57.1198L64.0798 44.56L78.3198 44.88Z" fill="#EBEBEB"/>
<path d="M45.9199 38.24V180.4H138.32V38.24H45.9199ZM134.88 176.96H49.2799V41.68H134.88V176.96Z" fill="#EBEBEB"/>
<path d="M134.879 41.68H49.2793V176.96H134.879V41.68Z" fill="white"/>
<path d="M49.2906 111.023L134.891 111.023V107.583L49.2906 107.583V111.023Z" fill="#EBEBEB"/>
<path d="M39.6123 190.134H144.572V180.374H39.6123V190.134Z" fill="#DBDBDB"/>
<path d="M49.2812 41.68H134.881V129.2H49.2812V41.68ZM131.681 44.8H52.4813V126H131.761V44.8H131.681Z" fill="#DBDBDB"/>
<path d="M107.522 41.68H105.842V126.08H107.522V41.68Z" fill="#DBDBDB"/>
<path d="M78.3206 41.68H76.6406V126.08H78.3206V41.68Z" fill="#DBDBDB"/>
<path d="M261.762 38.24V180.4H354.162V38.24H261.762ZM350.722 176.96H265.122V41.68H350.722V176.96Z" fill="#EBEBEB"/>
<path d="M350.721 41.68H265.121V176.96H350.721V41.68Z" fill="white"/>
<path d="M265.111 111.023L350.711 111.023V107.583L265.111 107.583V111.023Z" fill="#EBEBEB"/>
<path d="M255.433 190.134H360.393V180.374H255.433V190.134Z" fill="#DBDBDB"/>
<path d="M265.123 41.68H350.723V129.2H265.123V41.68ZM347.523 44.8H268.243V126H347.523V44.8Z" fill="#DBDBDB"/>
<path d="M323.364 41.68H321.684V126.08H323.364V41.68Z" fill="#DBDBDB"/>
<path d="M294.162 41.68H292.482V126.08H294.162V41.68Z" fill="#DBDBDB"/>
<path d="M149.12 222.72H32.2402V229.84H149.12V222.72Z" fill="#EBEBEB"/>
<path d="M138.719 229.84H42.6387V249.52H138.719V229.84Z" fill="#EBEBEB"/>
<path d="M138.719 233.68L42.6387 235.6V229.84H138.719V233.68Z" fill="#C7C7C7"/>
<path d="M123.838 233.92H57.5176V245.36H123.838V233.92Z" stroke="#DBDBDB" stroke-width="0.8" stroke-miterlimit="10"/>
<path d="M101.598 238H79.7578V241.28H101.598V238Z" fill="#DBDBDB"/>
<path d="M41.8407 362.72H38.7207L47.9207 249.52H56.0807L41.8407 362.72Z" fill="#EBEBEB"/>
<path d="M56.0813 249.52L55.1213 257.12H47.3613L47.9213 249.52H56.0813Z" fill="#C7C7C7"/>
<path d="M139.519 362.72H142.639L133.439 249.52H125.279L139.519 362.72Z" fill="#EBEBEB"/>
<path d="M125.279 249.52L126.239 257.12H133.999L133.439 249.52H125.279Z" fill="#C7C7C7"/>
<path d="M33.1992 362.72L74.8792 362.56L116.559 362.48L199.999 362.32L283.439 362.48L325.119 362.56L366.799 362.72L325.119 362.96L283.439 363.04L199.999 363.12L116.559 363.04L74.8792 362.96L33.1992 362.72Z" fill="#263238"/>
<path d="M267.599 56.48H132.399C124.879 56.48 118.719 62.72 118.719 70.4V348.8C118.719 356.48 124.879 362.72 132.399 362.72H267.599C275.119 362.72 281.279 356.48 281.279 348.8V70.4C281.279 62.72 275.199 56.48 267.599 56.48ZM272.719 340.24C272.719 347.6 267.199 353.52 260.479 353.52H139.519C132.719 353.52 127.279 347.6 127.279 340.24V80.96C127.279 66 132.799 65.28 139.519 65.28H163.759C165.199 65.28 166.319 66.88 166.319 68.88V69.76C166.319 74.4 168.879 74.4 171.999 74.4H227.999C231.119 74.4 233.679 74.4 233.679 69.76V68.88C233.679 66.88 234.799 65.28 236.239 65.28H260.479C267.279 65.28 272.719 67.28 272.719 80.96V340.24Z" fill="#263238"/>
<path d="M207.679 68.64H192.399C191.839 68.64 191.439 68.24 191.439 67.68C191.439 67.12 191.839 66.72 192.399 66.72H207.679C208.239 66.72 208.639 67.12 208.639 67.68C208.559 68.16 208.159 68.64 207.679 68.64Z" fill="white"/>
<path d="M272.719 80.96V340.24C272.719 347.6 267.199 353.52 260.479 353.52H139.519C132.719 353.52 127.279 347.6 127.279 340.24V80.96C127.279 66 132.799 65.28 139.519 65.28H163.759C165.199 65.28 166.319 66.88 166.319 68.88V69.76C166.319 74.4 168.879 74.4 171.999 74.4H227.999C231.119 74.4 233.679 74.4 233.679 69.76V68.88C233.679 66.88 234.799 65.28 236.239 65.28H260.479C267.279 65.28 272.719 67.28 272.719 80.96Z" fill="white"/>
<path d="M142 98.24L137.68 94.24L142 90.24L142.64 90.96L139.12 94.24L142.64 97.6L142 98.24Z" fill="#C7C7C7"/>
<path d="M261.52 91.76C261.52 92.24 261.12 92.64 260.64 92.64C260.16 92.64 259.76 92.24 259.76 91.76C259.76 91.28 260.16 90.88 260.64 90.88C261.12 90.88 261.52 91.28 261.52 91.76Z" fill="#C7C7C7"/>
<path d="M261.52 94.72C261.52 95.2 261.12 95.6 260.64 95.6C260.16 95.6 259.76 95.2 259.76 94.72C259.76 94.24 260.16 93.84 260.64 93.84C261.12 93.92 261.52 94.24 261.52 94.72Z" fill="#C7C7C7"/>
<path d="M261.52 97.76C261.52 98.24 261.12 98.64 260.64 98.64C260.16 98.64 259.76 98.24 259.76 97.76C259.76 97.28 260.16 96.88 260.64 96.88C261.12 96.88 261.52 97.28 261.52 97.76Z" fill="#C7C7C7"/>
<path d="M188.56 96.8C188.64 96.64 188.88 96.64 188.96 96.8C189.2 97.04 189.6 97.2 190 97.2C190.24 97.2 190.56 97.12 190.72 96.96C190.88 96.8 190.96 96.72 190.96 96.56C190.96 96.48 190.96 96.4 190.88 96.4C190.88 96.32 190.8 96.32 190.72 96.24C190.56 96.16 190.32 96 189.92 96C189.68 95.92 189.44 95.92 189.2 95.76C188.96 95.68 188.8 95.52 188.64 95.36C188.56 95.2 188.48 95.04 188.48 94.88C188.48 94.56 188.64 94.24 188.96 94.08C189.2 93.92 189.6 93.76 189.92 93.76C190.48 93.76 190.88 94 191.12 94.24C191.28 94.32 191.28 94.48 191.2 94.64C191.12 94.8 190.96 94.8 190.8 94.72C190.48 94.56 190.24 94.4 189.92 94.4C189.68 94.4 189.44 94.48 189.28 94.56C189.12 94.64 189.04 94.8 189.04 94.88C189.04 94.96 189.04 94.96 189.04 95.04C189.04 95.12 189.12 95.12 189.2 95.2C189.36 95.28 189.6 95.36 189.92 95.44C190.24 95.52 190.48 95.6 190.72 95.68C190.96 95.76 191.12 95.92 191.28 96.16C191.36 96.32 191.44 96.48 191.44 96.64C191.44 96.96 191.2 97.28 190.96 97.52C190.72 97.76 190.32 97.84 189.92 97.84C189.28 97.84 188.8 97.52 188.48 97.28C188.48 97.12 188.48 96.88 188.56 96.8Z" fill="#C7C7C7"/>
<path d="M192.48 94.16C192.48 94 192.64 93.84 192.8 93.84C192.96 93.84 193.12 94 193.12 94.16V97.44C193.12 97.6 192.96 97.76 192.8 97.76C192.64 97.76 192.48 97.6 192.48 97.44V94.16Z" fill="#C7C7C7"/>
<path d="M193.92 95.76C193.92 94.64 194.88 93.76 196 93.76C196.48 93.76 196.96 93.92 197.28 94.16C197.44 94.24 197.44 94.48 197.36 94.64C197.28 94.8 197.04 94.8 196.88 94.72C196.64 94.56 196.32 94.4 196 94.4C195.6 94.4 195.28 94.56 194.96 94.8C194.72 95.04 194.56 95.36 194.56 95.76C194.56 96.16 194.72 96.48 194.96 96.72C195.2 96.96 195.6 97.12 196 97.12C196.32 97.12 196.56 97.04 196.8 96.88V96.08H196C195.84 96.08 195.68 95.92 195.68 95.76C195.68 95.6 195.84 95.44 196 95.44H197.12C197.28 95.44 197.44 95.6 197.44 95.76V96.96V97.04C197.44 97.12 197.36 97.12 197.36 97.2C197.04 97.44 196.56 97.6 196.08 97.6C194.88 97.76 193.92 96.88 193.92 95.76Z" fill="#C7C7C7"/>
<path d="M199.281 97.4399C199.281 97.5999 199.121 97.7599 198.961 97.7599C198.801 97.7599 198.641 97.5999 198.641 97.4399V94.1599C198.641 94.0799 198.641 93.9999 198.801 93.9199C198.961 93.8399 199.121 93.8399 199.201 93.9999L201.041 96.4799V94.1599C201.041 93.9999 201.201 93.8399 201.361 93.8399C201.521 93.8399 201.681 93.9999 201.681 94.1599V97.4399C201.681 97.5999 201.521 97.7599 201.361 97.7599C201.281 97.7599 201.201 97.6799 201.121 97.6799L199.361 95.1999V97.4399H199.281Z" fill="#C7C7C7"/>
<path d="M206.321 97.76C205.441 97.76 204.721 97.04 204.721 96.16V94.16C204.721 94 204.881 93.84 205.041 93.84C205.201 93.84 205.361 94 205.361 94.16V96.16C205.361 96.72 205.841 97.12 206.321 97.12C206.881 97.12 207.281 96.64 207.281 96.16V94.16C207.281 94 207.441 93.84 207.601 93.84C207.761 93.84 207.921 94 207.921 94.16V96.16C207.921 97.04 207.201 97.76 206.321 97.76Z" fill="#C7C7C7"/>
<path d="M210.561 96.2399H209.841V97.4399C209.841 97.5999 209.681 97.7599 209.521 97.7599C209.361 97.7599 209.201 97.5999 209.201 97.4399V94.1599C209.201 93.9999 209.361 93.8399 209.521 93.8399H210.481C211.121 93.8399 211.681 94.3999 211.681 95.0399C211.761 95.6799 211.201 96.2399 210.561 96.2399ZM209.841 95.5999H210.561C210.881 95.5999 211.121 95.3599 211.121 95.0399C211.121 94.7199 210.881 94.4799 210.561 94.4799H209.841V95.5999Z" fill="#C7C7C7"/>
<path d="M159.598 71.12C159.518 71.2 159.438 71.28 159.358 71.36C159.278 71.44 159.278 71.44 159.198 71.52C158.558 70.88 157.838 70.56 156.958 70.56C156.078 70.56 155.358 70.88 154.718 71.52C154.638 71.44 154.638 71.44 154.558 71.36C154.478 71.28 154.398 71.2 154.318 71.12C154.398 71.04 154.478 70.96 154.638 70.88C154.878 70.72 155.118 70.56 155.358 70.48C155.678 70.32 155.918 70.24 156.238 70.16C156.398 70.16 156.558 70.08 156.718 70.08C156.798 70.08 157.118 70.08 157.118 70.08C157.198 70.08 157.358 70.08 157.438 70.08C157.758 70.08 157.998 70.16 158.238 70.24C158.398 70.32 158.638 70.4 158.798 70.48C158.958 70.56 159.198 70.72 159.358 70.88C159.358 70.96 159.438 71.04 159.598 71.12Z" fill="#C7C7C7"/>
<path d="M155.439 72.24C155.279 72.08 155.199 72 155.039 71.84C155.439 71.44 155.919 71.2 156.559 71.12C157.439 71.04 158.159 71.28 158.799 71.84C158.639 72 158.559 72.08 158.399 72.24C157.999 71.84 157.439 71.6 156.879 71.6C156.319 71.6 155.839 71.84 155.439 72.24Z" fill="#C7C7C7"/>
<path d="M158.078 72.64C157.918 72.8 157.838 72.88 157.678 73.04C157.438 72.8 157.198 72.72 156.878 72.72C156.558 72.72 156.318 72.8 156.078 73.04C155.918 72.88 155.838 72.8 155.678 72.64C156.398 72 157.438 71.92 158.078 72.64Z" fill="#C7C7C7"/>
<path d="M157.279 73.28C157.279 73.44 157.119 73.6 156.959 73.6C156.799 73.6 156.639 73.44 156.639 73.28C156.639 73.12 156.799 72.96 156.959 72.96C157.119 72.96 157.279 73.12 157.279 73.28Z" fill="#C7C7C7"/>
<path d="M136.719 71.84C136.719 71.28 137.119 70.88 137.679 70.88C138.239 70.88 138.639 71.28 138.639 71.84C138.639 72.4 138.239 72.8 137.679 72.8C137.119 72.8 136.719 72.4 136.719 71.84Z" fill="#C7C7C7"/>
<path d="M139.758 71.84C139.758 71.28 140.158 70.88 140.718 70.88C141.278 70.88 141.678 71.28 141.678 71.84C141.678 72.4 141.278 72.8 140.718 72.8C140.158 72.8 139.758 72.4 139.758 71.84Z" fill="#C7C7C7"/>
<path d="M142.799 71.84C142.799 71.28 143.199 70.88 143.759 70.88C144.319 70.88 144.719 71.28 144.719 71.84C144.719 72.4 144.319 72.8 143.759 72.8C143.199 72.8 142.799 72.4 142.799 71.84Z" fill="#C7C7C7"/>
<path d="M145.84 71.84C145.84 71.28 146.24 70.88 146.8 70.88C147.36 70.88 147.76 71.28 147.76 71.84C147.76 72.4 147.36 72.8 146.8 72.8C146.24 72.8 145.84 72.4 145.84 71.84Z" fill="#C7C7C7"/>
<path d="M148.879 71.84C148.879 71.28 149.279 70.88 149.839 70.88C150.399 70.88 150.799 71.28 150.799 71.84C150.799 72.4 150.399 72.8 149.839 72.8C149.279 72.8 148.879 72.4 148.879 71.84Z" fill="#C7C7C7"/>
<path d="M261.838 73.92H253.998V70.24H261.838V73.92ZM254.398 73.52H261.438V70.72H254.398V73.52Z" fill="#C7C7C7"/>
<path d="M259.679 70.96H254.639V73.36H259.679V70.96Z" fill="#C7C7C7"/>
<path d="M262.558 71.12H261.838V73.04H262.558V71.12Z" fill="#C7C7C7"/>
<path d="M145.759 339.44H145.039V342.72H143.759V341.04H141.359V342.72H140.079V339.44H139.359L142.559 336.16L145.759 339.44Z" fill="#EBEBEB"/>
<path d="M260.959 336.16H253.199V337.28H260.959V336.16Z" fill="#EBEBEB"/>
<path d="M260.959 338.88H253.199V340H260.959V338.88Z" fill="#EBEBEB"/>
<path d="M260.959 341.6H253.199V342.72H260.959V341.6Z" fill="#EBEBEB"/>
<path d="M202.398 339.52L200.238 341.92L197.998 339.52L198.398 339.2L200.238 341.12L201.998 339.2L202.398 339.52Z" fill="#EBEBEB"/>
<path d="M200.238 344.32C197.998 344.32 196.238 342.56 196.238 340.32C196.238 338.08 197.998 336.32 200.238 336.32C202.478 336.32 204.238 338.08 204.238 340.32C204.238 342.56 202.398 344.32 200.238 344.32ZM200.238 336.88C198.318 336.88 196.798 338.4 196.798 340.32C196.798 342.24 198.318 343.76 200.238 343.76C202.158 343.76 203.678 342.24 203.678 340.32C203.678 338.4 202.158 336.88 200.238 336.88Z" fill="#EBEBEB"/>
<path d="M153.999 170.64C153.119 170.64 152.479 169.92 152.479 169.12V167.2C152.479 167.04 152.639 166.88 152.799 166.88C152.959 166.88 153.119 167.04 153.119 167.2V169.12C153.119 169.68 153.519 170.08 154.079 170.08C154.639 170.08 155.039 169.68 155.039 169.12V167.2C155.039 167.04 155.199 166.88 155.359 166.88C155.519 166.88 155.679 167.04 155.679 167.2V169.12C155.519 169.92 154.879 170.64 153.999 170.64Z" fill="#263238"/>
<path d="M156.638 169.84C156.718 169.68 156.958 169.68 157.038 169.76C157.198 169.84 157.438 170 157.598 170C157.758 170 157.838 169.92 157.998 169.92C158.078 169.84 158.078 169.84 158.078 169.76C158.078 169.76 158.078 169.76 158.078 169.68C158.078 169.68 158.078 169.68 157.998 169.6C157.918 169.52 157.758 169.52 157.598 169.44C157.438 169.44 157.278 169.36 157.118 169.28C156.958 169.2 156.878 169.12 156.718 168.96C156.638 168.88 156.638 168.72 156.638 168.64C156.638 168.4 156.798 168.16 156.958 168.08C157.118 167.92 157.358 167.92 157.598 167.92C157.998 167.92 158.238 168.08 158.398 168.24C158.558 168.32 158.558 168.48 158.478 168.64C158.398 168.8 158.238 168.8 158.078 168.72C157.918 168.64 157.758 168.56 157.598 168.56C157.438 168.56 157.358 168.64 157.278 168.64C157.198 168.72 157.198 168.72 157.198 168.8C157.198 168.8 157.198 168.8 157.198 168.88C157.198 168.88 157.198 168.88 157.278 168.96C157.358 169.04 157.518 169.04 157.678 169.12C157.838 169.12 157.998 169.2 158.158 169.28C158.318 169.36 158.478 169.44 158.558 169.6C158.638 169.68 158.638 169.84 158.638 169.92C158.638 170.16 158.478 170.4 158.318 170.56C158.158 170.72 157.918 170.8 157.598 170.8C157.198 170.8 156.878 170.64 156.638 170.4C156.558 170.16 156.558 170 156.638 169.84Z" fill="#263238"/>
<path d="M159.199 169.28C159.199 168.56 159.759 167.92 160.479 167.92C161.199 167.92 161.759 168.48 161.759 169.2C161.759 169.2 161.759 169.2 161.759 169.28C161.759 169.44 161.599 169.52 161.519 169.52H159.839C159.839 169.68 159.919 169.76 159.999 169.84C160.079 170 160.319 170.08 160.479 170.08C160.639 170.08 160.879 170.08 161.039 169.92C161.119 169.84 161.359 169.84 161.439 169.92C161.519 170 161.599 170.16 161.439 170.24C161.199 170.48 160.879 170.56 160.479 170.56C159.759 170.64 159.199 170 159.199 169.28ZM159.759 169.04H161.279C161.199 168.8 160.959 168.48 160.479 168.48C160.079 168.48 159.839 168.8 159.759 169.04Z" fill="#263238"/>
<path d="M164.239 168.24C164.239 168.4 164.079 168.56 163.919 168.56C163.759 168.56 163.679 168.56 163.599 168.64C163.519 168.72 163.439 168.8 163.359 168.88C163.199 169.04 163.199 169.28 163.119 169.36V170.4C163.119 170.56 162.959 170.72 162.799 170.72C162.639 170.72 162.479 170.56 162.479 170.4V168.32C162.479 168.16 162.639 168.08 162.799 168.08C162.959 168.08 163.119 168.24 163.119 168.32L163.199 168.24C163.359 168.16 163.599 168 163.839 168C164.079 167.92 164.239 168.08 164.239 168.24Z" fill="#263238"/>
<path d="M167.119 169.04V170.32C167.119 170.48 166.959 170.64 166.879 170.64C166.719 170.64 166.559 170.48 166.559 170.32V169.04C166.559 168.72 166.319 168.48 165.999 168.48C165.679 168.48 165.439 168.72 165.439 169.04V170.32C165.439 170.32 165.439 170.32 165.439 170.4C165.439 170.56 165.279 170.64 165.119 170.64C164.959 170.64 164.799 170.48 164.799 170.32V169.04V168.24C164.799 168.08 164.959 167.92 165.119 167.92C165.199 167.92 165.359 168 165.359 168.08C165.519 168 165.679 167.92 165.919 167.92C166.639 167.92 167.119 168.48 167.119 169.04Z" fill="#263238"/>
<path d="M170.478 169.28V170.32C170.478 170.48 170.318 170.64 170.158 170.64C169.998 170.64 169.918 170.56 169.918 170.4C169.678 170.56 169.438 170.64 169.198 170.64C168.798 170.64 168.478 170.48 168.318 170.24C168.078 170 167.918 169.68 167.918 169.28C167.918 168.88 168.078 168.56 168.318 168.32C168.558 168.08 168.878 167.92 169.198 167.92C169.438 167.92 169.678 168 169.918 168.16C169.918 168 170.078 167.92 170.158 167.92C170.318 167.92 170.478 168.08 170.478 168.24V169.28ZM169.918 169.28C169.918 169.04 169.838 168.88 169.678 168.72C169.518 168.56 169.358 168.48 169.198 168.48C169.038 168.48 168.798 168.56 168.718 168.72C168.558 168.88 168.478 169.04 168.478 169.28C168.478 169.52 168.558 169.68 168.718 169.84C168.878 170 169.038 170.08 169.198 170.08C169.358 170.08 169.598 170 169.678 169.84C169.838 169.68 169.918 169.52 169.918 169.28Z" fill="#263238"/>
<path d="M173.759 169.04V170.32C173.759 170.48 173.599 170.64 173.439 170.64C173.279 170.64 173.119 170.48 173.119 170.32V169.04C173.119 168.72 172.879 168.48 172.559 168.48C172.239 168.48 171.999 168.72 171.999 169.04V170.32C171.919 170.4 171.839 170.48 171.759 170.48C171.759 170.48 171.759 170.48 171.679 170.48C171.519 170.48 171.439 170.32 171.439 170.24V168.96V168.16C171.439 168 171.599 167.84 171.759 167.84C171.839 167.84 171.999 167.92 171.999 168C172.159 167.92 172.399 167.84 172.559 167.84C172.879 167.84 173.199 168 173.439 168.24C173.599 168 173.919 167.84 174.319 167.84C174.959 167.84 175.439 168.32 175.439 168.96V170.24C175.439 170.4 175.279 170.56 175.119 170.56C174.959 170.56 174.799 170.4 174.799 170.24V168.96C174.799 168.64 174.559 168.4 174.239 168.4C173.999 168.56 173.759 168.8 173.759 169.04Z" fill="#263238"/>
<path d="M176.479 169.28C176.479 168.56 177.039 167.92 177.759 167.92C178.479 167.92 179.039 168.48 179.039 169.2C179.039 169.2 179.039 169.2 179.039 169.28C179.039 169.44 178.879 169.52 178.799 169.52H177.119C177.119 169.68 177.199 169.76 177.279 169.84C177.359 170 177.599 170.08 177.759 170.08C177.919 170.08 178.159 170.08 178.319 169.92C178.399 169.84 178.639 169.84 178.719 169.92C178.799 170 178.879 170.16 178.719 170.24C178.479 170.48 178.159 170.56 177.759 170.56C177.039 170.64 176.479 170 176.479 169.28ZM177.039 169.04H178.559C178.479 168.8 178.239 168.48 177.759 168.48C177.279 168.48 177.039 168.8 177.039 169.04Z" fill="#263238"/>
<path d="M248.48 174.72H151.52V186.24H248.48V174.72Z" fill="#EBEBEB"/>
<path d="M152.398 197.92V194.72C152.398 194.56 152.558 194.4 152.718 194.4H154.478C154.638 194.4 154.798 194.56 154.798 194.72C154.798 194.88 154.638 195.04 154.478 195.04H153.038V196H154.318C154.478 196 154.638 196.16 154.638 196.32C154.638 196.48 154.478 196.64 154.318 196.64H153.038V197.6H154.478C154.638 197.6 154.798 197.76 154.798 197.92C154.798 198.08 154.638 198.24 154.478 198.24H152.718C152.558 198.24 152.398 198.08 152.398 197.92Z" fill="#263238"/>
<path d="M157.84 196.64V197.92C157.84 198.08 157.68 198.24 157.52 198.24C157.36 198.24 157.2 198.08 157.2 197.92V196.64C157.2 196.32 156.96 196.08 156.64 196.08C156.32 196.08 156.08 196.32 156.08 196.64V197.92C156 198 155.92 198.08 155.84 198.08C155.84 198.08 155.84 198.08 155.76 198.08C155.6 198.08 155.52 197.92 155.52 197.84V196.56V195.76C155.52 195.6 155.68 195.44 155.84 195.44C155.92 195.44 156.08 195.52 156.08 195.6C156.24 195.52 156.48 195.44 156.64 195.44C156.96 195.44 157.28 195.6 157.52 195.84C157.68 195.6 158 195.44 158.4 195.44C159.04 195.44 159.52 195.92 159.52 196.56V197.84C159.52 198 159.36 198.16 159.2 198.16C159.04 198.16 158.88 198 158.88 197.84V196.56C158.88 196.24 158.64 196 158.32 196C158.08 196.08 157.84 196.32 157.84 196.64Z" fill="#263238"/>
<path d="M162.958 196.88V197.92C162.958 198.08 162.798 198.24 162.638 198.24C162.478 198.24 162.398 198.16 162.398 198C162.158 198.16 161.918 198.24 161.678 198.24C161.278 198.24 160.958 198.08 160.798 197.84C160.558 197.6 160.398 197.28 160.398 196.88C160.398 196.48 160.558 196.16 160.798 195.92C161.038 195.68 161.358 195.52 161.678 195.52C161.918 195.52 162.158 195.6 162.398 195.76C162.398 195.6 162.558 195.52 162.638 195.52C162.798 195.52 162.958 195.68 162.958 195.84V196.88ZM162.398 196.88C162.398 196.64 162.318 196.48 162.158 196.32C161.998 196.16 161.838 196.08 161.678 196.08C161.518 196.08 161.278 196.16 161.198 196.32C161.038 196.48 160.958 196.64 160.958 196.88C160.958 197.12 161.038 197.28 161.198 197.44C161.358 197.6 161.518 197.68 161.678 197.68C161.838 197.68 162.078 197.6 162.158 197.44C162.318 197.28 162.398 197.12 162.398 196.88Z" fill="#263238"/>
<path d="M164.558 194.88C164.558 195.04 164.398 195.2 164.238 195.2C164.078 195.2 163.918 195.04 163.918 194.88V194.8C163.918 194.64 164.078 194.48 164.238 194.48C164.398 194.48 164.558 194.64 164.558 194.8V194.88ZM164.558 195.84V197.92C164.558 198.08 164.398 198.24 164.238 198.24C164.078 198.24 163.918 198.08 163.918 197.92V195.84C163.918 195.68 164.078 195.52 164.238 195.52C164.478 195.52 164.558 195.68 164.558 195.84Z" fill="#263238"/>
<path d="M165.757 194.48C165.917 194.48 166.078 194.64 166.078 194.8V198C166.078 198.16 165.917 198.32 165.757 198.32C165.597 198.32 165.438 198.16 165.438 198V194.8C165.438 194.56 165.597 194.48 165.757 194.48Z" fill="#263238"/>
<path d="M248.48 202.32H151.52V213.84H248.48V202.32Z" fill="#EBEBEB"/>
<path d="M153.678 224.32H153.038V225.52C153.038 225.68 152.878 225.84 152.718 225.84C152.558 225.84 152.398 225.68 152.398 225.52V222.32C152.398 222.16 152.558 222 152.718 222H153.678C154.318 222 154.798 222.48 154.798 223.12C154.878 223.84 154.318 224.32 153.678 224.32ZM153.038 223.76H153.678C153.998 223.76 154.238 223.52 154.238 223.2C154.238 222.88 153.998 222.64 153.678 222.64H153.038V223.76Z" fill="#263238"/>
<path d="M157.759 224.48V225.52C157.759 225.68 157.599 225.84 157.439 225.84C157.279 225.84 157.199 225.76 157.199 225.6C156.959 225.76 156.719 225.84 156.479 225.84C156.079 225.84 155.759 225.68 155.599 225.44C155.359 225.2 155.199 224.88 155.199 224.48C155.199 224.08 155.359 223.76 155.599 223.52C155.839 223.28 156.159 223.12 156.479 223.12C156.719 223.12 156.959 223.2 157.199 223.36C157.199 223.2 157.359 223.12 157.439 223.12C157.599 223.12 157.759 223.28 157.759 223.44V224.48ZM157.199 224.48C157.199 224.24 157.119 224.08 156.959 223.92C156.799 223.76 156.639 223.68 156.479 223.68C156.319 223.68 156.079 223.76 155.999 223.92C155.839 224.08 155.759 224.24 155.759 224.48C155.759 224.72 155.839 224.88 155.999 225.04C156.159 225.2 156.319 225.28 156.479 225.28C156.639 225.28 156.879 225.2 156.959 225.04C157.119 224.88 157.199 224.72 157.199 224.48Z" fill="#263238"/>
<path d="M158.718 225.04C158.798 224.88 159.038 224.88 159.118 224.96C159.278 225.04 159.518 225.2 159.678 225.2C159.838 225.2 159.918 225.12 160.078 225.12C160.158 225.04 160.158 225.04 160.158 224.96C160.158 224.96 160.158 224.96 160.158 224.88C160.158 224.88 160.158 224.88 160.078 224.8C159.998 224.72 159.838 224.72 159.678 224.64C159.518 224.64 159.358 224.56 159.198 224.48C159.038 224.4 158.958 224.32 158.798 224.16C158.718 224.08 158.718 223.92 158.718 223.84C158.718 223.6 158.878 223.36 159.038 223.28C159.198 223.12 159.438 223.12 159.678 223.12C160.078 223.12 160.318 223.28 160.478 223.44C160.638 223.52 160.638 223.68 160.558 223.84C160.478 224 160.318 224 160.158 223.92C159.998 223.84 159.838 223.76 159.678 223.76C159.518 223.76 159.438 223.84 159.358 223.84C159.278 223.92 159.278 223.92 159.278 224C159.278 224 159.278 224 159.278 224.08C159.278 224.08 159.278 224.08 159.358 224.16C159.438 224.24 159.598 224.24 159.758 224.32C159.918 224.32 160.078 224.4 160.238 224.48C160.398 224.56 160.558 224.64 160.638 224.8C160.718 224.88 160.718 225.04 160.718 225.12C160.718 225.36 160.558 225.6 160.398 225.76C160.238 225.92 159.998 226 159.678 226C159.278 226 158.958 225.84 158.718 225.6C158.638 225.36 158.638 225.2 158.718 225.04Z" fill="#263238"/>
<path d="M161.279 225.04C161.359 224.88 161.599 224.88 161.679 224.96C161.839 225.04 162.079 225.2 162.239 225.2C162.399 225.2 162.479 225.12 162.639 225.12C162.719 225.04 162.719 225.04 162.719 224.96C162.719 224.96 162.719 224.96 162.719 224.88C162.719 224.88 162.719 224.88 162.639 224.8C162.559 224.72 162.399 224.72 162.239 224.64C162.079 224.64 161.919 224.56 161.759 224.48C161.599 224.4 161.519 224.32 161.359 224.16C161.279 224.08 161.279 223.92 161.279 223.84C161.279 223.6 161.439 223.36 161.599 223.28C161.759 223.12 161.999 223.12 162.239 223.12C162.639 223.12 162.879 223.28 163.039 223.44C163.199 223.52 163.199 223.68 163.119 223.84C163.039 224 162.879 224 162.719 223.92C162.559 223.84 162.399 223.76 162.239 223.76C162.079 223.76 161.999 223.84 161.919 223.84C161.839 223.92 161.839 223.92 161.839 224C161.839 224 161.839 224 161.839 224.08C161.839 224.08 161.839 224.08 161.919 224.16C161.999 224.24 162.159 224.24 162.319 224.32C162.479 224.32 162.639 224.4 162.799 224.48C162.959 224.56 163.119 224.64 163.199 224.8C163.279 224.88 163.279 225.04 163.279 225.12C163.279 225.36 163.119 225.6 162.959 225.76C162.799 225.92 162.559 226 162.239 226C161.839 226 161.519 225.84 161.279 225.6C161.199 225.36 161.199 225.2 161.279 225.04Z" fill="#263238"/>
<path d="M167.438 223.6L166.558 225.68C166.558 225.68 166.558 225.68 166.558 225.76C166.558 225.76 166.558 225.76 166.478 225.76C166.478 225.76 166.478 225.76 166.398 225.76C166.398 225.76 166.398 225.76 166.318 225.76C166.318 225.76 166.318 225.76 166.238 225.76C166.238 225.76 166.238 225.76 166.158 225.76C166.158 225.76 166.158 225.76 166.158 225.68L165.758 224.72L165.358 225.68C165.358 225.68 165.358 225.68 165.358 225.76C165.358 225.76 165.358 225.76 165.278 225.76C165.278 225.76 165.278 225.76 165.198 225.76C165.198 225.76 165.198 225.76 165.118 225.76C165.118 225.76 165.118 225.76 165.038 225.76C165.038 225.76 165.038 225.76 165.038 225.68L164.158 223.6C164.078 223.44 164.158 223.28 164.318 223.2C164.478 223.12 164.638 223.2 164.638 223.36L165.278 224.8L165.678 223.92C165.758 223.84 165.838 223.76 165.918 223.76C165.998 223.76 166.158 223.84 166.158 223.92L166.558 224.8L167.198 223.36C167.278 223.2 167.438 223.12 167.518 223.2C167.438 223.28 167.518 223.44 167.438 223.6Z" fill="#263238"/>
<path d="M168.718 225.44C168.478 225.2 168.318 224.88 168.318 224.48C168.318 224.08 168.478 223.76 168.718 223.52C168.958 223.28 169.278 223.12 169.678 223.12C169.998 223.12 170.318 223.28 170.558 223.52C170.798 223.76 170.958 224.08 170.958 224.48C170.958 224.88 170.798 225.2 170.558 225.44C170.318 225.68 169.998 225.84 169.678 225.84C169.278 225.84 168.958 225.68 168.718 225.44ZM168.958 224.48C168.958 224.72 169.038 224.88 169.118 225.04C169.278 225.2 169.438 225.2 169.598 225.2C169.758 225.2 169.918 225.12 170.078 225.04C170.238 224.88 170.318 224.72 170.318 224.48C170.318 224.24 170.238 224.08 170.078 223.92C169.918 223.84 169.758 223.68 169.598 223.68C169.358 223.68 169.198 223.76 169.118 223.92C169.038 224.08 168.958 224.24 168.958 224.48Z" fill="#263238"/>
<path d="M173.358 223.44C173.358 223.6 173.198 223.76 173.038 223.76C172.878 223.76 172.798 223.76 172.718 223.84C172.638 223.92 172.558 224 172.478 224.08C172.318 224.24 172.318 224.48 172.238 224.56V225.6C172.238 225.76 172.078 225.92 171.918 225.92C171.758 225.92 171.598 225.76 171.598 225.6V223.52C171.598 223.36 171.758 223.28 171.918 223.28C172.078 223.28 172.238 223.44 172.238 223.52L172.318 223.44C172.478 223.36 172.718 223.2 172.958 223.2C173.278 223.12 173.358 223.28 173.358 223.44Z" fill="#263238"/>
<path d="M176.398 225.52C176.398 225.68 176.238 225.84 176.078 225.84C175.918 225.84 175.838 225.76 175.758 225.6C175.518 225.76 175.278 225.84 175.038 225.84C174.318 225.84 173.758 225.2 173.758 224.48C173.758 223.76 174.318 223.12 175.038 223.12C175.278 223.12 175.598 223.2 175.758 223.36V222.32C175.758 222.16 175.918 222 176.078 222C176.238 222 176.398 222.16 176.398 222.32V224.48V225.52ZM175.038 223.68C174.878 223.68 174.638 223.76 174.558 223.92C174.398 224.08 174.318 224.24 174.318 224.48C174.318 224.72 174.398 224.88 174.558 225.04C174.718 225.2 174.878 225.28 175.038 225.28C175.198 225.28 175.438 225.2 175.518 225.04C175.678 224.88 175.758 224.72 175.758 224.48C175.758 224.24 175.678 224.08 175.518 223.92C175.438 223.76 175.278 223.68 175.038 223.68Z" fill="#263238"/>
<path d="M248.48 229.92H151.52V241.44H248.48V229.92Z" fill="#EBEBEB"/>
<path d="M157.359 254.32C157.359 254.24 157.439 254.24 157.439 254.24C157.519 254.24 157.519 254.32 157.519 254.32V257.28C157.519 257.36 157.439 257.36 157.439 257.36C157.359 257.36 157.359 257.28 157.359 257.28V254.32Z" fill="#263238"/>
<path d="M161.84 255.28V257.28C161.84 257.36 161.76 257.36 161.76 257.36C161.68 257.36 161.68 257.28 161.68 257.28V256.96C161.52 257.2 161.2 257.36 160.88 257.36C160.32 257.36 159.84 256.88 159.84 256.24C159.84 255.6 160.32 255.12 160.88 255.12C161.2 255.12 161.52 255.28 161.68 255.52V255.2C161.68 255.12 161.76 255.12 161.76 255.12C161.84 255.12 161.84 255.2 161.84 255.28ZM161.68 256.24C161.68 255.76 161.28 255.36 160.88 255.36C160.4 255.36 160.08 255.76 160.08 256.24C160.08 256.72 160.48 257.12 160.88 257.12C161.28 257.12 161.68 256.72 161.68 256.24Z" fill="#263238"/>
<path d="M164.879 257.2C164.879 257.76 164.399 258.24 163.839 258.24C163.679 258.24 163.519 258.24 163.359 258.16C163.279 258.16 163.279 258.08 163.279 258C163.279 257.92 163.359 257.92 163.439 257.92C163.519 258 163.679 258 163.759 258C164.239 258 164.559 257.6 164.559 257.2V256.96C164.399 257.2 164.079 257.36 163.759 257.36C163.199 257.36 162.719 256.88 162.719 256.24C162.719 255.68 163.199 255.12 163.759 255.12C164.079 255.12 164.399 255.28 164.559 255.52V255.2C164.559 255.12 164.639 255.12 164.639 255.12C164.719 255.12 164.719 255.2 164.719 255.2V257.2H164.879ZM164.639 256.24C164.639 255.76 164.239 255.36 163.839 255.36C163.359 255.36 163.039 255.76 163.039 256.24C163.039 256.72 163.439 257.12 163.839 257.12C164.319 257.12 164.639 256.72 164.639 256.24Z" fill="#263238"/>
<path d="M165.92 255.28C165.92 255.2 166 255.2 166 255.2C166.08 255.2 166.08 255.28 166.08 255.28V255.76C166.08 255.76 166.08 255.76 166.08 255.68C166.24 255.44 166.56 255.12 166.96 255.12C167.04 255.12 167.04 255.2 167.04 255.2C167.04 255.28 166.96 255.28 166.96 255.28C166.64 255.28 166.48 255.44 166.32 255.6C166.16 255.76 166.08 256 166.08 256.08V257.04C166.08 257.12 166 257.12 166 257.12C165.92 257.12 165.92 257.04 165.92 257.04V255.28Z" fill="#263238"/>
<path d="M167.52 256.24C167.52 255.6 168 255.12 168.56 255.12C169.12 255.12 169.6 255.6 169.6 256.16C169.6 256.24 169.52 256.24 169.52 256.24H167.68C167.68 256.72 168.08 257.12 168.56 257.12C168.88 257.12 169.12 256.96 169.28 256.72C169.28 256.64 169.36 256.64 169.44 256.72C169.52 256.72 169.52 256.8 169.44 256.88C169.28 257.2 168.96 257.36 168.56 257.36C167.92 257.36 167.52 256.88 167.52 256.24ZM167.68 256.08H169.36C169.28 255.68 168.96 255.36 168.56 255.36C168.16 255.36 167.76 255.68 167.68 256.08Z" fill="#263238"/>
<path d="M170.24 256.24C170.24 255.6 170.72 255.12 171.28 255.12C171.84 255.12 172.32 255.6 172.32 256.16C172.32 256.24 172.24 256.24 172.24 256.24H170.4C170.4 256.72 170.8 257.12 171.28 257.12C171.6 257.12 171.84 256.96 172 256.72C172 256.64 172.08 256.64 172.16 256.72C172.24 256.72 172.24 256.8 172.16 256.88C172 257.2 171.68 257.36 171.28 257.36C170.72 257.36 170.24 256.88 170.24 256.24ZM170.4 256.08H172.08C172 255.68 171.68 255.36 171.28 255.36C170.88 255.36 170.48 255.68 170.4 256.08Z" fill="#263238"/>
<path d="M175.2 255.28C175.2 255.36 175.12 255.36 175.12 255.36H174.8V256.96C174.8 257.04 174.88 257.12 174.96 257.12C175.04 257.12 175.04 257.2 175.04 257.2C175.04 257.28 174.96 257.28 174.96 257.28C174.72 257.28 174.56 257.12 174.56 256.88V255.28H174.32C174.24 255.28 174.24 255.2 174.24 255.2C174.24 255.12 174.24 255.12 174.32 255.12H174.56V254.32C174.56 254.24 174.64 254.24 174.64 254.24C174.72 254.24 174.72 254.32 174.72 254.32V255.12H175.04C175.12 255.12 175.2 255.2 175.2 255.28Z" fill="#263238"/>
<path d="M177.12 255.12C177.68 255.12 178.16 255.6 178.16 256.24C178.16 256.8 177.68 257.36 177.12 257.36C176.56 257.36 176.08 256.88 176.08 256.24C176.08 255.68 176.48 255.12 177.12 255.12ZM177.12 257.12C177.6 257.12 177.92 256.72 177.92 256.24C177.92 255.76 177.52 255.36 177.12 255.36C176.64 255.36 176.32 255.76 176.32 256.24C176.24 256.72 176.64 257.12 177.12 257.12Z" fill="#263238"/>
<path d="M182.16 255.28V257.28C182.16 257.36 182.08 257.36 182.08 257.36L182 257.28V256.96C181.84 257.2 181.52 257.36 181.2 257.36C180.64 257.36 180.16 256.88 180.16 256.24C180.16 255.6 180.64 255.12 181.2 255.12C181.52 255.12 181.84 255.28 182 255.52V255.2C182 255.12 182.08 255.12 182.08 255.12C182.08 255.12 182.16 255.2 182.16 255.28ZM181.92 256.24C181.92 255.76 181.52 255.36 181.12 255.36C180.64 255.36 180.32 255.76 180.32 256.24C180.32 256.72 180.72 257.12 181.12 257.12C181.52 257.12 181.92 256.72 181.92 256.24Z" fill="#263238"/>
<path d="M183.199 254.32C183.199 254.24 183.279 254.24 183.279 254.24C183.359 254.24 183.359 254.32 183.359 254.32V257.28C183.359 257.36 183.279 257.36 183.279 257.36C183.199 257.36 183.199 257.28 183.199 257.28V254.32Z" fill="#263238"/>
<path d="M184.24 254.32C184.24 254.24 184.32 254.24 184.32 254.24C184.4 254.24 184.4 254.32 184.4 254.32V257.28C184.4 257.36 184.32 257.36 184.32 257.36C184.24 257.36 184.24 257.28 184.24 257.28V254.32Z" fill="#263238"/>
<path d="M186.56 256.88C186.56 256.8 186.64 256.8 186.72 256.88C186.88 256.96 187.12 257.12 187.36 257.12C187.52 257.12 187.68 257.04 187.76 256.96C187.84 256.88 187.92 256.8 187.92 256.72C187.92 256.64 187.84 256.56 187.76 256.48C187.68 256.4 187.52 256.32 187.28 256.32C187.12 256.32 186.88 256.24 186.8 256.16C186.64 256.08 186.56 255.92 186.56 255.76C186.56 255.6 186.64 255.44 186.8 255.36C186.96 255.28 187.12 255.2 187.36 255.2C187.68 255.2 187.84 255.36 188 255.44C188.08 255.44 188.08 255.52 188 255.6C188 255.68 187.92 255.68 187.84 255.6C187.68 255.52 187.52 255.36 187.28 255.36C187.12 255.36 186.96 255.44 186.88 255.52C186.8 255.6 186.72 255.68 186.72 255.76C186.72 255.84 186.8 255.92 186.88 256C186.96 256.08 187.12 256.16 187.36 256.16C187.6 256.16 187.76 256.24 187.92 256.32C188.08 256.4 188.16 256.56 188.16 256.8C188.16 256.96 188.08 257.12 187.92 257.28C187.76 257.36 187.6 257.44 187.36 257.44C187.04 257.44 186.72 257.28 186.56 257.12C186.48 256.96 186.48 256.96 186.56 256.88Z" fill="#263238"/>
<path d="M189.759 255.28C189.759 255.36 189.679 255.36 189.679 255.36H189.359V256.96C189.359 257.04 189.439 257.12 189.519 257.12C189.599 257.12 189.599 257.2 189.599 257.2C189.599 257.28 189.519 257.28 189.519 257.28C189.279 257.28 189.119 257.12 189.119 256.88V255.28H188.879C188.799 255.28 188.799 255.2 188.799 255.2C188.799 255.12 188.799 255.12 188.879 255.12H189.119V254.32C189.119 254.24 189.199 254.24 189.199 254.24C189.279 254.24 189.279 254.32 189.279 254.32V255.12H189.599C189.679 255.12 189.759 255.2 189.759 255.28Z" fill="#263238"/>
<path d="M192.48 255.28V257.28C192.48 257.36 192.4 257.36 192.4 257.36C192.32 257.36 192.32 257.28 192.32 257.28V256.96C192.16 257.2 191.84 257.36 191.52 257.36C190.96 257.36 190.48 256.88 190.48 256.24C190.48 255.6 190.96 255.12 191.52 255.12C191.84 255.12 192.16 255.28 192.32 255.52V255.2C192.32 255.12 192.4 255.12 192.4 255.12C192.4 255.12 192.48 255.2 192.48 255.28ZM192.24 256.24C192.24 255.76 191.84 255.36 191.44 255.36C190.96 255.36 190.64 255.76 190.64 256.24C190.64 256.72 191.04 257.12 191.44 257.12C191.84 257.12 192.24 256.72 192.24 256.24Z" fill="#263238"/>
<path d="M194.159 255.28C194.159 255.36 194.079 255.36 194.079 255.36H193.759V256.96C193.759 257.04 193.839 257.12 193.919 257.12C193.999 257.12 193.999 257.2 193.999 257.2C193.999 257.28 193.919 257.28 193.919 257.28C193.679 257.28 193.519 257.12 193.519 256.88V255.28H193.279C193.199 255.28 193.199 255.2 193.199 255.2C193.199 255.12 193.199 255.12 193.279 255.12H193.519V254.32C193.519 254.24 193.599 254.24 193.599 254.24C193.679 254.24 193.679 254.32 193.679 254.32V255.12H193.999C194.079 255.12 194.159 255.2 194.159 255.28Z" fill="#263238"/>
<path d="M194.879 256.24C194.879 255.6 195.359 255.12 195.919 255.12C196.479 255.12 196.959 255.6 196.959 256.16C196.959 256.24 196.879 256.24 196.879 256.24H195.039C195.039 256.72 195.439 257.12 195.919 257.12C196.239 257.12 196.479 256.96 196.639 256.72C196.639 256.64 196.719 256.64 196.799 256.72C196.879 256.72 196.879 256.8 196.799 256.88C196.639 257.2 196.319 257.36 195.919 257.36C195.359 257.36 194.879 256.88 194.879 256.24ZM195.039 256.08H196.719C196.639 255.68 196.319 255.36 195.919 255.36C195.519 255.36 195.119 255.68 195.039 256.08Z" fill="#263238"/>
<path d="M200.88 256.08C200.88 255.68 200.56 255.36 200.16 255.36C199.76 255.36 199.52 255.68 199.52 256.08V257.28C199.52 257.28 199.52 257.36 199.44 257.36C199.44 257.36 199.44 257.36 199.36 257.36V256.16C199.36 255.76 199.04 255.44 198.72 255.44C198.32 255.44 198.08 255.76 198.08 256.16V257.36C198.08 257.36 198.08 257.44 198 257.44C197.92 257.44 197.92 257.36 197.92 257.36V256.16V255.44C197.92 255.36 198 255.36 198 255.36C198.08 255.36 198.08 255.44 198.08 255.44V255.68C198.24 255.52 198.48 255.36 198.72 255.36C199.04 255.36 199.36 255.52 199.52 255.84C199.68 255.6 200 255.36 200.32 255.36C200.8 255.36 201.2 255.76 201.2 256.24V257.44C201.2 257.52 201.12 257.52 201.12 257.52C201.04 257.52 201.04 257.44 201.04 257.44V256.08H200.88Z" fill="#263238"/>
<path d="M201.84 256.24C201.84 255.6 202.32 255.12 202.88 255.12C203.44 255.12 203.92 255.6 203.92 256.16C203.92 256.24 203.84 256.24 203.84 256.24H202C202 256.72 202.4 257.12 202.88 257.12C203.2 257.12 203.44 256.96 203.6 256.72C203.6 256.64 203.68 256.64 203.76 256.72C203.84 256.72 203.84 256.8 203.76 256.88C203.6 257.2 203.28 257.36 202.88 257.36C202.32 257.36 201.84 256.88 201.84 256.24ZM202.08 256.08H203.76C203.68 255.68 203.36 255.36 202.96 255.36C202.48 255.36 202.16 255.68 202.08 256.08Z" fill="#263238"/>
<path d="M206.319 256.08C206.319 255.68 205.999 255.44 205.679 255.44C205.279 255.44 205.039 255.76 204.959 256.08V257.28C204.959 257.28 204.959 257.28 204.959 257.36L204.879 257.44C204.879 257.44 204.799 257.44 204.799 257.36V256.16V255.44C204.799 255.36 204.879 255.36 204.879 255.36C204.959 255.36 204.959 255.44 204.959 255.44V255.68C205.119 255.52 205.359 255.36 205.679 255.36C206.159 255.36 206.559 255.76 206.559 256.24V257.44C206.559 257.52 206.479 257.52 206.479 257.52C206.399 257.52 206.399 257.44 206.399 257.44V256.08H206.319Z" fill="#263238"/>
<path d="M208.239 255.28C208.239 255.36 208.159 255.36 208.159 255.36H207.839V256.96C207.839 257.04 207.919 257.12 207.999 257.12C208.079 257.12 208.079 257.2 208.079 257.2C208.079 257.28 207.999 257.28 207.999 257.28C207.759 257.28 207.599 257.12 207.599 256.88V255.28H207.359C207.279 255.28 207.279 255.2 207.279 255.2C207.279 255.12 207.279 255.12 207.359 255.12H207.599V254.32C207.599 254.24 207.679 254.24 207.679 254.24C207.759 254.24 207.759 254.32 207.759 254.32V255.12H208.079C208.159 255.12 208.239 255.2 208.239 255.28Z" fill="#263238"/>
<path d="M209.119 256.88C209.119 256.8 209.199 256.8 209.279 256.88C209.439 256.96 209.679 257.12 209.919 257.12C210.079 257.12 210.239 257.04 210.319 256.96C210.399 256.88 210.479 256.8 210.479 256.72C210.479 256.64 210.399 256.56 210.319 256.48C210.239 256.4 210.079 256.32 209.839 256.32C209.679 256.32 209.439 256.24 209.359 256.16C209.199 256.08 209.119 255.92 209.119 255.76C209.119 255.6 209.199 255.44 209.359 255.36C209.519 255.28 209.679 255.2 209.919 255.2C210.239 255.2 210.399 255.36 210.559 255.44C210.639 255.44 210.639 255.52 210.559 255.6C210.559 255.68 210.479 255.68 210.399 255.6C210.239 255.52 210.079 255.36 209.839 255.36C209.679 255.36 209.519 255.44 209.439 255.52C209.359 255.6 209.279 255.68 209.279 255.76C209.279 255.84 209.359 255.92 209.439 256C209.519 256.08 209.679 256.16 209.919 256.16C210.159 256.16 210.319 256.24 210.479 256.32C210.639 256.4 210.719 256.56 210.719 256.8C210.719 256.96 210.639 257.12 210.479 257.28C210.319 257.36 210.159 257.44 209.919 257.44C209.599 257.44 209.279 257.28 209.119 257.12C209.039 256.96 209.039 256.96 209.119 256.88Z" fill="#263238"/>
<path d="M212.799 254.56C212.799 254.48 212.879 254.48 212.879 254.48C212.959 254.48 212.959 254.56 212.959 254.56V254.64C212.959 254.72 212.879 254.72 212.879 254.72C212.799 254.72 212.799 254.64 212.799 254.64V254.56ZM212.799 255.28C212.799 255.2 212.879 255.2 212.879 255.2C212.959 255.2 212.959 255.28 212.959 255.28V257.28C212.959 257.36 212.879 257.36 212.879 257.36C212.799 257.36 212.799 257.28 212.799 257.28V255.28Z" fill="#263238"/>
<path d="M215.6 256.08C215.6 255.68 215.28 255.44 214.96 255.44C214.56 255.44 214.32 255.76 214.24 256.08V257.28C214.24 257.28 214.24 257.28 214.24 257.36L214.16 257.44C214.16 257.44 214.08 257.44 214.08 257.36V256.16V255.44C214.08 255.36 214.16 255.36 214.16 255.36C214.24 255.36 214.24 255.44 214.24 255.44V255.68C214.4 255.52 214.64 255.36 214.96 255.36C215.44 255.36 215.84 255.76 215.84 256.24V257.44C215.84 257.52 215.76 257.52 215.76 257.52C215.68 257.52 215.68 257.44 215.68 257.44V256.08H215.6Z" fill="#263238"/>
<path d="M218.88 255.28C218.88 255.36 218.8 255.36 218.8 255.36H218.48V256.96C218.48 257.04 218.56 257.12 218.64 257.12C218.72 257.12 218.72 257.2 218.72 257.2C218.72 257.28 218.64 257.28 218.64 257.28C218.4 257.28 218.24 257.12 218.24 256.88V255.28H218C217.92 255.28 217.92 255.2 217.92 255.2C217.92 255.12 217.92 255.12 218 255.12H218.24V254.32C218.24 254.24 218.32 254.24 218.32 254.24C218.4 254.24 218.4 254.32 218.4 254.32V255.12H218.72C218.88 255.12 218.88 255.2 218.88 255.28Z" fill="#263238"/>
<path d="M219.6 256.24C219.6 255.6 220.08 255.12 220.64 255.12C221.2 255.12 221.68 255.6 221.68 256.16C221.68 256.24 221.6 256.24 221.6 256.24H219.76C219.76 256.72 220.16 257.12 220.64 257.12C220.96 257.12 221.2 256.96 221.36 256.72C221.36 256.64 221.44 256.64 221.52 256.72C221.6 256.72 221.6 256.8 221.52 256.88C221.36 257.2 221.04 257.36 220.64 257.36C220.08 257.36 219.6 256.88 219.6 256.24ZM219.84 256.08H221.52C221.44 255.68 221.12 255.36 220.72 255.36C220.24 255.36 219.92 255.68 219.84 256.08Z" fill="#263238"/>
<path d="M222.398 255.28C222.398 255.2 222.478 255.2 222.478 255.2C222.558 255.2 222.558 255.28 222.558 255.28V255.76C222.558 255.76 222.558 255.76 222.558 255.68C222.718 255.44 223.038 255.12 223.438 255.12C223.518 255.12 223.518 255.2 223.518 255.2C223.518 255.28 223.438 255.28 223.438 255.28C223.118 255.28 222.958 255.44 222.798 255.6C222.638 255.76 222.558 256 222.558 256.08V257.04C222.558 257.12 222.478 257.12 222.478 257.12C222.398 257.12 222.398 257.04 222.398 257.04V255.28Z" fill="#263238"/>
<path d="M227.519 256.08C227.519 255.68 227.199 255.36 226.799 255.36C226.399 255.36 226.159 255.68 226.159 256.08V257.28C226.159 257.28 226.159 257.36 226.079 257.36C226.079 257.36 226.079 257.36 225.999 257.36V256.16C225.999 255.76 225.679 255.44 225.359 255.44C224.959 255.44 224.719 255.76 224.719 256.16V257.36C224.719 257.36 224.719 257.44 224.639 257.44C224.559 257.44 224.559 257.36 224.559 257.36V256.16V255.44C224.559 255.36 224.639 255.36 224.639 255.36C224.719 255.36 224.719 255.44 224.719 255.44V255.68C224.879 255.52 225.119 255.36 225.359 255.36C225.679 255.36 225.999 255.52 226.159 255.84C226.319 255.6 226.639 255.36 226.959 255.36C227.439 255.36 227.839 255.76 227.839 256.24V257.44C227.839 257.52 227.759 257.52 227.759 257.52C227.679 257.52 227.679 257.44 227.679 257.44V256.08H227.519Z" fill="#263238"/>
<path d="M228.48 256.88C228.48 256.8 228.56 256.8 228.64 256.88C228.8 256.96 229.04 257.12 229.28 257.12C229.44 257.12 229.6 257.04 229.68 256.96C229.76 256.88 229.84 256.8 229.84 256.72C229.84 256.64 229.76 256.56 229.68 256.48C229.6 256.4 229.44 256.32 229.2 256.32C229.04 256.32 228.8 256.24 228.72 256.16C228.56 256.08 228.48 255.92 228.48 255.76C228.48 255.6 228.56 255.44 228.72 255.36C228.88 255.28 229.04 255.2 229.28 255.2C229.6 255.2 229.76 255.36 229.92 255.44C230 255.44 230 255.52 229.92 255.6C229.92 255.68 229.84 255.68 229.76 255.6C229.6 255.52 229.44 255.36 229.2 255.36C229.04 255.36 228.88 255.44 228.8 255.52C228.72 255.6 228.64 255.68 228.64 255.76C228.64 255.84 228.72 255.92 228.8 256C228.88 256.08 229.04 256.16 229.28 256.16C229.52 256.16 229.68 256.24 229.84 256.32C230 256.4 230.08 256.56 230.08 256.8C230.08 256.96 230 257.12 229.84 257.28C229.68 257.36 229.52 257.44 229.28 257.44C228.96 257.44 228.64 257.28 228.48 257.12C228.4 256.96 228.4 256.96 228.48 256.88Z" fill="#263238"/>
<path d="M233.04 255.12C233.6 255.12 234.08 255.6 234.08 256.24C234.08 256.8 233.6 257.36 233.04 257.36C232.48 257.36 232 256.88 232 256.24C232 255.68 232.48 255.12 233.04 255.12ZM233.04 257.12C233.52 257.12 233.84 256.72 233.84 256.24C233.84 255.76 233.44 255.36 233.04 255.36C232.56 255.36 232.24 255.76 232.24 256.24C232.24 256.72 232.64 257.12 233.04 257.12Z" fill="#263238"/>
<path d="M235.759 254.32C235.759 254.4 235.679 254.4 235.679 254.4C235.519 254.4 235.439 254.4 235.439 254.48C235.359 254.56 235.359 254.64 235.359 254.88V255.12H235.679C235.759 255.12 235.759 255.2 235.759 255.2C235.759 255.28 235.679 255.28 235.679 255.28H235.359V257.2C235.359 257.28 235.279 257.28 235.279 257.28C235.199 257.28 235.199 257.2 235.199 257.2V255.28H234.879C234.799 255.28 234.799 255.2 234.799 255.2C234.799 255.12 234.879 255.12 234.879 255.12H235.199V254.88C235.199 254.64 235.279 254.48 235.359 254.4C235.439 254.32 235.599 254.24 235.839 254.24C235.679 254.24 235.759 254.24 235.759 254.32Z" fill="#263238"/>
<path d="M237.6 256.88C237.6 256.8 237.68 256.8 237.76 256.88C237.92 256.96 238.16 257.12 238.4 257.12C238.56 257.12 238.72 257.04 238.8 256.96C238.88 256.88 238.96 256.8 238.96 256.72C238.96 256.64 238.88 256.56 238.8 256.48C238.72 256.4 238.56 256.32 238.32 256.32C238.16 256.32 237.92 256.24 237.84 256.16C237.68 256.08 237.6 255.92 237.6 255.76C237.6 255.6 237.68 255.44 237.84 255.36C238 255.28 238.16 255.2 238.4 255.2C238.72 255.2 238.88 255.36 239.04 255.44C239.12 255.44 239.12 255.52 239.04 255.6C239.04 255.68 238.96 255.68 238.88 255.6C238.72 255.52 238.56 255.36 238.32 255.36C238.16 255.36 238 255.44 237.92 255.52C237.84 255.6 237.76 255.68 237.76 255.76C237.76 255.84 237.84 255.92 237.92 256C238 256.08 238.16 256.16 238.4 256.16C238.64 256.16 238.8 256.24 238.96 256.32C239.12 256.4 239.2 256.56 239.2 256.8C239.2 256.96 239.12 257.12 238.96 257.28C238.8 257.36 238.64 257.44 238.4 257.44C238.08 257.44 237.76 257.28 237.6 257.12C237.6 256.96 237.52 256.96 237.6 256.88Z" fill="#263238"/>
<path d="M239.76 256.24C239.76 255.6 240.24 255.12 240.8 255.12C241.36 255.12 241.84 255.6 241.84 256.16C241.84 256.24 241.76 256.24 241.76 256.24H240C240 256.72 240.4 257.12 240.88 257.12C241.2 257.12 241.44 256.96 241.6 256.72C241.6 256.64 241.68 256.64 241.76 256.72C241.84 256.72 241.84 256.8 241.76 256.88C241.6 257.2 241.28 257.36 240.88 257.36C240.24 257.36 239.76 256.88 239.76 256.24ZM240 256.08H241.68C241.6 255.68 241.28 255.36 240.88 255.36C240.48 255.36 240.08 255.68 240 256.08Z" fill="#263238"/>
<path d="M242.559 255.28C242.559 255.2 242.639 255.2 242.639 255.2C242.719 255.2 242.719 255.28 242.719 255.28V255.76C242.719 255.76 242.719 255.76 242.719 255.68C242.879 255.44 243.199 255.12 243.599 255.12C243.679 255.12 243.679 255.2 243.679 255.2C243.679 255.28 243.599 255.28 243.599 255.28C243.279 255.28 243.119 255.44 242.959 255.6C242.799 255.76 242.719 256 242.719 256.08V257.04C242.719 257.12 242.639 257.12 242.639 257.12C242.559 257.12 242.559 257.04 242.559 257.04V255.28Z" fill="#263238"/>
<path d="M245.278 257.36C245.198 257.28 245.198 257.36 245.278 257.36L244.398 255.36C244.398 255.28 244.398 255.28 244.478 255.2C244.558 255.2 244.638 255.2 244.638 255.28L245.358 257.04L246.078 255.28C246.078 255.2 246.158 255.2 246.238 255.2C246.318 255.2 246.318 255.28 246.318 255.36L245.518 257.28C245.518 257.28 245.518 257.28 245.518 257.36C245.358 257.36 245.358 257.36 245.278 257.36Z" fill="#263238"/>
<path d="M247.119 254.56C247.119 254.48 247.199 254.48 247.199 254.48C247.279 254.48 247.279 254.56 247.279 254.56V254.64C247.279 254.72 247.199 254.72 247.199 254.72C247.119 254.72 247.119 254.64 247.119 254.64V254.56ZM247.119 255.28C247.119 255.2 247.199 255.2 247.199 255.2C247.279 255.2 247.279 255.28 247.279 255.28V257.28C247.279 257.36 247.199 257.36 247.199 257.36C247.119 257.36 247.119 257.28 247.119 257.28V255.28Z" fill="#263238"/>
<path d="M248.24 256.24C248.24 255.6 248.72 255.12 249.36 255.12C249.6 255.12 249.84 255.2 250.08 255.36C250.16 255.36 250.16 255.44 250.08 255.52C250.08 255.6 250 255.6 249.92 255.52C249.76 255.36 249.6 255.36 249.36 255.36C248.88 255.36 248.48 255.76 248.48 256.24C248.48 256.72 248.88 257.12 249.36 257.12C249.6 257.12 249.76 257.04 249.92 256.96C250 256.96 250 256.96 250.08 256.96C250.16 257.04 250.08 257.04 250.08 257.12C249.92 257.28 249.68 257.36 249.36 257.36C248.72 257.36 248.24 256.88 248.24 256.24Z" fill="#263238"/>
<path d="M250.719 256.24C250.719 255.6 251.199 255.12 251.759 255.12C252.319 255.12 252.799 255.6 252.799 256.16C252.799 256.24 252.719 256.24 252.719 256.24H250.879C250.879 256.72 251.279 257.12 251.759 257.12C252.079 257.12 252.319 256.96 252.479 256.72C252.479 256.64 252.559 256.64 252.639 256.72C252.719 256.72 252.719 256.8 252.639 256.88C252.479 257.2 252.159 257.36 251.759 257.36C251.199 257.36 250.719 256.88 250.719 256.24ZM250.959 256.08H252.639C252.559 255.68 252.239 255.36 251.839 255.36C251.359 255.36 251.039 255.68 250.959 256.08Z" fill="#263238"/>
<path d="M152.319 252.88H146.799V258.4H152.319V252.88Z" stroke="#EBEBEB" stroke-width="0.8" stroke-miterlimit="10"/>
<path d="M243.201 179.44C243.201 180.08 242.641 180.64 242.001 180.64C241.361 180.64 240.801 180.08 240.801 179.44C240.801 178.8 241.361 178.24 242.001 178.24C242.641 178.32 243.201 178.8 243.201 179.44Z" fill="#A6A6A6"/>
<path d="M244.08 182.64H240.08C240.08 181.52 240.96 180.64 242.08 180.64C243.12 180.64 244 181.6 244.08 182.64Z" fill="#A6A6A6"/>
<path d="M239.997 206.88C239.757 206.72 239.517 206.48 239.277 206.32H244.637C244.397 206.48 244.157 206.72 243.917 206.88C243.677 207.04 243.437 207.28 243.197 207.44C242.957 207.68 242.717 207.84 242.477 208.08C242.317 208.24 242.077 208.4 241.917 208.56C241.757 208.4 241.517 208.24 241.357 208.08C241.117 207.84 240.877 207.68 240.637 207.44C240.477 207.28 240.237 207.12 239.997 206.88Z" fill="#A6A6A6"/>
<path d="M244.717 206.4V209.84H239.357V206.4C239.597 206.64 239.837 206.8 239.997 207.04C240.237 207.28 240.477 207.44 240.637 207.6C240.877 207.84 241.117 208 241.357 208.24C241.357 208.24 241.357 208.24 241.277 208.24C241.117 208.32 240.957 208.4 240.797 208.48C240.637 208.56 240.397 208.72 240.237 208.88C240.077 209.04 239.917 209.12 239.677 209.28C239.517 209.44 239.357 209.52 239.197 209.68C239.357 209.6 239.597 209.44 239.757 209.36C239.917 209.28 240.157 209.12 240.317 208.96C240.477 208.8 240.637 208.72 240.877 208.56C241.037 208.48 241.117 208.32 241.277 208.24C241.437 208.4 241.677 208.56 241.837 208.72C241.997 208.56 242.237 208.4 242.397 208.24C242.557 208.32 242.637 208.48 242.797 208.56C242.957 208.72 243.117 208.8 243.357 208.96C243.517 209.12 243.677 209.2 243.917 209.36C244.077 209.44 244.317 209.6 244.477 209.68C244.317 209.52 244.157 209.44 243.997 209.28C243.837 209.12 243.677 209.04 243.437 208.88C243.277 208.72 243.117 208.64 242.877 208.48C242.717 208.4 242.557 208.32 242.397 208.24C242.397 208.24 242.397 208.24 242.317 208.24C242.557 208 242.797 207.84 243.037 207.6C243.277 207.44 243.517 207.2 243.677 207.04C244.317 206.8 244.477 206.56 244.717 206.4Z" fill="#A6A6A6"/>
<path d="M241.999 234.32C240.399 234.32 239.279 235.68 239.279 235.68C239.279 235.68 240.399 237.04 241.999 237.04C243.599 237.04 244.719 235.68 244.719 235.68C244.719 235.68 243.599 234.32 241.999 234.32ZM241.999 236.64C241.519 236.64 241.039 236.24 241.039 235.68C241.039 235.2 241.439 234.72 241.999 234.72C242.559 234.72 242.959 235.12 242.959 235.68C242.959 236.16 242.559 236.64 241.999 236.64Z" fill="#A6A6A6"/>
<path d="M242.639 235.68C242.639 236 242.399 236.32 241.999 236.32C241.679 236.32 241.359 236.08 241.359 235.68C241.359 235.36 241.599 235.04 241.999 235.04C242.399 235.04 242.639 235.36 242.639 235.68Z" fill="#A6A6A6"/>
<path d="M223.199 272.4H176.879V286.4H223.199V272.4Z" fill="#A766FE"/>
<path d="M185.36 280.48C185.52 280.32 185.76 280.32 185.92 280.4C186.24 280.64 186.8 280.96 187.28 280.96C187.6 280.96 188 280.88 188.16 280.72C188.4 280.56 188.48 280.4 188.48 280.24C188.48 280.16 188.48 280.08 188.4 280C188.32 279.92 188.32 279.84 188.16 279.76C187.92 279.6 187.6 279.52 187.2 279.44C186.88 279.36 186.56 279.28 186.24 279.2C186 279.04 185.76 278.88 185.6 278.64C185.52 278.48 185.44 278.24 185.44 278.08C185.44 277.68 185.68 277.28 186 277.04C186.32 276.8 186.8 276.64 187.2 276.64C187.92 276.64 188.4 276.96 188.8 277.2C188.96 277.28 189.04 277.52 188.88 277.68C188.8 277.84 188.56 277.92 188.4 277.76C188 277.52 187.68 277.28 187.28 277.28C186.96 277.28 186.64 277.36 186.48 277.52C186.32 277.68 186.24 277.84 186.24 278C186.24 278.08 186.24 278.16 186.32 278.24C186.32 278.32 186.4 278.4 186.48 278.4C186.64 278.56 186.96 278.64 187.36 278.72C187.76 278.8 188.08 278.88 188.32 279.04C188.64 279.2 188.88 279.36 189.04 279.6C189.12 279.76 189.2 280 189.2 280.24C189.2 280.72 188.96 281.12 188.56 281.36C188.24 281.6 187.76 281.76 187.2 281.76C186.4 281.76 185.76 281.36 185.36 281.04C185.28 280.88 185.2 280.64 185.36 280.48Z" fill="white"/>
<path d="M190.32 277.12C190.32 276.88 190.48 276.72 190.72 276.72C190.96 276.72 191.12 276.88 191.12 277.12V281.36C191.12 281.6 190.96 281.76 190.72 281.76C190.48 281.76 190.32 281.6 190.32 281.36V277.12Z" fill="white"/>
<path d="M192.24 279.2C192.24 277.76 193.44 276.64 194.88 276.64C195.52 276.64 196.08 276.88 196.48 277.2C196.64 277.36 196.72 277.6 196.56 277.76C196.4 277.92 196.16 278 196 277.84C195.68 277.6 195.28 277.44 194.88 277.44C194.4 277.44 193.92 277.6 193.6 278C193.28 278.32 193.04 278.8 193.04 279.28C193.04 279.76 193.28 280.16 193.6 280.48C193.92 280.8 194.4 281.04 194.88 281.04C195.2 281.04 195.6 280.96 195.84 280.8V279.84H194.8C194.56 279.84 194.4 279.68 194.4 279.44C194.4 279.2 194.56 279.04 194.8 279.04H196.24C196.48 279.04 196.64 279.2 196.64 279.44V281.04C196.64 281.12 196.64 281.12 196.64 281.2C196.64 281.28 196.56 281.36 196.48 281.36C196 281.68 195.44 281.92 194.88 281.92C193.44 281.76 192.24 280.64 192.24 279.2Z" fill="white"/>
<path d="M199.12 281.36C199.12 281.6 198.96 281.76 198.72 281.76C198.48 281.76 198.32 281.6 198.32 281.36V277.2C198.32 277.04 198.4 276.96 198.48 276.88C198.64 276.72 198.88 276.8 199.04 276.96L201.36 280.16V277.2C201.36 276.96 201.52 276.8 201.76 276.8C202 276.8 202.16 276.96 202.16 277.2V281.36C202.16 281.6 202 281.76 201.76 281.76C201.68 281.76 201.52 281.68 201.44 281.6C201.44 281.6 201.44 281.6 201.44 281.52L199.12 278.32V281.36Z" fill="white"/>
<path d="M208.08 281.76C206.96 281.76 206 280.8 206 279.68V277.12C206 276.88 206.16 276.72 206.4 276.72C206.64 276.72 206.8 276.88 206.8 277.12V279.68C206.8 280.4 207.36 280.96 208.08 280.96C208.8 280.96 209.36 280.4 209.36 279.68V277.12C209.36 276.88 209.52 276.72 209.76 276.72C210 276.72 210.16 276.88 210.16 277.12V279.68C210.16 280.8 209.2 281.76 208.08 281.76Z" fill="white"/>
<path d="M213.44 279.76H212.56V281.28C212.56 281.52 212.4 281.68 212.16 281.68C211.92 281.68 211.76 281.52 211.76 281.28V277.04C211.76 276.8 211.92 276.64 212.16 276.64H213.44C214.32 276.64 214.96 277.36 214.96 278.16C215.04 279.12 214.32 279.76 213.44 279.76ZM212.56 279.04H213.44C213.84 279.04 214.16 278.72 214.16 278.32C214.16 277.92 213.84 277.6 213.44 277.6H212.56V279.04Z" fill="white"/>
<path d="M220.639 124.64C225.72 124.64 229.839 120.521 229.839 115.44C229.839 110.359 225.72 106.24 220.639 106.24C215.558 106.24 211.439 110.359 211.439 115.44C211.439 120.521 215.558 124.64 220.639 124.64Z" fill="#455A64"/>
<path d="M178 156.08C181.578 156.08 184.48 153.179 184.48 149.6C184.48 146.021 181.578 143.12 178 143.12C174.421 143.12 171.52 146.021 171.52 149.6C171.52 153.179 174.421 156.08 178 156.08Z" fill="#EBEBEB"/>
<path d="M213.119 153.28C210.959 154.64 208.559 155.68 205.919 156.32C199.119 158 192.399 156.72 186.879 153.28C181.519 150 177.359 144.64 175.759 138C172.479 124.64 180.719 111.12 194.079 107.84C207.439 104.56 220.959 112.8 224.239 126.16C226.879 136.88 222.079 147.76 213.119 153.28Z" fill="#A766FE"/>
<path d="M207.598 129.2C207.598 133.36 204.238 136.8 199.998 136.8C195.838 136.8 192.398 133.44 192.398 129.2C192.398 125.04 195.758 121.6 199.998 121.6C204.238 121.6 207.598 125.04 207.598 129.2Z" fill="white"/>
<path d="M213.119 150.16V153.28C210.959 154.64 208.559 155.68 205.919 156.32C199.119 158 192.399 156.72 186.879 153.28V150.16C186.879 142.96 192.719 137.04 199.999 137.04C207.279 137.04 213.119 142.88 213.119 150.16Z" fill="white"/>
<path d="M229.679 174.24C229.279 172 229.279 169.76 229.679 167.44C230.159 169.76 230.159 172 229.679 174.24Z" fill="#263238"/>
<path d="M224.878 176.4C222.958 175.12 221.358 173.52 220.078 171.6C221.998 172.88 223.598 174.48 224.878 176.4Z" fill="#263238"/>
<path d="M223.038 181.28C220.798 181.68 218.558 181.68 216.238 181.28C218.478 180.88 220.798 180.88 223.038 181.28Z" fill="#263238"/>
<path d="M225.118 186.08C223.838 188 222.238 189.6 220.318 190.88C221.678 189.04 223.278 187.44 225.118 186.08Z" fill="#263238"/>
<path d="M230.079 188C230.479 190.24 230.479 192.48 230.079 194.8C229.679 192.48 229.679 190.24 230.079 188Z" fill="#263238"/>
<path d="M234.879 185.84C236.799 187.12 238.399 188.72 239.679 190.64C237.759 189.36 236.159 187.76 234.879 185.84Z" fill="#263238"/>
<path d="M236.799 180.96C239.039 180.56 241.279 180.56 243.599 180.96C241.279 181.36 239.039 181.36 236.799 180.96Z" fill="#263238"/>
<path d="M234.639 176.16C235.919 174.24 237.519 172.64 239.439 171.36C238.079 173.28 236.479 174.88 234.639 176.16Z" fill="#263238"/>
<path d="M270.722 105.2C270.722 105.2 276.322 144.16 275.922 147.84C275.522 151.52 270.962 187.44 270.962 187.44C270.962 187.44 260.722 185.2 257.762 183.44C255.602 182.16 248.082 175.68 248.082 175.68C248.082 175.68 260.882 150.64 261.922 145.6C262.962 140.56 263.682 115.92 264.882 110.96C266.082 106 270.802 104.32 270.802 104.32" fill="#EFBE00"/>
<path d="M258.642 159.2C259.282 160.64 260.482 161.76 261.762 162.64C262.482 163.12 263.842 164.16 264.242 162.8C264.402 162.4 264.242 161.84 264.082 161.28C263.762 160.32 263.122 159.44 262.642 158.8C261.922 157.92 260.642 156.64 259.362 156.88C258.082 157.12 258.242 158.32 258.642 159.2Z" fill="#263238"/>
<path d="M266.882 165.44C267.122 167.12 267.522 168.88 268.802 170.08C269.362 170.64 270.002 170.88 270.482 170.48C271.042 170.16 271.282 169.2 271.282 168.56C271.442 166.96 271.122 165.28 270.402 163.76C269.922 162.88 269.122 161.6 267.842 161.84C266.322 162.16 266.722 164.32 266.882 165.44Z" fill="#263238"/>
<path d="M260.642 164.8C259.922 165.36 260.642 167.44 261.282 168.4C262.082 169.68 263.442 171.12 264.642 170.56C265.202 170.32 265.282 168.72 264.002 166.8C262.802 164.96 261.202 164.4 260.642 164.8Z" fill="#263238"/>
<path d="M257.121 176.32C257.361 176.88 258.001 177.84 258.721 177.84C259.361 177.84 259.521 177.2 259.521 176.64C259.521 176.08 259.361 175.12 259.041 174.32C258.721 173.28 258.081 172.4 257.121 172.32C255.121 172.24 256.721 175.68 257.121 176.32Z" fill="#263238"/>
<path d="M318.641 286.72C318.641 286.72 336.081 317.52 336.081 317.6C338.881 323.84 341.201 329.36 342.161 332.32C342.161 332.32 342.161 332.32 342.161 332.4C342.481 333.52 342.641 334.24 342.561 334.56V334.64C341.281 336.72 292.241 360.56 290.241 360.8C288.241 361.04 287.361 355.44 288.561 352.96C289.761 350.48 304.401 332.96 304.401 332.96L287.281 302L318.641 286.72Z" fill="#EB9481"/>
<path d="M291.041 360.48C293.041 360.24 341.281 336.56 342.561 334.48C342.561 334.48 342.561 334.48 342.561 334.4C342.641 334.16 342.481 333.36 342.161 332.24C342.161 332.24 342.161 332.24 342.161 332.16C341.201 329.2 338.881 323.68 336.081 317.44C336.081 317.44 333.121 312.08 332.001 310.16L300.801 326.32L304.401 332.72C304.401 332.72 290.481 350.08 289.281 352.48C288.161 355.12 289.041 360.72 291.041 360.48Z" fill="#EBEBEB"/>
<path d="M290.161 359.84C292.161 359.52 341.041 334.32 342.321 332.24C342.801 331.44 339.521 324.08 335.361 315.36C335.281 315.28 335.281 315.2 335.201 315.12L303.521 331.04L303.841 331.6C303.841 331.6 289.441 349.6 288.321 352.08C287.121 354.48 288.161 360.16 290.161 359.84Z" fill="#EFBE00"/>
<path d="M289.76 357.68C297.92 353.2 331.12 336.08 339.52 332.32C339.6 332.32 339.6 332.32 339.52 332.4C331.52 336.96 298.16 353.84 289.84 357.84C289.6 357.84 289.52 357.76 289.76 357.68Z" fill="white"/>
<path d="M301.2 332.96C304.16 330.72 308.32 329.12 312 330.16C312.16 330.16 312.08 330.4 312 330.4C308.32 331.04 304.96 331.92 301.44 333.36C301.12 333.44 300.96 333.12 301.2 332.96Z" fill="#263238"/>
<path d="M299.519 335.52C302.479 333.28 306.639 331.68 310.319 332.72C310.479 332.72 310.399 332.96 310.319 332.96C306.639 333.6 303.279 334.48 299.759 335.92C299.519 336.08 299.359 335.68 299.519 335.52Z" fill="#263238"/>
<path d="M297.92 338.16C300.88 335.92 305.04 334.32 308.72 335.36C308.88 335.36 308.8 335.6 308.72 335.6C305.04 336.24 301.68 337.12 298.16 338.56C297.92 338.64 297.76 338.32 297.92 338.16Z" fill="#263238"/>
<path d="M329.921 324.64C332.561 321.04 338.161 325.12 335.521 328.72C332.881 332.4 327.281 328.32 329.921 324.64Z" fill="white"/>
<path opacity="0.1" d="M301.6 334.16L298.08 356.08C293.68 358.32 290.64 359.76 290.16 359.76C288.16 360.08 287.12 354.4 288.24 351.92C289.12 350.08 297.52 339.28 301.6 334.16Z" fill="black"/>
<path d="M288.48 358.48C287.76 359.28 289.52 362.08 290.24 362C290.96 361.92 344.16 334.24 344.96 333.52C345.76 332.88 343.76 329.76 342.64 330.16C341.52 330.56 288.48 358.48 288.48 358.48Z" fill="#263238"/>
<path d="M332.082 307.44L296.962 326.24C296.962 326.24 252.562 263.04 251.682 246.4C250.482 223.44 270.082 150.64 270.082 150.64L301.362 150.4C301.362 150.4 288.642 225.28 289.682 238.08C290.162 244.72 332.082 307.44 332.082 307.44Z" fill="#37474F"/>
<path d="M293.842 318.96C295.682 317.68 312.322 308 324.962 301.84C325.042 301.76 325.122 301.92 325.042 302C321.202 304.56 296.322 318.16 293.922 319.12C293.842 319.12 293.762 319.04 293.842 318.96Z" fill="#263238"/>
<path d="M285.281 222.08C286.721 211.12 288.321 200.16 290.161 189.28C292.001 178.32 293.921 167.36 296.241 156.48C296.481 155.12 296.801 153.84 297.121 152.48C297.201 152.24 297.441 152.32 297.441 152.56C295.521 163.36 293.521 174.08 291.761 184.96C290.001 195.76 288.321 206.56 286.881 217.44C286.481 220.16 286.161 222.8 285.841 225.52C285.521 228.32 285.041 231.12 285.041 233.92C285.041 236.64 285.441 239.2 286.401 241.76C287.361 244.24 288.641 246.56 290.001 248.8C295.681 258.4 320.961 300.16 321.601 301.36C321.681 301.44 321.521 301.52 321.521 301.44C315.441 292 296.561 261.92 290.881 252.16C288.321 247.76 285.361 243.36 284.481 238.24C283.441 232.88 284.561 227.36 285.281 222.08Z" fill="#263238"/>
<path d="M294.24 307.44L294.56 343.12C294.4 349.92 294.08 355.92 293.68 358.96C293.68 358.96 293.68 358.96 293.68 359.04C293.52 360.24 293.36 360.96 293.12 361.12C293.12 361.12 293.12 361.12 293.04 361.2C290.96 362.48 236.4 362.64 234.56 362C232.64 361.36 234.32 355.92 236.4 354.16C238.56 352.48 259.36 343.12 259.36 343.12V307.52L294.24 307.44Z" fill="#EB9481"/>
<path d="M294.56 335.76L294.64 343.04C294.48 349.84 294.16 355.84 293.76 358.88C293.76 358.88 293.76 358.88 293.76 358.96C293.52 360.08 293.36 360.88 293.2 361.04C293.2 361.04 293.2 361.04 293.12 361.12C291.04 362.4 236.48 362.56 234.64 361.92C232.72 361.28 234.4 355.84 236.48 354.08C238.64 352.4 259.44 343.04 259.44 343.04V335.6L294.56 335.76Z" fill="#EBEBEB"/>
<path d="M234.561 361.84C236.481 362.48 291.441 361.52 293.521 360.08C294.321 359.6 294.641 351.52 294.721 341.84C294.721 341.76 294.721 341.6 294.721 341.52L259.281 341.76V342.4C259.281 342.4 238.401 352.16 236.321 353.92C234.241 355.68 232.641 361.28 234.561 361.84Z" fill="#EFBE00"/>
<path d="M235.12 359.68C244.4 359.28 281.76 358.56 290.96 358.88C291.04 358.88 291.04 358.96 290.96 358.96C281.76 359.52 244.4 359.92 235.12 359.84C234.96 359.84 234.96 359.76 235.12 359.68Z" fill="white"/>
<path d="M256.321 342.64C259.921 341.92 264.401 342.4 267.281 344.96C267.361 345.04 267.281 345.2 267.121 345.2C263.521 344.16 260.161 343.44 256.321 343.12C256.081 343.04 256.081 342.64 256.321 342.64Z" fill="#263238"/>
<path d="M253.76 344.24C257.36 343.52 261.84 344 264.72 346.56C264.8 346.64 264.72 346.8 264.56 346.8C260.96 345.76 257.6 345.04 253.76 344.72C253.52 344.64 253.44 344.32 253.76 344.24Z" fill="#263238"/>
<path d="M251.119 345.84C254.719 345.12 259.199 345.6 262.079 348.16C262.159 348.24 262.079 348.4 261.919 348.4C258.319 347.36 254.959 346.64 251.119 346.32C250.879 346.32 250.879 345.92 251.119 345.84Z" fill="#263238"/>
<path d="M233.68 359.92C232.72 360.32 232.96 363.6 233.68 363.84C234.4 364.08 294.32 362.8 295.36 362.56C296.4 362.32 295.92 358.64 294.72 358.48C293.52 358.32 233.68 359.92 233.68 359.92Z" fill="#263238"/>
<path d="M285.76 347.92C289.68 345.84 292.96 352 288.96 354.08C285.04 356.16 281.84 350 285.76 347.92Z" fill="white"/>
<path d="M270.4 150.48C270.64 151.12 281.84 181.92 282.88 182.4C284.08 182.96 258.08 226.64 256.56 246.96C255.6 259.92 257.52 333.36 257.52 333.36H295.52C295.52 333.36 293.68 267.36 292.8 246.4C292.48 238.32 318.88 197.92 319.2 172.72C319.28 164.8 313.6 150.32 313.6 150.32L270.4 150.48Z" fill="#37474F"/>
<path d="M292.641 245.92C292.641 245.6 292.881 245.44 292.961 245.84C293.841 257.2 294.001 268.4 294.561 279.76C295.121 291.04 294.801 293.76 295.281 305.12C295.601 311.52 295.281 317.92 295.441 324.32C295.441 324.4 295.281 324.4 295.281 324.32C294.081 313.04 292.641 252.32 292.641 245.92Z" fill="#263238"/>
<path d="M256.561 247.44C256.641 244.64 256.801 241.84 257.361 239.12C257.841 236.4 258.721 233.84 259.681 231.28C261.761 226 264.241 220.8 266.641 215.6C269.041 210.32 271.521 205.12 274.001 199.92C275.441 197.04 276.881 194.08 278.321 191.2C279.761 188.24 281.361 185.36 282.881 182.48C282.961 182.4 283.121 182.48 283.041 182.56C280.641 187.76 278.161 193.04 275.761 198.24C273.361 203.44 270.961 208.72 268.561 214C266.241 219.2 263.841 224.32 261.601 229.52C260.561 232 259.521 234.56 258.881 237.2C258.241 239.92 257.921 242.72 257.761 245.52C257.361 252 257.201 258.56 256.561 265.04C256.561 265.12 256.401 265.12 256.401 265.04C256.321 259.2 256.401 253.28 256.561 247.44Z" fill="#263238"/>
<path d="M260.241 325.92C262.481 325.6 279.281 325.04 293.361 325.68C293.441 325.68 293.441 325.84 293.361 325.84C288.801 326.24 262.801 326.4 260.241 326.16C260.241 326.08 260.161 325.92 260.241 325.92Z" fill="#263238"/>
<path d="M277.68 180.72C281.76 181.68 285.76 183.2 289.6 184.88C289.76 184.96 289.68 185.2 289.52 185.12C285.52 183.84 281.44 182.72 277.52 181.2C277.2 181.12 277.36 180.64 277.68 180.72Z" fill="#263238"/>
<path d="M273.84 154.72C273.84 154.56 274.08 154.56 274.08 154.64C274.48 159.2 275.2 163.12 276 167.36C276.4 169.28 279.04 180 282.4 178.88C282.96 178.72 283.2 178.08 283.2 177.2C283.2 176.16 282.72 174.96 282.4 173.92C281.76 171.68 281.28 169.44 280.8 167.12C280 162.88 279.52 158.56 279.6 154.24C279.6 154.08 279.84 154.08 279.84 154.24C280.48 160.16 281.2 166.08 282.72 171.92C283.44 174.72 285.28 178.8 282.4 179.52C279.44 180.24 276.72 173.36 276.16 171.44C274.64 166.08 274 160.24 273.84 154.72Z" fill="#263238"/>
<path d="M282.399 179.2C282.799 179.92 283.119 180.64 283.359 181.36C283.599 181.92 283.839 182.56 283.839 183.2C283.839 183.36 283.679 183.36 283.599 183.28C283.119 182.8 282.879 182.16 282.639 181.52C282.319 180.88 281.999 180.16 281.679 179.52C281.439 179.04 282.159 178.72 282.399 179.2Z" fill="#263238"/>
<path d="M288.72 257.04C288.56 251.6 287.92 246 289.68 240.72C290.56 238.16 291.92 235.76 293.12 233.36C294.4 230.8 295.76 228.24 297.04 225.68C302.08 215.44 306.88 204.96 311.2 194.4C313.28 189.28 315.12 184 315.84 178.56C316.64 172.8 316.08 166.96 314.8 161.28C314.48 159.84 314.16 158.48 313.76 157.12C313.76 157.04 313.92 156.96 313.92 157.04C315.6 162.4 316.8 167.92 316.88 173.52C316.96 178.96 315.76 184.16 314 189.28C312.16 194.56 309.92 199.76 307.68 204.88C305.36 210.16 302.96 215.44 300.48 220.64C298 225.84 295.36 230.96 292.72 236C291.44 238.48 290.32 241.04 289.84 243.76C289.36 246.56 289.44 249.44 289.52 252.24C290 264.16 290.96 304 291.12 315.92C291.12 317.44 291.12 318.96 291.2 320.48C291.2 320.64 290.96 320.64 290.96 320.48C290.16 308.72 289.12 268.96 288.72 257.04Z" fill="#263238"/>
<path d="M297.281 158.24C297.281 158.16 297.441 158.16 297.441 158.24C297.921 161.52 298.161 164.96 299.761 167.92C301.201 170.64 303.761 172.4 306.561 173.68C308.161 174.4 309.841 174.96 311.521 175.52C311.601 175.52 311.601 175.76 311.521 175.68C308.401 175.04 305.201 174.32 302.481 172.56C299.521 170.64 298.081 167.68 297.601 164.24C297.121 162.24 297.121 160.24 297.281 158.24Z" fill="#263238"/>
<path d="M315.601 152.88C315.521 153.04 265.521 166.64 264.961 166.32C264.881 166.32 262.801 165.2 262.401 161.28C262.241 160.24 263.681 155.68 263.761 152.24C263.841 140.4 263.441 118.4 266.641 106.56C267.521 103.36 274.321 99.76 278.081 102.08C294.961 112.56 315.681 152.72 315.601 152.88Z" fill="#EBEBEB"/>
<path d="M275.521 101.2C275.521 101.2 277.361 126.4 278.081 129.36C278.561 131.44 284.241 152 287.121 166.88C288.401 173.28 287.761 183.28 287.761 183.28C287.761 183.28 305.201 177.6 310.481 174C313.601 171.92 320.481 162.8 320.481 162.8C320.481 162.8 309.441 138.32 303.201 129.12C296.961 119.92 284.961 104 279.361 101.68C276.881 100.72 275.521 101.2 275.521 101.2Z" fill="#EFBE00"/>
<path d="M306.723 143.68C305.923 144 305.443 144.88 305.203 145.92C304.723 147.2 304.643 148.8 304.803 149.92C304.883 150.64 305.203 151.68 306.163 151.52C307.203 151.36 307.603 149.76 307.843 148.88C308.163 148 308.883 142.72 306.723 143.68ZM299.283 149.76C298.243 150.64 298.403 152.32 298.563 153.52C298.723 154.32 298.963 155.36 299.523 156.24C299.763 156.72 300.163 157.2 300.563 157.36C301.843 157.92 301.923 156.24 302.003 155.36C302.163 153.84 302.163 152.16 301.443 150.72C301.043 149.92 300.243 149.04 299.283 149.76ZM302.883 140.08C302.083 140 301.683 140.56 301.443 141.36C301.123 142.32 301.043 143.6 301.123 144.24C301.203 144.8 301.283 145.84 301.923 146.08C302.563 146.32 303.123 145.68 303.283 145.12C303.763 144.16 304.643 140.24 302.883 140.08ZM290.803 180.8C290.163 182.08 288.963 181.04 287.923 179.76C287.923 178.32 288.003 176.56 287.923 174.64C288.003 174.72 288.083 174.8 288.163 174.88C288.963 175.6 290.003 176.8 290.483 178.16C290.963 179.04 291.203 180 290.803 180.8ZM296.483 180.24L294.643 180.88C293.523 180.16 292.563 178.24 292.323 177.52C292.163 176.96 292.083 176.08 292.723 175.92C293.363 175.68 294.163 176.4 294.563 176.72C295.043 177.12 295.843 178.16 296.163 179.12C296.483 179.52 296.563 179.92 296.483 180.24ZM291.843 137.04C292.643 136.96 293.283 138.08 293.683 138.64C294.243 139.52 294.563 140.64 294.643 141.68C294.723 142.32 294.963 143.6 294.403 144.08C293.683 144.64 293.043 144 292.563 143.12C291.523 141.92 291.043 140.16 291.123 138.64C290.963 138.08 291.043 137.12 291.843 137.04ZM297.523 159.44C296.483 160.16 296.963 161.68 297.363 162.64C298.003 164.16 299.043 165.52 300.403 166.4C300.963 166.8 301.843 167.28 302.403 167.04C303.043 166.96 303.283 166.32 303.203 165.52C303.043 163.84 302.003 162.32 300.883 161.12C300.163 160.24 298.803 158.48 297.523 159.44ZM303.843 159.76C304.483 162 305.763 162.96 306.323 162.72C307.443 162.24 307.283 160.24 306.803 158.8C306.483 157.68 305.363 155.76 304.483 155.92C303.763 156.08 303.203 157.68 303.843 159.76ZM280.723 120.56C280.483 121.52 279.843 122.48 279.443 123.12C278.963 123.76 278.323 124.48 277.603 124.96C277.443 123.68 277.283 122.08 277.203 120.48C277.603 120.08 278.003 119.76 278.483 119.44C279.123 118.96 280.403 117.84 280.963 119.12C280.963 119.44 280.883 120 280.723 120.56ZM284.403 119.76C285.603 120 286.403 118.64 286.803 117.68C287.443 116.16 287.683 114.48 287.443 112.88C287.363 112.24 287.043 111.28 286.483 110.96C286.003 110.56 285.363 110.8 284.803 111.44C283.683 112.72 283.283 114.48 283.203 116.16C283.123 117.36 282.883 119.52 284.403 119.76ZM280.243 115.04C279.203 116.88 277.603 117.6 276.963 117.2C276.883 117.12 276.803 117.04 276.723 116.88C276.723 116.56 276.643 116.24 276.643 115.92C276.723 115.12 277.043 114.16 277.443 113.6C278.163 112.32 279.443 110.8 280.643 111.28C281.283 111.44 281.443 112.96 280.243 115.04ZM314.003 159.12C313.443 159.92 313.683 160.96 314.243 161.84C314.643 162.64 315.283 163.36 315.763 163.68C316.163 164 316.803 164.4 317.203 163.84C317.603 163.28 317.283 162.24 317.043 161.68C316.723 160.96 315.203 157.52 314.003 159.12ZM298.323 132.24C297.683 132.72 297.603 133.6 297.763 134.4C297.923 135.12 298.163 135.84 298.403 136.24C298.643 136.64 298.963 137.04 299.443 136.72C299.923 136.4 299.923 135.52 299.923 135.04C299.923 134.4 299.683 131.36 298.323 132.24Z" fill="#263238"/>
<path d="M270.16 114.16C272.96 113.52 275.36 106.08 275.52 102.08C275.52 101.84 274.48 100.48 272.8 97.84C271.76 96.24 270.72 94.4 269.84 92.72L260.4 100.72C260.4 100.72 263.28 103.76 264.72 106.8C264.88 107.04 264.96 107.28 265.04 107.52C265.04 107.52 265.04 107.6 265.12 107.68C265.6 109.12 267.44 114.8 270.16 114.16Z" fill="#EB9481"/>
<path d="M266.32 109.28C266.16 109.36 265.92 109.44 265.76 109.6C265.44 108.8 265.2 108.16 265.12 107.76C265.12 107.68 265.12 107.68 265.04 107.6C264.96 107.36 264.88 107.12 264.8 106.88C263.28 103.84 260.4 100.8 260.4 100.8L269.84 92.8C270 93.12 270.24 93.52 270.4 93.92C271.52 97.76 272.8 105.84 266.32 109.28Z" fill="#263238"/>
<path d="M265.361 81.12C268.481 84.32 272.081 96.32 270.641 100.16C268.561 105.68 262.241 109.36 256.881 106.16C251.601 103.12 247.201 87.36 249.121 83.52C251.761 78.08 260.721 76.4 265.361 81.12Z" fill="#EB9481"/>
<path d="M258.08 93.68C258.08 93.68 258.16 93.68 258.16 93.76C258.4 94.56 258.88 95.44 259.68 95.44V95.52C258.72 95.68 258.16 94.48 258.08 93.68Z" fill="#263238"/>
<path d="M258.48 92.64C259.76 92.08 260.8 94.56 259.6 95.12C258.48 95.6 257.44 93.04 258.48 92.64Z" fill="#263238"/>
<path d="M253.6 95.6C253.6 95.6 253.52 95.68 253.6 95.68C253.92 96.48 254.24 97.36 253.6 97.92V98C254.4 97.52 254 96.24 253.6 95.6Z" fill="#263238"/>
<path d="M252.561 95.04C251.281 95.44 252.241 98 253.441 97.6C254.561 97.28 253.601 94.72 252.561 95.04Z" fill="#263238"/>
<path d="M258.799 90.56C258.399 90.64 258.079 90.64 257.679 90.64C257.279 90.64 256.879 90.72 256.559 90.48C256.319 90.4 256.239 90 256.319 89.84C256.559 89.36 257.039 89.2 257.599 89.12C258.159 89.04 258.639 89.12 259.039 89.44C259.519 89.76 259.279 90.48 258.799 90.56Z" fill="#263238"/>
<path d="M250.719 93.36C251.039 93.12 251.279 92.88 251.599 92.72C251.919 92.48 252.239 92.32 252.399 91.84C252.479 91.6 252.319 91.28 252.079 91.2C251.599 90.96 251.119 91.2 250.639 91.52C250.159 91.84 249.919 92.24 249.759 92.72C249.599 93.2 250.239 93.6 250.719 93.36Z" fill="#263238"/>
<path d="M261.919 100.24C261.839 100.48 261.759 100.8 261.439 100.96C261.199 101.12 260.799 101.12 260.479 101.12C260.479 101.12 260.399 101.12 260.479 101.2C260.799 101.44 261.279 101.44 261.679 101.2C261.999 100.96 262.079 100.64 261.999 100.24C261.999 100.16 261.999 100.16 261.919 100.24Z" fill="#263238"/>
<path d="M260.161 98.24C260.001 99.12 259.521 99.76 258.881 100.16C258.561 100.32 258.241 100.48 257.921 100.56C257.841 100.56 257.761 100.64 257.761 100.64C257.681 100.64 257.681 100.64 257.601 100.72C257.521 100.72 257.441 100.72 257.361 100.64V100.56V100.48C257.121 99.92 256.801 98.96 256.801 98.96C256.641 99.2 255.681 100.16 255.601 99.84C254.641 97.2 253.681 94.24 253.281 91.36C253.281 91.28 253.441 91.2 253.441 91.36C254.401 93.92 254.961 96.56 255.921 99.12C256.241 98.8 256.721 98.32 257.041 98.24C257.121 98.24 257.601 100.08 257.761 100.32C258.801 100 259.441 99.44 260.161 98.32C260.081 98.08 260.161 98.16 260.161 98.24Z" fill="#263238"/>
<path d="M269.76 92.72C267.44 93.12 265.52 87.6 265.52 87.6C265.52 87.6 262.4 87.44 259.84 82.64C259.84 82.64 259.6 88.24 250.08 90.16C250.08 90.16 248.8 88.16 249.2 85.12C249.2 85.12 248.72 87.28 248.48 90.8C248.48 90.8 243.76 83.92 249.44 79.04C251.68 77.12 255.68 76 262.64 77.04C262.64 77.04 262.64 73.04 263.44 73.28C264.32 73.52 264.08 77.28 264.08 77.28C264.08 77.28 266.48 75.6 267.04 76C267.6 76.32 265.28 77.84 265.28 77.84C265.28 77.84 269.76 77.76 270.56 82.64C271.44 87.28 270.88 92.56 269.76 92.72Z" fill="#263238"/>
<path d="M264.56 78.16C266.88 77.28 269.6 78.32 270.72 80.56C271.36 81.84 271.52 83.36 271.44 84.72C271.44 86.24 271.12 87.68 270.72 89.12C270.72 89.2 270.56 89.12 270.56 89.04C270.96 87.76 271.04 86.32 270.96 84.96C270.88 83.68 270.8 82.32 270.32 81.12C269.44 78.72 266.88 77.6 264.48 78.24C264.56 78.32 264.48 78.24 264.56 78.16Z" fill="#263238"/>
<path d="M254.239 76.16C255.919 76 257.599 76.08 259.279 76.32C260.879 76.56 262.479 76.96 263.839 77.68C263.919 77.68 263.839 77.84 263.759 77.84C260.879 76.88 257.679 76.64 254.639 76.8C251.839 76.88 248.719 77.92 247.439 80.64C247.439 80.72 247.359 80.64 247.359 80.64C248.559 77.84 251.519 76.48 254.239 76.16Z" fill="#263238"/>
<path d="M267.602 91.68C267.602 91.68 268.402 86.88 270.402 86.96C272.482 87.04 273.122 93.2 271.522 94.8C269.922 96.48 268.402 95.04 268.402 95.04L267.602 91.68Z" fill="#EB9481"/>
<path d="M270.562 88.8C270.562 88.72 270.642 88.8 270.562 88.8C269.522 90.08 269.442 91.6 269.522 93.12C269.682 92.4 270.082 91.92 270.962 92.08C271.042 92.08 271.042 92.16 270.962 92.16C270.322 92.32 270.002 92.56 269.842 93.2C269.762 93.6 269.762 94.16 269.762 94.56C269.762 94.72 269.522 94.72 269.522 94.56C268.642 92.88 268.802 89.84 270.562 88.8Z" fill="#263238"/>
<path d="M285.68 113.44C289.76 127.68 292.32 154.4 290.24 159.28C288.4 163.6 274.72 173.6 266.8 178.96C264.24 180.72 251.84 161.04 254.64 159.36C258.48 157.04 272.4 147.84 272.72 146.88C273.12 145.76 274.32 125.76 276.48 114.24C278.48 103.76 284.16 108.08 285.68 113.44Z" fill="#EB9481"/>
<path d="M228.48 182.48C230.4 184.48 234.88 179.28 234.88 179.28C234.88 179.28 234.4 181.12 235.36 182.72C236.4 184.56 239.76 183.68 239.76 183.68C239.76 183.68 239.68 185.68 240.88 187.2C242.08 188.8 245.52 188.4 245.52 188.4C245.52 188.4 246.48 190.24 248.48 190.96C251.84 192.08 255.76 188.24 258.72 186.4C261.84 184.4 266.16 180.16 267.68 178L256 158.96C256 158.96 239.52 163.04 236.72 166.08C234.32 168.64 225.52 179.44 228.48 182.48Z" fill="#EB9481"/>
<path d="M234.881 179.2C236.721 175.92 239.361 173.04 241.921 170.32C242.001 170.24 242.081 170.32 242.001 170.4C239.441 173.04 237.521 176.48 235.041 179.28C234.961 179.36 234.881 179.28 234.881 179.2Z" fill="#263238"/>
<path d="M239.68 183.36C240.08 182.64 240.8 182.08 241.44 181.44C242.08 180.8 242.8 180.16 243.44 179.6C244.8 178.4 246.16 177.2 247.6 176C247.68 175.92 247.76 176 247.68 176.08C246.32 177.28 245.04 178.56 243.68 179.84C243.04 180.48 242.4 181.12 241.76 181.76C241.2 182.4 240.56 183.04 239.84 183.52C239.76 183.6 239.6 183.44 239.68 183.36Z" fill="#263238"/>
<path d="M245.602 188.4C245.922 187.76 246.722 187.28 247.282 186.8C247.922 186.24 248.562 185.68 249.122 185.12C250.402 184 251.602 182.88 252.802 181.76C252.882 181.68 252.962 181.76 252.882 181.84C251.682 183.04 250.482 184.16 249.202 185.36C248.562 185.92 248.002 186.48 247.362 187.04C246.882 187.52 246.322 188.16 245.602 188.4Z" fill="#263238"/>
<path d="M292.961 146.24L270.881 146.48C270.881 146.48 273.681 122.16 276.721 111.6C279.281 102.72 284.641 103.52 287.521 115.04C290.321 125.92 292.961 146.24 292.961 146.24Z" fill="#EFBE00"/>
<path d="M292.561 143.2C292.561 143.12 292.481 143.12 292.481 143.04C291.441 141.84 290.961 140.08 290.961 138.64C290.961 138.16 291.041 137.2 291.601 137.04C292.001 139.52 292.321 141.6 292.561 143.2ZM275.361 122.96C275.921 121.44 277.041 120.32 278.321 119.36C278.961 118.88 280.241 117.76 280.801 119.04C280.961 119.44 280.881 120 280.721 120.56C280.481 121.52 279.841 122.48 279.441 123.12C278.721 124.08 277.601 125.36 276.241 125.2C274.961 125.04 275.041 123.84 275.361 122.96ZM283.201 116.24C283.361 114.56 283.681 112.8 284.801 111.52C285.361 110.88 285.921 110.72 286.481 111.04C287.041 111.36 287.281 112.24 287.441 112.96C287.681 114.56 287.521 116.24 286.801 117.76C286.401 118.72 285.601 120 284.401 119.84C282.881 119.52 283.121 117.36 283.201 116.24ZM277.041 117.2C276.321 116.72 276.881 114.56 277.521 113.52C278.241 112.24 279.521 110.72 280.721 111.2C281.281 111.44 281.521 112.96 280.321 115.04C279.201 116.88 277.601 117.6 277.041 117.2ZM275.681 139.76C275.521 140.32 275.201 141.44 274.561 141.6C273.921 141.76 273.601 141.12 273.521 140.64C273.361 140.08 273.281 139.12 273.361 138.24C273.441 137.2 273.761 136.16 274.721 135.84C276.561 135.28 275.841 139.04 275.681 139.76Z" fill="#263238"/>
<path d="M273.841 141.92C275.281 141.68 276.641 141.68 278.081 141.6C279.521 141.52 280.961 141.52 282.481 141.44C283.921 141.44 289.761 141.52 291.201 141.52C291.281 141.52 291.281 141.6 291.201 141.6C289.761 141.68 284.001 142 282.561 142C281.121 142 279.681 142.08 278.321 142.08C276.721 142.16 275.281 142.16 273.841 141.92C273.761 142 273.761 141.92 273.841 141.92Z" fill="#263238"/>
<path d="M288.48 119.04C290.48 128.08 292.32 137.12 293.04 146.4C292.24 146.4 291.52 146.4 290.72 146.32C291.44 146.24 292.16 146.24 292.96 146.24C291.52 137.84 289.76 127.76 288.48 119.04Z" fill="#263238"/>
<path d="M289.52 120.24C289.92 121.6 289.92 123.04 289.52 124.4C289.36 122.96 289.36 121.6 289.52 120.24Z" fill="#263238"/>
<path d="M79.3613 312.56C79.3613 312.56 93.0413 309.44 100.561 302.56C108.081 295.68 112.241 283.28 112.241 283.28C112.241 283.28 104.161 284.72 96.8813 287.28C95.6813 288.56 93.3613 291.28 92.2413 293.84C92.2413 293.84 92.0013 291.12 92.2413 289.12C90.3213 290 88.5613 291.04 87.3613 292.08C81.1213 297.52 79.3613 312.56 79.3613 312.56Z" fill="#A766FE"/>
<path d="M103.681 289.28C105.521 288 107.441 286.72 109.281 285.44C109.361 285.36 109.281 285.2 109.201 285.28C105.681 287.36 102.161 289.6 98.8013 292C97.6013 292.8 96.4812 293.68 95.3612 294.56C95.4412 294.4 95.5213 294.32 95.6013 294.16C96.0013 293.44 96.4813 292.8 96.8813 292.16C97.7612 290.8 98.7212 289.44 99.7612 288.32C99.8412 288.24 99.7612 288.24 99.6812 288.24C98.6413 289.44 97.5212 290.72 96.5612 292C96.0812 292.64 95.6812 293.28 95.2812 293.92C95.0413 294.24 94.8813 294.64 94.6413 294.96C94.5613 295.04 94.4813 295.2 94.4013 295.28C92.6413 296.64 90.8813 298.08 89.2812 299.68C88.2413 300.64 87.2813 301.6 86.3213 302.64C86.8813 300.96 87.2813 299.28 87.9213 297.68C87.9213 297.6 87.8413 297.6 87.8413 297.68C87.2813 299.36 86.5612 301.12 86.1612 302.88C85.1212 304 84.0813 305.2 83.2013 306.4C83.2013 306.32 83.2013 306.24 83.2812 306.16C83.4412 305.52 83.6012 304.88 83.7612 304.24C84.0812 303.04 84.4812 301.76 84.8813 300.56C85.7613 298.08 86.8812 295.68 88.5612 293.6C88.5612 293.52 88.5613 293.52 88.4813 293.52C85.8413 296.72 84.2413 300.48 83.2812 304.48C83.1213 305.04 82.9613 305.68 82.8813 306.24C82.8013 306.56 82.7213 306.88 82.6413 307.2C82.2413 307.76 81.8413 308.32 81.4413 308.88C79.0413 312.4 77.2013 316.24 75.6813 320.24C73.9213 324.72 72.5613 329.28 71.2812 333.92C71.2812 334 71.3613 334.08 71.4413 333.92C74.0813 325.92 76.8813 317.76 81.4413 310.64C82.4013 309.12 83.4412 307.68 84.5612 306.24C86.8012 306.08 89.1213 305.6 91.2013 304.88C93.5213 304.08 95.7613 303.04 97.8413 301.68C99.0413 300.88 100.161 300 101.281 299.12C101.361 299.04 101.281 299.04 101.201 299.04C99.3613 300.64 97.1213 301.84 94.9612 302.8C92.7212 303.84 90.4013 304.56 88.0813 305.12C87.0413 305.36 86.0813 305.52 85.0413 305.68C86.3213 304.16 87.6813 302.64 89.0413 301.2C89.5213 300.72 90.0012 300.32 90.4813 299.84C92.0813 298.72 93.7613 297.76 95.5213 296.96C97.7613 295.84 100.001 294.72 102.161 293.6C103.441 292.96 104.641 292.32 105.921 291.68C106.001 291.68 105.921 291.6 105.841 291.6C103.601 292.72 101.281 293.68 99.0413 294.72C96.8813 295.68 94.7213 296.72 92.7213 297.84C92.6413 297.92 92.5613 297.92 92.4813 298C94.3213 296.4 96.2413 294.88 98.2413 293.36C100.001 291.92 101.841 290.56 103.681 289.28Z" fill="#263238"/>
<path d="M102.88 296.32C101.76 296.8 100.64 297.2 99.5202 297.76C98.4002 298.32 97.2802 298.88 96.2402 299.52C96.1602 299.52 96.2402 299.6 96.3202 299.6C97.4402 299.04 98.4802 298.56 99.6002 298.08C100.72 297.52 101.76 296.96 102.96 296.4C102.96 296.4 102.96 296.32 102.88 296.32Z" fill="#263238"/>
<path d="M34.959 243.6C34.959 243.6 38.799 248 39.039 254.96C39.119 256.16 38.879 257.92 38.719 259.92C43.839 262.64 47.679 267.52 47.679 267.52C44.799 265.76 40.799 265.04 38.639 265.36C38.719 266.72 38.879 268.08 39.199 269.44C40.159 269.36 41.999 269.52 45.039 270.56C45.039 270.56 42.079 270.48 39.839 271.6C42.239 279.36 49.519 287.36 69.519 290.72C69.519 290.72 73.359 277.12 65.999 262.56C59.919 250.8 34.959 243.6 34.959 243.6Z" fill="#A766FE"/>
<path d="M76.3182 324C75.9982 320.72 75.5182 317.36 75.0382 314.08C73.9982 307.52 72.7182 300.96 71.0382 294.48C70.2382 291.44 69.2782 288.48 68.1582 285.52C68.2382 284.96 68.2382 284.48 68.2382 283.92C68.2382 283.28 68.2382 282.64 68.2382 282C68.2382 280.72 68.1582 279.44 68.0782 278.16C67.8382 275.6 67.5182 273.12 66.8782 270.64C66.4782 269.2 66.0782 267.84 65.6782 266.4C65.6782 266.32 65.5982 266.4 65.5982 266.4C66.3182 268.8 66.7182 271.36 67.0382 273.92C67.3582 276.4 67.5982 278.88 67.6782 281.44C67.6782 282.16 67.6782 282.8 67.6782 283.52C67.6782 283.84 67.6782 284.08 67.6782 284.4C66.7182 282 65.5982 279.68 64.3182 277.44C62.3182 273.84 59.9982 270.48 57.4382 267.2C57.4382 266.8 57.3582 266.4 57.2782 266.08C57.1982 265.6 57.1182 265.2 56.9582 264.72C56.7182 263.84 56.5582 262.88 56.2382 262C55.7582 260.16 55.1182 258.4 54.4782 256.64C54.4782 256.56 54.3982 256.64 54.3982 256.64C54.9582 258.4 55.2782 260.24 55.6782 262.08C55.9182 262.96 56.0782 263.84 56.2382 264.72C56.3182 265.2 56.3982 265.6 56.5582 266.08V266.16C55.7582 265.12 54.9582 264.16 54.0782 263.12C50.2382 258.64 46.0782 254.48 41.8382 250.4C41.3582 249.92 40.7982 249.44 40.2382 248.88C40.1582 248.8 40.1582 248.88 40.1582 248.96C44.1582 253.2 48.1582 257.44 51.9182 261.84C52.7982 262.88 53.6782 264 54.5582 265.04C54.0782 264.72 53.6782 264.4 53.1982 264.16C51.9982 263.36 50.8782 262.64 49.6782 262C48.4782 261.28 47.2782 260.64 45.9982 260C44.7182 259.36 43.3582 258.88 42.0782 258.16C41.9982 258.16 41.9982 258.24 41.9982 258.24C43.2782 258.8 44.4782 259.6 45.6782 260.24C46.8782 260.96 48.0782 261.68 49.2782 262.48C50.4782 263.2 51.5982 264 52.7982 264.72C53.7582 265.36 54.7182 266.08 55.7582 266.64C58.0782 269.6 60.2382 272.72 62.1582 276C63.3582 278.08 64.4782 280.16 65.4382 282.32C65.1982 282.24 64.9582 282.08 64.7182 282C64.0782 281.76 63.5182 281.44 62.8782 281.2C61.6782 280.64 60.4782 280.16 59.3582 279.68C57.1182 278.72 54.7982 277.84 52.6382 276.72C51.4382 276.08 50.1582 275.52 49.0382 274.72C48.9582 274.72 48.9582 274.8 48.9582 274.8C53.0382 277.6 57.6782 279.6 62.2382 281.6L64.2382 282.48C64.7982 282.72 65.3582 282.96 65.9182 283.2C67.2782 286.24 68.3982 289.28 69.2782 292.48C71.1182 298.8 72.4782 305.36 73.5982 311.84C74.7182 318.4 75.5182 324.96 76.1582 331.6C76.2382 332.4 76.3182 333.28 76.3982 334.08C76.3982 334.4 76.9582 334.4 76.9582 334.08C77.0382 330.64 76.7182 327.28 76.3182 324Z" fill="#263238"/>
<path d="M64.1587 268.72C63.7587 266.72 63.2787 264.72 62.7187 262.72C62.7187 262.64 62.6387 262.72 62.6387 262.72C63.1187 264.64 63.5187 266.64 63.8387 268.64C64.2387 270.64 64.5587 272.72 64.7987 274.72H64.8787C64.7987 272.72 64.5587 270.72 64.1587 268.72Z" fill="#263238"/>
<path d="M55.5186 274.24C54.1586 273.28 52.6386 272.56 51.1986 271.76C50.4786 271.36 49.7586 271.04 48.9586 270.64C48.1586 270.24 47.4386 270 46.6386 269.6C46.5586 269.6 46.5586 269.68 46.5586 269.68C47.2786 270.08 47.9986 270.48 48.7186 270.88C49.4386 271.28 50.1586 271.68 50.9586 272.08C52.3986 272.88 53.8386 273.76 55.3586 274.4C55.5986 274.48 55.6786 274.32 55.5186 274.24Z" fill="#263238"/>
<path opacity="0.1" d="M79.5977 288.88C79.5977 288.88 92.2377 285.84 98.0777 277.36C103.598 269.28 105.438 255.44 105.598 254.24C105.358 255.36 102.718 267.44 94.1577 273.04C87.5177 277.36 81.1177 280.88 79.5977 288.88Z" fill="#263238"/>
<path d="M91.2787 266.96C89.0387 269.12 87.3587 271.6 86.6387 274.64C87.5987 271.84 89.1987 269.12 91.2787 266.96C91.4387 267.04 91.3587 266.96 91.2787 266.96Z" fill="#263238"/>
<path d="M79.5996 288.88C79.5996 288.88 92.2396 285.84 98.0796 277.36C103.6 269.28 105.44 255.44 105.6 254.24C105.6 254.16 105.6 254.16 105.6 254.16C105.6 254.16 99.5196 262.8 93.1196 264.96C86.7196 267.12 77.7596 274.72 79.5996 288.88Z" fill="#A766FE"/>
<path d="M103.359 258.88C102.159 261.2 100.959 263.44 99.4386 265.6C97.9986 267.68 96.2386 269.36 94.2386 270.96C92.5586 272.32 90.7186 273.6 88.9586 274.88V274.8C89.2786 274.32 89.5986 273.84 89.9986 273.36C90.7186 272.4 91.5186 271.52 92.3186 270.72C93.9186 269.04 95.5186 267.36 96.8786 265.52C97.6786 264.48 98.3186 263.44 98.8786 262.24C98.8786 262.16 98.7986 262.16 98.7986 262.24C96.7186 266.48 92.6386 269.28 89.7586 272.88C89.3586 273.36 88.9586 273.92 88.5586 274.48C88.3186 274.88 87.9986 275.28 87.8386 275.76C86.2386 277.04 84.7986 278.48 83.5186 280.16C83.5986 279.36 83.8386 278.48 83.9986 277.68C84.3186 276.56 84.7186 275.52 85.3586 274.48C85.3586 274.4 85.2786 274.4 85.2786 274.4C84.7186 275.36 84.1586 276.48 83.8386 277.6C83.5986 278.48 83.4386 279.44 83.3586 280.32C82.7186 281.2 82.1586 282.08 81.6786 282.96C81.7586 282.72 81.7586 282.4 81.8386 282.16C82.0786 280.88 82.3986 279.68 82.7186 278.4C83.3586 275.84 84.3186 273.44 85.7586 271.28C85.7586 271.2 85.6786 271.2 85.6786 271.2C84.2386 273.36 83.1186 275.68 82.3186 278.16C81.9186 279.44 81.5986 280.64 81.2786 281.92C81.1186 282.56 81.0386 283.2 80.8786 283.76C80.7986 284.08 80.7186 284.4 80.7186 284.72C79.4386 287.44 78.4786 290.4 77.8386 293.28C76.5586 298.56 75.7586 303.92 75.1186 309.28C74.4786 314.88 74.1586 320.64 74.2386 326.24C74.2386 326.96 74.3186 327.68 74.3186 328.4C74.3186 328.56 74.6386 328.64 74.6386 328.4C74.7986 325.6 74.7986 322.8 75.0386 320C75.1986 317.2 75.4386 314.4 75.7586 311.6C76.3186 306.08 77.1986 300.64 78.3986 295.2C79.4386 290.56 80.7186 285.92 83.2786 281.84C84.5586 279.84 86.0786 278 87.8386 276.4C89.5986 274.8 91.5186 273.44 93.4386 271.92C95.2786 270.48 97.1186 268.88 98.5586 266.96C100.159 264.96 101.439 262.72 102.559 260.4C102.799 260.08 103.119 259.52 103.359 258.88C103.439 258.88 103.359 258.8 103.359 258.88Z" fill="#263238"/>
<path d="M101.118 260.72C100.318 262.4 99.3584 264.08 98.3184 265.68C98.3184 265.68 98.3184 265.76 98.3984 265.68C99.5184 264.16 100.398 262.48 101.278 260.72C101.278 260.72 101.198 260.64 101.118 260.72Z" fill="#263238"/>
<path d="M33.1997 283.28C33.1997 283.28 32.9597 301.28 43.7597 306.48C54.4797 311.68 60.3197 307.36 67.5997 309.12C67.2797 308.72 62.0797 301.2 53.8397 299.12C45.1997 296.88 35.7597 290.72 33.1997 283.28Z" fill="#A766FE"/>
<path opacity="0.1" d="M33.1997 283.28C33.1997 283.28 32.9597 301.28 43.7597 306.48C54.4797 311.68 60.3197 307.36 67.5997 309.12C67.2797 308.96 61.9997 306.32 55.3597 305.52C48.5597 304.64 35.5997 300.16 33.1997 283.28Z" fill="black"/>
<path d="M68.2398 309.36C66.9598 308.24 65.5198 307.2 63.9998 306.48C63.7598 306.4 63.5198 306.24 63.2798 306.16C63.1998 306 63.0398 305.84 62.8798 305.76C62.5598 305.44 62.2398 305.12 61.8398 304.8C61.1998 304.24 60.4798 303.68 59.6798 303.2C57.9198 302.16 55.9198 301.44 54.1598 300.48C54.0798 300.48 54.0798 300.56 54.0798 300.56C54.9598 301.04 55.8398 301.52 56.7198 302.08C57.5998 302.56 58.4798 303.04 59.2798 303.6C59.9998 304.08 60.7198 304.64 61.4398 305.2C61.5998 305.36 61.8398 305.52 61.9998 305.76C60.7998 305.36 59.5998 305.04 58.3998 304.8C56.3998 304.4 54.3998 304.16 52.4798 303.68C51.5198 303.44 50.5598 303.2 49.5998 302.88C48.7198 302.16 47.8398 301.44 46.9598 300.64C45.9198 299.68 45.0398 298.64 44.1598 297.52C44.1598 297.44 44.0798 297.52 44.0798 297.6C45.4398 299.28 46.7998 301.04 48.4798 302.48C47.9998 302.32 47.5198 302.08 47.1198 301.92C43.4398 300.24 40.2398 297.6 37.9198 294.32C37.9198 294.24 37.8398 294.32 37.8398 294.4C39.8398 297.28 42.3198 299.68 45.2798 301.52C46.7198 302.4 48.3198 303.2 49.9998 303.76C51.9198 304.4 53.8398 304.8 55.8398 305.12C57.7598 305.44 59.6798 305.84 61.5198 306.48C63.1998 307.04 64.8798 307.92 66.3198 308.96C69.1198 311.04 71.1998 313.84 72.7998 316.96C74.7998 321.04 75.8398 325.6 76.3198 330.08C76.3198 330.24 76.6398 330.24 76.6398 330.08C76.0798 322.48 74.0798 314.64 68.2398 309.36Z" fill="#263238"/>
<path d="M55.7608 303.52C55.2008 302.64 54.4008 302 53.5208 301.52C52.4808 300.96 51.6008 300.32 50.8808 299.36C50.8808 299.28 50.8008 299.36 50.8008 299.44C51.4408 300.24 52.2408 300.96 53.1208 301.52C54.0808 302 55.0408 302.64 55.7608 303.52C55.8408 303.52 55.7608 303.6 55.7608 303.52Z" fill="#263238"/>
<path d="M61.5195 322.64L61.9995 332.56L63.4395 362.72H85.9995L87.5195 332.56L87.9995 322.64H61.5195Z" fill="#455A64"/>
<path d="M61.5195 322.64L61.9995 332.56H87.5195L87.9995 322.64H61.5195Z" fill="#263238"/>
<path d="M59.904 327.987H89.584V318.547H59.904V327.987Z" fill="#455A64"/>
</svg>
