<svg width="6" height="10" viewBox="0 0 6 10" fill="none" xmlns="http://www.w3.org/2000/svg">
<path d="M0.575195 9.55C0.450195 9.425 0.387695 9.277 0.387695 9.106C0.387695 8.93533 0.450195 8.7875 0.575195 8.6625L4.2377 5L0.562695 1.325C0.446029 1.20833 0.387695 1.0625 0.387695 0.8875C0.387695 0.7125 0.450195 0.5625 0.575195 0.4375C0.700195 0.3125 0.848195 0.25 1.0192 0.25C1.18986 0.25 1.3377 0.3125 1.4627 0.4375L5.6627 4.65C5.7127 4.7 5.7482 4.75417 5.7692 4.8125C5.78986 4.87083 5.8002 4.93333 5.8002 5C5.8002 5.06667 5.78986 5.12917 5.7692 5.1875C5.7482 5.24583 5.7127 5.3 5.6627 5.35L1.4502 9.5625C1.33353 9.67917 1.18986 9.7375 1.0192 9.7375C0.848195 9.7375 0.700195 9.675 0.575195 9.55Z" fill="#828282"/>
</svg>
