<svg width="48" height="48" viewBox="0 0 48 48" fill="none" xmlns="http://www.w3.org/2000/svg">
<g clip-path="url(#clip0_22_22903)">
<path d="M8.20022 24.0539V31.556C8.20022 32.2492 7.69532 32.1297 6.77622 33.0889C6.27522 33.6139 5.39322 33.2739 5.39622 32.5479C5.40122 30.9759 5.41522 28.2879 5.40422 23.4949C5.40222 22.9079 6.01222 22.5189 6.54422 22.7678L7.74042 23.3298C7.87789 23.3944 7.99413 23.4968 8.07555 23.625C8.15698 23.7532 8.20022 23.902 8.20022 24.0539ZM46.5962 14.1629L25.8312 4.40689C25.2586 4.13686 24.6333 3.99683 24.0002 3.99683C23.3671 3.99683 22.7419 4.13686 22.1692 4.40689L1.40522 14.1629C-0.472279 15.0443 -0.463879 17.7085 1.40522 18.5859L7.74822 21.5659C7.97022 21.6709 8.23122 21.5509 8.30122 21.3149C8.40275 20.9757 8.57805 20.6632 8.81456 20.3997C9.05106 20.1362 9.34292 19.9283 9.66922 19.7909L22.3132 14.4719C22.7212 14.3009 23.1902 14.4919 23.3612 14.8999C23.5322 15.3069 23.3412 15.7759 22.9342 15.9469L10.2902 21.2659C10.145 21.3268 10.0211 21.4293 9.93393 21.5604C9.84675 21.6915 9.80024 21.8454 9.80022 22.0029V33.1259C8.17952 33.4992 6.90022 34.9583 6.90022 36.7789V41.9419C6.90022 42.1469 6.97922 42.3449 7.12122 42.4929C9.03252 44.5064 12.2674 44.5069 14.1792 42.4929C14.3212 42.3446 14.4003 42.1472 14.4002 41.9419V36.8459C14.4002 35.0209 13.1042 33.4639 11.4002 33.1069V31.4889C13.8532 31.8609 16.0002 33.9229 16.0002 36.8459V40.4669C16.0002 40.8449 16.2642 41.1719 16.6332 41.2509C24.7272 42.9809 33.0982 41.7799 40.3492 37.9729C41.7382 37.2439 42.6002 35.8189 42.6002 34.2529V23.4909C42.6002 22.9049 41.9902 22.5169 41.4602 22.7669L26.5122 29.7899C24.8892 30.5529 23.0562 30.5259 21.4882 29.7899L11.86 25.266C11.7225 25.2014 11.6063 25.099 11.5249 24.9708C11.4435 24.8425 11.4002 24.6938 11.4002 24.5419C11.4002 23.9556 12.0099 23.5684 12.5405 23.8178L22.1692 28.342C23.3337 28.8882 24.6648 28.8891 25.8312 28.342L46.5952 18.586C48.4682 17.7067 48.4686 15.0429 46.5962 14.1629Z" fill="url(#paint0_linear_22_22903)"/>
</g>
<defs>
<linearGradient id="paint0_linear_22_22903" x1="0.000244141" y1="3.99683" x2="47.5065" y2="42.0332" gradientUnits="userSpaceOnUse">
<stop stop-color="#FF8A00"/>
<stop offset="1" stop-color="#FFD226"/>
</linearGradient>
<clipPath id="clip0_22_22903">
<rect width="48" height="48" fill="white"/>
</clipPath>
</defs>
</svg>
