<svg width="68" height="68" viewBox="0 0 68 68" fill="#A766FE" xmlns="http://www.w3.org/2000/svg">
<path d="M34 67.3334C29.6226 67.3334 25.2881 66.4712 21.2439 64.7961C17.1997 63.1209 13.5251 60.6656 10.4298 57.5703C4.17858 51.3191 0.666687 42.8406 0.666687 34.0001C0.666687 25.1595 4.17858 16.6811 10.4298 10.4299C16.681 4.17864 25.1595 0.666748 34 0.666748C38.3774 0.666748 42.7119 1.52894 46.7561 3.2041C50.8003 4.87925 54.475 7.33457 57.5702 10.4299C60.6655 13.5251 63.1208 17.1998 64.796 21.244C66.4712 25.2882 67.3334 29.6227 67.3334 34.0001C67.3334 42.8406 63.8215 51.3191 57.5702 57.5703C51.319 63.8215 42.8406 67.3334 34 67.3334ZM34 17.3334L17.3334 34.0001H27.3334V47.3334H40.6667V34.0001H50.6667L34 17.3334Z" fill="#A766FEE2CEFF"/>
</svg>
