<svg width="24" height="24" viewBox="0 0 24 24" fill="none" xmlns="http://www.w3.org/2000/svg">
<path d="M22 5.90741C21.2504 6.23479 20.4565 6.44944 19.644 6.54441C20.4968 6.04364 21.138 5.24951 21.448 4.31041C20.64 4.78074 19.7587 5.11201 18.841 5.29041C18.4545 4.88561 17.9897 4.5638 17.4748 4.34459C16.9598 4.12538 16.4056 4.01337 15.846 4.01541C13.58 4.01541 11.743 5.82541 11.743 8.05541C11.743 8.37141 11.779 8.68041 11.849 8.97541C10.2236 8.8981 8.63212 8.48282 7.17617 7.75605C5.72022 7.02928 4.43176 6.00699 3.393 4.75441C3.02883 5.36881 2.83742 6.07019 2.839 6.78441C2.8397 7.45237 3.00683 8.10964 3.32529 8.6968C3.64375 9.28397 4.1035 9.78252 4.663 10.1474C4.01248 10.1264 3.37602 9.95273 2.805 9.64041V9.69041C2.805 11.6484 4.22 13.2814 6.095 13.6534C5.74261 13.7469 5.37958 13.7943 5.015 13.7944C4.75 13.7944 4.493 13.7694 4.242 13.7194C4.51008 14.5273 5.02311 15.2317 5.70982 15.7347C6.39653 16.2378 7.22284 16.5145 8.074 16.5264C6.61407 17.651 4.82182 18.2585 2.979 18.2534C2.647 18.2534 2.321 18.2334 2 18.1974C3.88125 19.3881 6.06259 20.0187 8.289 20.0154C15.836 20.0154 19.962 13.8584 19.962 8.51941L19.948 7.99641C20.7529 7.43008 21.4481 6.72225 22 5.90741Z" fill="white"/>
</svg>
