<svg width="48" height="48" viewBox="0 0 48 48" fill="none" xmlns="http://www.w3.org/2000/svg">
<g clip-path="url(#clip0_22_22909)">
<path fill-rule="evenodd" clip-rule="evenodd" d="M33.488 10.036H1.30163C0.956709 10.037 0.626196 10.1745 0.382303 10.4183C0.13841 10.6622 0.000964805 10.9928 0 11.3377L0 36.6624C0.000989532 37.0073 0.138445 37.3378 0.382336 37.5817C0.626226 37.8256 0.956725 37.963 1.30163 37.964H33.488C33.8329 37.963 34.1633 37.8255 34.4072 37.5817C34.6511 37.3378 34.7886 37.0073 34.7896 36.6624V11.3377C34.7885 10.9928 34.6511 10.6623 34.4072 10.4185C34.1633 10.1746 33.8329 10.0371 33.488 10.036ZM36.3375 29.1919L37.6741 29.9636C37.6877 29.9714 37.7009 29.9796 37.7138 29.9883L46.8357 35.2545C46.9533 35.3246 47.0877 35.3618 47.2246 35.362C47.3615 35.3622 47.496 35.3256 47.6138 35.2558L47.6131 35.2545C47.7339 35.1897 47.8341 35.0923 47.9025 34.9735C47.9709 34.8547 48.0047 34.7191 48 34.582V13.4182C48.0029 13.2818 47.97 13.1471 47.9047 13.0274L47.9033 13.0282C47.8523 12.9393 47.7842 12.8614 47.7029 12.7989C47.6217 12.7365 47.5288 12.6907 47.4298 12.6643C47.3307 12.6379 47.2275 12.6314 47.1259 12.6451C47.0243 12.6589 46.9265 12.6926 46.838 12.7443L46.8387 12.7456L37.6745 18.0366C37.6603 18.0448 37.646 18.0524 37.6315 18.0596L36.3375 18.8063V29.1919ZM25.8263 14.633C25.6209 14.633 25.424 14.5514 25.2788 14.4062C25.1336 14.261 25.0521 14.0641 25.0521 13.8588C25.0521 13.6535 25.1336 13.4565 25.2788 13.3114C25.424 13.1662 25.6209 13.0846 25.8263 13.0846H29.8317C30.037 13.0846 30.234 13.1662 30.3792 13.3114C30.5243 13.4565 30.6059 13.6535 30.6059 13.8588C30.6059 14.0641 30.5243 14.261 30.3792 14.4062C30.234 14.5514 30.037 14.633 29.8317 14.633H25.8263ZM20.9726 20.7213C21.8004 21.549 22.3155 22.6382 22.4302 23.8032C22.5449 24.9681 22.2522 26.1368 21.6018 27.1101C20.9515 28.0835 19.9838 28.8012 18.8636 29.141C17.7434 29.4808 16.54 29.4217 15.4585 28.9737C14.377 28.5257 13.4843 27.7166 12.9325 26.6842C12.3807 25.6519 12.2039 24.4601 12.4322 23.312C12.6606 22.1639 13.28 21.1305 14.1849 20.3878C15.0898 19.6452 16.2241 19.2393 17.3948 19.2393C18.0594 19.2384 18.7176 19.3689 19.3316 19.6232C19.9456 19.8775 20.5033 20.2507 20.9726 20.7213ZM17.3948 17.6906C18.9236 17.6906 20.4053 18.2206 21.5871 19.1905C22.769 20.1604 23.5781 21.51 23.8764 23.0095C24.1748 24.509 23.9439 26.0656 23.2233 27.414C22.5026 28.7624 21.3368 29.8192 19.9243 30.4043C18.5118 30.9895 16.9401 31.0668 15.477 30.6231C14.0139 30.1793 12.75 29.242 11.9005 27.9708C11.051 26.6996 10.6686 25.1732 10.8184 23.6517C10.9681 22.1302 11.6408 20.7076 12.7219 19.6265C13.3348 19.0119 14.0632 18.5244 14.8651 18.1922C15.667 17.86 16.5267 17.6895 17.3948 17.6906Z" fill="url(#paint0_linear_22_22909)"/>
</g>
<defs>
<linearGradient id="paint0_linear_22_22909" x1="0" y1="10.036" x2="33.6696" y2="48.6531" gradientUnits="userSpaceOnUse">
<stop stop-color="#FF8A00"/>
<stop offset="1" stop-color="#FFD226"/>
</linearGradient>
<clipPath id="clip0_22_22909">
<rect width="48" height="48" fill="white"/>
</clipPath>
</defs>
</svg>
